<svg width="576" height="186" viewBox="0 0 576 186" fill="none" xmlns="http://www.w3.org/2000/svg">
  <path
    d="M2.23722 27V6.63636H14.8651V9.28125H5.30966V15.4858H13.9602V18.1207H5.30966V27H2.23722ZM21.9547 27.3381C19.0513 27.3381 16.7942 25.6875 16.7942 22.6847C16.7942 19.2145 19.7573 18.4588 22.6508 18.1207C25.3951 17.8026 26.5087 17.8224 26.5087 16.7386V16.669C26.5087 14.9389 25.5243 13.9347 23.6053 13.9347C21.6067 13.9347 20.4931 14.9787 20.0556 16.0625L17.2616 15.4261C18.2559 12.642 20.8013 11.5284 23.5655 11.5284C25.9917 11.5284 29.4917 12.4134 29.4917 16.858V27H26.5883V24.9119H26.4689C25.9022 26.0554 24.4803 27.3381 21.9547 27.3381ZM22.6011 24.9517C25.0769 24.9517 26.5187 23.3011 26.5187 21.4915V19.5227C26.0911 19.9503 23.8042 20.2088 22.8397 20.3381C21.1195 20.5668 19.7076 21.1335 19.7076 22.7244C19.7076 24.196 20.9207 24.9517 22.6011 24.9517ZM45.13 11.7273L39.5917 27H36.4098L30.8615 11.7273H34.0533L37.9212 23.4801H38.0803L41.9383 11.7273H45.13ZM52.9704 27.3082C48.665 27.3082 45.8511 24.1562 45.8511 19.4332C45.8511 14.6804 48.665 11.5284 52.9704 11.5284C57.2758 11.5284 60.0897 14.6804 60.0897 19.4332C60.0897 24.1562 57.2758 27.3082 52.9704 27.3082ZM52.9804 24.8125C55.7744 24.8125 57.0869 22.3565 57.0869 19.4233C57.0869 16.5 55.7744 14.0142 52.9804 14.0142C50.1664 14.0142 48.8539 16.5 48.8539 19.4233C48.8539 22.3565 50.1664 24.8125 52.9804 24.8125ZM62.5683 27V11.7273H65.4418V14.1534H65.6009C66.1578 12.5128 67.689 11.4986 69.4788 11.4986C69.8566 11.4986 70.4433 11.5284 70.7416 11.5682V14.4119C70.5029 14.3423 69.8069 14.233 69.1904 14.233C67.0825 14.233 65.5413 15.6747 65.5413 17.6733V27H62.5683ZM72.4744 27V11.7273H75.4474V27H72.4744ZM73.9758 9.37074C72.9417 9.37074 72.0965 8.57528 72.0965 7.60085C72.0965 6.62642 72.9417 5.82102 73.9758 5.82102C74.9999 5.82102 75.855 6.62642 75.855 7.60085C75.855 8.57528 74.9999 9.37074 73.9758 9.37074ZM85.7363 11.7273V14.1136H82.6042V22.5156C82.6042 24.2358 83.4692 24.554 84.4337 24.554C84.911 24.554 85.2789 24.4645 85.4778 24.4247L86.0147 26.8807C85.6667 27.0099 85.0303 27.1889 84.0857 27.1989C81.7391 27.2486 79.6212 25.9062 79.6312 23.1321V14.1136H77.3939V11.7273H79.6312V8.06818H82.6042V11.7273H85.7363ZM94.6033 27.3082C90.0991 27.3082 87.3348 24.206 87.3348 19.4631C87.3348 14.7699 90.1388 11.5284 94.3945 11.5284C97.8547 11.5284 101.156 13.6861 101.156 19.2045V20.2585H90.2979C90.3775 23.2017 92.0877 24.8523 94.6331 24.8523C96.3235 24.8523 97.6161 24.1165 98.153 22.6747L100.967 23.1818C100.291 25.6676 97.9343 27.3082 94.6033 27.3082ZM90.3079 18.0312H98.2425C98.2326 15.6946 96.7212 13.9844 94.4144 13.9844C91.9982 13.9844 90.4272 15.8636 90.3079 18.0312Z"
    fill="#fff"
  />
  <rect x=".5" y="74.5" width="111" height="67" rx="7.5" stroke="#8B80DB" stroke-dasharray="10 5" />
  <path
    d="M34 99.82L32.02 105.96H25.4L30.72 109.88L28.7 116.18L34 112.3L39.3 116.18L37.26 109.88L42.6 105.96H35.98L34 99.82Z"
    fill="#fff"
  />
  <path
    d="M72.7 116.18L78 112.3L83.3 116.18L81.26 109.88L86.6 105.96H79.98L78 99.82L76.02 105.96H69.4L74.72 109.88L72.7 116.18ZM73.66 107.36H77.04L78 104.38L78.96 107.36H82.32L79.62 109.34L80.64 112.5L78 110.56L75.34 112.5L76.36 109.34L73.66 107.36Z"
    fill="#949494"
  />
  <path
    d="M205.344 11.9858C205.125 10.1065 203.464 9.01278 201.128 9.01278C198.622 9.01278 197.041 10.2955 197.041 12.0256C197.031 13.9744 199.149 14.7202 200.74 15.1278L202.729 15.6449C205.314 16.2812 208.585 17.7031 208.585 21.3722C208.585 24.8224 205.831 27.3381 201.048 27.3381C196.484 27.3381 193.631 25.0611 193.432 21.3722H196.514C196.693 23.5895 198.662 24.6435 201.028 24.6435C203.643 24.6435 205.543 23.331 205.543 21.3423C205.543 19.5327 203.862 18.8168 201.685 18.2401L199.278 17.5838C196.007 16.6989 193.979 15.0384 193.979 12.2045C193.979 8.6946 197.111 6.35795 201.197 6.35795C205.334 6.35795 208.217 8.72443 208.307 11.9858H205.344ZM218.307 11.7273V14.1136H215.175V22.5156C215.175 24.2358 216.04 24.554 217.005 24.554C217.482 24.554 217.85 24.4645 218.049 24.4247L218.586 26.8807C218.238 27.0099 217.601 27.1889 216.657 27.1989C214.31 27.2486 212.192 25.9062 212.202 23.1321V14.1136H209.965V11.7273H212.202V8.06818H215.175V11.7273H218.307ZM225.201 27.3381C222.297 27.3381 220.04 25.6875 220.04 22.6847C220.04 19.2145 223.003 18.4588 225.897 18.1207C228.641 17.8026 229.755 17.8224 229.755 16.7386V16.669C229.755 14.9389 228.77 13.9347 226.851 13.9347C224.853 13.9347 223.739 14.9787 223.302 16.0625L220.507 15.4261C221.502 12.642 224.047 11.5284 226.811 11.5284C229.238 11.5284 232.738 12.4134 232.738 16.858V27H229.834V24.9119H229.715C229.148 26.0554 227.726 27.3381 225.201 27.3381ZM225.847 24.9517C228.323 24.9517 229.765 23.3011 229.765 21.4915V19.5227C229.337 19.9503 227.05 20.2088 226.086 20.3381C224.365 20.5668 222.954 21.1335 222.954 22.7244C222.954 24.196 224.167 24.9517 225.847 24.9517ZM242.987 11.7273V14.1136H239.855V22.5156C239.855 24.2358 240.72 24.554 241.684 24.554C242.161 24.554 242.529 24.4645 242.728 24.4247L243.265 26.8807C242.917 27.0099 242.281 27.1889 241.336 27.1989C238.99 27.2486 236.872 25.9062 236.882 23.1321V14.1136H234.644V11.7273H236.882V8.06818H239.855V11.7273H242.987ZM255.11 20.6662V11.7273H258.093V27H255.17V24.3551H255.011C254.305 25.9858 252.744 27.1989 250.447 27.1989C247.514 27.1989 245.435 25.2301 245.435 21.4418V11.7273H248.408V21.0838C248.408 23.1619 249.681 24.4943 251.521 24.4943C253.191 24.4943 255.12 23.2614 255.11 20.6662ZM272.692 15.456L269.998 15.9332C269.65 14.9091 268.795 13.8849 266.945 13.8849C265.255 13.8849 263.982 14.7202 263.992 15.8935C263.982 16.9276 264.708 17.4943 266.388 17.892L268.815 18.4489C271.619 19.0952 272.991 20.4276 272.991 22.5852C272.991 25.3494 270.435 27.3082 266.746 27.3082C263.316 27.3082 261.069 25.7869 260.572 23.0824L263.445 22.6449C263.803 24.1463 264.947 24.9119 266.726 24.9119C268.675 24.9119 269.938 23.9872 269.938 22.804C269.938 21.8494 269.252 21.1932 267.78 20.8651L265.195 20.2983C262.332 19.6619 261.019 18.2202 261.019 16.0526C261.019 13.348 263.465 11.5284 266.915 11.5284C270.217 11.5284 272.076 13.0795 272.692 15.456Z"
    fill="#fff"
  />
  <rect x="192.5" y="74.5" width="383" height="111" rx="7.5" stroke="#8B80DB" stroke-dasharray="10 5" />
  <path
    d="M225.44 108.56L228.32 111.44 229.44 110.32 226.8 107.66V103.4H225.2V108C225.2 108.22 225.3 108.42 225.44 108.56zM218.2 108C218.2 112.36 221.64 115.8 226 115.8 230.38 115.8 233.8 112.24 233.8 108 233.8 103.64 230.36 100.2 226 100.2 221.64 100.2 218.2 103.64 218.2 108zM219.8 108C219.8 104.52 222.52 101.8 226 101.8 229.48 101.8 232.2 104.52 232.2 108 232.2 111.38 229.48 114.2 226 114.2 222.52 114.2 219.8 111.48 219.8 108zM355.552 106.448L357.856 108.752 358.752 107.856 356.64 105.728V102.32H355.36V106C355.36 106.176 355.44 106.336 355.552 106.448zM349.76 106C349.76 109.488 352.512 112.24 356 112.24 359.504 112.24 362.24 109.392 362.24 106 362.24 102.512 359.488 99.76 356 99.76 352.512 99.76 349.76 102.512 349.76 106zM351.04 106C351.04 103.216 353.216 101.04 356 101.04 358.784 101.04 360.96 103.216 360.96 106 360.96 108.704 358.784 110.96 356 110.96 353.216 110.96 351.04 108.784 351.04 106zM473.664 104.336L475.392 106.064 476.064 105.392 474.48 103.796V101.24H473.52V104C473.52 104.132 473.58 104.252 473.664 104.336zM469.32 104C469.32 106.616 471.384 108.68 474 108.68 476.628 108.68 478.68 106.544 478.68 104 478.68 101.384 476.616 99.32 474 99.32 471.384 99.32 469.32 101.384 469.32 104zM470.28 104C470.28 101.912 471.912 100.28 474 100.28 476.088 100.28 477.72 101.912 477.72 104 477.72 106.028 476.088 107.72 474 107.72 471.912 107.72 470.28 106.088 470.28 104z"
    fill="#949494"
  />
  <path
    fill-rule="evenodd"
    clip-rule="evenodd"
    d="M226 159.8C221.64 159.8 218.2 156.36 218.2 152C218.2 147.64 221.64 144.2 226 144.2C230.36 144.2 233.8 147.64 233.8 152C233.8 156.24 230.38 159.8 226 159.8ZM228.32 155.44L225.44 152.56C225.3 152.42 225.2 152.22 225.2 152V147.4H226.8V151.66L229.44 154.32L228.32 155.44Z"
    fill="#767676"
  />
  <path
    d="M270 115.8C274.38 115.8 277.8 112.24 277.8 108 277.8 103.64 274.36 100.2 270 100.2 265.64 100.2 262.2 103.64 262.2 108 262.2 112.36 265.64 115.8 270 115.8zM263.8 108C263.8 104.52 266.52 101.8 270 101.8 273.48 101.8 276.2 104.52 276.2 108 276.2 111.38 273.48 114.2 270 114.2 266.52 114.2 263.8 111.48 263.8 108zM266.52 108.14L269.32 110.96 274.04 106.22 272.92 105.1 269.32 108.68 267.64 107.02 266.52 108.14zM396 112.24C399.504 112.24 402.24 109.392 402.24 106 402.24 102.512 399.488 99.76 396 99.76 392.512 99.76 389.76 102.512 389.76 106 389.76 109.488 392.512 112.24 396 112.24zM391.04 106C391.04 103.216 393.216 101.04 396 101.04 398.784 101.04 400.96 103.216 400.96 106 400.96 108.704 398.784 110.96 396 110.96 393.216 110.96 391.04 108.784 391.04 106zM393.216 106.112L395.456 108.368 399.232 104.576 398.336 103.68 395.456 106.544 394.112 105.216 393.216 106.112zM510 108.68C512.628 108.68 514.68 106.544 514.68 104 514.68 101.384 512.616 99.32 510 99.32 507.384 99.32 505.32 101.384 505.32 104 505.32 106.616 507.384 108.68 510 108.68zM506.28 104C506.28 101.912 507.912 100.28 510 100.28 512.088 100.28 513.72 101.912 513.72 104 513.72 106.028 512.088 107.72 510 107.72 507.912 107.72 506.28 106.088 506.28 104zM507.912 104.084L509.592 105.776 512.424 102.932 511.752 102.26 509.592 104.408 508.584 103.412 507.912 104.084zM270 159.8C274.38 159.8 277.8 156.24 277.8 152 277.8 147.64 274.36 144.2 270 144.2 265.64 144.2 262.2 147.64 262.2 152 262.2 156.36 265.64 159.8 270 159.8zM265.72 151.74L266.84 150.62 269.32 153.08 273.72 148.7 274.84 149.82 269.32 155.36 265.72 151.74z"
    fill="#5F9954"
  />
  <path
    d="M311.52 111.6L314 109.14 316.48 111.6 317.6 110.48 315.14 108 317.6 105.52 316.48 104.4 314 106.86 311.52 104.4 310.4 105.52 312.86 108 310.4 110.48 311.52 111.6zM306.2 108C306.2 112.36 309.64 115.8 314 115.8 318.38 115.8 321.8 112.24 321.8 108 321.8 103.64 318.36 100.2 314 100.2 309.64 100.2 306.2 103.64 306.2 108zM307.8 108C307.8 104.52 310.52 101.8 314 101.8 317.48 101.8 320.2 104.52 320.2 108 320.2 111.38 317.48 114.2 314 114.2 310.52 114.2 307.8 111.48 307.8 108zM434.016 108.88L436 106.912 437.984 108.88 438.88 107.984 436.912 106 438.88 104.016 437.984 103.12 436 105.088 434.016 103.12 433.12 104.016 435.088 106 433.12 107.984 434.016 108.88zM429.76 106C429.76 109.488 432.512 112.24 436 112.24 439.504 112.24 442.24 109.392 442.24 106 442.24 102.512 439.488 99.76 436 99.76 432.512 99.76 429.76 102.512 429.76 106zM431.04 106C431.04 103.216 433.216 101.04 436 101.04 438.784 101.04 440.96 103.216 440.96 106 440.96 108.704 438.784 110.96 436 110.96 433.216 110.96 431.04 108.784 431.04 106zM544.512 106.16L546 104.684 547.488 106.16 548.16 105.488 546.684 104 548.16 102.512 547.488 101.84 546 103.316 544.512 101.84 543.84 102.512 545.316 104 543.84 105.488 544.512 106.16zM541.32 104C541.32 106.616 543.384 108.68 546 108.68 548.628 108.68 550.68 106.544 550.68 104 550.68 101.384 548.616 99.32 546 99.32 543.384 99.32 541.32 101.384 541.32 104zM542.28 104C542.28 101.912 543.912 100.28 546 100.28 548.088 100.28 549.72 101.912 549.72 104 549.72 106.028 548.088 107.72 546 107.72 543.912 107.72 542.28 106.088 542.28 104zM314 159.8C318.38 159.8 321.8 156.24 321.8 152 321.8 147.64 318.36 144.2 314 144.2 309.64 144.2 306.2 147.64 306.2 152 306.2 156.36 309.64 159.8 314 159.8zM310 154.88L312.86 152 310 149.12 311.12 148 314 150.86 316.88 148 318 149.12 315.14 152 318 154.88 316.88 156 314 153.14 311.12 156 310 154.88z"
    fill="#C9595A"
  />
  <path
    fill-rule="evenodd"
    clip-rule="evenodd"
    d="M356 156.24C352.512 156.24 349.76 153.488 349.76 150 349.76 146.512 352.512 143.76 356 143.76 359.488 143.76 362.24 146.512 362.24 150 362.24 153.392 359.504 156.24 356 156.24zM357.856 152.752L355.552 150.448C355.44 150.336 355.36 150.176 355.36 150V146.32H356.64V149.728L358.752 151.856 357.856 152.752zM474 152.68C471.384 152.68 469.32 150.616 469.32 148 469.32 145.384 471.384 143.32 474 143.32 476.616 143.32 478.68 145.384 478.68 148 478.68 150.544 476.628 152.68 474 152.68zM475.392 150.064L473.664 148.336C473.58 148.252 473.52 148.132 473.52 148V145.24H474.48V147.796L476.064 149.392 475.392 150.064z"
    fill="#949494"
  />
  <path
    d="M396 156.24C399.504 156.24 402.24 153.392 402.24 150 402.24 146.512 399.488 143.76 396 143.76 392.512 143.76 389.76 146.512 389.76 150 389.76 153.488 392.512 156.24 396 156.24zM392.576 149.792L393.472 148.896 395.456 150.864 398.976 147.36 399.872 148.256 395.456 152.688 392.576 149.792zM510 152.68C512.628 152.68 514.68 150.544 514.68 148 514.68 145.384 512.616 143.32 510 143.32 507.384 143.32 505.32 145.384 505.32 148 505.32 150.616 507.384 152.68 510 152.68zM507.432 147.844L508.104 147.172 509.592 148.648 512.232 146.02 512.904 146.692 509.592 150.016 507.432 147.844z"
    fill="#5F9954"
  />
  <path
    d="M436 156.24C439.504 156.24 442.24 153.392 442.24 150 442.24 146.512 439.488 143.76 436 143.76 432.512 143.76 429.76 146.512 429.76 150 429.76 153.488 432.512 156.24 436 156.24zM432.8 152.304L435.088 150 432.8 147.696 433.696 146.8 436 149.088 438.304 146.8 439.2 147.696 436.912 150 439.2 152.304 438.304 153.2 436 150.912 433.696 153.2 432.8 152.304zM546 152.68C548.628 152.68 550.68 150.544 550.68 148 550.68 145.384 548.616 143.32 546 143.32 543.384 143.32 541.32 145.384 541.32 148 541.32 150.616 543.384 152.68 546 152.68zM543.6 149.728L545.316 148 543.6 146.272 544.272 145.6 546 147.316 547.728 145.6 548.4 146.272 546.684 148 548.4 149.728 547.728 150.4 546 148.684 544.272 150.4 543.6 149.728z"
    fill="#C9595A"
  />
</svg>
