<svg width="16" height="16" viewBox="0 0 16 16" fill="none" xmlns="http://www.w3.org/2000/svg">
  <path
    fill-rule="evenodd"
    clip-rule="evenodd"
    d="M5.4616 1.52952C6.26842 1.19532 7.13315 1.02332 8.00645 1.02332C9.77013 1.02332 11.4616 1.72394 12.7087 2.97106C13.9558 4.21817 14.6564 5.90963 14.6564 7.67332C14.6564 9.43701 13.9558 11.1285 12.7087 12.3756C11.4616 13.6227 9.77013 14.3233 8.00645 14.3233C7.13315 14.3233 6.26842 14.1513 5.4616 13.8171C4.65479 13.4829 3.9217 12.9931 3.30419 12.3756C2.68668 11.7581 2.19684 11.025 1.86265 10.2182C1.52845 9.41134 1.35645 8.54661 1.35645 7.67332C1.35645 6.80002 1.52845 5.93529 1.86265 5.12847C2.19684 4.32166 2.68668 3.58857 3.30419 2.97106C3.92169 2.35355 4.65479 1.86371 5.4616 1.52952ZM8.25703 4.34666C8.25703 3.98767 7.96602 3.69666 7.60703 3.69666C7.24805 3.69666 6.95703 3.98767 6.95703 4.34666V8.07999C6.95703 8.43897 7.24805 8.72999 7.60703 8.72999H10.707C11.066 8.72999 11.357 8.43897 11.357 8.07999C11.357 7.721 11.066 7.42999 10.707 7.42999H8.25703V4.34666Z"
    fill="#fff"
  />
</svg>
