<svg width="16" height="16" viewBox="0 0 16 16" fill="none" xmlns="http://www.w3.org/2000/svg">
  <path
    d="M5.33333 12C3.49267 12 2 11.4 2 10.6667V5.33334M2 5.33334C2 4.97972 2.35119 4.64058 2.97631 4.39053C3.60143 4.14049 4.44928 4.00001 5.33333 4.00001C6.21739 4.00001 7.06523 4.14049 7.69036 4.39053C8.31548 4.64058 8.66667 4.97972 8.66667 5.33334M2 5.33334C2 5.68697 2.35119 6.0261 2.97631 6.27615C3.60143 6.5262 4.44928 6.66668 5.33333 6.66668C6.21739 6.66668 7.06523 6.5262 7.69036 6.27615C8.31548 6.0261 8.66667 5.68697 8.66667 5.33334M7.33333 10C7.33333 10.7333 8.82 11.3333 10.6667 11.3333C12.5067 11.3333 14 10.7333 14 10M7.33333 10V12.6667C7.33333 13.4 8.82 14 10.6667 14C12.5067 14 14 13.4 14 12.6667V10M7.33333 10C7.33333 9.26001 8.82 8.66668 10.6667 8.66668C12.5067 8.66668 14 9.26001 14 10M8.66667 5.33334V7.00001M5.33333 9.33334C3.49267 9.33334 2 8.73334 2 8.00001M14.6668 2.62534L12.6668 4.62534L11.4668 3.42534"
    stroke="#fff"
    stroke-width="1.3"
    stroke-linecap="round"
    stroke-linejoin="round"
  />
</svg>
