<svg width="16" height="16" viewBox="0 0 16 16" fill="none" xmlns="http://www.w3.org/2000/svg">
  <path
    d="M8.00004 14.65C8.35903 14.65 8.65004 14.359 8.65004 14C8.65004 13.641 8.35903 13.35 8.00004 13.35V14.65ZM10.6834 3.33333C10.6834 3.69232 10.9744 3.98333 11.3334 3.98333C11.6924 3.98333 11.9834 3.69232 11.9834 3.33333H10.6834ZM11.9834 3.25C11.9834 2.89101 11.6924 2.6 11.3334 2.6C10.9744 2.6 10.6834 2.89101 10.6834 3.25H11.9834ZM10.6834 3.41667C10.6834 3.77565 10.9744 4.06667 11.3334 4.06667C11.6924 4.06667 11.9834 3.77565 11.9834 3.41667H10.6834ZM8.00004 13.35H4.66671V14.65H8.00004V13.35ZM4.66671 13.35C4.28931 13.35 3.98337 13.0441 3.98337 12.6667H2.68337C2.68337 13.762 3.57134 14.65 4.66671 14.65V13.35ZM3.98337 12.6667V3.33333H2.68337V12.6667H3.98337ZM3.98337 3.33333C3.98337 2.95594 4.28931 2.65 4.66671 2.65V1.35C3.57134 1.35 2.68337 2.23797 2.68337 3.33333H3.98337ZM4.66671 2.65H10V1.35H4.66671V2.65ZM10 2.65C10.3774 2.65 10.6834 2.95594 10.6834 3.33333H11.9834C11.9834 2.23797 11.0954 1.35 10 1.35V2.65ZM10.6834 3.25V3.41667H11.9834V3.25H10.6834ZM10.8 6.31667H11.8667V5.01667H10.8V6.31667ZM12.0167 6.46667V13.2H13.3167V6.46667H12.0167ZM11.8667 13.35H10.8V14.65H11.8667V13.35ZM10.65 13.2V6.46667H9.35004V13.2H10.65ZM10.8 13.35C10.7172 13.35 10.65 13.2828 10.65 13.2H9.35004C9.35004 14.0008 9.99923 14.65 10.8 14.65V13.35ZM12.0167 13.2C12.0167 13.2828 11.9495 13.35 11.8667 13.35V14.65C12.6675 14.65 13.3167 14.0008 13.3167 13.2H12.0167ZM11.8667 6.31667C11.9495 6.31667 12.0167 6.38382 12.0167 6.46667H13.3167C13.3167 5.66585 12.6675 5.01667 11.8667 5.01667V6.31667ZM10.8 5.01667C9.99923 5.01667 9.35004 5.66586 9.35004 6.46667H10.65C10.65 6.38382 10.7172 6.31667 10.8 6.31667V5.01667ZM12.0167 11.3333V13.2H13.3167V11.3333H12.0167ZM10.65 13.2V11.3333H9.35004V13.2H10.65ZM13.3167 11.3333C13.3167 10.238 12.4287 9.35 11.3334 9.35V10.65C11.7108 10.65 12.0167 10.9559 12.0167 11.3333H13.3167ZM10.65 11.3333C10.65 10.9559 10.956 10.65 11.3334 10.65V9.35C10.238 9.35 9.35004 10.238 9.35004 11.3333H10.65Z"
    fill="#fff"
  />
</svg>
