<svg width="16" height="16" viewBox="0 0 16 16" fill="none" xmlns="http://www.w3.org/2000/svg">
  <path
    d="M10.6667 14H12C13.1 14 14 13.1 14 12V10.6667M10.6667 2H12C13.1 2 14 2.89333 14 4V5.33333M2 10.6667V12C2 13.1 2.89333 14 4 14H5.33333M2 5.33333V4C2 2.89333 2.89333 2 4 2H5.33333M9.03333 9H9.02667L9.02 8.99333V8.98667M11.3033 9H11.2967L11.29 8.99333V8.98667M9.03333 11.3333H9.02667L9.02 11.3267V11.32M11.3 11.3333H11.2933L11.2867 11.3267V11.32M10.17 10.1667H10.1633L10.1567 10.16V10.1533M9.33267 4.66667H10.9993C11.1834 4.66667 11.3327 4.81591 11.3327 5V6.66667C11.3327 6.85076 11.1834 7 10.9993 7H9.33267C9.14857 7 8.99933 6.85076 8.99933 6.66667V5C8.99933 4.81591 9.14857 4.66667 9.33267 4.66667ZM4.99933 4.66667H6.666C6.85009 4.66667 6.99933 4.81591 6.99933 5V6.66667C6.99933 6.85076 6.85009 7 6.666 7H4.99933C4.81524 7 4.666 6.85076 4.666 6.66667V5C4.666 4.81591 4.81524 4.66667 4.99933 4.66667ZM4.99933 9H6.666C6.85009 9 6.99933 9.14924 6.99933 9.33333V11C6.99933 11.1841 6.85009 11.3333 6.666 11.3333H4.99933C4.81524 11.3333 4.666 11.1841 4.666 11V9.33333C4.666 9.14924 4.81524 9 4.99933 9Z"
    stroke="#fff"
    stroke-width="1.3"
    stroke-linecap="round"
    stroke-linejoin="round"
  />
</svg>
