<svg width="16" height="16" viewBox="0 0 16 16" fill="none" xmlns="http://www.w3.org/2000/svg">
  <path
    d="M8.53341 2C8.67069 2.00002 8.80462 2.04242 8.9169 2.12141C9.02918 2.2004 9.11434 2.31213 9.16074 2.44133L9.4994 3.38467C9.55316 3.53301 9.6575 3.65765 9.79407 3.73667L10.7987 4.31667C10.9352 4.39538 11.0951 4.42325 11.2501 4.39533L12.2367 4.21733C12.372 4.19275 12.5115 4.21055 12.6362 4.26831C12.7609 4.32607 12.8647 4.42097 12.9334 4.54L13.4667 5.46C13.5356 5.57872 13.5662 5.71581 13.5543 5.85255C13.5423 5.98928 13.4885 6.11901 13.4001 6.224L12.7527 6.98933C12.6508 7.10968 12.5948 7.26227 12.5947 7.42V8.58C12.5948 8.73773 12.6508 8.89032 12.7527 9.01067L13.4001 9.776C13.4885 9.88099 13.5423 10.0107 13.5543 10.1475C13.5662 10.2842 13.5356 10.4213 13.4667 10.54L12.9334 11.46C12.8647 11.5789 12.761 11.6737 12.6365 11.7315C12.5119 11.7892 12.3725 11.8071 12.2374 11.7827L11.2507 11.6047C11.0957 11.5767 10.9358 11.6046 10.7994 11.6833L9.79474 12.2633C9.65817 12.3424 9.55383 12.467 9.50007 12.6153L9.16141 13.5587C9.11497 13.688 9.02971 13.7998 8.91729 13.8788C8.80488 13.9578 8.6708 14.0001 8.53341 14H7.46674C7.32946 14 7.19553 13.9576 7.08325 13.8786C6.97096 13.7996 6.88581 13.6879 6.83941 13.5587L6.50074 12.6153C6.447 12.4672 6.34295 12.3426 6.20674 12.2633L5.20141 11.6833C5.06498 11.6046 4.90509 11.5767 4.75007 11.6047L3.76341 11.7827C3.62819 11.8073 3.48867 11.7894 3.36396 11.7317C3.23925 11.6739 3.13544 11.579 3.06674 11.46L2.53341 10.54C2.46452 10.4213 2.43395 10.2842 2.44588 10.1475C2.45782 10.0107 2.51166 9.88099 2.60007 9.776L3.24741 9.01067C3.34936 8.89032 3.40534 8.73773 3.40541 8.58V7.42C3.40534 7.26227 3.34936 7.10968 3.24741 6.98933L2.60674 6.224C2.51833 6.11901 2.46448 5.98928 2.45255 5.85255C2.44062 5.71581 2.47118 5.57872 2.54007 5.46L3.07341 4.54C3.14207 4.42109 3.24577 4.32628 3.37034 4.26852C3.49492 4.21077 3.63429 4.19289 3.76941 4.21733L4.75607 4.39533C4.91109 4.42325 5.07098 4.39538 5.20741 4.31667L6.21274 3.73667C6.34895 3.6574 6.453 3.53282 6.50674 3.38467L6.84541 2.44133C6.89146 2.31309 6.9757 2.20203 7.08679 2.12313C7.19788 2.04422 7.33048 2.00125 7.46674 2H8.53341Z"
    stroke="#fff"
    stroke-width="1.3"
    stroke-linecap="round"
    stroke-linejoin="round"
  />
  <path
    d="M8.00007 9.83333C9.01259 9.83333 9.83341 9.01252 9.83341 8C9.83341 6.98748 9.01259 6.16667 8.00007 6.16667C6.98755 6.16667 6.16674 6.98748 6.16674 8C6.16674 9.01252 6.98755 9.83333 8.00007 9.83333Z"
    stroke="#fff"
    stroke-width="1.3"
    stroke-linecap="round"
    stroke-linejoin="round"
  />
</svg>
