<svg width="16" height="16" viewBox="0 0 16 16" fill="none" xmlns="http://www.w3.org/2000/svg">
  <path
    d="M8.11796 7.54864C8.17796 7.60864 8.17796 7.71531 8.11796 7.78198C8.05129 7.84198 7.94463 7.84198 7.87796 7.78198C7.81129 7.71531 7.81129 7.60864 7.87796 7.54198C7.93796 7.47531 8.04463 7.47531 8.11129 7.54198M10.78 7.54864C10.84 7.60864 10.84 7.71531 10.78 7.78198C10.7133 7.84198 10.6066 7.84198 10.54 7.78198C10.4733 7.71531 10.4733 7.60864 10.54 7.54198C10.6 7.47531 10.7066 7.47531 10.7733 7.54198M5.45129 7.54864C5.51129 7.60864 5.51129 7.71531 5.45129 7.78198C5.38463 7.84198 5.27796 7.84198 5.21129 7.78198C5.14463 7.71531 5.14463 7.60864 5.21129 7.54198C5.27129 7.47531 5.37796 7.47531 5.44463 7.54198M13.3333 7.45464C13.3333 10.482 11.0533 13.3126 7.99996 14C4.94196 13.3066 2.66663 10.48 2.66663 7.45464V4.82131C2.66663 4.27464 2.99329 3.78798 3.43329 3.60798L6.76663 2.24398C7.57329 1.91064 8.41329 1.91064 9.16663 2.21731L12.5 3.57731C13 3.77731 13.3266 4.26398 13.3266 4.81131V7.43798L13.3333 7.45464Z"
    stroke="#fff"
    stroke-width="1.3"
    stroke-linecap="round"
    stroke-linejoin="round"
  />
</svg>
