<svg width="16" height="16" viewBox="0 0 16 16" fill="none" xmlns="http://www.w3.org/2000/svg">
  <path
    d="M7.99996 1.33333C7.99996 1.14924 7.85072 1 7.66663 1 7.48253 1 7.33329 1.14924 7.33329 1.33333V1.55556C7.33329 1.94534 7.18793 2.31517 6.93529 2.58465 6.68334 2.85341 6.34639 3 5.99996 3 5.81586 3 5.66663 3.14924 5.66663 3.33333 5.66663 3.51743 5.81586 3.66667 5.99996 3.66667 6.34639 3.66667 6.68334 3.81326 6.93529 4.08201 7.18793 4.35149 7.33329 4.72133 7.33329 5.11111V5.33333C7.33329 5.51743 7.48253 5.66667 7.66663 5.66667 7.85072 5.66667 7.99996 5.51743 7.99996 5.33333V5.11111C7.99996 4.72133 8.14532 4.35149 8.39796 4.08201 8.64992 3.81326 8.98687 3.66667 9.33329 3.66667 9.51739 3.66667 9.66663 3.51743 9.66663 3.33333 9.66663 3.14924 9.51739 3 9.33329 3 8.98687 3 8.64992 2.85341 8.39796 2.58465 8.14532 2.31517 7.99996 1.94534 7.99996 1.55556V1.33333zM12 5.26666C12 5.08257 11.8508 4.93333 11.6667 4.93333 11.4826 4.93333 11.3333 5.08257 11.3333 5.26666 11.3333 5.81776 11.1204 6.34446 10.7443 6.73136 10.3684 7.11794 9.86069 7.33333 9.33333 7.33333 9.14924 7.33333 9 7.48257 9 7.66666 9 7.85076 9.14924 8 9.33333 8 9.86069 8 10.3684 8.21539 10.7443 8.60197 11.1204 8.98887 11.3333 9.51557 11.3333 10.0667 11.3333 10.2508 11.4826 10.4 11.6667 10.4 11.8508 10.4 12 10.2508 12 10.0667 12 9.51557 12.2129 8.98887 12.5891 8.60197 12.9649 8.21539 13.4726 8 14 8 14.1841 8 14.3333 7.85076 14.3333 7.66666 14.3333 7.48257 14.1841 7.33333 14 7.33333 13.4726 7.33333 12.9649 7.11794 12.5891 6.73136 12.2129 6.34446 12 5.81776 12 5.26666zM5.99996 7.33333C5.99996 7.14924 5.85072 7 5.66663 7 5.48253 7 5.33329 7.14924 5.33329 7.33333 5.33329 8.21739 4.9821 9.06524 4.35698 9.69036 3.73186 10.3155 2.88401 10.6667 1.99996 10.6667 1.81586 10.6667 1.66663 10.8159 1.66663 11 1.66663 11.1841 1.81586 11.3333 1.99996 11.3333 2.88401 11.3333 3.73186 11.6845 4.35698 12.3096 4.9821 12.9348 5.33329 13.7826 5.33329 14.6667 5.33329 14.8508 5.48253 15 5.66663 15 5.85072 15 5.99996 14.8508 5.99996 14.6667 5.99996 13.7826 6.35115 12.9348 6.97627 12.3096 7.60139 11.6845 8.44924 11.3333 9.33329 11.3333 9.51739 11.3333 9.66663 11.1841 9.66663 11 9.66663 10.8159 9.51739 10.6667 9.33329 10.6667 8.44924 10.6667 7.60139 10.3155 6.97627 9.69036 6.35115 9.06524 5.99996 8.21739 5.99996 7.33333z"
    fill="#fff"
  />
</svg>
