<svg width="16" height="16" viewBox="0 0 16 16" fill="none" xmlns="http://www.w3.org/2000/svg">
  <path
    d="M12 11.8333H10.3333M11.1667 11V12.6667M6.66667 10H4.66667C3.19333 10 2 11.1933 2 12.6667V13.3333M11.1667 9C10.4152 9 9.69455 9.29851 9.1632 9.82986C8.63184 10.3612 8.33333 11.0819 8.33333 11.8333C8.33333 12.5848 8.63184 13.3054 9.1632 13.8368C9.69455 14.3682 10.4152 14.6667 11.1667 14.6667C11.9181 14.6667 12.6388 14.3682 13.1701 13.8368C13.7015 13.3054 14 12.5848 14 11.8333C14 11.0819 13.7015 10.3612 13.1701 9.82986C12.6388 9.29851 11.9181 9 11.1667 9ZM7.33333 2C6.62609 2 5.94781 2.28095 5.44772 2.78105C4.94762 3.28115 4.66667 3.95942 4.66667 4.66667C4.66667 5.37391 4.94762 6.05219 5.44772 6.55229C5.94781 7.05238 6.62609 7.33333 7.33333 7.33333C8.04058 7.33333 8.71885 7.05238 9.21895 6.55229C9.71905 6.05219 10 5.37391 10 4.66667C10 3.95942 9.71905 3.28115 9.21895 2.78105C8.71885 2.28095 8.04058 2 7.33333 2Z"
    stroke="#fff"
    stroke-width="1.3"
    stroke-linecap="round"
    stroke-linejoin="round"
  />
</svg>
