<svg width="16" height="16" viewBox="0 0 16 16" fill="none" xmlns="http://www.w3.org/2000/svg">
  <path
    d="M3.58667 12.08L2.33333 13.3334M2 7.33335V4.33335C2 3.40669 2.74 2.66669 3.66667 2.66669H11.6667C12.5867 2.66669 13.3333 3.40669 13.3333 4.33335V6.33335M13.3333 6.33335L12.3333 6.33335C11.4067 6.33335 10.6667 7.07335 10.6667 8.00002C10.6667 8.92002 11.4067 9.66669 12.3333 9.66669H13.3333M13.3333 6.33335C13.7 6.33335 14 6.62669 14 7.00002V9.00002C14 9.36669 13.7 9.66669 13.3333 9.66669M13.3333 9.66669V11.6667C13.3333 12.5867 12.5867 13.3334 11.6667 13.3334H8.66667M5 8.66669C4.46957 8.66669 3.96086 8.8774 3.58579 9.25247C3.21071 9.62755 3 10.1363 3 10.6667C3 11.1971 3.21071 11.7058 3.58579 12.0809C3.96086 12.456 4.46957 12.6667 5 12.6667C5.53043 12.6667 6.03914 12.456 6.41421 12.0809C6.78929 11.7058 7 11.1971 7 10.6667C7 10.1363 6.78929 9.62755 6.41421 9.25247C6.03914 8.8774 5.53043 8.66669 5 8.66669Z"
    stroke="#fff"
    stroke-width="1.3"
    stroke-linecap="round"
    stroke-linejoin="round"
  />
</svg>
