<svg width="16" height="16" viewBox="0 0 16 16" fill="none" xmlns="http://www.w3.org/2000/svg">
  <path
    d="M2.00007 5.33334C2.00007 6.06668 3.48674 6.66668 5.33341 6.66668M2.00007 5.33334V10.6667C2.00007 11.4 3.49274 12 5.33341 12M2.00007 5.33334C2.00007 4.97972 2.35126 4.64058 2.97639 4.39053C3.60151 4.14049 4.44935 4.00001 5.33341 4.00001C6.21746 4.00001 7.06531 4.14049 7.69043 4.39053C8.31555 4.64058 8.66674 4.97972 8.66674 5.33334M2.00007 5.33334C2.00007 5.68697 2.35126 6.0261 2.97639 6.27615C3.60151 6.5262 4.44935 6.66668 5.33341 6.66668M5.33341 6.66668C6.21746 6.66668 7.06531 6.5262 7.69043 6.27615C8.31555 6.0261 8.66674 5.68697 8.66674 5.33334M8.66674 5.33334L8.66674 7.00001M11.6667 4.33334L13.6667 2.33334M13.6667 4.33334L11.6667 2.33334M2.00007 8.00001C2.00007 8.73334 3.48674 9.32668 5.33274 9.32668M5.32674 9.33334C3.48008 9.33334 1.99341 8.73334 1.99341 8.00001M7.33341 10C7.33341 10.7333 8.82007 11.3333 10.6667 11.3333C12.5067 11.3333 14.0001 10.7333 14.0001 10L13.9994 12.6667C13.9994 13.4 12.5067 14 10.6667 14C8.82007 14 7.33341 13.4 7.33341 12.6667V10ZM13.9981 10C13.9981 9.26001 12.5047 8.66668 10.6647 8.66668C8.82474 8.66668 7.33141 9.26001 7.33141 10C7.33141 10.7333 8.81807 11.3333 10.6647 11.3333C12.5047 11.3333 13.9981 10.7333 13.9981 10Z"
    stroke="#fff"
    stroke-width="1.3"
    stroke-linecap="round"
    stroke-linejoin="round"
  />
</svg>
