<svg width="16" height="16" viewBox="0 0 16 16" fill="none" xmlns="http://www.w3.org/2000/svg">
  <path
    d="M2 6C2 6.73333 3.48667 7.33333 5.33333 7.33333M5.33333 10C3.49267 10 2 9.4 2 8.66667M8.66 3.33333V5.33333M7.33333 10.6667C7.33333 11.4 8.82 12 10.6667 12C12.5067 12 14 11.4 14 10.6667M7.33333 8C7.33333 8.73333 8.82 9.33333 10.6667 9.33333C12.5067 9.33333 14 8.73333 14 8V13.3333C14 14.0667 12.5067 14.6667 10.6667 14.6667C8.82 14.6667 7.33333 14.0667 7.33333 13.3333V8ZM7.33333 8C7.33333 7.26 8.82667 6.66667 10.6667 6.66667C12.5067 6.66667 14 7.26 13.9933 8M5.33333 12.6667C3.49267 12.6667 2 12.0667 2 11.3333V3.33333M2 3.33333C2 2.97971 2.35119 2.64057 2.97631 2.39052C3.60143 2.14048 4.44928 2 5.33333 2C6.21739 2 7.06523 2.14048 7.69036 2.39052C8.31548 2.64057 8.66667 2.97971 8.66667 3.33333C8.66667 3.68696 8.31548 4.02609 7.69036 4.27614C7.06523 4.52619 6.21739 4.66667 5.33333 4.66667C4.44928 4.66667 3.60143 4.52619 2.97631 4.27614C2.35119 4.02609 2 3.68696 2 3.33333Z"
    stroke="#fff"
    stroke-width="1.3"
    stroke-linecap="round"
    stroke-linejoin="round"
  />
</svg>
