<svg width="16" height="16" viewBox="0 0 16 16" fill="none" xmlns="http://www.w3.org/2000/svg">
  <path
    d="M2.66663 9.40668C2.66663 10.38 4.91329 11.1667 7.68663 11.1667M12.6666 3.76001C12.6666 4.73335 10.4266 5.52001 7.66663 5.52001C4.89996 5.52001 2.66663 4.72668 2.66663 3.75335M12.6666 6.58668C12.6666 7.56001 10.4266 8.34668 7.66663 8.34668C4.89996 8.34668 2.66663 7.55335 2.66663 6.58001M13.1486 12V11.1467C13.1486 10.54 12.6286 9.99335 11.9953 9.99335C11.3553 9.99335 10.842 10.5067 10.842 11.14V11.9867M7.69063 14C4.91596 14 2.66663 13.2067 2.66663 12.2333V3.76001C2.66663 2.78001 4.89996 1.99335 7.66663 1.99335C10.4266 1.99335 12.6666 2.78001 12.6666 3.75335V7.98668M13.3506 14.6667H10.6493C10.2893 14.6667 9.99596 14.3733 9.99596 14.0133V12.64C9.99596 12.28 10.2826 11.9867 10.6426 11.9867H13.344C13.6973 11.9867 13.9906 12.2733 13.9906 12.6333V14C13.9906 14.3533 13.6973 14.6467 13.3373 14.6467L13.3506 14.6667Z"
    stroke="#fff"
    stroke-width="1.3"
    stroke-linecap="round"
    stroke-linejoin="round"
  />
</svg>
