<svg width="16" height="16" viewBox="0 0 16 16" fill="none" xmlns="http://www.w3.org/2000/svg">
  <path
    d="M7.99996 11.3333C7.55793 11.3333 7.13401 11.5089 6.82145 11.8215C6.50889 12.134 6.33329 12.558 6.33329 13C6.33329 13.442 6.50889 13.8659 6.82145 14.1785C7.13401 14.4911 7.55793 14.6666 7.99996 14.6666C8.44199 14.6666 8.86591 14.4911 9.17847 14.1785C9.49103 13.8659 9.66663 13.442 9.66663 13C9.66663 12.558 9.49103 12.134 9.17847 11.8215C8.86591 11.5089 8.44199 11.3333 7.99996 11.3333ZM7.99996 11.3333V1.33331M7.99996 1.33331L9.49996 2.83331M7.99996 1.33331L6.49996 2.83331M7.99996 10.1466L5.37329 9.55998C4.75996 9.41998 4.32663 8.87998 4.32663 8.25331V7.31998M7.99996 9.09998L10.7133 8.27998C11.2733 8.10665 11.66 7.58665 11.66 6.99998V6.31998M11.1666 3.99998H12.1666C12.5348 3.99998 12.8333 4.29846 12.8333 4.66665V5.66665C12.8333 6.03484 12.5348 6.33331 12.1666 6.33331H11.1666C10.7984 6.33331 10.5 6.03484 10.5 5.66665V4.66665C10.5 4.29846 10.7984 3.99998 11.1666 3.99998ZM4.33329 4.99998C4.02387 4.99998 3.72713 5.1229 3.50833 5.34169C3.28954 5.56048 3.16663 5.85723 3.16663 6.16665C3.16663 6.47607 3.28954 6.77281 3.50833 6.9916C3.72713 7.2104 4.02387 7.33331 4.33329 7.33331C4.64271 7.33331 4.93946 7.2104 5.15825 6.9916C5.37704 6.77281 5.49996 6.47607 5.49996 6.16665C5.49996 5.85723 5.37704 5.56048 5.15825 5.34169C4.93946 5.1229 4.64271 4.99998 4.33329 4.99998Z"
    stroke="#fff"
    stroke-width="1.3"
    stroke-linecap="round"
    stroke-linejoin="round"
  />
</svg>
