<svg width="16" height="16" viewBox="0 0 16 16" fill="none" xmlns="http://www.w3.org/2000/svg">
  <path
    fill-rule="evenodd"
    clip-rule="evenodd"
    d="M9.77284 2.50564C8.98337 1.11762 6.98407 1.11381 6.19826 2.50662L6.19752 2.50793L1.0998 11.4411C0.315539 12.8131 1.30611 14.5207 2.8865 14.5207H13.0992C14.6751 14.5207 15.6713 12.8088 14.8865 11.441L14.8861 11.4403L9.7732 2.50626L9.77284 2.50564ZM8.50008 6.25336C8.50008 5.97721 8.27622 5.75336 8.00008 5.75336C7.72393 5.75336 7.50008 5.97721 7.50008 6.25336V8.74669C7.50008 9.02283 7.72393 9.24669 8.00008 9.24669C8.27622 9.24669 8.50008 9.02283 8.50008 8.74669V6.25336ZM7.99341 10.25L7.99003 10.25L7.98674 10.25C7.97284 10.25 7.95907 10.2506 7.94545 10.2517C7.59855 10.2761 7.32674 10.5633 7.32674 10.9167C7.32674 11.2665 7.61111 11.5834 7.99341 11.5834C8.19017 11.5834 8.35402 11.4949 8.4628 11.3861C8.57157 11.2773 8.66008 11.1135 8.66008 10.9167C8.66008 10.5435 8.36515 10.2799 8.04242 10.2524C8.02629 10.2508 8.00994 10.25 7.99341 10.25Z"
    fill="#fff"
  />
</svg>
