<svg width="2526" height="329" viewBox="0 0 2526 329" fill="none" xmlns="http://www.w3.org/2000/svg">
  <path
    d="M7.51967 7.73163V13.625H13.4113M8.28801 13.625C10.5497 9.47996 14.9463 6.66663 19.9997 6.66663 27.363 6.66663 33.333 12.6366 33.333 20 33.333 27.3633 27.363 33.3333 19.9997 33.3333 12.6363 33.3333 6.66634 27.3633 6.66634 20M93.6665 31.6667H88.6665C84.0648 31.6667 80.3332 27.935 80.3332 23.3334V8.33337M80.3332 8.33337L84.4998 12.5M80.3332 8.33337L76.1665 12.5M90.3332 8.33337H95.3332C99.9348 8.33337 103.667 12.065 103.667 16.6667V31.6667M103.667 31.6667L98.6665 26.6667M103.667 31.6667L108.667 26.6667M177.32 20.0533C177.307 23.4483 176.018 26.8383 173.428 29.4283 168.222 34.635 159.778 34.635 154.572 29.4283 153.645 28.5016 152.892 27.47 152.295 26.3766M150.673 19.7833C150.727 16.4433 152.023 13.12 154.572 10.5716 159.778 5.36496 168.222 5.36496 173.428 10.5716 174.355 11.4983 175.108 12.53 175.705 13.6233M170.588 13.625H176.48V7.73163M157.412 26.375H151.52V32.2683"
    stroke="#fff"
    stroke-width="2.2"
    stroke-linecap="round"
    stroke-linejoin="round"
  />
  <path
    d="M251 35L242.666 26.6665M245.667 17.3333C245.667 24.1448 240.145 29.6667 233.333 29.6667C226.522 29.6667 221 24.1448 221 17.3333C221 10.5218 226.522 5 233.333 5C240.145 5 245.667 10.5218 245.667 17.3333Z"
    stroke="#fff"
    stroke-width="2.2"
    stroke-linecap="round"
  />
  <path
    d="M293 11.6667V7.5C293 6.11929 294.119 5 295.5 5H303M311.333 25.0002H307.167C305.786 25.0002 304.667 23.8809 304.667 22.5002V15.0002M323 11.6667V7.5C323 6.11929 321.881 5 320.5 5H313M293 28.3333V32.5C293 33.8807 294.119 35 295.5 35H303M323 28.3333V32.5C323 33.8807 321.881 35 320.5 35H313M386.767 20.2H379.017V10.8667M380.017 4.18335C378.047 4.18335 376.096 4.57134 374.276 5.32516 372.456 6.07898 370.803 7.18387 369.41 8.57675 368.017 9.96963 366.912 11.6232 366.158 13.4431 365.405 15.263 365.017 17.2135 365.017 19.1833 365.017 21.1532 365.405 23.1037 366.158 24.9236 366.912 26.7435 368.017 28.3971 369.41 29.7899 370.803 31.1828 372.456 32.2877 374.276 33.0415 376.096 33.7954 378.047 34.1833 380.017 34.1833 383.995 34.1833 387.81 32.603 390.623 29.7899 393.436 26.9769 395.017 23.1616 395.017 19.1833 395.017 15.2051 393.436 11.3898 390.623 8.57675 387.81 5.7637 383.995 4.18335 380.017 4.18335zM460.25 28.25L443.75 11.75M460.25 16.45V28.2383L448.45 28.2217M532.25 11.75L515.75 28.25M520.667 11.6666L532.25 11.7333 532.333 23.3183M596 31.6667V8.33337M604.335 23.3167L595.985 31.65 587.635 23.3M679.667 20H656.333M679.667 20L671.333 28.3333M679.667 20L671.333 11.6666M728.333 20H751.667M728.333 20L736.667 11.6666M728.333 20L736.667 28.3333M812 8.33332V31.6667M803.665 16.6667L812 8.31665 820.333 16.65M877.333 16.6666L884 23.3333 890.667 16.6666M959.333 13.3334L952.667 20 959.333 26.6667M1024.67 26.6667L1031.33 20 1024.67 13.3334M1106.67 23.3333L1100 16.6666 1093.33 23.3333M1165.33 23.3334L1160.33 28.3334M1160.33 28.3334L1165.33 33.3334M1160.33 28.3334H1183.67M1178.67 16.6667L1183.67 11.6667M1183.67 11.6667L1178.67 6.66671M1183.67 11.6667H1160.33M1240.67 13.3334L1235.67 8.33337M1235.67 8.33337L1230.67 13.3334M1235.67 8.33337V31.6667M1247.33 26.6667L1252.33 31.6667M1252.33 31.6667L1257.33 26.6667M1252.33 31.6667V8.33337M1316 20L1330 6M1330 6V16.6667M1330 6H1319.33M1311 6H1305.33C1303.49 6 1302 7.49167 1302 9.33333V30.6667C1302 32.5 1303.49 34 1305.33 34H1326.67C1328.5 34 1330 32.5 1330 30.6667V25M1383 35H1376.33C1374.48 35 1373 33.5 1373 31.6667V8.33333C1373 6.48333 1374.48 5 1376.33 5H1396.33C1398.17 5 1399.67 6.48333 1399.67 8.33333V15M1379.67 13.3333H1389.67M1379.67 20H1383M1389.67 35H1403M1391.33 35V27.3667M1396.33 35V27.3667M1401.33 35V27.3667M1389.67 27.3667H1403V24.3833L1396.33 21.65 1389.67 24.3667V27.3667zM1458.9 26.6667C1455.32 26.6667 1451.9 28.0833 1449.39 30.6M1475 20C1475 11.7 1468.28 5 1460 5 1451.7 5 1445 11.7 1445 20 1445 28.2833 1451.7 35 1460 35M1465 27.4167V28.8167H1465C1464.98 31.4167 1466.6 33.75 1469.05 34.6667L1469.76 34.9333C1469.9 34.9833 1470.05 34.9833 1470.2 34.9333L1470.91 34.65C1473.35 33.7333 1474.97 31.4 1474.97 28.7833V27.3667C1474.97 26.8167 1474.6 26.3333 1474.08 26.1667L1470.33 24.9833C1470.08 24.9 1469.82 24.9 1469.58 24.9833L1465.83 26.15C1465.3 26.3 1464.95 26.7833 1464.95 27.3333L1465 27.4167zM1465 16.25V17.0833C1465 19.8333 1462.75 22.0833 1460 22.0833 1457.23 22.0833 1455 19.8333 1455 17.0833V16.25C1455 13.4833 1457.23 11.25 1460 11.25 1462.75 11.25 1465 13.4833 1465 16.25zM1542.83 16.6667V15.8333C1542.83 9.85 1537.98 5 1532 5 1526.02 5 1521.17 9.85 1521.17 15.8333V16.6667M1535.12 33.3333C1535.12 32.1833 1534.19 31.25 1533.04 31.25H1530.96C1529.81 31.25 1528.88 32.1833 1528.88 33.3333 1528.88 34.4833 1529.81 35.4167 1530.96 35.4167H1533.04C1534.19 35.4167 1535.12 34.4833 1535.12 33.3333zM1535.12 33.3333L1538.66 33.3333C1540.49 33.3333 1541.99 31.8333 1541.99 30V28.3333M1543.67 28.3333H1542C1541.07 28.3333 1540.33 27.5833 1540.33 26.6667V18.3333C1540.33 17.4 1541.07 16.6667 1542 16.6667H1543.67C1545.5 16.6667 1547 18.15 1547 20V25C1547 26.8333 1545.5 28.3333 1543.67 28.3333zM1522 28.3333H1520.33C1518.49 28.3333 1517 26.8333 1517 25V20C1517 18.15 1518.49 16.6667 1520.33 16.6667H1522C1522.92 16.6667 1523.67 17.4 1523.67 18.3333V26.6667C1523.67 27.5833 1522.92 28.3333 1522 28.3333zM1598.17 36.6667V33.3334M1609.83 36.6667V33.3334M1611.93 36.6667H1596.05C1594.2 36.6667 1592.7 35.1667 1592.7 33.3334 1592.68 33.2 1592.7 33.0834 1592.72 32.95L1593.3 27.5817C1593.67 24.1984 1596.52 21.6484 1599.92 21.6517H1607.98C1611.37 21.635 1614.23 24.2017 1614.62 27.5817L1615.2 32.95C1615.4 34.7667 1614.08 36.4167 1612.25 36.6167 1612.12 36.6167 1611.98 36.6334 1611.87 36.6334L1611.93 36.6667zM1604 3.33337C1605.37 3.33337 1606.5 4.45004 1606.5 5.83337V15.8334C1606.5 16.2834 1606.12 16.6667 1605.67 16.6667H1602.33C1601.87 16.6667 1601.5 16.2834 1601.5 15.8334V5.83337C1601.5 4.45004 1602.62 3.33337 1604 3.33337z"
    stroke="#fff"
    stroke-width="2.2"
    stroke-linecap="round"
    stroke-linejoin="round"
  />
  <path
    d="M1607.75 21.6667H1600.25C1599.32 21.6667 1598.57 20.9167 1598.57 20 1598.55 19.7667 1598.6 19.55 1598.68 19.35L1599.37 17.6834C1599.62 17.05 1600.22 16.65 1600.9 16.65H1607C1607.67 16.6334 1608.27 17.05 1608.53 17.6667L1609.22 19.3334C1609.57 20.1667 1609.17 21.15 1608.32 21.5 1608.1 21.5834 1607.88 21.6167 1607.67 21.6167L1607.75 21.6667zM1604 36.6667V33.3334M1682.67 5H1688.13C1689.7 5 1690.98 6.26667 1690.98 7.85V13.3167M1669.33 35H1663.85C1662.27 35 1660.98 33.7167 1660.98 32.1333V26.65M1684.25 27.3667V24.3M1684.25 30.7333C1684.17 30.7333 1684.09 30.8 1684.1 30.8833 1684.1 30.9667 1684.17 31.0333 1684.25 31.0333 1684.34 31.0333 1684.4 30.95 1684.4 30.8667 1684.4 30.7833 1684.32 30.7 1684.24 30.7M1687.16 21L1692.23 30.0233C1693.46 32.24 1691.86 34.99 1689.31 34.99H1679.14C1676.59 34.99 1674.98 32.24 1676.23 30.0067L1681.29 20.9733C1682.56 18.7083 1685.83 18.7083 1687.09 20.9733L1687.16 21zM1664.6 8.39167C1662.57 8.65833 1661 10.3917 1661 12.5 1661 14.8 1662.86 16.6667 1665.16 16.6667H1674.33C1676.16 16.6667 1677.66 15.1667 1677.66 13.3333 1677.66 11.4833 1676.16 10 1674.33 10 1674.33 7.23833 1672.09 5 1669.33 5 1667.13 5 1665.27 6.41667 1664.6 8.39167H1664.6zM1763 15V11.6666C1763 9.81663 1761.5 8.3333 1759.67 8.3333H1745.92M1748.32 13.15L1745.98 8.49997C1745.42 7.36663 1744.25 6.64997 1743 6.64997H1736.3V6.6333C1734.45 6.6333 1732.97 8.11663 1732.97 9.96663V29.9666C1732.97 31.8 1734.45 33.3 1736.3 33.3H1759.63C1761.47 33.3 1762.97 31.8 1762.97 29.9666V14.9666H1751.27C1750 14.9666 1748.83 14.25 1748.28 13.1166L1748.32 13.15zM1818.77 16.0033L1806.07 28.6867C1804.62 30.12 1804.62 32.4533 1806.05 33.9033H1806.05C1807.48 35.3367 1809.81 35.3367 1811.26 33.9033L1823.95 21.2033V21.2017C1828.26 22.6683 1832.98 20.3683 1834.46 16.035 1834.48 15.9683 1834.5 15.9017 1834.51 15.835V15.8333C1834.86 14.75 1834.98 13.6167 1834.88 12.5 1834.75 11.5833 1833.91 10.95 1833 11.0667 1832.63 11.1 1832.28 11.2833 1832.03 11.5333L1829.01 14.5333C1828.68 14.85 1828.15 14.85 1827.83 14.5333 1827.81 14.5167 1827.81 14.5167 1827.81 14.5167L1825.26 11.9667C1824.93 11.6333 1824.93 11.1 1825.56 10.4667L1828.25 7.76666C1828.9 7.11666 1828.9 6.06666 1828.26 5.4 1828 5.13333 1827.66 4.96666 1827.3 4.91666 1826.16 4.8 1825.03 4.91666 1823.96 5.28333V5.26666C1819.58 6.63333 1817.16 11.2833 1818.53 15.65 1818.55 15.7 1818.56 15.7667 1818.58 15.8333L1818.77 16.0033zM1877 15H1907M1890.33 9.99167H1890.32V9.975L1890.3 9.95833M1886.17 9.99167H1886.15V9.975L1886.13 9.95833M1882 9.99167H1881.98V9.975L1881.97 9.95833M1907 17.5V10C1907 7.23333 1904.75 5 1902 5H1882C1879.23 5 1877 7.23333 1877 10V30.0005C1877 32.7619 1879.24 35 1882 35H1890.33M1907 31.4433C1906.75 32.1933 1906.32 32.8766 1905.77 33.4433 1903.68 35.5099 1900.3 35.5099 1898.22 33.4266 1897.85 33.0599 1897.53 32.6433 1897.3 32.1933M1906.68 27.1C1905.27 24.5 1902.03 23.55 1899.43 24.95 1898.98 25.1833 1898.57 25.5 1898.2 25.85 1897.63 26.4 1897.22 27.0833 1896.97 27.85M1904.64 27.1152H1906.99V24.7485M1899.37 32.2168H1897V34.5668M1959 23.3333L1955.67 20 1959 16.6667M1969 16.6667L1972.33 20 1969 23.3333M1965.3 15L1962.52 25M1964 5C1962.03 5 1960.08 5.38799 1958.26 6.14181 1956.44 6.89563 1954.79 8.00052 1953.39 9.3934 1952 10.7863 1950.9 12.4399 1950.14 14.2597 1949.39 16.0796 1949 18.0302 1949 20 1949 21.9698 1949.39 23.9204 1950.14 25.7403 1950.9 27.5601 1952 29.2137 1953.39 30.6066 1954.79 31.9995 1956.44 33.1044 1958.26 33.8582 1960.08 34.612 1962.03 35 1964 35 1965.97 35 1967.92 34.612 1969.74 33.8582 1971.56 33.1044 1973.21 31.9995 1974.61 30.6066 1976 29.2137 1977.1 27.5601 1977.86 25.7403 1978.61 23.9204 1979 21.9698 1979 20 1979 18.0302 1978.61 16.0796 1977.86 14.2597 1977.1 12.4399 1976 10.7863 1974.61 9.3934 1973.21 8.00052 1971.56 6.89563 1969.74 6.14181 1967.92 5.38799 1965.97 5 1964 5zM2024.97 30.2L2021.83 33.3333M2021 18.3333V10.8333C2021 8.51663 2022.85 6.66663 2025.17 6.66663H2045.17C2047.47 6.66663 2049.33 8.51663 2049.33 10.8333V15.8333M2049.33 15.8333H2046.83C2044.52 15.8333 2042.67 17.6833 2042.67 20 2042.67 22.3 2044.52 24.1666 2046.83 24.1666H2049.33M2049.33 15.8333C2050.25 15.8333 2051 16.5666 2051 17.5V22.5C2051 23.4166 2050.25 24.1666 2049.33 24.1666M2049.33 24.1666V29.1666C2049.33 31.4666 2047.47 33.3333 2045.17 33.3333H2037.67M2028.5 21.6666C2027.17 21.6666 2025.9 22.1934 2024.96 23.1311 2024.03 24.0688 2023.5 25.3405 2023.5 26.6666 2023.5 27.9927 2024.03 29.2645 2024.96 30.2022 2025.9 31.1398 2027.17 31.6666 2028.5 31.6666 2029.83 31.6666 2031.1 31.1398 2032.04 30.2022 2032.97 29.2645 2033.5 27.9927 2033.5 26.6666 2033.5 25.3405 2032.97 24.0688 2032.04 23.1311 2031.1 22.1934 2029.83 21.6666 2028.5 21.6666zM2112.67 30H2117.67M2112.67 25H2117.67M2093 20H2123M2113 12.5H2118M2098 12.5H2103M2100.5 15V10M2098.73 25.7333L2102.27 29.2667M2098.73 29.2667L2102.27 25.7333M2108 5.00001V35M2123 31.0867C2123 33.2367 2121.23 34.9867 2119.08 34.9867H2096.9C2094.73 34.9867 2092.98 33.22 2092.98 31.07V8.88334C2092.98 6.71667 2094.73 4.96667 2096.9 4.96667H2119.06C2121.21 4.96667 2122.96 6.71668 2122.96 8.88001V31.0467L2123 31.0867zM2179.65 15.3334L2185.33 9.63337M2179.28 9.41671C2179.28 9.33337 2179.33 9.26504 2179.42 9.26504 2179.48 9.26504 2179.55 9.31504 2179.55 9.39837 2179.53 9.46504 2179.48 9.53171 2179.4 9.53171 2179.32 9.51504 2179.25 9.46504 2179.25 9.38171V9.36504M2173.33 11.6667V8.83337C2173.33 5.78337 2175.78 3.33337 2178.83 3.33337H2186.17C2189.2 3.33337 2191.67 5.78337 2191.67 8.83337V16.1667C2191.67 19.2 2189.2 21.6667 2186.17 21.6667H2185M2185.71 15.5667C2185.69 15.6334 2185.64 15.7 2185.56 15.7 2185.48 15.6834 2185.41 15.6334 2185.41 15.55 2185.41 15.4667 2185.46 15.4 2185.54 15.4 2185.61 15.4 2185.68 15.45 2185.68 15.5334M2165 21V32.3334C2165 33.8 2167.98 35 2171.67 35 2175.33 35 2178.32 33.8 2178.33 32.3334V21M2165 26.6667C2165 28.1334 2167.97 29.3334 2171.65 29.3334 2175.32 29.3334 2178.32 28.1334 2178.32 26.6667M2178.32 21C2178.32 22.4667 2175.32 23.6667 2171.65 23.6667 2167.97 23.6667 2164.98 22.4667 2164.98 21 2164.98 19.5167 2167.97 18.3334 2171.65 18.3334 2175.33 18.3334 2178.3 19.5167 2178.32 21zM2237 13.3334C2237 15.1667 2240.72 16.6667 2245.33 16.6667M2237 13.3334V26.6667C2237 28.5 2240.73 30 2245.33 30M2237 13.3334C2237 12.4493 2237.88 11.6015 2239.44 10.9764 2241 10.3512 2243.12 10 2245.33 10 2247.54 10 2249.66 10.3512 2251.23 10.9764 2252.79 11.6015 2253.67 12.4493 2253.67 13.3334M2237 13.3334C2237 14.2174 2237.88 15.0653 2239.44 15.6904 2241 16.3155 2243.12 16.6667 2245.33 16.6667M2245.33 16.6667C2247.54 16.6667 2249.66 16.3155 2251.23 15.6904 2252.79 15.0653 2253.67 14.2174 2253.67 13.3334M2267 25C2267 26.8334 2263.27 28.3334 2258.67 28.3334 2254.05 28.3334 2250.33 26.8334 2250.33 25V31.6667C2250.33 33.5 2254.05 35 2258.67 35M2267 25V31.6667C2267 33.5 2263.27 35 2258.67 35M2253.67 13.3334V17.5M2261.17 10.8334L2266.17 5.83337M2266.17 10.8334L2261.17 5.83337M2237 20C2237 21.8334 2240.72 23.3167 2245.33 23.3167M2245.32 23.3334C2240.7 23.3334 2236.98 21.8334 2236.98 20M2267 25C2267 23.15 2263.26 21.6667 2258.66 21.6667 2254.06 21.6667 2250.33 23.15 2250.33 25 2250.33 26.8334 2254.05 28.3334 2258.66 28.3334 2263.26 28.3334 2267 26.8334 2267 25z"
    stroke="#fff"
    stroke-width="2.2"
    stroke-linecap="round"
    stroke-linejoin="round"
  />
  <path
    clip-rule="evenodd"
    d="M2316.92 16.25H2312.33C2310.49 16.25 2309 14.75 2309 12.9167V8.33333C2309 6.49167 2310.49 5 2312.33 5H2316.92C2318.75 5 2320.25 6.49167 2320.25 8.33333V12.9167C2320.25 14.75 2318.75 16.25 2316.92 16.25zM2335.67 16.25H2331.08C2329.23 16.25 2327.75 14.75 2327.75 12.9167V8.33333C2327.75 6.49167 2329.23 5 2331.08 5H2335.67C2337.5 5 2339 6.49167 2339 8.33333V12.9167C2339 14.75 2337.5 16.25 2335.67 16.25zM2316.92 35H2312.33C2310.49 35 2309 33.5 2309 31.6667V27.0833C2309 25.2333 2310.49 23.75 2312.33 23.75H2316.92C2318.75 23.75 2320.25 25.2333 2320.25 27.0833V31.6667C2320.25 33.5 2318.75 35 2316.92 35zM2335.67 35H2331.08C2329.23 35 2327.75 33.5 2327.75 31.6667V27.0833C2327.75 25.2333 2329.23 23.75 2331.08 23.75H2335.67C2337.5 23.75 2339 25.2333 2339 27.0833V31.6667C2339 33.5 2337.5 35 2335.67 35z"
    stroke="#fff"
    stroke-width="2.2"
    stroke-linecap="round"
    stroke-linejoin="round"
  />
  <path
    d="M2399.33 28.3333L2400.17 35M2392.67 28.3333L2391.83 35M2389.57 35H2402.43M2392.77 16.6333V12.1167H2397.32C2398.55 12.1167 2399.57 13.1167 2399.57 14.3733 2399.57 15.6067 2398.55 16.6233 2397.3 16.6233M2395.62 10.8333V12.1167M2395.62 22.5V21.0417M2406.72 28.3333H2385.28C2382.92 28.3333 2380.98 26.4 2380.98 24.0333V9.26667C2380.98 6.90001 2382.9 4.96667 2385.27 4.96667H2406.7C2409.06 4.96667 2410.98 6.88334 2410.98 9.25001V24C2410.98 26.3667 2409.05 28.2833 2406.68 28.2833L2406.72 28.3333zM2397.88 21.0167H2392.76V16.6333H2397.86C2399.06 16.6333 2400.04 17.6 2400.04 18.8167 2400.04 20.0167 2399.06 21 2397.84 21L2397.88 21.0167zM2453 33.3333H2466.33M2453 26.6666H2463M2453 20H2466.33M2453 13.3333H2463M2453 6.66663H2466.33M2478 33.3333V6.66663M2478 33.3333L2482.17 29.1666M2478 33.3333L2473.83 29.1666M2478 6.66663L2473.83 10.8333M2478 6.66663L2482.17 10.8333M4.99365 83.6632H31.6714C33.5131 83.6632 35.0062 85.1562 35.0062 86.9979V102.838C35.0062 105.14 33.1399 107.006 30.8377 107.006H21.6673M28.3367 83.6632V81.9959C28.3367 80.1541 26.8437 78.6611 25.002 78.6611H9.16206C6.85991 78.6611 4.99365 80.5274 4.99365 82.8295V97.0021M16.6652 103.672H4.99365M16.6652 103.672L13.3305 107.006M16.6652 103.672L13.3305 100.337M28.3355 95.3347H26.6688M94.5 91.1833V98.6667M89.5 85.3333V98.6667M84.5 94.1V98.6667M99.5 88.25V98.6667M85.3333 77H98.6667C103.269 77 107 80.731 107 85.3333V98.6667C107 103.269 103.269 107 98.6667 107H85.3333C80.731 107 77 103.269 77 98.6667V85.3333C77 80.731 80.731 77 85.3333 77zM152.334 98.4666L160.784 90.015C161.435 89.3483 162.484 89.3483 163.134 90.015L166.702 93.5816C167.354 94.2316 168.402 94.2316 169.052 93.5816L178.985 83.6483M174.55 83.6666H178.984V88.1M179 106.882H147.2V77.3683M233.5 82C226.583 82 221 87.5833 221 94.5 221 101.4 226.583 107 233.5 107 240.4 107 246 101.4 246 94.5H233.5V82z"
    stroke="#fff"
    stroke-width="2.2"
    stroke-linecap="round"
    stroke-linejoin="round"
  />
  <path
    d="M251 88.6667C251 82.2167 245.767 77 239.333 77V88.6667H251zM299.667 101.167V92.8333M305.217 101.167V82.8333M310.767 101.167V91M316.333 101.167V84.5M296.333 77H319.667C321.5 77 323 78.4917 323 80.3333V103.667C323 105.5 321.5 107 319.667 107H296.333C294.492 107 293 105.5 293 103.667V80.3333C293 78.4833 294.483 77 296.333 77zM390 87V88.6667M380 90.3333V95.3333M375 90.3333V98.6667M370 95.3333V97M385 85.3333V95.3333M386.667 107H373.333C368.731 107 365 103.269 365 98.6667V85.3333C365 80.731 368.731 77 373.333 77H386.667C391.269 77 395 80.731 395 85.3333V98.6667C395 103.269 391.269 107 386.667 107zM451.584 83.6667V85.75M451.584 100.333V98.25M455.717 88.6667C455.6 87.0334 454.267 85.75 452.614 85.75H450.33C448.714 85.75 447.397 87.05 447.397 88.6667 447.397 90 448.31 91.1667 449.597 91.5L453.502 92.4667C454.802 92.7834 455.702 93.95 455.702 95.3 455.702 96.9167 454.385 98.2167 452.769 98.2167H450.485C448.819 98.2167 447.485 96.9167 447.369 95.2834M441.784 81.7834C444.399 79.1684 448.012 77.55 452 77.55 459.967 77.55 466.454 84.0167 466.454 91.9967 466.454 93.0967 466.304 94.18 466.07 95.23M463.834 93.0034L466.434 95.6034 469.034 92.9867M462.217 102.213C459.6 104.813 455.984 106.43 451.984 106.43 444 106.43 437.53 99.9467 437.53 91.9834 437.53 90.8667 437.664 89.7834 437.897 88.7334M440.155 90.9967L437.539 88.38 434.922 90.98M516.5 78.6666V83.6666M538.167 105.333L531.5 90.3333 524.833 105.333M526.317 102H536.683M509.833 97C516.658 96.45 522.627 90.4833 523.168 83.6666H509.835M523.167 97C518.9 96.65 515.17 92.9166 514.833 88.6666M596 93.6667C593.238 93.6667 591 91.4283 591 88.6667 591 85.905 593.238 83.6667 596 83.6667 598.762 83.6667 601 85.905 601 88.6667 601 91.4283 598.762 93.6667 596 93.6667z"
    stroke="#fff"
    stroke-width="2.2"
    stroke-linecap="round"
    stroke-linejoin="round"
  />
  <path
    d="M596 107C596 107 584.333 97.4167 584.333 88.6667 584.333 82.2167 589.55 77 596 77 602.433 77 607.667 82.2167 607.667 88.6667 607.667 97.4167 596 107 596 107zM668 77C666.03 77 664.08 77.388 662.26 78.1418 660.44 78.8956 658.786 80.0005 657.393 81.3934 656.001 82.7863 654.896 84.4399 654.142 86.2597 653.388 88.0796 653 90.0302 653 92 653 93.9698 653.388 95.9204 654.142 97.7403 654.896 99.5601 656.001 101.214 657.393 102.607 658.786 103.999 660.44 105.104 662.26 105.858 664.08 106.612 666.03 107 668 107 669.97 107 671.92 106.612 673.74 105.858 675.56 105.104 677.214 103.999 678.607 102.607 679.999 101.214 681.104 99.5601 681.858 97.7403 682.612 95.9204 683 93.9698 683 92 683 90.0302 682.612 88.0796 681.858 86.2597 681.104 84.4399 679.999 82.7863 678.607 81.3934 677.214 80.0005 675.56 78.8956 673.74 78.1418 671.92 77.388 669.97 77 668 77z"
    stroke="#fff"
    stroke-width="2.2"
    stroke-linecap="round"
    stroke-linejoin="round"
  />
  <path
    d="M668 101.167V82.8333C673.05 82.8333 677.167 86.9333 677.167 92 677.167 97.05 673.05 101.167 668 101.167zM740.65 83.6666V92.6499H733.317M754.9 90.3333C753.967 82.0999 746.55 76.1666 738.317 77.0833 730.083 77.9999 724.15 85.4166 725.067 93.6499 725.833 100.6 731.333 106.1 738.3 106.883M748.75 102H754.584M748.75 102C747.6 102 746.667 102.933 746.667 104.083V106.583C746.667 107.734 747.6 108.667 748.75 108.667H754.584C755.734 108.667 756.667 107.734 756.667 106.583V104.083C756.667 102.933 755.734 102 754.584 102M748.75 102L748.75 99.9166C748.75 98.2999 750.05 96.9999 751.667 96.9999 753.267 96.9999 754.583 98.2999 754.583 99.9166L754.584 102M807.833 77V80.3333C807.833 80.7833 808.217 81.1667 808.667 81.1667H815.333C815.8 81.1667 816.167 80.7833 816.167 80.3333V77M802 100.333V103.667C802 105.5 803.5 107 805.333 107H818.667C820.517 107 822 105.5 822 103.667V80.3333C822 78.4833 820.517 77 818.667 77H805.333C803.5 77 802 78.4833 802 80.3333V83.6667M795.333 92H803.667M803.667 92L800.333 88.6667M803.667 92L800.333 95.3333M885.667 107H892.333C895.083 107 897.333 104.75 897.333 102V86.1667M897.333 86.1667C897.317 84.8333 896.8 83.5667 895.867 82.6167L891.683 78.4333C890.733 77.4833 889.467 76.9667 888.133 76.9667H875.633C872.867 76.9667 870.633 79.2 870.633 81.9667V93.6333M897.333 86.1667L891.5 86.1667C889.65 86.1667 888.167 84.6667 888.167 82.8333V77M875.667 98.6667V107M875.667 107L879 103.667M875.667 107L872.333 103.667M952.667 80.3333L949.333 78.6666V105.333L952.667 103.667M942.667 80.3333L939.333 78.6666V105.333L942.667 103.667M972.667 100.333L959.333 105.333V78.6666L972.667 83.6666V100.333zM1024.13 80.2366C1028.43 75.92 1035.45 75.92 1039.76 80.2366 1044.08 84.5366 1044.08 91.55 1039.76 95.8666M1020.83 95.9166V91.25H1025.54C1026.82 91.25 1027.85 92.2833 1027.85 93.5666 1027.85 94.85 1026.8 95.8833 1025.52 95.8833M1023.78 89.9183V91.2516M1023.78 101.967V100.45M1035.11 95.9466C1035.11 102.047 1030.16 107 1024.05 107 1017.94 107 1013 102.05 1013 95.9466 1013 89.83 1017.93 84.8933 1024.05 84.8933 1030.15 84.8916 1035.11 89.8266 1035.11 95.9466zM1026.12 100.445H1020.83V95.9116H1026.11C1027.34 95.9116 1028.36 96.9116 1028.36 98.1616 1028.36 99.395 1027.34 100.412 1026.09 100.412L1026.12 100.445zM1113.68 94.0166C1114.5 92.3999 1114.98 90.5833 1114.98 88.6499 1114.98 82.1999 1109.75 76.9833 1103.32 76.9833 1101.38 76.9833 1099.55 77.4499 1097.95 78.2933M1096.67 94.8999V90.6499M1096.66 99.5833C1096.55 99.5833 1096.45 99.6666 1096.45 99.7833 1096.45 99.8833 1096.53 99.9833 1096.65 99.9833 1096.75 99.9833 1096.85 99.8833 1096.85 99.7666 1096.85 99.6499 1096.75 99.5499 1096.63 99.5499M1096.67 107C1090.22 107 1085 101.767 1085 95.3333 1085 88.8833 1090.22 83.6666 1096.67 83.6666 1103.11 83.6666 1108.33 88.8916 1108.33 95.3333 1108.33 101.767 1103.1 107 1096.67 107zM1172 107.833C1167.8 107.833 1163.77 106.165 1160.8 103.196 1157.83 100.226 1156.17 96.1992 1156.17 92 1156.17 87.8007 1157.83 83.7734 1160.8 80.8041 1163.77 77.8348 1167.8 76.1666 1172 76.1666 1176.2 76.1666 1180.23 77.8348 1183.2 80.8041 1186.17 83.7734 1187.83 87.8007 1187.83 92M1169.39 89.331C1169.73 86.7724 1172.09 85 1174.65 85.3465 1177.2 85.693 1178.97 88.0517 1178.62 90.6103 1178.33 92.6625 1176.7 94.2883 1174.64 94.5814M1183.46 102.668C1183.55 102.752 1183.55 102.902 1183.46 103.002 1183.36 103.085 1183.21 103.085 1183.11 103.002 1183.01 102.902 1183.01 102.752 1183.11 102.652 1183.2 102.552 1183.35 102.552 1183.45 102.652M1170 89.331C1168.76 89.331 1167.58 89.8224 1166.7 90.6971 1165.83 91.5718 1165.34 92.7581 1165.34 93.9951 1165.34 95.2321 1165.83 96.4184 1166.7 97.2931 1167.58 98.1678 1168.76 98.6592 1170 98.6592 1171.24 98.6592 1172.42 98.1678 1173.3 97.2931 1174.17 96.4184 1174.67 95.2321 1174.67 93.9951 1174.67 92.7581 1174.17 91.5718 1173.3 90.6971 1172.42 89.8224 1171.24 89.331 1170 89.331zM1177.43 103.983C1176.97 103.283 1176.97 102.367 1177.43 101.683 1178.83 99.5333 1181.07 97.8166 1183.29 97.8166 1185.5 97.8166 1187.72 99.5166 1189.14 101.667 1189.59 102.35 1189.59 103.267 1189.14 103.967 1187.72 106.103 1185.49 107.817 1183.27 107.817 1181.04 107.817 1178.82 106.1 1177.42 103.967L1177.43 103.983zM1237.33 78.6667L1239.5 75.9584C1239.82 75.5584 1240.28 75.3334 1240.8 75.3334H1247.18C1247.68 75.3334 1248.17 75.55 1248.48 75.9584L1250.63 78.6667V80.3334C1250.63 81.25 1249.88 82 1248.97 82H1238.97C1238.03 82 1237.3 81.25 1237.3 80.3334V78.6667H1237.33zM1237.33 78.6667L1234 78.6667C1232.15 78.6667 1230.67 80.15 1230.67 82V103.667C1230.67 105.5 1232.15 107 1234 107H1244M1257.33 92V82C1257.33 80.15 1255.83 78.6667 1254 78.6667H1250.67M1254.63 101.835C1254.71 101.918 1254.71 102.068 1254.63 102.168 1254.53 102.252 1254.38 102.252 1254.28 102.168 1254.18 102.068 1254.18 101.918 1254.28 101.818 1254.36 101.718 1254.51 101.718 1254.61 101.818M1237.33 94.5H1245.67M1237.33 88.6667H1250.67M1237.33 100.333H1240.67M1248.6 103.15C1248.13 102.45 1248.13 101.533 1248.6 100.85 1250 98.7 1252.23 96.9834 1254.45 96.9834 1256.67 96.9834 1258.89 98.6834 1260.3 100.833 1260.75 101.517 1260.75 102.433 1260.3 103.133 1258.89 105.27 1256.65 106.983 1254.44 106.983 1252.2 106.983 1249.99 105.267 1248.58 103.133L1248.6 103.15zM1300.99 93.6674L1303.15 91.5079C1303.91 90.754 1304.93 90.3304 1306 90.3304 1307.06 90.3304 1308.08 90.754 1308.84 91.5079L1316 98.6695M1307.67 107.006L1318.16 96.51C1319.73 94.9401 1322.28 94.9401 1323.85 96.51L1330.42 103.078M1331.01 100.337C1331.01 104.02 1328.02 107.006 1324.34 107.006H1307.66C1303.98 107.006 1300.99 104.02 1300.99 100.337V83.6632C1300.99 79.9798 1303.98 76.9938 1307.66 76.9938H1324.34C1328.02 76.9938 1331.01 79.9798 1331.01 83.6632V100.337zM1403 93.6666V100.333C1403 104 1400 107 1396.33 107H1379.67M1379.67 107C1375.98 107 1373 104 1373 100.333V83.6666C1373 79.9833 1375.98 77 1379.67 77H1386.33M1379.67 107L1390.15 96.5C1391.72 94.9166 1394.25 94.9166 1395.82 96.5L1402.37 103.05M1373 93.6666L1375.15 91.5C1376.72 89.9166 1379.25 89.9166 1380.82 91.4833L1387.97 98.6333M1398.63 81.8349C1398.71 81.9183 1398.71 82.0683 1398.63 82.1683 1398.53 82.2516 1398.38 82.2516 1398.28 82.1683 1398.18 82.0683 1398.18 81.9183 1398.28 81.8183 1398.36 81.7183 1398.51 81.7183 1398.61 81.8183M1392.6 83.1499C1392.13 82.4499 1392.13 81.5333 1392.6 80.8499 1394 78.6999 1396.23 76.9833 1398.45 76.9833 1400.67 76.9833 1402.89 78.6833 1404.3 80.8333 1404.75 81.5166 1404.75 82.4333 1404.3 83.1333 1402.89 85.2699 1400.65 86.9833 1398.44 86.9833 1396.2 86.9833 1393.99 85.2666 1392.58 83.1333L1392.6 83.1499zM1460 85.3333V98.6667M1466.67 92H1453.33M1460 107C1451.7 107 1445 100.285 1445 92 1445 83.7 1451.72 77 1460 77 1468.28 77 1475 83.715 1475 92 1475 100.285 1468.28 107 1460 107zM1520.33 92H1543.67M1532 103.667V80.3334M1610.67 92H1597.33M1604 107C1595.7 107 1589 100.285 1589 92 1589 83.7 1595.72 77 1604 77 1612.28 77 1619 83.715 1619 92 1619 100.285 1612.28 107 1604 107zM1664.33 92H1687.67M1740.33 100.333H1739.65C1735.03 100.333 1731.32 96.6 1731.32 92H1731.31C1731.31 87.8333 1734.4 84.3167 1738.51 83.7667V83.75C1739.88 79.6833 1743.68 76.9667 1747.96 76.9667 1753.48 76.9667 1757.96 81.4333 1757.96 86.9667 1761.63 86.9667 1764.63 89.95 1764.63 93.6333 1764.63 97.3 1761.63 100.3 1757.96 100.3H1755.61M1751.33 102L1748 98.6667M1748 98.6667L1744.67 102M1748 98.6667V107M1820 98.6667V107M1820 107L1816.67 103.667M1820 107L1823.33 103.667M1812.33 100.333H1811.65C1807.03 100.333 1803.32 96.6 1803.32 92H1803.31C1803.31 87.8333 1806.4 84.3167 1810.51 83.7667V83.75C1811.88 79.6833 1815.68 76.9667 1819.96 76.9667 1825.48 76.9667 1829.96 81.4333 1829.96 86.9667 1833.63 86.9667 1836.63 89.95 1836.63 93.6333 1836.63 97.3 1833.63 100.3 1829.96 100.3H1827.61M1883.67 87L1886.17 84.5 1883.67 82M1882 100.333V97M1904.5 107H1880.33C1878.48 107 1877 105.5 1877 103.667V102C1877 101.067 1877.73 100.333 1878.67 100.333H1900.33C1901.25 100.333 1902 101.067 1902 102V104.5C1902 105.867 1903.12 107 1904.5 107zM1904.5 107C1905.87 107 1907 105.867 1907 104.5V80.3333C1907 78.4833 1905.5 77 1903.67 77H1897M1881.17 77H1887.83C1890.13 77 1892 78.8655 1892 81.1667V87.8333C1892 90.1345 1890.13 92 1887.83 92H1881.17C1878.87 92 1877 90.1345 1877 87.8333V81.1667C1877 78.8655 1878.87 77 1881.17 77zM1964 77V107M1967.61 79.3683L1964 82.9683 1960.38 79.3517M1977.33 84.3L1950.67 99.7M1976.73 88.8133L1971.78 87.48 1973.1 82.53M1951.26 95.1833L1956.19 96.5 1954.86 101.433M1950.67 84.3L1977.33 99.7M1951.26 88.8133L1956.19 87.48 1954.86 82.53M1976.73 95.1833L1971.78 96.5 1973.1 101.433M1960.39 104.617L1963.99 101 1967.59 104.6M2051 85.3333V80.3333C2051 78.4917 2049.5 77 2047.67 77H2042.67M2029.33 77H2024.33C2022.49 77 2021 78.4917 2021 80.3333V85.3333M2021 98.6667V103.667C2021 105.5 2022.49 107 2024.33 107H2029.33M2042.67 107H2047.67C2049.5 107 2051 105.5 2051 103.667V98.6667M2021 92H2051M2108.83 92.8333H2117.17M2108.83 97H2113M2108.83 101.167H2114.67M2113 82V80.3333C2113 78.5 2111.5 77 2109.67 77H2096.33C2094.48 77 2093 78.5 2093 80.3333V93.6667C2093 95.5167 2094.48 97 2096.33 97H2098M2103 90.3333V103.667C2103 105.508 2104.49 107 2106.33 107H2119.67C2121.51 107 2123 105.508 2123 103.667V90.3333C2123 88.4924 2121.51 87 2119.67 87H2106.33C2104.49 87 2103 88.4924 2103 90.3333zM2185 82V80.3333C2185 78.5 2183.5 77 2181.67 77H2168.33C2166.48 77 2165 78.5 2165 80.3333V93.6667C2165 95.5167 2166.48 97 2168.33 97H2170M2175 90.3333V103.667C2175 105.508 2176.49 107 2178.33 107H2191.67C2193.51 107 2195 105.508 2195 103.667V90.3333C2195 88.4924 2193.51 87 2191.67 87H2178.33C2176.49 87 2175 88.4924 2175 90.3333zM2243.67 92H2260.33M2243.67 85.3333H2260.33M2243.67 98.6667H2252M2243.67 107H2260.33C2264.02 107 2267 104.015 2267 100.333V83.6667C2267 79.9848 2264.02 77 2260.33 77H2243.67C2239.98 77 2237 79.9848 2237 83.6667V100.333C2237 104.015 2239.98 107 2243.67 107zM2329 82V80.3333C2329 78.5 2327.5 77 2325.67 77H2312.33C2310.48 77 2309 78.5 2309 80.3333V93.6667C2309 95.5167 2310.48 97 2312.33 97H2314M2329 92.8333V101.167M2324.83 97H2333.17M2319 90.3333V103.667C2319 105.508 2320.49 107 2322.33 107H2335.67C2337.51 107 2339 105.508 2339 103.667V90.3333C2339 88.4924 2337.51 87 2335.67 87H2322.33C2320.49 87 2319 88.4924 2319 90.3333zM2401.42 88.875L2395.17 95.125 2391.42 91.375M2409.33 90.6367C2409.33 98.205 2403.63 105.282 2396 107 2388.36 105.267 2382.67 98.2 2382.67 90.6367V84.6917C2382.67 83.325 2383.48 82.1084 2384.73 81.5917L2393.07 78.175C2394.93 77.3917 2397.05 77.3917 2398.92 78.175L2407.25 81.575C2408.5 82.075 2409.32 83.2917 2409.32 84.6584V90.6034L2409.33 90.6367zM2470.55 90.5417V88.2917C2470.55 86.8867 2469.4 85.7417 2468 85.7417 2466.59 85.7417 2465.45 86.8751 2465.45 88.2751V90.5084M2470.92 90.5334H2465.08C2464.15 90.5334 2463.42 91.2667 2463.42 92.2001V95.7334C2463.42 96.6501 2464.15 97.4001 2465.08 97.4001H2470.92C2471.83 97.4001 2472.58 96.6501 2472.58 95.7334V92.1834C2472.58 91.2501 2471.83 90.5167 2470.92 90.5167V90.5334zM2481.33 90.7334C2481.33 98.0134 2476.07 104.833 2468.87 106.867 2468.3 107.017 2467.7 107.017 2467.13 106.867 2459.92 104.817 2454.67 98.0001 2454.67 90.7167V84.0001C2454.67 82.6334 2455.48 81.4167 2456.73 80.9151L2464.83 77.5984C2466.85 76.7651 2469.12 76.7651 2471.13 77.5984L2479.23 80.9151C2480.48 81.4151 2481.3 82.6317 2481.3 84.0001V90.7134L2481.33 90.7334zM20.2948 162.872C20.4448 163.022 20.4448 163.288 20.2948 163.455 20.1282 163.605 19.8615 163.605 19.6948 163.455 19.5282 163.288 19.5282 163.022 19.6948 162.855 19.8448 162.688 20.1115 162.688 20.2782 162.855M26.9498 162.872C27.0998 163.022 27.0998 163.288 26.9498 163.455 26.7832 163.605 26.5165 163.605 26.3498 163.455 26.1832 163.288 26.1832 163.022 26.3498 162.855 26.4998 162.688 26.7665 162.688 26.9332 162.855M13.6282 162.872C13.7782 163.022 13.7782 163.288 13.6282 163.455 13.4615 163.605 13.1948 163.605 13.0282 163.455 12.8615 163.288 12.8615 163.022 13.0282 162.855 13.1782 162.688 13.4448 162.688 13.6115 162.855M33.3332 162.637C33.3332 170.205 27.6332 177.282 19.9998 179 12.3548 177.267 6.6665 170.2 6.6665 162.637V156.053C6.6665 154.687 7.48317 153.47 8.58317 153.02L16.9165 149.61C18.9332 148.777 21.0332 148.777 22.9165 149.543L31.2498 152.943C32.4998 153.443 33.3165 154.66 33.3165 156.028V162.595L33.3332 162.637zM101.15 164C101.15 164.467 101.517 164.833 101.984 164.833 102.434 164.833 102.817 164.467 102.817 164 102.817 163.55 102.434 163.167 101.984 163.167 101.517 163.167 101.15 163.55 101.15 164.017M91.1504 164C91.1504 164.467 91.5171 164.833 91.9837 164.833 92.4337 164.833 92.8171 164.467 92.8171 164 92.8171 163.55 92.4337 163.167 91.9837 163.167 91.5171 163.167 91.1504 163.55 91.1504 164.017M81.1504 164C81.1504 164.467 81.5171 164.833 81.9837 164.833 82.4337 164.833 82.8171 164.467 82.8171 164 82.8171 163.55 82.4337 163.167 81.9837 163.167 81.5171 163.167 81.1504 163.55 81.1504 164.017M172.333 179H164C161.033 179 158.133 178.12 155.666 176.472 153.2 174.824 151.277 172.481 150.142 169.74 149.006 166.999 148.709 163.983 149.288 161.074 149.867 158.164 151.296 155.491 153.393 153.393 155.491 151.296 158.164 149.867 161.074 149.288 163.983 148.709 166.999 149.006 169.74 150.142 172.481 151.277 174.824 153.2 176.472 155.666 178.12 158.133 179 161.033 179 164V166.5C179 167.605 178.561 168.665 177.78 169.446 176.998 170.228 175.938 170.667 174.833 170.667 173.728 170.667 172.668 170.228 171.887 169.446 171.106 168.665 170.667 167.605 170.667 166.5V164M170.667 164C170.667 162.232 169.964 160.536 168.714 159.286 167.464 158.036 165.768 157.333 164 157.333 162.681 157.333 161.393 157.724 160.296 158.457 159.2 159.189 158.345 160.231 157.841 161.449 157.336 162.667 157.204 164.007 157.461 165.301 157.719 166.594 158.354 167.782 159.286 168.714 160.218 169.646 161.406 170.281 162.699 170.539 163.993 170.796 165.333 170.664 166.551 170.159 167.769 169.655 168.811 168.8 169.543 167.704 170.276 166.607 170.667 165.319 170.667 164zM239.543 172.77L237.115 175.198C236.283 176.03 235.296 176.691 234.209 177.141 233.123 177.591 231.958 177.823 230.782 177.823 229.605 177.823 228.44 177.591 227.354 177.141 226.267 176.691 225.28 176.03 224.448 175.198 223.616 174.367 222.956 173.379 222.506 172.293 222.056 171.206 221.824 170.041 221.824 168.865 221.824 167.689 222.056 166.524 222.506 165.437 222.956 164.351 223.616 163.363 224.448 162.532L226.883 160.11M230.825 168.828L241.175 158.478M232.457 154.537L234.885 152.108C235.716 151.276 236.703 150.615 237.79 150.165 238.877 149.714 240.042 149.482 241.218 149.482 242.395 149.482 243.56 149.714 244.646 150.165 245.733 150.615 246.72 151.276 247.552 152.108 248.384 152.94 249.044 153.927 249.494 155.014 249.945 156.101 250.176 157.265 250.176 158.442 250.176 159.618 249.945 160.783 249.494 161.869 249.044 162.956 248.384 163.943 247.552 164.775L245.117 167.197M318.833 154.833V175.667C318.833 176.551 318.482 177.399 317.857 178.024 317.232 178.649 316.384 179 315.5 179H300.5C299.616 179 298.768 178.649 298.143 178.024 297.518 177.399 297.167 176.551 297.167 175.667V154.833M321.333 154.833H294.667M311.333 172.333V162.333M304.667 172.333V162.333M302.167 154.833V151.5C302.167 150.837 302.43 150.201 302.899 149.732 303.368 149.263 304.003 149 304.667 149H311.333C311.996 149 312.632 149.263 313.101 149.732 313.57 150.201 313.833 150.837 313.833 151.5V154M374.073 164.565L377.685 168.177 377.662 168.153 385.81 160.005M395 164C395 172.284 388.284 179 380 179 371.716 179 365 172.284 365 164 365 155.716 371.716 149 380 149 388.284 149 395 155.716 395 164zM457.927 162.518L452 168.445M452 168.445L446.073 162.518M452 168.445V150.667M465.333 171.407C465.333 172.978 464.709 174.486 463.597 175.597 462.486 176.709 460.978 177.333 459.407 177.333H444.593C443.021 177.333 441.514 176.709 440.402 175.597 439.291 174.486 438.667 172.978 438.667 171.407M514 172.333L532.333 156.5 522.333 149V179L532.333 171.5 514 155.667M584.333 152.333L607.667 175.667M607.667 152.333L584.333 175.667M681.333 154.833L663 173.167 654.667 164.833M747.658 165.875C747.308 165.875 747.025 166.142 747.025 166.492 747.025 166.825 747.292 167.117 747.65 167.108 747.983 167.108 748.275 166.825 748.275 166.483 748.275 166.133 747.992 165.858 747.642 165.858M725 152.333V174.833C725 176.667 726.492 178.167 728.333 178.167H751.667C753.5 178.167 755 176.667 755 174.833V158.167C755 156.317 753.5 154.833 751.667 154.833H727.5C726.117 154.833 725 153.7 725 152.333zM725 152.333C725 150.95 726.117 149.833 727.5 149.833H748.333M812 179V157.333M818.16 155.017C816.36 156.883 813.527 157.33 812.16 157.33M812.15 157.333C812.15 157.333 811.317 152.133 813.35 150.033M818.15 155.017C819.467 153.633 819.467 151.4 818.15 150.017 816.817 148.633 814.667 148.633 813.358 150.017M811.817 157.33C810.45 157.33 807.617 156.883 805.833 155.017 804.5 153.633 804.5 151.4 805.833 150.017 807.15 148.633 809.3 148.633 810.625 150.017M811.835 157.333C811.835 157.333 812.652 152.133 810.618 150.033M823.667 164V177.333C823.667 178.25 822.917 179 822 179H802C801.067 179 800.333 178.25 800.333 177.333V164M825.333 157.333H798.667C797.747 157.333 797 158.067 797 159V162.333C797 163.25 797.733 164 798.667 164H825.333C826.25 164 827 163.25 827 162.333V159C827 158.067 826.25 157.333 825.333 157.333zM877.333 160.667V155.667C877.333 151.983 880.317 149 884 149 887.667 149 890.667 151.983 890.667 155.667V160.667M892.333 179H875.667C873.817 179 872.333 177.5 872.333 175.667V164C872.333 162.15 873.817 160.667 875.667 160.667H892.333C894.167 160.667 895.667 162.15 895.667 164V175.667C895.667 177.5 894.167 179 892.333 179zM962.667 179H966C968.75 179 971 176.75 971 174V170.667M962.667 149H966C968.75 149 971 151.233 971 154V157.333M941 170.667V174C941 176.75 943.233 179 946 179H949.333M941 157.333V154C941 151.233 943.233 149 946 149H949.333M958.583 166.5H958.567L958.55 166.483V166.467M964.258 166.5H964.242L964.225 166.483V166.467M958.583 172.333H958.567L958.55 172.317V172.3M964.25 172.333H964.233L964.217 172.317V172.3M961.425 169.417H961.408L961.392 169.4V169.383M959.332 155.667H963.498C963.959 155.667 964.332 156.04 964.332 156.5V160.667C964.332 161.127 963.959 161.5 963.498 161.5H959.332C958.871 161.5 958.498 161.127 958.498 160.667V156.5C958.498 156.04 958.871 155.667 959.332 155.667zM948.498 155.667H952.665C953.125 155.667 953.498 156.04 953.498 156.5V160.667C953.498 161.127 953.125 161.5 952.665 161.5H948.498C948.038 161.5 947.665 161.127 947.665 160.667V156.5C947.665 156.04 948.038 155.667 948.498 155.667zM948.498 166.5H952.665C953.125 166.5 953.498 166.873 953.498 167.333V171.5C953.498 171.96 953.125 172.333 952.665 172.333H948.498C948.038 172.333 947.665 171.96 947.665 171.5V167.333C947.665 166.873 948.038 166.5 948.498 166.5zM1013.85 159H1042.15M1013.85 169H1042.15M1028 149.167C1035.22 149.167 1035.22 178.833 1028 178.833 1020.78 178.833 1020.78 149.167 1028 149.167zM1028 149C1036.3 149 1043 155.697 1043 164 1043 172.3 1036.3 179 1028 179 1019.7 179 1013 172.3 1013 164 1013 155.697 1019.7 149 1028 149zM1100 165.867V159.633M1099.98 170.875C1099.75 170.875 1099.57 171.058 1099.57 171.292 1099.57 171.508 1099.75 171.708 1099.98 171.708 1100.2 171.708 1100.4 171.508 1100.4 171.292 1100.4 171.058 1100.2 170.875 1099.97 170.875M1103.38 150.883L1116.13 173.223C1117.62 175.807 1115.73 179.052 1112.75 179.052H1087.22C1084.23 179.052 1082.35 175.82 1083.84 173.223L1096.58 150.883C1098.07 148.25 1101.85 148.25 1103.35 150.883H1103.38zM1173.6 149L1159.9 167.333H1171.98L1170.37 179 1184.05 160.667H1171.97L1173.6 149zM1248.72 159.283L1239.28 168.717M1248.72 168.717L1239.28 159.283M1244 179C1235.7 179 1229 172.285 1229 164 1229 155.7 1235.72 149 1244 149 1252.28 149 1259 155.715 1259 164 1259 172.285 1252.28 179 1244 179zM1324.33 173.861C1324.33 174.25 1324.64 174.556 1325.03 174.556 1325.4 174.556 1325.72 174.25 1325.72 173.861 1325.72 173.486 1325.4 173.167 1325.03 173.167 1324.64 173.167 1324.33 173.486 1324.33 173.875M1309.93 164L1302.59 156.66C1302.26 156.335 1302.26 155.807 1302.59 155.482L1308.48 149.589C1308.81 149.264 1309.33 149.264 1309.66 149.589L1324.07 164M1301.73 179H1326C1328.76 179 1331 176.761 1331 174 1331 171.239 1328.76 169 1326 169H1301.73C1301.33 169 1301 169.328 1301 169.732V178.268C1301 178.672 1301.33 179 1301.73 179z"
    stroke="#fff"
    stroke-width="2.2"
    stroke-linecap="round"
    stroke-linejoin="round"
  />
  <path
    d="M1398 155.667H1399.17C1399.35 155.667 1399.5 155.816 1399.5 156V160.333C1399.5 160.517 1399.35 160.667 1399.17 160.667H1398M1378.83 179H1394.67C1396.51 179 1398 177.508 1398 175.667V152.333C1398 150.492 1396.51 149 1394.67 149H1378.83C1378.37 149 1378 149.373 1378 149.833V178.167C1378 178.627 1378.37 179 1378.83 179Z"
    stroke="#fff"
    stroke-width="2.2"
  />
  <path
    d="M1463.33 172.333L1464.17 179M1456.67 172.333L1455.83 179M1452 179H1468M1475 166.5H1445M1471.67 172.333H1448.33C1446.49 172.333 1445 170.833 1445 169V152.333C1445 150.492 1446.49 149 1448.33 149H1471.67C1473.5 149 1475 150.492 1475 152.333V169C1475 170.833 1473.5 172.333 1471.67 172.333zM1527.83 149V152C1527.78 152.5 1528.15 152.933 1528.67 153H1535.33 1535.33C1535.83 152.933 1536.2 152.5 1536.16 152V149M1528.67 174H1535.33M1538.67 179H1525.33C1523.48 179 1522 177.5 1522 175.667V152.333C1522 150.483 1523.48 149 1525.33 149H1538.67C1540.5 149 1542 150.483 1542 152.333V175.667C1542 177.5 1540.5 179 1538.67 179zM1604 173.792C1603.88 173.792 1603.79 173.875 1603.78 174 1603.78 174.1 1603.86 174.208 1603.99 174.208 1604.09 174.208 1604.2 174.108 1604.2 174 1604.2 173.883 1604.1 173.792 1603.98 173.792M1615.67 175.25V152.75C1615.67 150.667 1613.98 149 1611.92 149H1596.08C1594 149 1592.33 150.667 1592.33 152.75V175.25C1592.33 177.317 1594 179 1596.08 179H1611.92C1613.98 179 1615.67 177.317 1615.67 175.25z"
    stroke="#fff"
    stroke-width="2.2"
    stroke-linecap="round"
    stroke-linejoin="round"
  />
  <path
    d="M1665.17 164H1686.83M1665.17 172.667H1686.83M1665.17 155.333H1686.83"
    stroke="#fff"
    stroke-width="2.5"
    stroke-linecap="round"
    stroke-linejoin="round"
  />
  <path
    d="M1762.65 159.867C1763.97 161.183 1763.97 163.317 1762.65 164.633 1761.32 165.95 1759.18 165.95 1757.87 164.633 1756.53 163.3 1756.53 161.167 1757.87 159.85 1759.18 158.517 1761.32 158.517 1762.63 159.848M1751.67 153.85C1753.68 155.867 1753.68 159.15 1751.67 161.183 1749.63 163.2 1746.35 163.2 1744.32 161.183 1742.28 159.15 1742.28 155.867 1744.32 153.833 1746.33 151.8 1749.62 151.8 1751.65 153.833M1738.1 159.867C1739.42 161.183 1739.42 163.317 1738.1 164.633 1736.77 165.95 1734.63 165.95 1733.32 164.633 1731.98 163.3 1731.98 161.167 1733.32 159.85 1734.63 158.517 1736.77 158.517 1738.08 159.848M1766.33 175.667V173.833C1766.33 171.517 1764.47 169.667 1762.17 169.667H1760.82M1729.67 175.667V173.833C1729.67 171.517 1731.52 169.667 1733.83 169.667H1735.17M1756.88 175.667V172.983C1756.88 169.75 1754.27 167.15 1751.05 167.15H1744.92C1741.68 167.15 1739.08 169.75 1739.08 172.983V175.65M1806.67 177.333C1806.67 173.167 1810 169.833 1814.17 169.833H1818.5M1829.17 178.167V169.833M1825 174H1833.33M1825 152.667C1827.83 155.5 1827.83 160 1825 162.667 1822.17 165.333 1817.67 165.5 1815 162.667 1812.33 159.833 1812.17 155.333 1815 152.667 1817.83 150 1822.17 150 1825 152.667z"
    stroke="#fff"
    stroke-width="2.2"
    stroke-linecap="round"
    stroke-linejoin="round"
  />
  <path
    d="M1878.67 177.333C1878.67 173.183 1882.02 169.833 1886.17 169.833H1890.47M1898.22 176.95L1904.12 171.05M1898.22 171.05L1904.12 176.95M1892 150.667C1891.07 150.667 1890.15 150.85 1889.29 151.206C1888.43 151.562 1887.65 152.084 1886.99 152.741C1886.33 153.399 1885.81 154.18 1885.46 155.039C1885.1 155.899 1884.92 156.82 1884.92 157.75C1884.92 158.68 1885.1 159.601 1885.46 160.461C1885.81 161.32 1886.33 162.101 1886.99 162.759C1887.65 163.416 1888.43 163.938 1889.29 164.294C1890.15 164.65 1891.07 164.833 1892 164.833C1892.93 164.833 1893.85 164.65 1894.71 164.294C1895.57 163.938 1896.35 163.416 1897.01 162.759C1897.67 162.101 1898.19 161.32 1898.54 160.461C1898.9 159.601 1899.08 158.68 1899.08 157.75C1899.08 156.82 1898.9 155.899 1898.54 155.039C1898.19 154.18 1897.67 153.399 1897.01 152.741C1896.35 152.084 1895.57 151.562 1894.71 151.206C1893.85 150.85 1892.93 150.667 1892 150.667Z"
    stroke="#fff"
    stroke-width="2.2"
    stroke-miterlimit="10"
    stroke-linecap="round"
    stroke-linejoin="round"
  />
  <path
    d="M1955.67 157.333V150.667C1955.67 149.747 1956.4 149 1957.33 149H1970.67C1971.58 149 1972.33 149.733 1972.33 150.667V157.333M1955.67 172.333H1952.33C1950.49 172.333 1949 170.833 1949 169V160.667C1949 158.817 1950.49 157.333 1952.33 157.333H1975.67C1977.5 157.333 1979 158.817 1979 160.667V169C1979 170.833 1977.5 172.333 1975.67 172.333H1972.33M1955.67 162.333H1957.33M1955.67 167H1972.33V177.333C1972.33 178.25 1971.58 179 1970.67 179H1957.33C1956.4 179 1955.67 178.25 1955.67 177.333V167zM2021 179C2021 175.783 2023.61 173.167 2026.82 173.167H2033.5C2036.72 173.167 2039.32 175.773 2039.32 178.983M2042.67 173.177H2045.17C2048.38 173.177 2050.98 175.783 2050.98 178.993M2045.3 151.5H2052.37M2048.83 155.036V147.964M2030.17 158.177C2029.51 158.177 2028.86 158.306 2028.25 158.557 2027.65 158.809 2027.1 159.177 2026.63 159.641 2026.17 160.105 2025.8 160.657 2025.55 161.263 2025.3 161.87 2025.17 162.52 2025.17 163.177 2025.17 163.833 2025.3 164.483 2025.55 165.09 2025.8 165.697 2026.17 166.248 2026.63 166.712 2027.1 167.177 2027.65 167.545 2028.25 167.796 2028.86 168.047 2029.51 168.177 2030.17 168.177 2030.82 168.177 2031.47 168.047 2032.08 167.796 2032.69 167.545 2033.24 167.177 2033.7 166.712 2034.17 166.248 2034.53 165.697 2034.79 165.09 2035.04 164.483 2035.17 163.833 2035.17 163.177 2035.17 162.52 2035.04 161.87 2034.79 161.263 2034.53 160.657 2034.17 160.105 2033.7 159.641 2033.24 159.177 2032.69 158.809 2032.08 158.557 2031.47 158.306 2030.82 158.177 2030.17 158.177zM2042.67 161.51C2041.78 161.51 2040.93 161.861 2040.31 162.486 2039.68 163.111 2039.33 163.959 2039.33 164.843 2039.33 165.727 2039.68 166.575 2040.31 167.2 2040.93 167.825 2041.78 168.177 2042.67 168.177 2043.55 168.177 2044.4 167.825 2045.02 167.2 2045.65 166.575 2046 165.727 2046 164.843 2046 163.959 2045.65 163.111 2045.02 162.486 2044.4 161.861 2043.55 161.51 2042.67 161.51zM2104.82 157.583C2106.27 159.033 2106.27 161.417 2104.82 162.883 2103.35 164.333 2100.97 164.333 2099.5 162.883 2098.03 161.417 2098.03 159.033 2099.5 157.567 2100.95 156.1 2103.33 156.1 2104.8 157.567M2113 159.833H2119.67M2117 166.5H2113M2108.15 171.5C2107.85 170.767 2107.4 170.1 2106.82 169.577 2105.83 168.66 2104.55 168.16 2103.22 168.16H2101.06C2099.72 168.16 2098.44 168.66 2097.46 169.56 2096.88 170.093 2096.43 170.743 2096.13 171.483M2091.33 174.833V153.233C2091.33 151.35 2092.85 149.817 2094.73 149.817H2121.33C2123.17 149.817 2124.67 151.3 2124.67 153.15V174.817C2124.67 176.65 2123.17 178.15 2121.33 178.15H2094.67C2092.82 178.15 2091.33 176.65 2091.33 174.817L2091.33 174.833zM2166.67 167.517C2166.67 169.95 2172.28 171.917 2179.22 171.917M2191.67 153.4C2191.67 155.833 2186.07 157.8 2179.17 157.8 2172.25 157.8 2166.67 155.817 2166.67 153.383M2191.67 160.467C2191.67 162.9 2186.07 164.867 2179.17 164.867 2172.25 164.867 2166.67 162.883 2166.67 160.45M2192.87 174V171.867C2192.87 170.35 2191.57 168.983 2189.99 168.983 2188.39 168.983 2187.11 170.267 2187.11 171.85V173.967M2179.23 179C2172.29 179 2166.67 177.017 2166.67 174.583V153.4C2166.67 150.95 2172.25 148.983 2179.17 148.983 2186.07 148.983 2191.67 150.95 2191.67 153.383V163.967M2193.38 180.667H2186.62C2185.72 180.667 2184.99 179.933 2184.99 179.033V175.6C2184.99 174.7 2185.71 173.967 2186.61 173.967H2193.36C2194.24 173.967 2194.98 174.683 2194.98 175.583V179C2194.98 179.883 2194.24 180.617 2193.34 180.617L2193.38 180.667zM2247 174V174.417C2247 177.167 2249.23 179.417 2252 179.417 2254.75 179.417 2257 177.167 2257 174.417V174M2262 166.917L2264.83 169.75C2265.13 170.05 2265.32 170.483 2265.32 170.917V172.3C2265.32 173.217 2264.57 173.967 2263.65 173.967H2240.32C2239.38 173.967 2238.65 173.217 2238.65 172.3V170.9C2238.65 170.45 2238.82 170.033 2239.13 169.717L2241.97 166.867V159.783C2241.97 154.25 2246.43 149.783 2251.97 149.783 2257.48 149.782 2261.97 154.25 2261.97 159.783L2262 166.917zM2309 159H2339M2319.95 165.667H2315.67M2334 175.667H2314C2311.24 175.667 2309 173.428 2309 170.667V157.333C2309 154.572 2311.24 152.333 2314 152.333H2334C2336.76 152.333 2339 154.572 2339 157.333V170.667C2339 173.428 2336.76 175.667 2334 175.667zM2395.98 157.333C2395.75 157.333 2395.57 157.517 2395.57 157.75 2395.57 157.967 2395.75 158.167 2395.98 158.167 2396.2 158.167 2396.4 157.967 2396.4 157.75 2396.4 157.517 2396.2 157.333 2395.97 157.333M2396 164V172.333M2396 179C2387.7 179 2381 172.285 2381 164 2381 155.7 2387.72 149 2396 149 2404.28 149 2411 155.715 2411 164 2411 172.285 2404.28 179 2396 179zM2471.33 154V160.95C2471.33 161.833 2471.68 162.667 2472.3 163.3L2480.33 171.333C2480.96 171.958 2481.3 172.8 2481.3 173.683V175.633C2481.3 177.467 2479.8 178.967 2477.97 178.967H2457.97C2456.12 178.967 2454.63 177.467 2454.63 175.633V173.667C2454.63 172.783 2454.98 171.933 2455.6 171.3L2463.63 163.25C2464.26 162.625 2464.6 161.767 2464.6 160.883V153.917M2471.33 154C2472.25 154 2473 153.25 2473 152.333V150.667C2473 149.733 2472.25 149 2471.33 149H2464.67C2463.73 149 2463 149.747 2463 150.667V152.333C2463 153.25 2463.73 154 2464.67 154H2471.33zM2454.97 172.333H2481.03M2464.37 162.333H2471.63M26.1667 222.667C31.45 222.667 35 227.633 35 232.267 35 241.65 20.2667 249.333 20 249.333 19.7333 249.333 5 241.65 5 232.267 5 227.633 8.55 222.667 13.8333 222.667 16.8667 222.667 18.85 224.183 20 225.517 21.15 224.183 23.1333 222.667 26.1667 222.667zM106.167 233.05L94.95 221.833M104.298 231.167L86.8483 248.6C84.7817 250.65 81.4317 250.65 79.365 248.6 79.3483 248.583 79.3483 248.583 79.3483 248.583 77.2817 246.517 77.28 243.167 79.33 241.1 79.33 241.083 79.33 241.083 79.33 241.083L96.7633 223.633M83.6833 236.833H98.6333M168.117 231.883L174.6 225.4M153.4 246.6L159.883 240.117M159.883 231.883L153.4 225.4M174.6 246.6L168.117 240.117M164 221C162.03 221 160.08 221.388 158.26 222.142 156.44 222.896 154.786 224.001 153.393 225.393 152.001 226.786 150.896 228.44 150.142 230.26 149.388 232.08 149 234.03 149 236 149 237.97 149.388 239.92 150.142 241.74 150.896 243.56 152.001 245.214 153.393 246.607 154.786 247.999 156.44 249.104 158.26 249.858 160.08 250.612 162.03 251 164 251 165.97 251 167.92 250.612 169.74 249.858 171.56 249.104 173.214 247.999 174.607 246.607 175.999 245.214 177.104 243.56 177.858 241.74 178.612 239.92 179 237.97 179 236 179 234.03 178.612 232.08 177.858 230.26 177.104 228.44 175.999 226.786 174.607 225.393 173.214 224.001 171.56 222.896 169.74 222.142 167.92 221.388 165.97 221 164 221zM164 230.167C163.234 230.167 162.475 230.318 161.768 230.611 161.06 230.904 160.417 231.334 159.875 231.875 159.334 232.417 158.904 233.06 158.611 233.768 158.318 234.475 158.167 235.234 158.167 236 158.167 236.766 158.318 237.525 158.611 238.232 158.904 238.94 159.334 239.583 159.875 240.125 160.417 240.666 161.06 241.096 161.768 241.389 162.475 241.682 163.234 241.833 164 241.833 164.766 241.833 165.525 241.682 166.232 241.389 166.94 241.096 167.583 240.666 168.125 240.125 168.666 239.583 169.096 238.94 169.389 238.232 169.682 237.525 169.833 236.766 169.833 236 169.833 235.234 169.682 234.475 169.389 233.768 169.096 233.06 168.666 232.417 168.125 231.875 167.583 231.334 166.94 230.904 166.232 230.611 165.525 230.318 164.766 230.167 164 230.167zM234.333 230.167L232.667 228.5M237.667 230.167L239.333 228.5M244.333 231.833C239.717 236.433 232.267 236.433 227.667 231.833M230.75 240.45V240.448C229.6 240.998 228.55 241.748 227.65 242.648M244.333 242.667C243.417 241.75 242.383 241 241.233 240.45M229.75 237.25H226.833M245.167 237.25H242.25M236 230.167C234.342 230.167 232.753 230.869 231.581 232.119 230.408 233.37 229.75 235.065 229.75 236.833 229.75 238.601 230.408 240.297 231.581 241.547 232.753 242.798 234.342 243.5 236 243.5 237.658 243.5 239.247 242.798 240.419 241.547 241.592 240.297 242.25 238.601 242.25 236.833 242.25 235.065 241.592 233.37 240.419 232.119 239.247 230.869 237.658 230.167 236 230.167zM229.333 221H242.667C247.269 221 251 224.731 251 229.333V242.667C251 247.269 247.269 251 242.667 251H229.333C224.731 251 221 247.269 221 242.667V229.333C221 224.731 224.731 221 229.333 221zM304.667 251H296.333C294.483 251 293 249.5 293 247.667V224.333C293 222.483 294.483 221 296.333 221H313C314.833 221 316.333 222.483 316.333 224.333V227.667M314.667 246.817H318M320 251H312.667C311 251 309.667 249.65 309.667 248V235.667C309.667 234 311 232.667 312.667 232.667H320C321.65 232.667 323 234 323 235.667V248C323 249.65 321.65 251 320 251zM372.883 236C372.883 232.067 376.067 228.883 379.983 228.883M397.983 225.6C399.883 228.9 393.383 236.25 383.433 241.983 373.483 247.717 363.867 249.683 361.967 246.367M362 246.4C360.833 244.383 362.783 240.883 366.717 237.15M387.65 225.083C392.833 223.533 396.833 223.6 398 225.6M380 222.667C376.464 222.667 373.072 224.071 370.572 226.572 368.071 229.072 366.667 232.464 366.667 236 366.667 239.536 368.071 242.928 370.572 245.428 373.072 247.929 376.464 249.333 380 249.333 383.536 249.333 386.928 247.929 389.428 245.428 391.929 242.928 393.333 239.536 393.333 236 393.333 232.464 391.929 229.072 389.428 226.572 386.928 224.071 383.536 222.667 380 222.667zM448.133 232.133C448.517 230.417 450.067 229.25 451.817 229.317 453.767 229.2 455.433 230.683 455.567 232.65 455.567 235.15 451.983 235.983 451.983 237.65M452 242C451.883 242 451.792 242.092 451.792 242.208 451.792 242.321 451.883 242.417 452 242.417 452.112 242.417 452.208 242.321 452.208 242.208 452.208 242.092 452.113 242 451.996 242M452 221C450.03 221 448.08 221.388 446.26 222.142 444.44 222.896 442.786 224.001 441.393 225.393 440.001 226.786 438.896 228.44 438.142 230.26 437.388 232.08 437 234.03 437 236 437 237.97 437.388 239.92 438.142 241.74 438.896 243.56 440.001 245.214 441.393 246.607 442.786 247.999 444.44 249.104 446.26 249.858 448.08 250.612 450.03 251 452 251 453.97 251 455.92 250.612 457.74 249.858 459.56 249.104 461.214 247.999 462.607 246.607 463.999 245.214 465.104 243.56 465.858 241.74 466.612 239.92 467 237.97 467 236 467 234.03 466.612 232.08 465.858 230.26 465.104 228.44 463.999 226.786 462.607 225.393 461.214 224.001 459.56 222.896 457.74 222.142 455.92 221.388 453.97 221 452 221zM525.334 221C525.677 221 526.012 221.106 526.292 221.304 526.573 221.501 526.786 221.78 526.902 222.103L527.749 224.462C527.883 224.833 528.144 225.144 528.485 225.342L530.997 226.792C531.338 226.988 531.738 227.058 532.125 226.988L534.592 226.543C534.93 226.482 535.279 226.526 535.59 226.671 535.902 226.815 536.162 227.052 536.334 227.35L537.667 229.65C537.839 229.947 537.915 230.29 537.886 230.631 537.856 230.973 537.721 231.298 537.5 231.56L535.882 233.473C535.627 233.774 535.487 234.156 535.487 234.55V237.45C535.487 237.844 535.627 238.226 535.882 238.527L537.5 240.44C537.721 240.702 537.856 241.027 537.886 241.369 537.915 241.71 537.839 242.053 537.667 242.35L536.334 244.65C536.162 244.947 535.903 245.184 535.591 245.329 535.28 245.473 534.931 245.518 534.594 245.457L532.127 245.012C531.739 244.942 531.34 245.012 530.999 245.208L528.487 246.658C528.145 246.856 527.885 247.167 527.75 247.538L526.904 249.897C526.787 250.22 526.574 250.499 526.293 250.697 526.012 250.894 525.677 251 525.334 251H522.667C522.324 251 521.989 250.894 521.708 250.696 521.427 250.499 521.215 250.22 521.099 249.897L520.252 247.538C520.117 247.168 519.857 246.857 519.517 246.658L517.004 245.208C516.662 245.012 516.263 244.942 515.875 245.012L513.409 245.457C513.07 245.518 512.722 245.474 512.41 245.329 512.098 245.185 511.839 244.948 511.667 244.65L510.334 242.35C510.161 242.053 510.085 241.71 510.115 241.369 510.145 241.027 510.279 240.702 510.5 240.44L512.119 238.527C512.373 238.226 512.513 237.844 512.514 237.45V234.55C512.513 234.156 512.373 233.774 512.119 233.473L510.517 231.56C510.296 231.298 510.161 230.973 510.131 230.631 510.102 230.29 510.178 229.947 510.35 229.65L511.684 227.35C511.855 227.053 512.114 226.816 512.426 226.671 512.737 226.527 513.086 226.482 513.424 226.543L515.89 226.988C516.278 227.058 516.677 226.988 517.019 226.792L519.532 225.342C519.872 225.143 520.132 224.832 520.267 224.462L521.114 222.103C521.229 221.783 521.439 221.505 521.717 221.308 521.995 221.111 522.326 221.003 522.667 221H525.334z"
    stroke="#fff"
    stroke-width="2.2"
    stroke-linecap="round"
    stroke-linejoin="round"
  />
  <path
    d="M524 240.583C526.531 240.583 528.584 238.531 528.584 236 528.584 233.469 526.531 231.417 524 231.417 521.469 231.417 519.417 233.469 519.417 236 519.417 238.531 521.469 240.583 524 240.583zM595.717 241L604.05 249.333C605.417 250.7 607.667 250.7 609.05 249.333 610.417 247.95 610.417 245.7 609.05 244.333L600.717 236M587.4 227.667L593.233 233.5M610.85 225.733C610.883 225.767 610.917 225.817 610.933 225.867 611.717 228.467 611.1 231.417 609.033 233.467 606.933 235.55 603.967 236.148 601.333 235.317L587.422 249.217C586.055 250.567 583.855 250.667 582.455 249.367 580.972 247.983 580.938 245.683 582.355 244.267L596.322 230.283C595.488 227.65 596.088 224.667 598.172 222.583 600.222 220.52 603.172 219.9 605.772 220.683 605.822 220.7 605.872 220.717 605.905 220.767L606.172 221.033C606.288 221.15 606.288 221.367 606.172 221.5L601.767 225.883 605.633 229.75 610.017 225.35C610.133 225.217 610.35 225.217 610.483 225.35L610.75 225.617 610.85 225.733zM580.883 223.15L582 226.517C582.217 227.183 582.85 227.65 583.567 227.65H587.365V223.852C587.365 223.135 586.898 222.485 586.215 222.268L582.832 221.135C582.532 221.035 582.198 221.102 581.965 221.337L581.015 222.27C580.782 222.487 580.698 222.82 580.813 223.12L580.883 223.15zM668 244.725L658.298 249.325 660.298 239.125 652.983 231.633 663.283 230.333 667.983 220.95 672.683 230.317 682.982 231.6 675.665 239.067 677.665 249.267 668 244.725zM750 224.333H755M725 224.333H738.333M741.667 236H755M725 236H730M750 247.667H755M725 247.667H738.333M749.023 221.967C750.323 223.267 750.323 225.367 749.023 226.667 747.707 227.967 745.607 227.967 744.307 226.667 742.99 225.35 742.99 223.25 744.307 221.95 745.607 220.633 747.707 220.633 749.007 221.95M735.683 233.643C736.983 234.943 736.983 237.043 735.683 238.343 734.367 239.643 732.267 239.643 730.967 238.343 729.65 237.027 729.65 234.927 730.967 233.627 732.267 232.31 734.367 232.31 735.667 233.627M749.023 245.31C750.323 246.61 750.323 248.71 749.023 250.01 747.707 251.31 745.607 251.31 744.307 250.01 742.99 248.693 742.99 246.593 744.307 245.293 745.607 243.977 747.707 243.977 749.007 245.293M811.983 245.167C811.517 245.167 811.15 245.533 811.15 246 811.15 246.45 811.517 246.833 811.983 246.833 812.433 246.833 812.817 246.45 812.817 246 812.817 245.533 812.433 245.167 811.967 245.167M811.983 235.167C811.517 235.167 811.15 235.533 811.15 236 811.15 236.45 811.517 236.833 811.983 236.833 812.433 236.833 812.817 236.45 812.817 236 812.817 235.533 812.433 235.167 811.967 235.167M811.983 225.167C811.517 225.167 811.15 225.533 811.15 226 811.15 226.45 811.517 226.833 811.983 226.833 812.433 226.833 812.817 226.45 812.817 226 812.817 225.533 812.433 225.167 811.967 225.167"
    stroke="#fff"
    stroke-width="2.2"
    stroke-linecap="round"
    stroke-linejoin="round"
  />
  <path
    d="M884 252.1C884.608 252.1 885.1 251.608 885.1 251C885.1 250.392 884.608 249.9 884 249.9V252.1ZM891.233 224.333C891.233 224.941 891.726 225.433 892.333 225.433C892.941 225.433 893.433 224.941 893.433 224.333H891.233ZM893.433 224.125C893.433 223.517 892.941 223.025 892.333 223.025C891.726 223.025 891.233 223.517 891.233 224.125H893.433ZM891.233 224.542C891.233 225.149 891.726 225.642 892.333 225.642C892.941 225.642 893.433 225.149 893.433 224.542H891.233ZM884 249.9H875.667V252.1H884V249.9ZM875.667 249.9C874.433 249.9 873.433 248.9 873.433 247.667H871.233C871.233 250.115 873.218 252.1 875.667 252.1V249.9ZM873.433 247.667V224.333H871.233V247.667H873.433ZM873.433 224.333C873.433 223.1 874.433 222.1 875.667 222.1V219.9C873.218 219.9 871.233 221.885 871.233 224.333H873.433ZM875.667 222.1H889V219.9H875.667V222.1ZM889 222.1C890.234 222.1 891.233 223.1 891.233 224.333H893.433C893.433 221.885 891.449 219.9 889 219.9V222.1ZM891.233 224.125V224.542H893.433V224.125H891.233ZM891 231.267H893.667V229.067H891V231.267ZM894.567 232.167V249H896.767V232.167H894.567ZM893.667 249.9H891V252.1H893.667V249.9ZM890.1 249V232.167H887.9V249H890.1ZM891 249.9C890.503 249.9 890.1 249.497 890.1 249H887.9C887.9 250.712 889.288 252.1 891 252.1V249.9ZM894.567 249C894.567 249.497 894.164 249.9 893.667 249.9V252.1C895.379 252.1 896.767 250.712 896.767 249H894.567ZM893.667 231.267C894.164 231.267 894.567 231.67 894.567 232.167H896.767C896.767 230.455 895.379 229.067 893.667 229.067V231.267ZM891 229.067C889.288 229.067 887.9 230.455 887.9 232.167H890.1C890.1 231.67 890.503 231.267 891 231.267V229.067ZM894.567 244.333V249H896.767V244.333H894.567ZM890.1 249V244.333H887.9V249H890.1ZM896.767 244.333C896.767 241.885 894.782 239.9 892.333 239.9V242.1C893.567 242.1 894.567 243.1 894.567 244.333H896.767ZM890.1 244.333C890.1 243.1 891.1 242.1 892.333 242.1V239.9C889.885 239.9 887.9 241.885 887.9 244.333H890.1Z"
    fill="#fff"
  />
  <path
    d="M965.167 241V249.333M969.333 245.167H961M949.333 232.667H944.333C942.492 232.667 941 231.167 941 229.333V224.333C941 222.492 942.492 221 944.333 221H949.333C951.167 221 952.667 222.492 952.667 224.333V229.333C952.667 231.167 951.167 232.667 949.333 232.667zM967.667 232.667H962.667C960.817 232.667 959.333 231.167 959.333 229.333V224.333C959.333 222.492 960.817 221 962.667 221H967.667C969.5 221 971 222.492 971 224.333V229.333C971 231.167 969.5 232.667 967.667 232.667zM949.333 251H944.333C942.492 251 941 249.5 941 247.667V242.667C941 240.817 942.492 239.333 944.333 239.333H949.333C951.167 239.333 952.667 240.817 952.667 242.667V247.667C952.667 249.5 951.167 251 949.333 251zM1028 228.5V230.167M1028 243.5V241.833M1024.42 239.75H1024.41C1025.06 241.1 1026.48 241.917 1027.98 241.833 1029.8 242.033 1031.46 240.733 1031.73 238.917 1031.73 237.65 1030.83 236.567 1029.6 236.317L1026.33 235.65C1025.08 235.4 1024.2 234.317 1024.2 233.05 1024.45 231.217 1026.11 229.917 1027.95 230.133 1029.45 230.033 1030.85 230.85 1031.51 232.217M1028 220.15C1023.8 220.15 1019.77 221.818 1016.8 224.788 1013.83 227.757 1012.17 231.784 1012.17 235.983 1012.17 240.183 1013.83 244.21 1016.8 247.179 1019.77 250.149 1023.8 251.817 1028 251.817 1030.08 251.817 1032.14 251.407 1034.06 250.611 1035.98 249.816 1037.73 248.649 1039.2 247.179 1040.67 245.709 1041.83 243.964 1042.63 242.043 1043.42 240.122 1043.83 238.063 1043.83 235.983 1043.83 233.904 1043.42 231.845 1042.63 229.924 1041.83 228.003 1040.67 226.258 1039.2 224.788 1037.73 223.317 1035.98 222.151 1034.06 221.355 1032.14 220.56 1030.08 220.15 1028 220.15zM1086.67 230.333V251H1113.33V230.333M1083.33 232.667L1100 221 1116.67 232.667M1105 251V241C1105 239.15 1103.5 237.667 1101.67 237.667H1098.33C1096.48 237.667 1095 239.15 1095 241V251M1175.54 232.467C1177.49 234.417 1177.49 237.583 1175.54 239.533 1173.57 241.483 1170.4 241.483 1168.45 239.533 1166.49 237.567 1166.49 234.4 1168.45 232.45 1170.4 230.495 1173.57 230.495 1175.52 232.45M1157 236C1157 234.9 1157.25 233.815 1157.73 232.8 1160.25 227.633 1165.83 224.317 1171.99 224.317 1178.14 224.317 1183.71 227.633 1186.24 232.783 1186.72 233.783 1186.97 234.867 1186.97 235.967 1186.97 237.05 1186.71 238.152 1186.22 239.15 1183.69 244.3 1178.11 247.617 1171.96 247.617 1165.79 247.617 1160.22 244.283 1157.7 239.133 1157.2 238.117 1156.95 237.033 1156.95 235.933L1157 236zM1248.25 238.583H1248.25C1246.83 240.95 1243.77 241.733 1241.38 240.333 1239 238.917 1238.22 235.85 1239.62 233.467 1240.03 232.733 1240.63 232.133 1241.37 231.7M1253.98 244.317C1251.1 246.483 1247.58 247.667 1243.98 247.65 1238 247.75 1232.48 244.467 1229.73 239.167H1229.72C1228.72 237.15 1228.72 234.8 1229.72 232.783 1231.08 230.033 1233.28 227.783 1236 226.333M1258.03 239.55C1258.1 239.417 1258.18 239.3 1258.25 239.167 1259.23 237.15 1259.23 234.8 1258.25 232.783 1255.48 227.467 1249.97 224.183 1243.98 224.3 1243.6 224.3 1243.23 224.35 1242.87 224.367M1259 249.333L1230.67 221M1301 236L1299.33 229.333H1302.33C1302.5 229.333 1302.83 229.5 1303 229.667L1305.67 232.667H1313.67L1308.33 220.5C1308 220 1308.33 219.333 1309 219.333H1311.83C1312.33 219.333 1312.83 219.667 1313.17 220L1321.5 232.667H1329.33C1331.17 232.667 1332.67 234.167 1332.67 236 1332.67 237.833 1331.17 239.333 1329.33 239.333H1321.5L1313.17 252C1312.83 252.5 1312.33 252.667 1311.83 252.667H1309C1308.33 252.667 1308 252 1308.17 251.5L1313.5 239.333H1305.5L1302.83 242.333C1302.67 242.5 1302.5 242.667 1302.17 242.667H1299.33L1301 236zM1373 231C1373 232.833 1376.72 234.333 1381.33 234.333M1381.33 241C1376.73 241 1373 239.5 1373 237.667M1389.65 224.333V229.333M1386.33 242.667C1386.33 244.5 1390.05 246 1394.67 246 1399.27 246 1403 244.5 1403 242.667M1386.33 236C1386.33 237.833 1390.05 239.333 1394.67 239.333 1399.27 239.333 1403 237.833 1403 236L1403 249.333C1403 251.167 1399.27 252.667 1394.67 252.667 1390.05 252.667 1386.33 251.167 1386.33 249.333V236zM1386.33 236C1386.33 234.15 1390.07 232.667 1394.67 232.667 1399.27 232.667 1403 234.15 1402.98 236M1381.33 247.667C1376.73 247.667 1373 246.167 1373 244.333V224.333M1373 224.333C1373 223.449 1373.88 222.601 1375.44 221.976 1377 221.351 1379.12 221 1381.33 221 1383.54 221 1385.66 221.351 1387.23 221.976 1388.79 222.601 1389.67 223.449 1389.67 224.333 1389.67 225.217 1388.79 226.065 1387.23 226.69 1385.66 227.315 1383.54 227.667 1381.33 227.667 1379.12 227.667 1377 227.315 1375.44 226.69 1373.88 226.065 1373 225.217 1373 224.333zM1448.68 229.333H1450.35M1468.68 229.333H1467.02M1465.75 222.267L1464.57 223.433M1451.6 222.267L1452.78 223.433M1458.68 219.333V221M1461.18 237.667V230.167C1461.18 228.783 1460.04 227.667 1458.68 227.667 1457.29 227.667 1456.18 228.783 1456.18 230.167V242.667L1452.78 241.533C1451.79 241.2 1450.69 241.45 1449.96 242.183 1448.81 243.317 1448.89 245.207 1450.14 246.243L1456.89 251.86C1457.49 252.343 1458.24 252.627 1459.03 252.627H1466.54C1468.21 252.627 1469.64 251.36 1469.84 249.693L1470.74 242.455C1470.96 240.672 1469.74 239.038 1467.98 238.753L1461.13 237.603 1461.18 237.667zM1525.33 245.167L1520.33 221.833H1517M1525.75 245.167H1542.42M1525.75 245.167C1524.98 245.167 1524.23 245.474 1523.69 246.021 1523.14 246.568 1522.83 247.31 1522.83 248.083 1522.83 248.857 1523.14 249.599 1523.69 250.146 1524.23 250.693 1524.98 251 1525.75 251 1526.52 251 1527.27 250.693 1527.81 250.146 1528.36 249.599 1528.67 248.857 1528.67 248.083 1528.67 247.31 1528.36 246.568 1527.81 246.021 1527.27 245.474 1526.52 245.167 1525.75 245.167zM1542.42 245.167C1541.64 245.167 1540.9 245.474 1540.35 246.021 1539.81 246.568 1539.5 247.31 1539.5 248.083 1539.5 248.857 1539.81 249.599 1540.35 250.146 1540.9 250.693 1541.64 251 1542.42 251 1543.19 251 1543.93 250.693 1544.48 250.146 1545.03 249.599 1545.33 248.857 1545.33 248.083 1545.33 247.31 1545.03 246.568 1544.48 246.021 1543.93 245.474 1543.19 245.167 1542.42 245.167zM1521.4 226.833H1545.32C1546.23 226.817 1546.98 227.567 1546.98 228.483 1546.98 228.617 1546.95 228.767 1546.92 228.9L1544.25 238.9C1544.05 239.617 1543.38 240.133 1542.63 240.133H1524.22M1604 244.333C1602.9 244.333 1601.84 244.772 1601.05 245.554 1600.27 246.335 1599.83 247.395 1599.83 248.5 1599.83 249.605 1600.27 250.665 1601.05 251.446 1601.84 252.228 1602.9 252.667 1604 252.667 1605.11 252.667 1606.16 252.228 1606.95 251.446 1607.73 250.665 1608.17 249.605 1608.17 248.5 1608.17 247.395 1607.73 246.335 1606.95 245.554 1606.16 244.772 1605.11 244.333 1604 244.333zM1604 244.333V219.333M1604 219.333L1607.75 223.083M1604 219.333L1600.25 223.083M1604 241.367L1597.43 239.9C1595.9 239.55 1594.82 238.2 1594.82 236.633V234.3M1604 238.75L1610.78 236.7C1612.18 236.267 1613.15 234.967 1613.15 233.5V231.8M1611.92 226H1614.42C1615.34 226 1616.08 226.746 1616.08 227.667V230.167C1616.08 231.087 1615.34 231.833 1614.42 231.833H1611.92C1611 231.833 1610.25 231.087 1610.25 230.167V227.667C1610.25 226.746 1611 226 1611.92 226zM1594.83 228.5C1594.06 228.5 1593.32 228.807 1592.77 229.354 1592.22 229.901 1591.92 230.643 1591.92 231.417 1591.92 232.19 1592.22 232.932 1592.77 233.479 1593.32 234.026 1594.06 234.333 1594.83 234.333 1595.61 234.333 1596.35 234.026 1596.9 233.479 1597.44 232.932 1597.75 232.19 1597.75 231.417 1597.75 230.643 1597.44 229.901 1596.9 229.354 1596.35 228.807 1595.61 228.5 1594.83 228.5zM1678.5 244.333V247.667C1678.5 248.583 1677.75 249.333 1676.83 249.333H1675.17C1674.23 249.333 1673.5 248.583 1673.5 247.667V244.333M1676 252.667V249.333M1675.59 228.5L1673.49 232.667H1678.49L1676.39 236.833M1664.33 221H1687.67C1689.51 221 1691 222.492 1691 224.333V241C1691 242.841 1689.51 244.333 1687.67 244.333H1664.33C1662.49 244.333 1661 242.841 1661 241V224.333C1661 222.492 1662.49 221 1664.33 221zM1739.15 241.364L1739.02 231.365 1743.31 241.312 1743.19 231.313M1746.65 241.27L1746.52 231.271 1750.69 231.219M1755.81 241.155L1755.69 231.156M1755.69 231.156L1753.19 231.187M1755.69 231.156L1758.19 231.124M1746.57 235.437L1749.91 235.395M1762.08 242.251L1761.92 229.902C1761.91 228.811 1761.31 227.81 1760.36 227.275L1749.59 221.235C1748.64 220.702 1747.47 220.716 1746.53 221.273L1735.92 227.584C1734.98 228.14 1734.41 229.156 1734.42 230.248L1734.58 242.595C1734.59 243.687 1735.19 244.687 1736.14 245.222L1746.91 251.263C1747.86 251.796 1749.03 251.781 1749.97 251.224L1760.58 244.915C1761.52 244.359 1762.09 243.343 1762.08 242.251zM1814.83 232.667H1811.24C1809.27 232.667 1807.66 234.158 1807.66 236V247.667C1807.66 249.508 1809.27 251 1811.24 251H1832.73C1834.71 251 1836.31 249.508 1836.31 247.667V236C1836.31 234.158 1834.71 232.667 1832.73 232.667H1829.15M1821.99 221V239.333M1821.99 221L1816.62 226M1821.99 221L1827.36 226M1901.43 243.367V240.983C1901.43 239.133 1902.91 237.65 1904.76 237.65 1906.59 237.65 1908.09 239.133 1908.09 240.983V243.35M1893.81 241H1887.14C1883.46 241 1880.48 243.983 1880.48 247.667V249.333M1901.43 243.38H1908.09C1909.41 243.38 1910.47 244.446 1910.47 245.76V248.618C1910.47 249.933 1909.41 250.998 1908.09 250.998H1901.43C1900.11 250.998 1899.05 249.933 1899.05 248.618V245.76C1899.05 244.446 1900.11 243.38 1901.43 243.38zM1893.81 221C1892.04 221 1890.35 221.702 1889.1 222.953 1887.85 224.203 1887.14 225.899 1887.14 227.667 1887.14 229.435 1887.85 231.13 1889.1 232.381 1890.35 233.631 1892.04 234.333 1893.81 234.333 1895.58 234.333 1897.27 233.631 1898.52 232.381 1899.77 231.13 1900.48 229.435 1900.48 227.667 1900.48 225.899 1899.77 224.203 1898.52 222.953 1897.27 221.702 1895.58 221 1893.81 221zM1970.76 222.7C1973.03 224.967 1973.03 228.667 1970.76 230.933 1968.48 233.2 1964.78 233.2 1962.51 230.933 1960.23 228.65 1960.23 224.95 1962.51 222.683 1964.77 220.4 1968.47 220.4 1970.74 222.682M1975.86 235.933C1975.88 235.95 1975.88 236 1975.86 236.033 1975.83 236.05 1975.78 236.05 1975.74 236.033 1975.71 236 1975.71 235.95 1975.74 235.917 1975.76 235.883 1975.81 235.883 1975.84 235.917M1972.44 227.432C1972.98 227.282 1973.49 227.082 1973.98 226.782 1974.74 226.282 1975.64 225.998 1976.63 225.998H1978.29V230.248C1979.49 231.315 1980.43 232.665 1980.99 234.215H1982.44C1983.36 234.215 1984.11 234.948 1984.11 235.882V240.982C1984.11 241.898 1983.36 242.648 1982.44 242.648H1980.24C1979.36 244.148 1978.09 245.415 1976.59 246.298V249.298C1976.59 250.215 1975.84 250.965 1974.93 250.965H1971.59C1970.66 250.965 1969.93 250.215 1969.93 249.298V247.632H1964.09V249.065C1964.09 249.982 1963.34 250.732 1962.43 250.732H1959.09C1958.16 250.732 1957.43 249.982 1957.43 249.065V245.048C1955.38 243.215 1954.09 240.565 1954.09 237.598 1954.09 233.182 1956.96 229.447 1960.91 228.115M1951.28 232.667C1950.49 233.117 1949.96 233.95 1949.96 234.917 1949.96 236.367 1951.13 237.545 1952.58 237.545H1954.12M1961.64 232.667H1971.64M2055.16 231V242.25M2029.46 236.333V242.867C2029.46 244.433 2030.24 245.917 2031.56 246.783L2034.23 248.55C2037.39 250.65 2041.52 250.65 2044.68 248.55L2047.35 246.767C2048.67 245.883 2049.45 244.4 2049.45 242.833V236.283M2035.65 222.817L2025.34 228.533C2023.18 229.733 2023.18 232.833 2025.34 234.033L2035.63 239.75C2037.99 241.067 2040.89 241.067 2043.28 239.75L2053.56 234.033C2055.71 232.817 2055.71 229.717 2053.56 228.52L2043.26 222.803C2040.88 221.47 2037.98 221.47 2035.59 222.803L2035.65 222.817zM2103.09 249.267H2105.61C2106.14 249.267 2106.69 249.333 2107.23 249.467L2111.64 250.583C2112.61 250.833 2113.59 250.85 2114.58 250.667L2119.46 249.7C2120.76 249.433 2121.94 248.8 2122.88 247.883L2126.34 244.433C2127.33 243.45 2127.33 241.85 2126.34 240.867 2125.44 239.967 2124.04 239.867 2123.04 240.633L2119.03 243.667C2118.44 244.1 2117.74 244.333 2117.03 244.333H2113.14 2115.61C2116.99 244.333 2118.13 243.2 2118.13 241.8V241.283C2118.13 240.117 2117.33 239.1 2116.21 238.833L2112.39 237.867C2111.76 237.7 2111.12 237.633 2110.49 237.633 2108.94 237.633 2107.42 238.083 2106.14 238.933L2103.11 240.95M2120.08 224.583C2121.91 226.417 2121.91 229.417 2120.08 231.267 2118.23 233.1 2115.23 233.1 2113.38 231.267 2111.53 229.417 2111.53 226.417 2113.38 224.567 2115.21 222.717 2118.21 222.717 2120.06 224.567M2115.86 223.292C2115.69 222.342 2115.26 221.442 2114.54 220.708 2112.69 218.862 2109.69 218.862 2107.85 220.708 2106 222.555 2106 225.542 2107.85 227.392 2109 228.542 2110.59 228.958 2112.07 228.692M2101.48 251H2098.14C2097.22 251 2096.48 250.25 2096.48 249.333V239.333C2096.48 238.4 2097.21 237.667 2098.14 237.667H2101.48C2102.39 237.667 2103.14 238.4 2103.14 239.333V249.333C2103.14 250.25 2102.39 251 2101.48 251zM2195.14 224.333H2196.81C2198.64 224.333 2200.14 225.817 2200.14 227.667V247.667C2200.14 249.5 2198.64 251 2196.81 251H2170.14C2168.3 251 2166.81 249.5 2166.81 247.667V227.667C2166.81 225.817 2168.3 224.333 2170.14 224.333H2171.81M2183.48 226C2183.48 223.238 2181.24 221 2178.48 221H2173.48C2172.54 221 2171.81 221.733 2171.81 222.667V244.333C2171.81 245.25 2172.54 246 2173.48 246H2178.48C2181.24 246 2183.48 248.238 2183.48 251M2183.48 226C2183.48 223.238 2185.71 221 2188.48 221H2193.48C2194.39 221 2195.14 221.747 2195.14 222.667V244.333C2195.14 245.25 2194.39 246 2193.48 246H2188.48C2185.71 246 2183.48 248.238 2183.48 251M2183.48 226V251M2240.48 227.667V244.333C2240.48 246.167 2241.98 247.667 2243.81 247.667H2267.14C2268.98 247.667 2270.48 246.167 2270.48 244.333V227.667M2240.48 227.333C2240.48 228.333 2240.98 229.167 2241.81 229.833L2251.81 236.667C2254.14 238.167 2256.98 238.167 2259.31 236.667L2269.31 230C2269.98 229.167 2270.48 228.333 2270.48 227.333 2270.48 225.667 2269.14 224.333 2267.48 224.333H2243.48C2241.81 224.333 2240.48 225.667 2240.48 227.333zM2330.39 227.933L2335.54 233.083M2316.29 242.017L2333.49 224.8C2334.14 224.15 2335.19 224.15 2335.84 224.8L2338.63 227.583C2339.28 228.233 2339.28 229.283 2338.63 229.933L2321.41 247.148C2321.09 247.448 2320.66 247.632 2320.23 247.632H2315.76V243.165C2315.76 242.715 2315.93 242.298 2316.24 241.982L2316.29 242.017zM2391.98 221V226M2406.98 221V226M2414.48 232.667H2384.48M2389.48 223.498H2409.48C2412.24 223.498 2414.48 225.737 2414.48 228.498V245.998C2414.48 248.76 2412.24 250.998 2409.48 250.998H2389.48C2386.71 250.998 2384.48 248.76 2384.48 245.998V228.498C2384.48 225.737 2386.71 223.498 2389.48 223.498zM2473.89 231.633L2464.68 240.848C2463.59 241.915 2463.59 243.648 2464.68 244.715H2464.66C2465.73 245.782 2467.46 245.782 2468.53 244.715L2482.89 230.338C2485.03 228.188 2485.03 224.722 2482.89 222.588 2482.88 222.572 2482.88 222.572 2482.88 222.572 2480.73 220.422 2477.26 220.422 2475.13 222.555 2475.11 222.555 2475.11 222.555 2475.11 222.555L2460.73 236.922V236.92C2457.51 240.12 2457.51 245.32 2460.71 248.52 2463.91 251.72 2469.11 251.72 2472.31 248.52 2472.31 248.503 2472.31 248.503 2472.31 248.503L2482.81 238.003M18.3333 308.499H35M35 308.499L29.1667 314.332M35 308.499L29.1667 302.666M20 293.499H10C7.23333 293.499 5 295.732 5 298.499V318.499C5 321.249 7.23333 323.499 10 323.499H20M102.607 297.882C108.457 303.732 108.457 313.232 102.607 319.082 96.74 324.932 87.24 324.932 81.39 319.082 75.5233 313.216 75.5233 303.716 81.3883 297.866 87.2383 291.999 96.7383 291.999 102.588 297.864M95.8666 312.332L88.1333 304.666M88.1316 304.671L98.6666 301.816 95.8666 312.299 85.3316 315.132 88.1316 304.671z"
    stroke="#fff"
    stroke-width="2.2"
    stroke-linecap="round"
    stroke-linejoin="round"
  />
  <path
    d="M161.596 307.816L153.113 299.332M150.313 304.016C147.479 310.216 149.213 317.549 154.546 321.816M157.813 296.516C159.746 295.616 161.846 295.166 163.963 295.149L163.964 295.147C172.248 295.131 178.964 301.847 178.981 310.131 178.998 314.664 176.931 318.947 173.414 321.797M163.946 306.816C164.83 306.816 165.678 307.167 166.303 307.792 166.928 308.417 167.279 309.265 167.279 310.149 167.279 311.033 166.928 311.881 166.303 312.506 165.678 313.131 164.83 313.482 163.946 313.482 163.062 313.482 162.214 313.131 161.589 312.506 160.964 311.881 160.613 311.033 160.613 310.149 160.613 309.265 160.964 308.417 161.589 307.792 162.214 307.167 163.062 306.816 163.946 306.816zM222.313 304.016C219.479 310.216 221.213 317.549 226.546 321.816M245.415 321.797C248.932 318.947 250.998 314.664 250.982 310.13 250.969 303.613 246.809 298.066 241.001 296.005M226.532 321.797C223.016 318.947 220.949 314.664 220.966 310.13 220.979 303.613 225.139 298.066 230.946 296.005M236.001 306.832V295.165M235.946 306.816C236.83 306.816 237.678 307.167 238.303 307.792 238.928 308.417 239.279 309.265 239.279 310.149 239.279 311.033 238.928 311.881 238.303 312.506 237.678 313.131 236.83 313.482 235.946 313.482 235.062 313.482 234.214 313.131 233.589 312.506 232.964 311.881 232.613 311.033 232.613 310.149 232.613 309.265 232.964 308.417 233.589 307.792 234.214 307.167 235.062 306.816 235.946 306.816zM310.35 307.816L318.833 299.332M321.633 304.016C324.467 310.216 322.733 317.549 317.4 321.816M314.133 296.516C312.2 295.616 310.1 295.166 307.983 295.149L307.982 295.147C299.698 295.131 292.982 301.847 292.965 310.131 292.948 314.664 295.015 318.947 298.532 321.797M308 306.816C307.116 306.816 306.268 307.167 305.643 307.792 305.018 308.417 304.667 309.265 304.667 310.149 304.667 311.033 305.018 311.881 305.643 312.506 306.268 313.131 307.116 313.482 308 313.482 308.884 313.482 309.732 313.131 310.357 312.506 310.982 311.881 311.333 311.033 311.333 310.149 311.333 309.265 310.982 308.417 310.357 307.792 309.732 307.167 308.884 306.816 308 306.816zM387.5 315.999C383.35 315.999 380 312.632 380 308.499 380 304.349 383.35 300.999 387.5 300.999M387.5 315.999C391.633 315.999 395 312.632 395 308.499 395 304.349 391.633 300.999 387.5 300.999M387.5 315.999H372.5C368.35 315.999 365 312.632 365 308.499 365 304.349 368.35 300.999 372.5 300.999H387.5M461.017 306.132C462.317 307.432 462.317 309.532 461.017 310.832 459.7 312.132 457.6 312.132 456.3 310.832 454.983 309.516 454.983 307.416 456.3 306.116 457.6 304.799 459.7 304.799 461 306.116M445.333 300.166H458.667C463.267 300.166 467 303.882 467 308.499 467 313.099 463.267 316.832 458.667 316.832H445.333C440.732 316.832 437 313.099 437 308.499 437 303.882 440.732 300.166 445.333 300.166zM535.667 306.832V298.499C535.667 296.649 534.167 295.166 532.333 295.166H510.667C508.817 295.166 507.333 296.649 507.333 298.499V311.832C507.333 313.666 508.817 315.166 510.667 315.166H530.667M524.833 321.832V315.166M518.167 315.166V321.832M516.083 321.832H526.917M538.167 321.832H533.167C531.783 321.832 530.667 320.699 530.667 319.332V309.332C530.667 307.949 531.783 306.832 533.167 306.832H538.167C539.533 306.832 540.667 307.949 540.667 309.332V319.332C540.667 320.699 539.533 321.832 538.167 321.832zM592.667 320.166V325.166M589.333 303.499V295.166C589.333 294.232 590.067 293.499 591 293.499H601C601.917 293.499 602.667 294.232 602.667 295.166V303.499M599.333 320.166V325.166M588.5 303.499H603.5C604.867 303.499 606 304.616 606 305.999V315.166C606 317.916 603.75 320.166 601 320.166H591C588.233 320.166 586 317.916 586 315.166V305.999C586 304.616 587.117 303.499 588.5 303.499zM683 300.166H677.9M669.567 300.166H653M676.683 297.216C678.3 298.832 678.3 301.466 676.683 303.099 675.05 304.716 672.417 304.716 670.783 303.099 669.15 301.466 669.15 298.832 670.783 297.199 672.4 295.566 675.033 295.566 676.667 297.199M666.433 316.832H683M653 316.832H658.1M665.2 313.907C666.817 315.524 666.817 318.157 665.2 319.791 663.567 321.407 660.933 321.407 659.3 319.791 657.667 318.157 657.667 315.524 659.3 313.891 660.917 312.257 663.55 312.257 665.183 313.891"
    stroke="#fff"
    stroke-width="2"
    stroke-linecap="round"
    stroke-linejoin="round"
  />
  <g clip-path="url(#clip0_10356_11747)">
    <mask id="a"   maskUnits="userSpaceOnUse" x="720" y="288" width="40" height="41">
      <path
        fill-rule="evenodd"
        clip-rule="evenodd"
        d="M760 301.831C758.262 304.063 755.549 305.499 752.5 305.499C747.253 305.499 743 301.246 743 295.999C743 292.95 744.436 290.237 746.668 288.499H720V328.499H760V301.831ZM758.332 288.499C758.954 288.984 759.515 289.545 760 290.167V288.499H758.332Z"
        fill="#D9D9D9"
      />
    </mask>
    <g mask="url(#a)">
      <path
        d="M745.417 305.374L739.167 311.624L735.417 307.874M753.333 307.136C753.333 314.704 747.633 321.781 740 323.499C732.355 321.766 726.667 314.699 726.667 307.136V301.191C726.667 299.824 727.483 298.608 728.733 298.091L737.067 294.674C738.933 293.891 741.047 293.891 742.917 294.674L751.25 298.074C752.5 298.574 753.317 299.791 753.317 301.158V307.103L753.333 307.136Z"
        stroke="#fff"
        stroke-width="2.2"
        stroke-linecap="round"
        stroke-linejoin="round"
      />
    </g>
    <circle cx="752.5" cy="295.999" r="4.5" fill="#BBB0FF" />
  </g>
  <g clip-path="url(#clip1_10356_11747)">
    <g clip-path="url(#clip2_10356_11747)">
      <mask id="b"   maskUnits="userSpaceOnUse" x="792" y="288" width="40" height="41">
        <path
          fill-rule="evenodd"
          clip-rule="evenodd"
          d="M820.5 304.499C825.747 304.499 830 300.246 830 294.999C830 292.485 829.023 290.198 827.428 288.499H832V328.499H792V288.499H813.572C811.977 290.198 811 292.485 811 294.999C811 300.246 815.253 304.499 820.5 304.499Z"
          fill="#D9D9D9"
        />
      </mask>
      <g mask="url(#b)">
        <path
          d="M807 318.499V318.916C807 321.666 809.234 323.916 812 323.916C814.75 323.916 817 321.666 817 318.916V318.499M822 311.416L824.834 314.249C825.134 314.549 825.317 314.982 825.317 315.416V316.799C825.317 317.716 824.567 318.466 823.65 318.466H800.317C799.384 318.466 798.65 317.716 798.65 316.799V315.399C798.65 314.949 798.817 314.532 799.134 314.216L801.967 311.366V304.282C801.967 298.749 806.434 294.282 811.967 294.282C817.484 294.281 821.967 298.749 821.967 304.282L822 311.416Z"
          stroke="#fff"
          stroke-width="2.2"
          stroke-linecap="round"
          stroke-linejoin="round"
        />
      </g>
    </g>
    <circle cx="820.5" cy="294.999" r="4.5" fill="#E86164" />
  </g>
  <path
    fill-rule="evenodd"
    clip-rule="evenodd"
    d="M879.496 294.766C881.461 291.284 886.459 291.293 888.432 294.763L888.433 294.765 901.216 317.1 901.217 317.102C903.179 320.521 900.688 324.801 896.748 324.801H871.217C867.266 324.801 864.789 320.533 866.749 317.103L879.494 294.769 879.496 294.766zM885.25 304.132C885.25 303.442 884.69 302.882 884 302.882 883.31 302.882 882.75 303.442 882.75 304.132V310.366C882.75 311.056 883.31 311.616 884 311.616 884.69 311.616 885.25 311.056 885.25 310.366V304.132zM883.983 314.124L883.975 314.124 883.967 314.124C883.932 314.124 883.898 314.126 883.864 314.128 882.996 314.189 882.317 314.907 882.317 315.791 882.317 316.665 883.028 317.457 883.983 317.457 884.475 317.457 884.885 317.236 885.157 316.964 885.429 316.692 885.65 316.283 885.65 315.791 885.65 314.858 884.913 314.199 884.106 314.13 884.066 314.126 884.025 314.124 883.983 314.124zM939.75 308.499C939.75 299.508 947.025 292.249 956 292.249 964.975 292.249 972.25 299.524 972.25 308.499 972.25 317.474 964.975 324.749 956 324.749 947.009 324.749 939.75 317.474 939.75 308.499zM952.167 302.898C951.679 302.41 950.887 302.41 950.399 302.898 949.911 303.387 949.911 304.178 950.399 304.666L954.232 308.499 950.399 312.332C949.911 312.82 949.911 313.611 950.399 314.1 950.887 314.588 951.679 314.588 952.167 314.1L956 310.267 959.833 314.1C960.321 314.588 961.112 314.588 961.6 314.1 962.089 313.611 962.089 312.82 961.6 312.332L957.768 308.499 961.6 304.666C962.089 304.178 962.089 303.387 961.6 302.898 961.112 302.41 960.321 302.41 959.833 302.898L956 306.731 952.167 302.898zM1011.9 308.499C1011.9 299.607 1019.11 292.399 1028 292.399 1036.89 292.399 1044.1 299.607 1044.1 308.499 1044.1 317.391 1036.89 324.599 1028 324.599 1019.11 324.599 1011.9 317.391 1011.9 308.499zM1034.59 305.282C1035.02 304.852 1035.02 304.156 1034.59 303.726 1034.16 303.297 1033.46 303.297 1033.03 303.726L1025.66 311.097 1022.85 308.286C1022.42 307.857 1021.73 307.857 1021.3 308.286 1020.87 308.716 1020.87 309.412 1021.3 309.842L1024.88 313.43 1024.91 313.453 1024.91 313.453C1025.34 313.883 1026.03 313.883 1026.46 313.453 1026.53 313.388 1026.58 313.316 1026.63 313.24L1034.59 305.282zM1093.86 292.808C1095.81 291.999 1097.9 291.582 1100.02 291.582 1104.29 291.582 1108.38 293.279 1111.4 296.298 1114.42 299.317 1116.12 303.412 1116.12 307.682 1116.12 311.952 1114.42 316.047 1111.4 319.067 1108.38 322.086 1104.29 323.782 1100.02 323.782 1097.9 323.782 1095.81 323.366 1093.86 322.557 1091.9 321.748 1090.13 320.562 1088.63 319.067 1087.14 317.572 1085.95 315.797 1085.14 313.843 1084.33 311.89 1083.92 309.797 1083.92 307.682 1083.92 305.568 1084.33 303.474 1085.14 301.521 1085.95 299.568 1087.14 297.793 1088.63 296.298 1090.13 294.803 1091.9 293.617 1093.86 292.808zM1100.12 299.366C1100.12 298.758 1099.62 298.266 1099.02 298.266 1098.41 298.266 1097.92 298.758 1097.92 299.366V308.699C1097.92 309.307 1098.41 309.799 1099.02 309.799H1106.77C1107.37 309.799 1107.87 309.307 1107.87 308.699 1107.87 308.092 1107.37 307.599 1106.77 307.599H1100.12V299.366zM1155.9 308.499C1155.9 299.591 1163.11 292.399 1172 292.399 1180.89 292.399 1188.1 299.606 1188.1 308.499 1188.1 317.391 1180.89 324.599 1172 324.599 1163.09 324.599 1155.9 317.391 1155.9 308.499zM1171.98 300.732L1171.98 300.732 1171.97 300.732C1171.94 300.732 1171.91 300.734 1171.88 300.736 1171.09 300.791 1170.47 301.445 1170.47 302.249 1170.47 303.045 1171.11 303.766 1171.98 303.766 1172.43 303.766 1172.8 303.565 1173.05 303.316 1173.3 303.068 1173.5 302.695 1173.5 302.249 1173.5 301.4 1172.83 300.798 1172.09 300.737 1172.05 300.734 1172.02 300.732 1171.98 300.732zM1173.1 308.499C1173.1 307.891 1172.61 307.399 1172 307.399 1171.39 307.399 1170.9 307.891 1170.9 308.499V316.832C1170.9 317.44 1171.39 317.932 1172 317.932 1172.61 317.932 1173.1 317.44 1173.1 316.832V308.499zM1227.9 308.499C1227.9 299.591 1235.11 292.399 1244 292.399 1252.89 292.399 1260.1 299.606 1260.1 308.499 1260.1 317.391 1252.89 324.599 1244 324.599 1235.09 324.599 1227.9 317.391 1227.9 308.499zM1245.1 301.832C1245.1 301.225 1244.61 300.732 1244 300.732 1243.39 300.732 1242.9 301.225 1242.9 301.832V307.399H1237.33C1236.73 307.399 1236.23 307.891 1236.23 308.499 1236.23 309.106 1236.73 309.599 1237.33 309.599H1242.9V315.166C1242.9 315.773 1243.39 316.266 1244 316.266 1244.61 316.266 1245.1 315.773 1245.1 315.166V309.599H1250.67C1251.27 309.599 1251.77 309.106 1251.77 308.499 1251.77 307.891 1251.27 307.399 1250.67 307.399H1245.1V301.832zM1299.9 308.499C1299.9 299.591 1307.11 292.399 1316 292.399 1324.89 292.399 1332.1 299.606 1332.1 308.499 1332.1 317.391 1324.89 324.599 1316 324.599 1307.09 324.599 1299.9 317.391 1299.9 308.499zM1309.33 307.399C1308.73 307.399 1308.23 307.891 1308.23 308.499 1308.23 309.106 1308.73 309.599 1309.33 309.599H1322.67C1323.27 309.599 1323.77 309.106 1323.77 308.499 1323.77 307.891 1323.27 307.399 1322.67 307.399H1309.33z"
    fill="#fff"
  />
  <path
    d="M1384.33 308.499C1383.42 308.499 1382.67 309.248 1382.67 310.165 1382.67 311.082 1383.42 311.83 1384.33 311.83 1385.25 311.83 1386 311.082 1386 310.165 1386 309.248 1385.25 308.499 1384.33 308.499zM1388.02 315.779C1388.66 315.779 1390.83 315.704 1391.97 314.562 1392.14 314.394 1392.14 314.132 1392.01 313.945 1391.84 313.776 1391.56 313.776 1391.39 313.945 1390.66 314.656 1389.14 314.918 1388.04 314.918 1386.93 314.918 1385.4 314.656 1384.69 313.945 1384.52 313.776 1384.24 313.776 1384.07 313.945 1383.9 314.113 1383.9 314.394 1384.07 314.562 1385.19 315.685 1387.38 315.779 1388.02 315.779zM1390 310.165C1390 311.082 1390.75 311.83 1391.67 311.83 1392.59 311.83 1393.33 311.082 1393.33 310.165 1393.33 309.248 1392.59 308.499 1391.67 308.499 1390.75 308.499 1390 309.248 1390 310.165z"
    fill="#fff"
  />
  <path
    fill-rule="evenodd"
    clip-rule="evenodd"
    d="M1404 308.499C1404 317.336 1396.84 324.499 1388 324.499C1379.16 324.499 1372 317.336 1372 308.499C1372 299.662 1379.16 292.499 1388 292.499C1396.84 292.499 1404 299.662 1404 308.499ZM1396.33 306.16C1397.62 306.16 1398.67 307.208 1398.67 308.499C1398.67 309.453 1398.09 310.277 1397.32 310.651C1397.36 310.876 1397.38 311.1 1397.38 311.344C1397.38 314.937 1393.2 317.837 1388.04 317.837C1382.87 317.837 1378.7 314.937 1378.7 311.344C1378.7 311.1 1378.72 310.857 1378.76 310.632C1377.93 310.258 1377.37 309.453 1377.37 308.499C1377.37 307.208 1378.42 306.16 1379.71 306.16C1380.33 306.16 1380.91 306.422 1381.32 306.815C1382.93 305.636 1385.16 304.906 1387.64 304.831L1388.82 299.255C1388.86 299.142 1388.92 299.049 1389.01 298.993C1389.1 298.937 1389.22 298.918 1389.33 298.937L1393.2 299.76C1393.46 299.198 1394.03 298.824 1394.68 298.824C1395.6 298.824 1396.35 299.573 1396.35 300.49C1396.35 301.407 1395.6 302.155 1394.68 302.155C1393.78 302.155 1393.05 301.444 1393.02 300.565L1389.55 299.835L1388.49 304.831C1390.92 304.925 1393.13 305.673 1394.72 306.815C1395.13 306.403 1395.69 306.16 1396.33 306.16Z"
    fill="#fff"
  />
  <path
    d="M1453.37 292.611C1451.67 292.691 1450.51 292.963 1449.49 293.362 1448.44 293.772 1447.55 294.322 1446.66 295.213 1445.77 296.103 1445.23 296.995 1444.82 298.048 1444.43 299.067 1444.16 300.23 1444.09 301.934 1444.01 303.637 1443.99 304.185 1444 308.53 1444.01 312.875 1444.03 313.419 1444.11 315.126 1444.19 316.828 1444.46 317.991 1444.86 319.007 1445.27 320.059 1445.82 320.95 1446.71 321.838 1447.6 322.725 1448.5 323.27 1449.55 323.678 1450.57 324.071 1451.73 324.339 1453.44 324.414 1455.14 324.488 1455.69 324.505 1460.03 324.497 1464.38 324.489 1464.92 324.47 1466.63 324.389 1468.34 324.308 1469.49 324.035 1470.51 323.638 1471.56 323.226 1472.45 322.678 1473.34 321.787 1474.23 320.896 1474.77 320.003 1475.18 318.949 1475.57 317.931 1475.84 316.767 1475.91 315.066 1475.99 313.358 1476.01 312.813 1476 308.468 1475.99 304.124 1475.97 303.579 1475.89 301.873 1475.81 300.167 1475.54 299.008 1475.14 297.991 1474.73 296.939 1474.18 296.048 1473.29 295.16 1472.4 294.272 1471.5 293.727 1470.45 293.321 1469.43 292.927 1468.27 292.659 1466.57 292.585 1464.86 292.511 1464.31 292.493 1459.97 292.501 1455.62 292.509 1455.08 292.528 1453.37 292.611zM1453.56 321.535C1452 321.467 1451.15 321.208 1450.59 320.991 1449.84 320.703 1449.31 320.355 1448.75 319.798 1448.18 319.241 1447.84 318.706 1447.55 317.96 1447.33 317.396 1447.06 316.55 1446.99 314.99 1446.91 313.304 1446.89 312.798 1446.88 308.526 1446.88 304.254 1446.89 303.749 1446.97 302.062 1447.03 300.503 1447.29 299.655 1447.51 299.091 1447.8 298.342 1448.14 297.811 1448.7 297.249 1449.26 296.686 1449.79 296.34 1450.54 296.048 1451.1 295.828 1451.95 295.566 1453.51 295.492 1455.2 295.412 1455.7 295.396 1459.97 295.387 1464.25 295.378 1464.75 295.394 1466.44 295.468 1468 295.536 1468.85 295.794 1469.41 296.012 1470.16 296.3 1470.69 296.646 1471.25 297.205 1471.82 297.765 1472.16 298.295 1472.45 299.044 1472.67 299.606 1472.94 300.452 1473.01 302.012 1473.09 303.699 1473.11 304.205 1473.12 308.476 1473.12 312.747 1473.11 313.254 1473.03 314.94 1472.97 316.5 1472.71 317.347 1472.49 317.912 1472.2 318.66 1471.86 319.192 1471.3 319.754 1470.74 320.316 1470.21 320.663 1469.46 320.954 1468.9 321.174 1468.05 321.437 1466.49 321.511 1464.8 321.59 1464.3 321.607 1460.02 321.616 1455.75 321.625 1455.25 321.608 1453.56 321.535M1466.6 299.948C1466.6 300.327 1466.72 300.698 1466.93 301.014 1467.14 301.329 1467.44 301.575 1467.79 301.72 1468.14 301.864 1468.53 301.902 1468.9 301.827 1469.27 301.752 1469.62 301.569 1469.88 301.3 1470.15 301.031 1470.33 300.688 1470.41 300.315 1470.48 299.943 1470.44 299.557 1470.3 299.206 1470.15 298.856 1469.9 298.556 1469.59 298.346 1469.27 298.136 1468.9 298.024 1468.52 298.024 1468.01 298.025 1467.52 298.229 1467.16 298.589 1466.8 298.95 1466.6 299.438 1466.6 299.948zM1451.78 308.515C1451.79 313.053 1455.48 316.723 1460.02 316.714 1464.55 316.705 1468.22 313.021 1468.22 308.483 1468.21 303.945 1464.52 300.274 1459.98 300.283 1455.45 300.292 1451.78 303.978 1451.78 308.515zM1454.67 308.509C1454.66 307.454 1454.98 306.423 1455.56 305.544 1456.14 304.666 1456.98 303.981 1457.95 303.575 1458.92 303.17 1460 303.062 1461.03 303.266 1462.07 303.469 1463.02 303.975 1463.76 304.72 1464.51 305.464 1465.02 306.414 1465.23 307.448 1465.44 308.482 1465.33 309.555 1464.93 310.53 1464.53 311.505 1463.85 312.34 1462.97 312.927 1462.1 313.515 1461.07 313.83 1460.01 313.832 1459.31 313.834 1458.62 313.697 1457.97 313.43 1457.32 313.164 1456.73 312.772 1456.24 312.278 1455.74 311.783 1455.35 311.196 1455.08 310.55 1454.81 309.903 1454.67 309.21 1454.67 308.509zM1534.76 306.202L1545.55 293.499H1543L1533.62 304.529 1526.14 293.499H1517.5L1528.82 310.178 1517.5 323.499H1520.06L1529.96 311.851 1537.86 323.499H1546.5L1534.76 306.202H1534.76zM1531.25 310.325L1530.11 308.664 1520.98 295.449H1524.91L1532.28 306.114 1533.42 307.775 1543 321.638H1539.07L1531.25 310.326V310.325zM1620 308.599C1620 299.711 1612.83 292.499 1604 292.499 1595.17 292.499 1588 299.711 1588 308.599 1588 316.64 1593.85 323.305 1601.51 324.499V313.241H1597.43V308.599H1601.51V305.05C1601.51 301.021 1603.88 298.783 1607.54 298.783 1609.29 298.783 1611.1 299.115 1611.1 299.115V303.044H1609.09C1607.1 303.044 1606.47 304.304 1606.47 305.564V308.582H1610.92L1610.21 313.224H1606.47V324.482C1614.15 323.305 1620 316.64 1620 308.599z"
    fill="#fff"
  />
  <path
    fill-rule="evenodd"
    clip-rule="evenodd"
    d="M1688.5 298.156C1689.88 298.518 1690.96 299.582 1691.33 300.935H1691.33C1692 303.384 1692 308.499 1692 308.499C1692 308.499 1692 313.614 1691.33 316.063C1690.96 317.416 1689.88 318.48 1688.5 318.842C1686.01 319.499 1676 319.499 1676 319.499C1676 319.499 1665.99 319.499 1663.5 318.842C1662.12 318.48 1661.04 317.416 1660.67 316.063C1660 313.614 1660 308.499 1660 308.499C1660 308.499 1660 303.384 1660.67 300.935C1661.04 299.582 1662.12 298.518 1663.5 298.156C1665.99 297.499 1676 297.499 1676 297.499C1676 297.499 1686.01 297.499 1688.5 298.156ZM1672.8 303.785V313.213L1681.12 308.499L1672.8 303.785Z"
    fill="#fff"
  />
  <path
    d="M1757.82 298.913C1756.09 297.789 1754.84 295.991 1754.45 293.895C1754.37 293.442 1754.32 292.976 1754.32 292.499H1748.8L1748.79 314.547C1748.7 317.016 1746.66 318.998 1744.16 318.998C1743.38 318.998 1742.65 318.805 1742.01 318.466C1740.53 317.692 1739.52 316.149 1739.52 314.373C1739.52 311.823 1741.6 309.748 1744.16 309.748C1744.64 309.748 1745.1 309.827 1745.53 309.962V304.345C1745.08 304.285 1744.62 304.247 1744.16 304.247C1738.56 304.247 1734 308.79 1734 314.373C1734 317.799 1735.72 320.831 1738.34 322.664C1739.99 323.818 1742 324.499 1744.16 324.499C1749.76 324.499 1754.32 319.956 1754.32 314.373V303.193C1756.49 304.742 1759.14 305.654 1762 305.654V300.153C1760.46 300.153 1759.02 299.696 1757.82 298.913Z"
    fill="#fff"
  />
  <path
    fill-rule="evenodd"
    clip-rule="evenodd"
    d="M1831.9 323.793H1808.1C1806.23 323.793 1804.71 322.271 1804.71 320.394V296.604C1804.71 294.726 1806.23 293.205 1808.1 293.205H1831.9C1833.77 293.205 1835.29 294.726 1835.29 296.604V320.394C1835.29 322.271 1833.77 323.793 1831.9 323.793ZM1826.51 319.545H1831.05V310.22C1831.05 306.275 1828.81 304.367 1825.69 304.367C1822.56 304.367 1821.24 306.801 1821.24 306.801V304.817H1816.87V319.545H1821.24V311.814C1821.24 309.742 1822.2 308.509 1824.02 308.509C1825.7 308.509 1826.51 309.694 1826.51 311.814V319.545ZM1808.95 300.171C1808.95 301.672 1810.16 302.889 1811.65 302.889C1813.14 302.889 1814.35 301.672 1814.35 300.171C1814.35 298.67 1813.14 297.453 1811.65 297.453C1810.16 297.453 1808.95 298.67 1808.95 300.171ZM1813.95 319.545H1809.39V304.817H1813.95V319.545Z"
    fill="#fff"
  />
  <path
    d="M1903.8 298.509C1901.57 297.556 1899.21 296.881 1896.79 296.499C1896.46 297.051 1896.16 297.619 1895.89 298.2C1893.31 297.838 1890.68 297.838 1888.1 298.2C1887.84 297.619 1887.54 297.051 1887.21 296.499C1884.78 296.884 1882.42 297.561 1880.19 298.514C1875.75 304.631 1874.54 310.596 1875.14 316.477C1877.74 318.266 1880.65 319.626 1883.75 320.499C1884.44 319.626 1885.06 318.701 1885.59 317.732C1884.58 317.382 1883.61 316.95 1882.69 316.442C1882.93 316.277 1883.17 316.108 1883.4 315.944C1886.09 317.122 1889.03 317.733 1892 317.733C1894.97 317.733 1897.91 317.122 1900.6 315.944C1900.83 316.12 1901.07 316.29 1901.31 316.442C1900.39 316.951 1899.41 317.384 1898.4 317.734C1898.93 318.703 1899.55 319.628 1900.25 320.499C1903.34 319.63 1906.26 318.27 1908.86 316.479C1909.56 309.66 1907.65 303.749 1903.8 298.509ZM1886.35 312.86C1884.68 312.86 1883.29 311.443 1883.29 309.7C1883.29 307.956 1884.63 306.526 1886.35 306.526C1888.07 306.526 1889.44 307.956 1889.41 309.7C1889.38 311.443 1888.06 312.86 1886.35 312.86ZM1897.65 312.86C1895.97 312.86 1894.59 311.443 1894.59 309.7C1894.59 307.956 1895.93 306.526 1897.65 306.526C1899.37 306.526 1900.73 307.956 1900.7 309.7C1900.68 311.443 1899.36 312.86 1897.65 312.86Z"
    fill="#fff"
  />
  <path
    fill-rule="evenodd"
    clip-rule="evenodd"
    d="M1964.01 291.499C1954.61 291.499 1947 299.291 1947 308.93C1947 316.635 1951.87 323.157 1958.63 325.466C1959.48 325.639 1959.79 325.091 1959.79 324.629C1959.79 324.225 1959.76 322.84 1959.76 321.397C1955.03 322.436 1954.04 319.319 1954.04 319.319C1953.28 317.299 1952.15 316.78 1952.15 316.78C1950.61 315.712 1952.27 315.712 1952.27 315.712C1953.99 315.827 1954.89 317.501 1954.89 317.501C1956.41 320.156 1958.86 319.406 1959.85 318.944C1959.99 317.818 1960.44 317.039 1960.92 316.607C1957.14 316.202 1953.17 314.702 1953.17 308.006C1953.17 306.102 1953.84 304.543 1954.92 303.331C1954.75 302.899 1954.15 301.109 1955.08 298.714C1955.08 298.714 1956.52 298.252 1959.76 300.503C1961.15 300.121 1962.58 299.927 1964.01 299.926C1965.45 299.926 1966.92 300.128 1968.27 300.503C1971.51 298.252 1972.94 298.714 1972.94 298.714C1973.87 301.109 1973.28 302.899 1973.11 303.331C1974.21 304.543 1974.86 306.102 1974.86 308.006C1974.86 314.702 1970.89 316.173 1967.08 316.607C1967.7 317.155 1968.24 318.194 1968.24 319.839C1968.24 322.176 1968.21 324.052 1968.21 324.629C1968.21 325.091 1968.52 325.639 1969.37 325.466C1976.13 323.157 1981 316.635 1981 308.93C1981.03 299.291 1973.39 291.499 1964.01 291.499Z"
    fill="#fff"
  />
  <defs>
    <clipPath id="clip0_10356_11747">
      <path fill="#fff" transform="translate(720 288.499)" d="M0 0H40V40H0z" />
    </clipPath>
    <clipPath id="clip1_10356_11747">
      <path fill="#fff" transform="translate(792 288.499)" d="M0 0H40V40H0z" />
    </clipPath>
    <clipPath id="clip2_10356_11747">
      <path fill="#fff" transform="translate(792 288.499)" d="M0 0H40V40H0z" />
    </clipPath>
  </defs>
</svg>
