<svg width="2526" height="192" viewBox="0 0 2526 192" fill="none" xmlns="http://www.w3.org/2000/svg">
  <path
    d="M4.512 4.639V8.175H8.047M4.973 8.175C6.33 5.688 8.968 4 12 4 16.418 4 20 7.582 20 12 20 16.418 16.418 20 12 20 7.582 20 4 16.418 4 12M69 19H66C63.239 19 61 16.761 61 14V5M61 5L63.5 7.5M61 5L58.5 7.5M67 5H70C72.761 5 75 7.239 75 10V19M75 19L72 16M75 19L78 16M131.992 12.032C131.984 14.069 131.211 16.103 129.657 17.657 126.533 20.781 121.467 20.781 118.343 17.657 117.787 17.101 117.335 16.482 116.977 15.826M116.004 11.87C116.036 9.866 116.814 7.872 118.343 6.343 121.467 3.219 126.533 3.219 129.657 6.343 130.213 6.899 130.665 7.518 131.023 8.174M127.953 8.175H131.488V4.639M120.047 15.825H116.512V19.361"
    stroke="#fff"
    stroke-width="1.8"
    stroke-linecap="round"
    stroke-linejoin="round"
  />
  <path
    d="M189 21L184 15.9999M185.8 10.4C185.8 14.4869 182.487 17.8 178.4 17.8C174.313 17.8 171 14.4869 171 10.4C171 6.31309 174.313 3 178.4 3C182.487 3 185.8 6.31309 185.8 10.4Z"
    stroke="#fff"
    stroke-width="1.8"
    stroke-linecap="round"
  />
  <path
    d="M227 7V4.5C227 3.67157 227.672 3 228.5 3H233M238 15.0001H235.5C234.672 15.0001 234 14.3285 234 13.5001V9.00012M245 7V4.5C245 3.67157 244.328 3 243.5 3H239M227 17V19.5C227 20.3284 227.672 21 228.5 21H233M245 17V19.5C245 20.3284 244.328 21 243.5 21H239M296.06 12.12H291.41V6.52001M292.01 2.51001C290.828 2.51001 289.658 2.7428 288.566 3.19509 287.474 3.64739 286.482 4.31032 285.646 5.14605 284.81 5.98178 284.147 6.97393 283.695 8.06586 283.243 9.15779 283.01 10.3281 283.01 11.51 283.01 12.6919 283.243 13.8622 283.695 14.9542 284.147 16.0461 284.81 17.0382 285.646 17.874 286.482 18.7097 287.474 19.3726 288.566 19.8249 289.658 20.2772 290.828 20.51 292.01 20.51 294.397 20.51 296.686 19.5618 298.374 17.874 300.062 16.1861 301.01 13.897 301.01 11.51 301.01 9.12306 300.062 6.83388 298.374 5.14605 296.686 3.45822 294.397 2.51001 292.01 2.51001zM352.95 16.95L343.05 7.05005M352.95 9.87005V16.943L345.87 16.933M408.95 7.05L399.05 16.95M402 7L408.95 7.04 409 13.991M460 19V5M465.001 13.99L459.991 18.99 454.981 13.98M523 12H509M523 12L518 17M523 12L518 7M565 12H579M565 12L570 7M565 12L570 17M628 4.99999V19M622.999 9.99999L628 4.98999 633 9.98999M680 10L684 14 688 10M742 8L738 12 742 16M794 16L798 12 794 8M856 14L852 10 848 14M904 14L901 17M901 17L904 20M901 17H915M912 10L915 7M915 7L912 4M915 7H901M962 8L959 5M959 5L956 8M959 5V19M966 16L969 19M969 19L972 16M969 19V5M1020 12L1028 4M1028 4V10M1028 4H1022M1017 4H1014C1012.89 4 1012 4.895 1012 6V18C1012 19.1 1012.89 20 1014 20H1026C1027.1 20 1028 19.1 1028 18V15M1073 21H1069C1067.89 21 1067 20.1 1067 19V5C1067 3.89 1067.89 3 1069 3H1081C1082.1 3 1083 3.89 1083 5V9M1071 8H1077M1071 12H1073M1077 21H1085M1078 21V16.42M1081 21V16.42M1084 21V16.42M1077 16.42H1085V14.63L1081 12.99 1077 14.62V16.42zM1131.34 16C1129.19 16 1127.14 16.85 1125.63 18.36M1141 12C1141 7.02 1136.97 3 1132 3 1127.02 3 1123 7.02 1123 12 1123 16.97 1127.02 21 1132 21M1135 16.45V17.29H1135C1134.99 18.85 1135.96 20.25 1137.43 20.8L1137.86 20.96C1137.94 20.99 1138.03 20.99 1138.12 20.96L1138.55 20.79C1140.01 20.24 1140.98 18.84 1140.98 17.27V16.42C1140.98 16.09 1140.76 15.8 1140.45 15.7L1138.2 14.99C1138.05 14.94 1137.89 14.94 1137.75 14.99L1135.5 15.69C1135.18 15.78 1134.97 16.07 1134.97 16.4L1135 16.45zM1135 9.75V10.25C1135 11.9 1133.65 13.25 1132 13.25 1130.34 13.25 1129 11.9 1129 10.25V9.75C1129 8.09 1130.34 6.75 1132 6.75 1133.65 6.75 1135 8.09 1135 9.75zM1194.5 10V9.5C1194.5 5.91 1191.59 3 1188 3 1184.41 3 1181.5 5.91 1181.5 9.5V10M1189.88 20C1189.88 19.31 1189.31 18.75 1188.62 18.75H1187.38C1186.69 18.75 1186.12 19.31 1186.12 20 1186.12 20.69 1186.69 21.25 1187.38 21.25H1188.62C1189.31 21.25 1189.88 20.69 1189.88 20zM1189.88 20H1191.99C1193.09 20 1194 19.1 1194 18V17M1195 17H1194C1193.44 17 1193 16.55 1193 16V11C1193 10.44 1193.44 10 1194 10H1195C1196.1 10 1197 10.89 1197 12V15C1197 16.1 1196.1 17 1195 17zM1182 17H1181C1179.89 17 1179 16.1 1179 15V12C1179 10.89 1179.89 10 1181 10H1182C1182.55 10 1183 10.44 1183 11V16C1183 16.55 1182.55 17 1182 17zM1240.5 22V20M1247.5 22V20M1244 22V20M1248.76 22H1239.23C1238.12 22 1237.22 21.1 1237.22 20 1237.21 19.92 1237.22 19.85 1237.23 19.77L1237.58 16.549C1237.8 14.519 1239.51 12.989 1241.55 12.991H1246.39C1248.42 12.981 1250.14 14.521 1250.37 16.549L1250.72 19.77C1250.84 20.86 1250.05 21.85 1248.95 21.97 1248.87 21.97 1248.79 21.98 1248.72 21.98L1248.76 22zM1244 2C1244.82 2 1245.5 2.67 1245.5 3.5V9.5C1245.5 9.77 1245.27 10 1245 10H1243C1242.72 10 1242.5 9.77 1242.5 9.5V3.5C1242.5 2.67 1243.17 2 1244 2zM1246.25 13H1241.75C1241.19 13 1240.74 12.55 1240.74 12 1240.73 11.86 1240.76 11.73 1240.81 11.61L1241.22 10.61C1241.37 10.23 1241.73 9.99 1242.14 9.99H1245.8C1246.2 9.98 1246.56 10.23 1246.72 10.6L1247.13 11.6C1247.34 12.1 1247.1 12.69 1246.59 12.9 1246.46 12.95 1246.33 12.97 1246.2 12.97L1246.25 13zM1304 3H1307.28C1308.22 3 1308.99 3.76 1308.99 4.71V7.99M1296 21H1292.71C1291.76 21 1290.99 20.23 1290.99 19.28V15.99M1304.95 16.42V14.58M1304.95 18.44C1304.9 18.44 1304.85 18.48 1304.86 18.53 1304.86 18.58 1304.9 18.62 1304.95 18.62 1305 18.62 1305.04 18.57 1305.04 18.52 1305.04 18.47 1304.99 18.42 1304.94 18.42M1306.7 12.6L1309.74 18.014C1310.48 19.344 1309.52 20.994 1307.99 20.994H1301.89C1300.36 20.994 1299.39 19.344 1300.14 18.004L1303.18 12.584C1303.94 11.225 1305.9 11.225 1306.66 12.584L1306.7 12.6zM1293.16 5.035C1291.94 5.195 1291 6.235 1291 7.5 1291 8.88 1292.12 10 1293.5 10H1299C1300.1 10 1301 9.1 1301 8 1301 6.89 1300.1 6 1299 6 1299 4.343 1297.66 3 1296 3 1294.68 3 1293.56 3.85 1293.16 5.035H1293.16zM1365 8.99998V6.99998C1365 5.88998 1364.1 4.99998 1363 4.99998H1354.75M1356.19 7.88998L1354.79 5.09998C1354.45 4.41998 1353.75 3.98998 1353 3.98998H1348.98V3.97998C1347.87 3.97998 1346.98 4.86998 1346.98 5.97998V17.98C1346.98 19.08 1347.87 19.98 1348.98 19.98H1362.98C1364.08 19.98 1364.98 19.08 1364.98 17.98V8.97998H1357.96C1357.2 8.97998 1356.5 8.54998 1356.17 7.86998L1356.19 7.88998zM1411.26 9.60205L1403.64 17.212C1402.77 18.072 1402.77 19.472 1403.63 20.342H1403.63C1404.49 21.202 1405.89 21.202 1406.76 20.342L1414.37 12.722V12.721C1416.96 13.601 1419.79 12.221 1420.68 9.62105 1420.69 9.58105 1420.7 9.54105 1420.71 9.50105V9.50005C1420.92 8.85005 1420.99 8.17005 1420.93 7.50005 1420.85 6.95005 1420.35 6.57005 1419.8 6.64005 1419.58 6.66005 1419.37 6.77005 1419.22 6.92005L1417.41 8.72005C1417.21 8.91005 1416.89 8.91005 1416.7 8.72005 1416.69 8.71005 1416.69 8.71005 1416.69 8.71005L1415.16 7.18005C1414.96 6.98005 1414.96 6.66005 1415.34 6.28005L1416.95 4.66005C1417.34 4.27005 1417.34 3.64005 1416.96 3.24005 1416.8 3.08005 1416.6 2.98005 1416.38 2.95005 1415.7 2.88005 1415.02 2.95005 1414.38 3.17005V3.16005C1411.75 3.98005 1410.3 6.77005 1411.12 9.39005 1411.13 9.42005 1411.14 9.46005 1411.15 9.50005L1411.26 9.60205zM1459 9H1477M1467 5.995H1466.99V5.985L1466.98 5.975M1464.5 5.995H1464.49V5.985L1464.48 5.975M1462 5.995H1461.99V5.985L1461.98 5.975M1477 10.5V6C1477 4.34 1475.65 3 1474 3H1462C1460.34 3 1459 4.34 1459 6V18.0003C1459 19.6572 1460.34 21 1462 21H1467M1477 18.866C1476.85 19.316 1476.59 19.726 1476.26 20.066 1475.01 21.306 1472.98 21.306 1471.73 20.056 1471.51 19.836 1471.32 19.586 1471.18 19.316M1476.81 16.26C1475.96 14.7 1474.02 14.13 1472.46 14.97 1472.19 15.11 1471.94 15.3 1471.72 15.51 1471.38 15.84 1471.13 16.25 1470.98 16.71M1475.58 16.2691H1476.99V14.8491M1472.42 19.3301H1471V20.7401M1521 14L1519 12 1521 10M1527 10L1529 12 1527 14M1524.78 9L1523.11 15M1524 3C1522.82 3 1521.65 3.23279 1520.56 3.68508 1519.46 4.13738 1518.47 4.80031 1517.64 5.63604 1516.8 6.47177 1516.14 7.46392 1515.69 8.55585 1515.23 9.64778 1515 10.8181 1515 12 1515 13.1819 1515.23 14.3522 1515.69 15.4442 1516.14 16.5361 1516.8 17.5282 1517.64 18.364 1518.47 19.1997 1519.46 19.8626 1520.56 20.3149 1521.65 20.7672 1522.82 21 1524 21 1525.18 21 1526.35 20.7672 1527.44 20.3149 1528.54 19.8626 1529.53 19.1997 1530.36 18.364 1531.2 17.5282 1531.86 16.5361 1532.31 15.4442 1532.77 14.3522 1533 13.1819 1533 12 1533 10.8181 1532.77 9.64778 1532.31 8.55585 1531.86 7.46392 1531.2 6.47177 1530.36 5.63604 1529.53 4.80031 1528.54 4.13738 1527.44 3.68508 1526.35 3.23279 1525.18 3 1524 3zM1573.38 18.12L1571.5 20M1571 11V6.5C1571 5.11 1572.11 4 1573.5 4H1585.5C1586.88 4 1588 5.11 1588 6.5V9.5M1588 9.5H1586.5C1585.11 9.5 1584 10.61 1584 12 1584 13.38 1585.11 14.5 1586.5 14.5H1588M1588 9.5C1588.55 9.5 1589 9.94 1589 10.5V13.5C1589 14.05 1588.55 14.5 1588 14.5M1588 14.5V17.5C1588 18.88 1586.88 20 1585.5 20H1581M1575.5 13C1574.7 13 1573.94 13.3161 1573.38 13.8787 1572.82 14.4413 1572.5 15.2044 1572.5 16 1572.5 16.7956 1572.82 17.5587 1573.38 18.1213 1573.94 18.6839 1574.7 19 1575.5 19 1576.3 19 1577.06 18.6839 1577.62 18.1213 1578.18 17.5587 1578.5 16.7956 1578.5 16 1578.5 15.2044 1578.18 14.4413 1577.62 13.8787 1577.06 13.3161 1576.3 13 1575.5 13zM1638.8 18H1641.8M1638.8 15H1641.8M1627 12H1645M1639 7.49998H1642M1630 7.49998H1633M1631.5 8.99998V5.99998M1630.44 15.44L1632.56 17.56M1630.44 17.56L1632.56 15.44M1636 2.99998V21M1645 18.652C1645 19.942 1643.94 20.992 1642.65 20.992H1629.34C1628.04 20.992 1626.99 19.932 1626.99 18.642V5.32998C1626.99 4.02998 1628.04 2.97998 1629.34 2.97998H1642.64C1643.93 2.97998 1644.98 4.02998 1644.98 5.32798V18.628L1645 18.652zM1691.79 9.2L1695.2 5.78M1691.57 5.65C1691.57 5.6 1691.6 5.559 1691.65 5.559 1691.69 5.559 1691.73 5.589 1691.73 5.639 1691.72 5.679 1691.69 5.719 1691.64 5.719 1691.59 5.709 1691.55 5.679 1691.55 5.629V5.619M1688 7V5.3C1688 3.47 1689.47 2 1691.3 2H1695.7C1697.52 2 1699 3.47 1699 5.3V9.7C1699 11.52 1697.52 13 1695.7 13H1695M1695.42 9.34C1695.41 9.38 1695.38 9.42 1695.33 9.42 1695.28 9.41 1695.24 9.38 1695.24 9.33 1695.24 9.28 1695.27 9.24 1695.32 9.24 1695.36 9.24 1695.4 9.27 1695.4 9.32M1683 12.6V19.4C1683 20.28 1684.79 21 1687 21 1689.2 21 1690.99 20.28 1691 19.4V12.6M1683 16C1683 16.88 1684.78 17.6 1686.99 17.6 1689.19 17.6 1690.99 16.88 1690.99 16M1690.99 12.6C1690.99 13.48 1689.19 14.2 1686.99 14.2 1684.78 14.2 1682.99 13.48 1682.99 12.6 1682.99 11.71 1684.78 11 1686.99 11 1689.2 11 1690.98 11.71 1690.99 12.6zM1739 8C1739 9.1 1741.23 10 1744 10M1739 8V16C1739 17.1 1741.24 18 1744 18M1739 8C1739 7.46957 1739.53 6.96086 1740.46 6.58579 1741.4 6.21071 1742.67 6 1744 6 1745.33 6 1746.6 6.21071 1747.54 6.58579 1748.47 6.96086 1749 7.46957 1749 8M1739 8C1739 8.53043 1739.53 9.03914 1740.46 9.41421 1741.4 9.78929 1742.67 10 1744 10M1744 10C1745.33 10 1746.6 9.78929 1747.54 9.41421 1748.47 9.03914 1749 8.53043 1749 8M1752 21C1749.23 21 1747 20.1 1747 19V15C1747 16.1 1749.23 17 1752 17 1754.76 17 1757 16.1 1757 15L1757 19C1757 20.1 1754.76 21 1752 21M1749 8V10.5M1753.5 6.5L1756.5 3.5M1756.5 6.5L1753.5 3.5M1739 12C1739 13.1 1741.23 13.99 1744 13.99M1743.99 14C1741.22 14 1738.99 13.1 1738.99 12M1757 15C1757 13.89 1754.76 13 1752 13 1749.24 13 1747 13.89 1747 15 1747 16.1 1749.23 17 1752 17 1754.76 17 1757 16.1 1757 15z"
    stroke="#fff"
    stroke-width="1.8"
    stroke-linecap="round"
    stroke-linejoin="round"
  />
  <path
    clip-rule="evenodd"
    d="M1799.75 9.75H1797C1795.89 9.75 1795 8.85 1795 7.75V5C1795 3.895 1795.89 3 1797 3H1799.75C1800.85 3 1801.75 3.895 1801.75 5V7.75C1801.75 8.85 1800.85 9.75 1799.75 9.75zM1811 9.75H1808.25C1807.14 9.75 1806.25 8.85 1806.25 7.75V5C1806.25 3.895 1807.14 3 1808.25 3H1811C1812.1 3 1813 3.895 1813 5V7.75C1813 8.85 1812.1 9.75 1811 9.75zM1799.75 21H1797C1795.89 21 1795 20.1 1795 19V16.25C1795 15.14 1795.89 14.25 1797 14.25H1799.75C1800.85 14.25 1801.75 15.14 1801.75 16.25V19C1801.75 20.1 1800.85 21 1799.75 21zM1811 21H1808.25C1807.14 21 1806.25 20.1 1806.25 19V16.25C1806.25 15.14 1807.14 14.25 1808.25 14.25H1811C1812.1 14.25 1813 15.14 1813 16.25V19C1813 20.1 1812.1 21 1811 21z"
    stroke="#fff"
    stroke-width="1.8"
    stroke-linecap="round"
    stroke-linejoin="round"
  />
  <path
    d="M1862 17L1862.5 21M1858 17L1857.5 21M1856.14 21H1863.86M1858.06 9.97998V7.26998H1860.79C1861.53 7.26998 1862.14 7.86998 1862.14 8.62398 1862.14 9.36398 1861.53 9.97398 1860.78 9.97398M1859.77 6.49998V7.26998M1859.77 13.5V12.625M1866.43 17H1853.57C1852.15 17 1850.99 15.84 1850.99 14.42V5.55998C1850.99 4.13998 1852.14 2.97998 1853.56 2.97998H1866.42C1867.84 2.97998 1868.99 4.12998 1868.99 5.54998V14.4C1868.99 15.82 1867.83 16.97 1866.41 16.97L1866.43 17zM1861.12 12.61H1858.05V9.97998H1861.11C1861.83 9.97998 1862.42 10.56 1862.42 11.29 1862.42 12.01 1861.83 12.6 1861.1 12.6L1861.12 12.61zM1907 20H1915M1907 16H1913M1907 12H1915M1907 8H1913M1907 4H1915M1922 20V4M1922 20L1924.5 17.5M1922 20L1919.5 17.5M1922 4L1919.5 6.5M1922 4L1924.5 6.5M1963 6.99795H1979C1980.11 6.99795 1981 7.89376 1981 8.99879V18.5027C1981 19.884 1979.88 21.0038 1978.5 21.0038H1973M1977 6.99795V5.99754C1977 4.89251 1976.11 3.9967 1975 3.9967H1965.5C1964.12 3.9967 1963 5.11646 1963 6.49775V15.0013M1970 19.003H1963M1970 19.003L1968 21.0038M1970 19.003L1968 17.0021M1977 14.0009H1976M2029.5 11.51V16M2026.5 8V16M2023.5 13.26V16M2032.5 9.75V16M2024 3H2032C2034.76 3 2037 5.23858 2037 8V16C2037 18.7614 2034.76 21 2032 21H2024C2021.24 21 2019 18.7614 2019 16V8C2019 5.23858 2021.24 3 2024 3zM2077 15.8799L2082.07 10.8089C2082.46 10.4089 2083.09 10.4089 2083.48 10.8089L2085.62 12.9489C2086.01 13.3389 2086.64 13.3389 2087.03 12.9489L2092.99 6.98895M2090.33 6.99995H2092.99V9.65995M2093 20.9289H2073.92V3.22095M2138.5 6C2134.35 6 2131 9.35 2131 13.5 2131 17.64 2134.35 21 2138.5 21 2142.64 21 2146 17.64 2146 13.5H2138.5V6z"
    stroke="#fff"
    stroke-width="1.8"
    stroke-linecap="round"
    stroke-linejoin="round"
  />
  <path
    d="M2149 10C2149 6.13 2145.86 3 2142 3V10H2149zM2191 17.5V12.5M2194.33 17.5V6.5M2197.66 17.5V11.4M2201 17.5V7.5M2189 3H2203C2204.1 3 2205 3.895 2205 5V19C2205 20.1 2204.1 21 2203 21H2189C2187.89 21 2187 20.1 2187 19V5C2187 3.89 2187.89 3 2189 3zM2258 9V10M2252 11V14M2249 11V16M2246 14V15M2255 8V14M2256 21H2248C2245.24 21 2243 18.7614 2243 16V8C2243 5.23858 2245.24 3 2248 3H2256C2258.76 3 2261 5.23858 2261 8V16C2261 18.7614 2258.76 21 2256 21zM2307.75 6.99996V8.24996M2307.75 17V15.75M2310.23 9.99996C2310.16 9.01996 2309.36 8.24996 2308.37 8.24996H2307C2306.03 8.24996 2305.24 9.02996 2305.24 9.99996 2305.24 10.8 2305.79 11.5 2306.56 11.7L2308.9 12.28C2309.68 12.47 2310.22 13.17 2310.22 13.98 2310.22 14.95 2309.43 15.73 2308.46 15.73H2307.09C2306.09 15.73 2305.29 14.95 2305.22 13.97M2301.87 5.86996C2303.44 4.30096 2305.61 3.32996 2308 3.32996 2312.78 3.32996 2316.67 7.20996 2316.67 11.998 2316.67 12.658 2316.58 13.308 2316.44 13.938M2315.1 12.602L2316.66 14.162 2318.22 12.592M2314.13 18.128C2312.56 19.688 2310.39 20.658 2307.99 20.658 2303.2 20.658 2299.32 16.768 2299.32 11.99 2299.32 11.32 2299.4 10.67 2299.54 10.04M2300.89 11.398L2299.32 9.82796 2297.75 11.388M2359.5 4V7M2372.5 20L2368.5 11 2364.5 20M2365.39 18H2371.61M2355.5 15C2359.59 14.67 2363.18 11.09 2363.5 7H2355.5M2363.5 15C2360.94 14.79 2358.7 12.55 2358.5 10M2420 13C2418.34 13 2417 11.657 2417 10 2417 8.343 2418.34 7 2420 7 2421.66 7 2423 8.343 2423 10 2423 11.657 2421.66 13 2420 13z"
    stroke="#fff"
    stroke-width="1.8"
    stroke-linecap="round"
    stroke-linejoin="round"
  />
  <path
    d="M2420 21C2420 21 2413 15.25 2413 10 2413 6.13 2416.13 3 2420 3 2423.86 3 2427 6.13 2427 10 2427 15.25 2420 21 2420 21zM2476 3C2474.82 3 2473.65 3.23279 2472.56 3.68508 2471.46 4.13738 2470.47 4.80031 2469.64 5.63604 2468.8 6.47177 2468.14 7.46392 2467.69 8.55585 2467.23 9.64778 2467 10.8181 2467 12 2467 13.1819 2467.23 14.3522 2467.69 15.4442 2468.14 16.5361 2468.8 17.5282 2469.64 18.364 2470.47 19.1997 2471.46 19.8626 2472.56 20.3149 2473.65 20.7672 2474.82 21 2476 21 2477.18 21 2478.35 20.7672 2479.44 20.3149 2480.54 19.8626 2481.53 19.1997 2482.36 18.364 2483.2 17.5282 2483.86 16.5361 2484.31 15.4442 2484.77 14.3522 2485 13.1819 2485 12 2485 10.8181 2484.77 9.64778 2484.31 8.55585 2483.86 7.46392 2483.2 6.47177 2482.36 5.63604 2481.53 4.80031 2480.54 4.13738 2479.44 3.68508 2478.35 3.23279 2477.18 3 2476 3z"
    stroke="#fff"
    stroke-width="1.8"
    stroke-linecap="round"
    stroke-linejoin="round"
  />
  <path
    d="M2476 17.5V6.5C2479.03 6.5 2481.5 8.96 2481.5 12 2481.5 15.03 2479.03 17.5 2476 17.5zM12.3899 62.9999V68.3899H7.98993M20.9399 66.9999C20.3799 62.0599 15.9299 58.4999 10.9899 59.0499 6.04993 59.5999 2.48993 64.0499 3.03993 68.9899 3.49993 73.1599 6.79993 76.4599 10.9799 76.9299M17.2499 73.9999H20.7499M17.2499 73.9999C16.5596 73.9999 15.9999 74.5596 15.9999 75.2499V76.7499C15.9999 77.4403 16.5596 77.9999 17.2499 77.9999H20.7499C21.4403 77.9999 21.9999 77.4403 21.9999 76.7499V75.2499C21.9999 74.5596 21.4403 73.9999 20.7499 73.9999M17.2499 73.9999V72.7499C17.2499 71.7799 18.0299 70.9999 18.9999 70.9999 19.9599 70.9999 20.7499 71.7799 20.7499 72.7499V73.9999M65.5 59V61C65.5 61.27 65.73 61.5 66 61.5H70C70.28 61.5 70.5 61.27 70.5 61V59M62 73V75C62 76.1 62.9 77 64 77H72C73.11 77 74 76.1 74 75V61C74 59.89 73.11 59 72 59H64C62.9 59 62 59.89 62 61V63M58 68H63M63 68L61 66M63 68L61 70M125 77H129C130.65 77 132 75.65 132 74V64.5M132 64.5C131.99 63.7 131.68 62.94 131.12 62.37L128.61 59.86C128.04 59.29 127.28 58.98 126.48 58.98H118.98C117.32 58.98 115.98 60.32 115.98 61.98V68.98M132 64.5H128.5C127.39 64.5 126.5 63.6 126.5 62.5V59M119 72V77M119 77L121 75M119 77L117 75M178 61L176 60V76L178 75M172 61L170 60V76L172 75M190 73L182 76V60L190 63V73zM233.68 60.942C236.26 58.352 240.468 58.352 243.058 60.942 245.648 63.522 245.648 67.73 243.058 70.32M231.7 70.35V67.55H234.522C235.292 67.55 235.912 68.17 235.912 68.94 235.912 69.71 235.282 70.33 234.512 70.33M233.47 66.751V67.551M233.47 73.98V73.07M240.264 70.368C240.264 74.028 237.294 77 233.632 77 229.962 77 227 74.03 227 70.368 227 66.698 229.96 63.736 233.632 63.736 237.292 63.735 240.264 66.696 240.264 70.368zM234.87 73.067H231.7V70.347H234.865C235.605 70.347 236.215 70.947 236.215 71.697 236.215 72.437 235.605 73.047 234.855 73.047L234.87 73.067zM300.21 69.21C300.7 68.24 300.99 67.15 300.99 65.99 300.99 62.12 297.85 58.99 293.99 58.99 292.83 58.99 291.73 59.27 290.77 59.776M290.001 69.74V67.19M289.999 72.55C289.929 72.55 289.869 72.6 289.869 72.67 289.869 72.73 289.919 72.79 289.989 72.79 290.049 72.79 290.109 72.73 290.109 72.66 290.109 72.59 290.049 72.53 289.979 72.53M290 77C286.133 77 283 73.86 283 70 283 66.13 286.133 63 290 63 293.865 63 297 66.135 297 70 297 73.86 293.86 77 290 77zM348 77.5C345.48 77.5 343.064 76.4991 341.282 74.7175 339.501 72.9359 338.5 70.5196 338.5 68 338.5 65.4804 339.501 63.0641 341.282 61.2825 343.064 59.5009 345.48 58.5 348 58.5 350.52 58.5 352.936 59.5009 354.718 61.2825 356.499 63.0641 357.5 65.4804 357.5 68M346.433 66.3986C346.641 64.8635 348.056 63.8001 349.591 64.0079 351.119 64.2158 352.182 65.631 351.974 67.1662 351.798 68.3975 350.823 69.373 349.583 69.5489M354.879 74.4009C354.929 74.4509 354.929 74.5409 354.879 74.6009 354.819 74.6509 354.729 74.6509 354.669 74.6009 354.609 74.5409 354.609 74.4509 354.669 74.3909 354.719 74.3309 354.809 74.3309 354.869 74.3909M346.801 66.3986C346.059 66.3986 345.347 66.6935 344.822 67.2183 344.297 67.7431 344.002 68.4549 344.002 69.1971 344.002 69.9393 344.297 70.6511 344.822 71.1759 345.347 71.7007 346.059 71.9956 346.801 71.9956 347.543 71.9956 348.255 71.7007 348.78 71.1759 349.305 70.6511 349.599 69.9393 349.599 69.1971 349.599 68.4549 349.305 67.7431 348.78 67.2183 348.255 66.6935 347.543 66.3986 346.801 66.3986zM351.26 75.19C350.98 74.77 350.98 74.22 351.26 73.81 352.1 72.52 353.44 71.49 354.773 71.49 356.103 71.49 357.433 72.51 358.283 73.8 358.553 74.21 358.553 74.76 358.283 75.18 357.433 76.462 356.093 77.49 354.763 77.49 353.423 77.49 352.093 76.46 351.25 75.18L351.26 75.19zM400 60L401.3 58.375C401.49 58.135 401.77 58 402.08 58H405.91C406.21 58 406.5 58.13 406.69 58.375L407.98 60V61C407.98 61.55 407.53 62 406.98 62H400.98C400.42 62 399.98 61.55 399.98 61V60H400zM400 60H398C396.89 60 396 60.89 396 62V75C396 76.1 396.89 77 398 77H404M412 68V62C412 60.89 411.1 60 410 60H408M410.379 73.901C410.429 73.951 410.429 74.041 410.379 74.101 410.319 74.151 410.229 74.151 410.169 74.101 410.109 74.041 410.109 73.951 410.169 73.891 410.219 73.831 410.309 73.831 410.369 73.891M400 69.5H405M400 66H408M400 73H402M406.76 74.69C406.48 74.27 406.48 73.72 406.76 73.31 407.6 72.02 408.94 70.99 410.273 70.99 411.603 70.99 412.933 72.01 413.783 73.3 414.053 73.71 414.053 74.26 413.783 74.68 412.933 75.962 411.593 76.99 410.263 76.99 408.923 76.99 407.593 75.96 406.75 74.68L406.76 74.69zM469 69V73C469 75.2 467.2 77 465 77H455M455 77C452.79 77 451 75.2 451 73V63C451 60.79 452.79 59 455 59H459M455 77L461.29 70.7C462.23 69.75 463.75 69.75 464.69 70.7L468.62 74.63M451 69L452.29 67.7C453.23 66.75 454.75 66.75 455.69 67.69L459.98 71.98M466.379 61.901C466.429 61.951 466.429 62.041 466.379 62.101 466.319 62.151 466.229 62.151 466.169 62.101 466.109 62.041 466.109 61.951 466.169 61.891 466.219 61.831 466.309 61.831 466.369 61.891M462.76 62.69C462.48 62.27 462.48 61.72 462.76 61.31 463.6 60.02 464.94 58.99 466.273 58.99 467.603 58.99 468.933 60.01 469.783 61.3 470.053 61.71 470.053 62.26 469.783 62.68 468.933 63.962 467.593 64.99 466.263 64.99 464.923 64.99 463.593 63.96 462.75 62.68L462.76 62.69zM506.996 69.0004L508.292 67.7047C508.744 67.2523 509.358 66.9982 509.997 66.9982 510.637 66.9982 511.251 67.2523 511.703 67.7047L516 72.0016M511.001 77.0037L517.299 70.7059C518.24 69.764 519.768 69.764 520.71 70.7059L524.65 74.6467M525.004 73.002C525.004 75.2121 523.212 77.0037 521.002 77.0037H510.998C508.788 77.0037 506.996 75.2121 506.996 73.002V62.9979C506.996 60.7878 508.788 58.9962 510.998 58.9962H521.002C523.212 58.9962 525.004 60.7878 525.004 62.9979V73.002zM572 64V72M576 68H568M572 77C567.02 77 563 72.971 563 68 563 63.02 567.029 59 572 59 576.971 59 581 63.029 581 68 581 72.971 576.971 77 572 77zM621 68H635M628 75V61M688 68H680M684 77C679.02 77 675 72.971 675 68 675 63.02 679.029 59 684 59 688.971 59 693 63.029 693 68 693 72.971 688.971 77 684 77zM733 68H747M791.4 73H790.99C788.22 73 785.99 70.76 785.99 68H785.989C785.989 65.5 787.839 63.39 790.309 63.06V63.05C791.129 60.61 793.409 58.98 795.979 58.98 799.289 58.98 801.979 61.66 801.979 64.98 804.179 64.98 805.979 66.77 805.979 68.98 805.979 71.18 804.179 72.98 801.979 72.98H800.569M798 74L796 72M796 72L794 74M796 72V77M852 72V77M852 77L850 75M852 77L854 75M847.4 73H846.99C844.22 73 841.99 70.76 841.99 68H841.989C841.989 65.5 843.839 63.39 846.309 63.06V63.05C847.129 60.61 849.409 58.98 851.979 58.98 855.289 58.98 857.979 61.66 857.979 64.98 860.179 64.98 861.979 66.77 861.979 68.98 861.979 71.18 860.179 72.98 857.979 72.98H856.569M903 65L904.5 63.5 903 62M902 73V71M915.5 77H901C899.89 77 899 76.1 899 75V74C899 73.44 899.44 73 900 73H913C913.55 73 914 73.44 914 74V75.5C914 76.32 914.67 77 915.5 77zM915.5 77C916.32 77 917 76.32 917 75.5V61C917 59.89 916.1 59 915 59H911M901.5 59H905.5C906.881 59 908 60.1193 908 61.5V65.5C908 66.8807 906.881 68 905.5 68H901.5C900.119 68 899 66.8807 899 65.5V61.5C899 60.1193 900.119 59 901.5 59zM964 59V77M966.168 60.421L963.998 62.581 961.828 60.411M972 63.38L956 72.62M971.64 66.088L968.67 65.288 969.46 62.318M956.353 69.91L959.313 70.7 958.513 73.66M956 63.38L972 72.62M956.353 66.088L959.313 65.288 958.513 62.318M971.64 69.91L968.67 70.7 969.46 73.66M961.832 75.57L963.992 73.4 966.152 75.56M1029 64V61C1029 59.895 1028.1 59 1027 59H1024M1016 59H1013C1011.89 59 1011 59.895 1011 61V64M1011 72V75C1011 76.1 1011.89 77 1013 77H1016M1024 77H1027C1028.1 77 1029 76.1 1029 75V72M1011 68H1029M1079 62V61C1079 59.9 1078.1 59 1077 59H1069C1067.89 59 1067 59.9 1067 61V69C1067 70.11 1067.89 71 1069 71H1070M1073 67V75C1073 76.1046 1073.9 77 1075 77H1083C1084.1 77 1085 76.1046 1085 75V67C1085 65.8954 1084.1 65 1083 65H1075C1073.9 65 1073 65.8954 1073 67zM1132.5 68.5H1137.5M1132.5 71H1135M1132.5 73.5H1136M1135 62V61C1135 59.9 1134.1 59 1133 59H1125C1123.89 59 1123 59.9 1123 61V69C1123 70.11 1123.89 71 1125 71H1126M1129 67V75C1129 76.1046 1129.9 77 1131 77H1139C1140.1 77 1141 76.1046 1141 75V67C1141 65.8954 1140.1 65 1139 65H1131C1129.9 65 1129 65.8954 1129 67zM1183 68H1193M1183 64H1193M1183 72H1188M1183 77H1193C1195.21 77 1197 75.2091 1197 73V63C1197 60.7909 1195.21 59 1193 59H1183C1180.79 59 1179 60.7909 1179 63V73C1179 75.2091 1180.79 77 1183 77zM1247 62V61C1247 59.9 1246.1 59 1245 59H1237C1235.89 59 1235 59.9 1235 61V69C1235 70.11 1235.89 71 1237 71H1238M1247 68.5V73.5M1244.5 71H1249.5M1241 67V75C1241 76.1046 1241.9 77 1243 77H1251C1252.1 77 1253 76.1046 1253 75V67C1253 65.8954 1252.1 65 1251 65H1243C1241.9 65 1241 65.8954 1241 67zM1303.25 66.125L1299.5 69.875 1297.25 67.625M1308 67.182C1308 71.723 1304.58 75.969 1300 77 1295.41 75.96 1292 71.72 1292 67.182V63.615C1292 62.795 1292.49 62.065 1293.24 61.755L1298.24 59.705C1299.36 59.235 1300.63 59.235 1301.75 59.705L1306.75 61.745C1307.5 62.045 1307.99 62.775 1307.99 63.595V67.162L1308 67.182zM1357.53 67.125V65.775C1357.53 64.932 1356.84 64.245 1356 64.245 1355.15 64.245 1354.47 64.925 1354.47 65.765V67.105M1357.75 67.12H1354.25C1353.69 67.12 1353.25 67.56 1353.25 68.12V70.24C1353.25 70.79 1353.69 71.24 1354.25 71.24H1357.75C1358.3 71.24 1358.75 70.79 1358.75 70.24V68.11C1358.75 67.55 1358.3 67.11 1357.75 67.11V67.12zM1364 67.24C1364 71.608 1360.84 75.7 1356.52 76.92 1356.18 77.01 1355.82 77.01 1355.48 76.92 1351.15 75.69 1348 71.6 1348 67.23V63.2C1348 62.38 1348.49 61.65 1349.24 61.349L1354.1 59.359C1355.31 58.859 1356.67 58.859 1357.88 59.359L1362.74 61.349C1363.49 61.649 1363.98 62.379 1363.98 63.2V67.228L1364 67.24zM1412.18 67.323C1412.27 67.413 1412.27 67.573 1412.18 67.673 1412.08 67.763 1411.92 67.763 1411.82 67.673 1411.72 67.573 1411.72 67.413 1411.82 67.313 1411.91 67.213 1412.07 67.213 1412.17 67.313M1416.17 67.323C1416.26 67.413 1416.26 67.573 1416.17 67.673 1416.07 67.763 1415.91 67.763 1415.81 67.673 1415.71 67.573 1415.71 67.413 1415.81 67.313 1415.9 67.213 1416.06 67.213 1416.16 67.313M1408.18 67.323C1408.27 67.413 1408.27 67.573 1408.18 67.673 1408.08 67.763 1407.92 67.763 1407.82 67.673 1407.72 67.573 1407.72 67.413 1407.82 67.313 1407.91 67.213 1408.07 67.213 1408.17 67.313M1420 67.182C1420 71.723 1416.58 75.969 1412 77 1407.41 75.96 1404 71.72 1404 67.182V63.232C1404 62.412 1404.49 61.682 1405.15 61.412L1410.15 59.366C1411.36 58.866 1412.62 58.866 1413.75 59.326L1418.75 61.366C1419.5 61.666 1419.99 62.396 1419.99 63.217V67.157L1420 67.182zM1473.49 68C1473.49 68.28 1473.71 68.5 1473.99 68.5 1474.26 68.5 1474.49 68.28 1474.49 68 1474.49 67.73 1474.26 67.5 1473.99 67.5 1473.71 67.5 1473.49 67.73 1473.49 68.01M1467.49 68C1467.49 68.28 1467.71 68.5 1467.99 68.5 1468.26 68.5 1468.49 68.28 1468.49 68 1468.49 67.73 1468.26 67.5 1467.99 67.5 1467.71 67.5 1467.49 67.73 1467.49 68.01M1461.49 68C1461.49 68.28 1461.71 68.5 1461.99 68.5 1462.26 68.5 1462.49 68.28 1462.49 68 1462.49 67.73 1462.26 67.5 1461.99 67.5 1461.71 67.5 1461.49 67.73 1461.49 68.01M1529 77H1524C1522.22 77 1520.48 76.4722 1519 75.4832 1517.52 74.4943 1516.37 73.0887 1515.69 71.4442 1515 69.7996 1514.83 67.99 1515.17 66.2442 1515.52 64.4984 1516.38 62.8947 1517.64 61.636 1518.89 60.3774 1520.5 59.5202 1522.24 59.1729 1523.99 58.8257 1525.8 59.0039 1527.44 59.6851 1529.09 60.3663 1530.49 61.5198 1531.48 62.9999 1532.47 64.4799 1533 66.22 1533 68V69.5C1533 70.163 1532.74 70.7989 1532.27 71.2678 1531.8 71.7366 1531.16 72 1530.5 72 1529.84 72 1529.2 71.7366 1528.73 71.2678 1528.26 70.7989 1528 70.163 1528 69.5V68M1528 68C1528 66.9391 1527.58 65.9217 1526.83 65.1716 1526.08 64.4214 1525.06 64 1524 64 1523.21 64 1522.44 64.2346 1521.78 64.6741 1521.12 65.1137 1520.61 65.7384 1520.3 66.4693 1520 67.2002 1519.92 68.0044 1520.08 68.7804 1520.23 69.5563 1520.61 70.269 1521.17 70.8284 1521.73 71.3878 1522.44 71.7688 1523.22 71.9231 1524 72.0775 1524.8 71.9983 1525.53 71.6955 1526.26 71.3928 1526.89 70.8801 1527.33 70.2223 1527.77 69.5645 1528 68.7911 1528 68zM1582.13 73.262L1580.67 74.719C1580.17 75.2182 1579.58 75.6143 1578.93 75.8845 1578.27 76.1547 1577.57 76.2938 1576.87 76.2938 1576.16 76.2938 1575.46 76.1547 1574.81 75.8845 1574.16 75.6143 1573.57 75.2182 1573.07 74.719 1572.57 74.22 1572.17 73.6276 1571.9 72.9756 1571.63 72.3236 1571.49 71.6247 1571.49 70.919 1571.49 70.2132 1571.63 69.5144 1571.9 68.8624 1572.17 68.2103 1572.57 67.6179 1573.07 67.119L1574.53 65.666M1576.9 70.897L1583.11 64.687M1577.87 62.322L1579.33 60.865C1579.83 60.3655 1580.42 59.9692 1581.07 59.6988 1581.73 59.4285 1582.43 59.2893 1583.13 59.2893 1583.84 59.2893 1584.54 59.4285 1585.19 59.6988 1585.84 59.9692 1586.43 60.3655 1586.93 60.865 1587.43 61.3639 1587.83 61.9563 1588.1 62.6083 1588.37 63.2603 1588.51 63.9592 1588.51 64.665 1588.51 65.3708 1588.37 66.0697 1588.1 66.7217 1587.83 67.3737 1587.43 67.9661 1586.93 68.465L1585.47 69.918M1642.5 62.5V75C1642.5 75.5304 1642.29 76.0391 1641.91 76.4142 1641.54 76.7893 1641.03 77 1640.5 77H1631.5C1630.97 77 1630.46 76.7893 1630.09 76.4142 1629.71 76.0391 1629.5 75.5304 1629.5 75V62.5M1644 62.5H1628M1638 73V67M1634 73V67M1632.5 62.5V60.5C1632.5 60.1022 1632.66 59.7206 1632.94 59.4393 1633.22 59.158 1633.6 59 1634 59H1638C1638.4 59 1638.78 59.158 1639.06 59.4393 1639.34 59.7206 1639.5 60.1022 1639.5 60.5V62M1688.44 68.339L1690.61 70.506 1690.6 70.492 1695.49 65.603M1701 68C1701 72.9706 1696.97 77 1692 77 1687.03 77 1683 72.9706 1683 68 1683 63.0294 1687.03 59 1692 59 1696.97 59 1701 63.0294 1701 68zM1751.56 67.111L1748 70.667M1748 70.667L1744.44 67.111M1748 70.667V60M1756 72.444C1756 73.3871 1755.63 74.2916 1754.96 74.9585 1754.29 75.6254 1753.39 76 1752.44 76H1743.56C1742.61 76 1741.71 75.6254 1741.04 74.9585 1740.37 74.2916 1740 73.3871 1740 72.444M1798 73L1809 63.5 1803 59V77L1809 72.5 1798 63M1853 61L1867 75M1867 61L1853 75M1924 62.5L1913 73.5 1908 68.5M1976.59 69.125C1976.38 69.125 1976.22 69.285 1976.22 69.495 1976.22 69.695 1976.38 69.87 1976.59 69.865 1976.79 69.865 1976.97 69.695 1976.97 69.49 1976.97 69.28 1976.79 69.115 1976.58 69.115M1963 61V74.5C1963 75.6 1963.89 76.5 1965 76.5H1979C1980.1 76.5 1981 75.6 1981 74.5V64.5C1981 63.39 1980.1 62.5 1979 62.5H1964.5C1963.67 62.5 1963 61.82 1963 61zM1963 61C1963 60.17 1963.67 59.5 1964.5 59.5H1977M2028 77V64M2031.7 62.61C2030.62 63.73 2028.92 63.998 2028.1 63.998M2028.09 64C2028.09 64 2027.59 60.88 2028.81 59.62M2031.69 62.61C2032.48 61.78 2032.48 60.44 2031.69 59.61 2030.89 58.78 2029.6 58.78 2028.81 59.61M2027.89 63.998C2027.07 63.998 2025.37 63.73 2024.3 62.61 2023.5 61.78 2023.5 60.44 2024.3 59.61 2025.09 58.78 2026.38 58.78 2027.18 59.61M2027.9 64C2027.9 64 2028.39 60.88 2027.17 59.62M2035 68V76C2035 76.55 2034.55 77 2034 77H2022C2021.44 77 2021 76.55 2021 76V68M2036 64H2020C2019.45 64 2019 64.44 2019 65V67C2019 67.55 2019.44 68 2020 68H2036C2036.55 68 2037 67.55 2037 67V65C2037 64.44 2036.55 64 2036 64zM2080 66V63C2080 60.79 2081.79 59 2084 59 2086.2 59 2088 60.79 2088 63V66M2089 77H2079C2077.89 77 2077 76.1 2077 75V68C2077 66.89 2077.89 66 2079 66H2089C2090.1 66 2091 66.89 2091 68V75C2091 76.1 2090.1 77 2089 77zM2144 77H2146C2147.65 77 2149 75.65 2149 74V72M2144 59H2146C2147.65 59 2149 60.34 2149 62V64M2131 72V74C2131 75.65 2132.34 77 2134 77H2136M2131 64V62C2131 60.34 2132.34 59 2134 59H2136M2141.55 69.5H2141.54L2141.53 69.49V69.48M2144.95 69.5H2144.94L2144.93 69.49V69.48M2141.55 73H2141.54L2141.53 72.99V72.98M2144.95 73H2144.94L2144.93 72.99V72.98M2143.26 71.25H2143.24L2143.23 71.24V71.23M2142 63H2144.5C2144.78 63 2145 63.2239 2145 63.5V66C2145 66.2761 2144.78 66.5 2144.5 66.5H2142C2141.72 66.5 2141.5 66.2761 2141.5 66V63.5C2141.5 63.2239 2141.72 63 2142 63zM2135.5 63H2138C2138.28 63 2138.5 63.2239 2138.5 63.5V66C2138.5 66.2761 2138.28 66.5 2138 66.5H2135.5C2135.22 66.5 2135 66.2761 2135 66V63.5C2135 63.2239 2135.22 63 2135.5 63zM2135.5 69.5H2138C2138.28 69.5 2138.5 69.7239 2138.5 70V72.5C2138.5 72.7761 2138.28 73 2138 73H2135.5C2135.22 73 2135 72.7761 2135 72.5V70C2135 69.7239 2135.22 69.5 2135.5 69.5zM2187.51 65H2204.49M2187.51 71H2204.49M2196 59.1C2200.33 59.1 2200.33 76.9 2196 76.9 2191.67 76.9 2191.67 59.1 2196 59.1zM2196 59C2200.98 59 2205 63.018 2205 68 2205 72.98 2200.98 77 2196 77 2191.02 77 2187 72.98 2187 68 2187 63.018 2191.02 59 2196 59zM2252 69.1199V65.3799M2251.99 72.1249C2251.85 72.1249 2251.74 72.2349 2251.74 72.3749 2251.74 72.5049 2251.85 72.6249 2251.99 72.6249 2252.12 72.6249 2252.24 72.5049 2252.24 72.3749 2252.24 72.2349 2252.12 72.1249 2251.98 72.1249M2254.03 60.1299L2261.68 73.5339C2262.57 75.0839 2261.44 77.0309 2259.65 77.0309H2244.33C2242.54 77.0309 2241.41 75.0919 2242.3 73.5339L2249.95 60.1299C2250.84 58.5499 2253.11 58.5499 2254.01 60.1299H2254.03zM2308.96 59L2300.74 70H2307.99L2307.02 77 2315.23 66H2307.98L2308.96 59zM2366.83 65.17L2361.17 70.83M2366.83 70.83L2361.17 65.17M2364 77C2359.02 77 2355 72.971 2355 68 2355 63.02 2359.03 59 2364 59 2368.97 59 2373 63.029 2373 68 2373 72.971 2368.97 77 2364 77zM2425 73.9167C2425 74.15 2425.18 74.3334 2425.42 74.3334 2425.64 74.3334 2425.83 74.15 2425.83 73.9167 2425.83 73.6917 2425.64 73.5 2425.42 73.5 2425.18 73.5 2425 73.6917 2425 73.925M2416.76 68L2412.35 63.5962C2412.16 63.401 2412.16 63.0844 2412.35 62.8891L2415.89 59.3536C2416.08 59.1583 2416.4 59.1583 2416.6 59.3536L2425.24 68M2411.44 77H2426C2427.66 77 2429 75.6569 2429 74 2429 72.3432 2427.66 71 2426 71H2411.44C2411.2 71 2411 71.1966 2411 71.4391V76.561C2411 76.8035 2411.2 77 2411.44 77z"
    stroke="#fff"
    stroke-width="1.8"
    stroke-linecap="round"
    stroke-linejoin="round"
  />
  <path
    d="M2482 63H2482.7C2482.81 63 2482.9 63.0895 2482.9 63.2V65.8C2482.9 65.9105 2482.81 66 2482.7 66H2482M2470.5 77H2480C2481.1 77 2482 76.1046 2482 75V61C2482 59.8954 2481.1 59 2480 59H2470.5C2470.22 59 2470 59.2239 2470 59.5V76.5C2470 76.7761 2470.22 77 2470.5 77Z"
    stroke="#fff"
    stroke-width="1.8"
  />
  <path
    d="M14 129L14.5 133M10 129L9.5 133M7.2 133H16.8M21 125.5H3M19 129H5C3.895 129 3 128.1 3 127V117C3 115.895 3.895 115 5 115H19C20.1 115 21 115.895 21 117V127C21 128.1 20.1 129 19 129zM65.5 115V116.8C65.47 117.1 65.69 117.36 66 117.4H70 69.999C70.299 117.36 70.519 117.1 70.499 116.8V115M66 130H70M72 133H64C62.89 133 62 132.1 62 131V117C62 115.89 62.89 115 64 115H72C73.1 115 74 115.89 74 117V131C74 132.1 73.1 133 72 133zM123.999 129.875C123.929 129.875 123.874 129.925 123.869 130 123.869 130.06 123.919 130.125 123.994 130.125 124.054 130.125 124.119 130.065 124.119 130 124.119 129.93 124.059 129.875 123.989 129.875M131 130.75V117.25C131 116 129.99 115 128.75 115H119.25C118 115 117 116 117 117.25V130.75C117 131.99 118 133 119.25 133H128.75C129.99 133 131 131.99 131 130.75z"
    stroke="#fff"
    stroke-width="1.8"
    stroke-linecap="round"
    stroke-linejoin="round"
  />
  <path
    d="M173.5 124H186.5M173.5 129H186.5M173.5 119H186.5"
    stroke="#fff"
    stroke-width="1.5"
    stroke-linecap="round"
    stroke-linejoin="round"
  />
  <path
    d="M244.79 121.52C245.58 122.31 245.58 123.59 244.79 124.38 243.99 125.17 242.71 125.17 241.92 124.38 241.12 123.58 241.12 122.3 241.92 121.51 242.71 120.71 243.99 120.71 244.78 121.509M238.2 117.91C239.41 119.12 239.41 121.09 238.2 122.31 236.98 123.52 235.01 123.52 233.79 122.31 232.57 121.09 232.57 119.12 233.79 117.9 235 116.68 236.97 116.68 238.19 117.9M230.06 121.52C230.85 122.31 230.85 123.59 230.06 124.38 229.26 125.17 227.98 125.17 227.19 124.38 226.39 123.58 226.39 122.3 227.19 121.51 227.98 120.71 229.26 120.71 230.05 121.509M247 131V129.9C247 128.51 245.88 127.4 244.5 127.4H243.69M225 131V129.9C225 128.51 226.11 127.4 227.5 127.4H228.3M241.33 131V129.39C241.33 127.45 239.76 125.89 237.83 125.89H234.15C232.21 125.89 230.65 127.45 230.65 129.39V130.99M284 132C284 129.5 286 127.5 288.5 127.5H291.1M297.5 132.5V127.5M295 130H300M295 117.2C296.7 118.9 296.7 121.6 295 123.2 293.3 124.8 290.6 124.9 289 123.2 287.4 121.5 287.3 118.8 289 117.2 290.7 115.6 293.3 115.6 295 117.2z"
    stroke="#fff"
    stroke-width="1.8"
    stroke-linecap="round"
    stroke-linejoin="round"
  />
  <path
    d="M340 132C340 129.51 342.01 127.5 344.5 127.5H347.083M351.73 131.77L355.27 128.23M351.73 128.23L355.27 131.77M348 116C347.442 116 346.889 116.11 346.374 116.324C345.858 116.537 345.389 116.85 344.995 117.245C344.6 117.639 344.287 118.108 344.074 118.624C343.86 119.139 343.75 119.692 343.75 120.25C343.75 120.808 343.86 121.361 344.074 121.876C344.287 122.392 344.6 122.861 344.995 123.255C345.389 123.65 345.858 123.963 346.374 124.176C346.889 124.39 347.442 124.5 348 124.5C348.558 124.5 349.111 124.39 349.626 124.176C350.142 123.963 350.611 123.65 351.005 123.255C351.4 122.861 351.713 122.392 351.926 121.876C352.14 121.361 352.25 120.808 352.25 120.25C352.25 119.692 352.14 119.139 351.926 118.624C351.713 118.108 351.4 117.639 351.005 117.245C350.611 116.85 350.142 116.537 349.626 116.324C349.111 116.11 348.558 116 348 116Z"
    stroke="#fff"
    stroke-width="1.8"
    stroke-miterlimit="10"
    stroke-linecap="round"
    stroke-linejoin="round"
  />
  <path
    d="M399 120V116C399 115.448 399.44 115 400 115H408C408.55 115 409 115.44 409 116V120M399 129H397C395.895 129 395 128.1 395 127V122C395 120.89 395.895 120 397 120H411C412.1 120 413 120.89 413 122V127C413 128.1 412.1 129 411 129H409M399 123H400M399 125.8H409V132C409 132.55 408.55 133 408 133H400C399.44 133 399 132.55 399 132V125.8zM451 133C451 131.07 452.564 129.5 454.49 129.5H458.5C460.43 129.5 461.99 131.064 461.99 132.99M464 129.506H465.5C467.43 129.506 468.99 131.07 468.99 132.996M465.379 116.5H469.622M467.5 118.621V114.379M456.5 120.506C456.106 120.506 455.716 120.584 455.352 120.734 454.988 120.885 454.657 121.106 454.379 121.385 454.1 121.663 453.879 121.994 453.728 122.358 453.578 122.722 453.5 123.112 453.5 123.506 453.5 123.9 453.578 124.29 453.728 124.654 453.879 125.018 454.1 125.349 454.379 125.627 454.657 125.906 454.988 126.127 455.352 126.278 455.716 126.428 456.106 126.506 456.5 126.506 456.894 126.506 457.284 126.428 457.648 126.278 458.012 126.127 458.343 125.906 458.621 125.627 458.9 125.349 459.121 125.018 459.272 124.654 459.422 124.29 459.5 123.9 459.5 123.506 459.5 123.112 459.422 122.722 459.272 122.358 459.121 121.994 458.9 121.663 458.621 121.385 458.343 121.106 458.012 120.885 457.648 120.734 457.284 120.584 456.894 120.506 456.5 120.506zM464 122.506C463.47 122.506 462.961 122.717 462.586 123.092 462.211 123.467 462 123.976 462 124.506 462 125.036 462.211 125.545 462.586 125.92 462.961 126.295 463.47 126.506 464 126.506 464.53 126.506 465.039 126.295 465.414 125.92 465.789 125.545 466 125.036 466 124.506 466 123.976 465.789 123.467 465.414 123.092 465.039 122.717 464.53 122.506 464 122.506zM514.09 120.15C514.96 121.02 514.96 122.45 514.09 123.33 513.21 124.2 511.78 124.2 510.9 123.33 510.02 122.45 510.02 121.02 510.9 120.14 511.77 119.26 513.2 119.26 514.08 120.14M519 121.5H523M521.4 125.5H519M516.09 128.5C515.91 128.06 515.64 127.66 515.29 127.346 514.7 126.796 513.93 126.496 513.133 126.496H511.833C511.033 126.496 510.263 126.796 509.676 127.336 509.326 127.656 509.059 128.046 508.876 128.49M506 130.5V117.54C506 116.41 506.91 115.49 508.04 115.49H523.999C525.099 115.49 525.999 116.38 525.999 117.49V130.49C525.999 131.59 525.099 132.49 523.999 132.49H507.999C506.894 132.49 505.999 131.59 505.999 130.49L506 130.5zM564 126.11C564 127.57 567.37 128.75 571.53 128.75M579 117.64C579 119.1 575.64 120.28 571.5 120.28 567.35 120.28 564 119.09 564 117.63M579 121.88C579 123.34 575.64 124.52 571.5 124.52 567.35 124.52 564 123.33 564 121.87M579.723 130V128.72C579.723 127.81 578.943 126.99 577.993 126.99 577.033 126.99 576.263 127.76 576.263 128.71V129.98M571.536 133C567.374 133 564 131.81 564 130.35V117.64C564 116.17 567.35 114.99 571.5 114.99 575.64 114.99 579 116.17 579 117.63V123.98M580.026 134H575.974C575.434 134 574.994 133.56 574.994 133.02V130.96C574.994 130.42 575.424 129.98 575.964 129.98H580.016C580.546 129.98 580.986 130.41 580.986 130.95V133C580.986 133.53 580.546 133.97 580.006 133.97L580.026 134zM625 130V130.25C625 131.9 626.34 133.25 628 133.25 629.65 133.25 631 131.9 631 130.25V130M634 125.75L635.7 127.45C635.88 127.63 635.99 127.89 635.99 128.15V128.98C635.99 129.53 635.54 129.98 634.99 129.98H620.99C620.43 129.98 619.99 129.53 619.99 128.98V128.14C619.99 127.87 620.09 127.62 620.28 127.43L621.98 125.72V121.47C621.98 118.15 624.66 115.47 627.98 115.47 631.29 115.469 633.98 118.15 633.98 121.47L634 125.75zM675 121H693M681.57 125H679M690 131H678C676.343 131 675 129.657 675 128V120C675 118.343 676.343 117 678 117H690C691.657 117 693 118.343 693 120V128C693 129.657 691.657 131 690 131zM739.99 120C739.85 120 739.74 120.11 739.74 120.25 739.74 120.38 739.85 120.5 739.99 120.5 740.12 120.5 740.24 120.38 740.24 120.25 740.24 120.11 740.12 120 739.98 120M740 124V129M740 133C735.02 133 731 128.971 731 124 731 119.02 735.029 115 740 115 744.971 115 749 119.029 749 124 749 128.971 744.971 133 740 133zM798 118V122.17C798 122.7 798.21 123.2 798.58 123.58L803.4 128.4C803.775 128.775 803.98 129.28 803.98 129.81V130.98C803.98 132.08 803.08 132.98 801.98 132.98H789.98C788.87 132.98 787.98 132.08 787.98 130.98V129.8C787.98 129.27 788.19 128.76 788.56 128.38L793.38 123.55C793.755 123.175 793.96 122.66 793.96 122.13V117.95M798 118C798.55 118 799 117.55 799 117V116C799 115.44 798.55 115 798 115H794C793.44 115 793 115.448 793 116V117C793 117.55 793.44 118 794 118H798zM788.18 129H803.82M793.82 123H798.18M855.7 116C858.87 116 861 118.98 861 121.76 861 127.39 852.16 132 852 132 851.84 132 843 127.39 843 121.76 843 118.98 845.13 116 848.3 116 850.12 116 851.31 116.91 852 117.71 852.69 116.91 853.88 116 855.7 116zM916.5 122.23L909.77 115.5M915.379 121.1L904.909 131.56C903.669 132.79 901.659 132.79 900.419 131.56 900.409 131.55 900.409 131.55 900.409 131.55 899.169 130.31 899.168 128.3 900.398 127.06 900.398 127.05 900.398 127.05 900.398 127.05L910.858 116.58M903.01 124.5H911.98M966.47 121.53L970.36 117.64M957.64 130.36L961.53 126.47M961.53 121.53L957.64 117.64M970.36 130.36L966.47 126.47M964 115C962.818 115 961.648 115.233 960.556 115.685 959.464 116.137 958.472 116.8 957.636 117.636 956.8 118.472 956.137 119.464 955.685 120.556 955.233 121.648 955 122.818 955 124 955 125.182 955.233 126.352 955.685 127.444 956.137 128.536 956.8 129.528 957.636 130.364 958.472 131.2 959.464 131.863 960.556 132.315 961.648 132.767 962.818 133 964 133 965.182 133 966.352 132.767 967.444 132.315 968.536 131.863 969.528 131.2 970.364 130.364 971.2 129.528 971.863 128.536 972.315 127.444 972.767 126.352 973 125.182 973 124 973 122.818 972.767 121.648 972.315 120.556 971.863 119.464 971.2 118.472 970.364 117.636 969.528 116.8 968.536 116.137 967.444 115.685 966.352 115.233 965.182 115 964 115zM964 120.5C963.54 120.5 963.085 120.591 962.661 120.766 962.236 120.942 961.85 121.2 961.525 121.525 961.2 121.85 960.942 122.236 960.766 122.661 960.591 123.085 960.5 123.54 960.5 124 960.5 124.46 960.591 124.915 960.766 125.339 960.942 125.764 961.2 126.15 961.525 126.475 961.85 126.8 962.236 127.058 962.661 127.234 963.085 127.409 963.54 127.5 964 127.5 964.46 127.5 964.915 127.409 965.339 127.234 965.764 127.058 966.15 126.8 966.475 126.475 966.8 126.15 967.058 125.764 967.234 125.339 967.409 124.915 967.5 124.46 967.5 124 967.5 123.54 967.409 123.085 967.234 122.661 967.058 122.236 966.8 121.85 966.475 121.525 966.15 121.2 965.764 120.942 965.339 120.766 964.915 120.591 964.46 120.5 964 120.5zM1019 120.5L1018 119.5M1021 120.5L1022 119.5M1025 121.5C1022.23 124.26 1017.76 124.26 1015 121.5M1016.85 126.67V126.669C1016.16 126.999 1015.53 127.449 1014.99 127.989M1025 128C1024.45 127.45 1023.83 127 1023.14 126.67M1016.25 124.75H1014.5M1025.5 124.75H1023.75M1020 120.5C1019.01 120.5 1018.05 120.921 1017.35 121.672 1016.65 122.422 1016.25 123.439 1016.25 124.5 1016.25 125.561 1016.65 126.578 1017.35 127.328 1018.05 128.079 1019.01 128.5 1020 128.5 1020.99 128.5 1021.95 128.079 1022.65 127.328 1023.35 126.578 1023.75 125.561 1023.75 124.5 1023.75 123.439 1023.35 122.422 1022.65 121.672 1021.95 120.921 1020.99 120.5 1020 120.5zM1016 115H1024C1026.76 115 1029 117.239 1029 120V128C1029 130.761 1026.76 133 1024 133H1016C1013.24 133 1011 130.761 1011 128V120C1011 117.239 1013.24 115 1016 115zM1074 133H1069C1067.89 133 1067 132.1 1067 131V117C1067 115.89 1067.89 115 1069 115H1079C1080.1 115 1081 115.89 1081 117V119M1080 130.49H1082M1083.2 133H1078.8C1077.8 133 1077 132.19 1077 131.2V123.8C1077 122.8 1077.8 122 1078.8 122H1083.2C1084.19 122 1085 122.8 1085 123.8V131.2C1085 132.19 1084.19 133 1083.2 133zM1127.73 124C1127.73 121.64 1129.64 119.73 1131.99 119.73M1142.79 117.76C1143.93 119.74 1140.03 124.15 1134.06 127.59 1128.09 131.03 1122.32 132.21 1121.18 130.22M1121.2 130.24C1120.5 129.03 1121.67 126.93 1124.03 124.69M1136.59 117.45C1139.7 116.52 1142.1 116.56 1142.8 117.76M1132 116C1129.88 116 1127.84 116.843 1126.34 118.343 1124.84 119.843 1124 121.878 1124 124 1124 126.122 1124.84 128.157 1126.34 129.657 1127.84 131.157 1129.88 132 1132 132 1134.12 132 1136.16 131.157 1137.66 129.657 1139.16 128.157 1140 126.122 1140 124 1140 121.878 1139.16 119.843 1137.66 118.343 1136.16 116.843 1134.12 116 1132 116zM1185.68 121.68C1185.91 120.65 1186.84 119.95 1187.89 119.99 1189.06 119.92 1190.06 120.81 1190.14 121.99 1190.14 123.49 1187.99 123.99 1187.99 124.99M1188 127.6C1187.93 127.6 1187.88 127.655 1187.88 127.725 1187.88 127.793 1187.93 127.85 1188 127.85 1188.07 127.85 1188.12 127.793 1188.12 127.725 1188.12 127.655 1188.07 127.6 1188 127.6M1188 115C1186.82 115 1185.65 115.233 1184.56 115.685 1183.46 116.137 1182.47 116.8 1181.64 117.636 1180.8 118.472 1180.14 119.464 1179.69 120.556 1179.23 121.648 1179 122.818 1179 124 1179 125.182 1179.23 126.352 1179.69 127.444 1180.14 128.536 1180.8 129.528 1181.64 130.364 1182.47 131.2 1183.46 131.863 1184.56 132.315 1185.65 132.767 1186.82 133 1188 133 1189.18 133 1190.35 132.767 1191.44 132.315 1192.54 131.863 1193.53 131.2 1194.36 130.364 1195.2 129.528 1195.86 128.536 1196.31 127.444 1196.77 126.352 1197 125.182 1197 124 1197 122.818 1196.77 121.648 1196.31 120.556 1195.86 119.464 1195.2 118.472 1194.36 117.636 1193.53 116.8 1192.54 116.137 1191.44 115.685 1190.35 115.233 1189.18 115 1188 115zM1244.8 115C1245.01 115 1245.21 115.064 1245.38 115.182 1245.54 115.301 1245.67 115.468 1245.74 115.662L1246.25 117.077C1246.33 117.3 1246.49 117.486 1246.69 117.605L1248.2 118.475C1248.4 118.593 1248.64 118.635 1248.88 118.593L1250.36 118.326C1250.56 118.289 1250.77 118.316 1250.95 118.402 1251.14 118.489 1251.3 118.631 1251.4 118.81L1252.2 120.19C1252.3 120.368 1252.35 120.574 1252.33 120.779 1252.31 120.984 1252.23 121.179 1252.1 121.336L1251.13 122.484C1250.98 122.665 1250.89 122.893 1250.89 123.13V124.87C1250.89 125.107 1250.98 125.335 1251.13 125.516L1252.1 126.664C1252.23 126.821 1252.31 127.016 1252.33 127.221 1252.35 127.426 1252.3 127.632 1252.2 127.81L1251.4 129.19C1251.3 129.368 1251.14 129.511 1250.95 129.597 1250.77 129.684 1250.56 129.711 1250.36 129.674L1248.88 129.407C1248.64 129.365 1248.4 129.407 1248.2 129.525L1246.69 130.395C1246.49 130.514 1246.33 130.7 1246.25 130.923L1245.74 132.338C1245.67 132.532 1245.54 132.7 1245.38 132.818 1245.21 132.937 1245.01 133 1244.8 133H1243.2C1242.99 133 1242.79 132.936 1242.62 132.818 1242.46 132.699 1242.33 132.532 1242.26 132.338L1241.75 130.923C1241.67 130.701 1241.51 130.514 1241.31 130.395L1239.8 129.525C1239.6 129.407 1239.36 129.365 1239.13 129.407L1237.65 129.674C1237.44 129.711 1237.23 129.684 1237.05 129.598 1236.86 129.511 1236.7 129.369 1236.6 129.19L1235.8 127.81C1235.7 127.632 1235.65 127.426 1235.67 127.221 1235.69 127.016 1235.77 126.821 1235.9 126.664L1236.87 125.516C1237.02 125.335 1237.11 125.107 1237.11 124.87V123.13C1237.11 122.893 1237.02 122.665 1236.87 122.484L1235.91 121.336C1235.78 121.179 1235.7 120.984 1235.68 120.779 1235.66 120.574 1235.71 120.368 1235.81 120.19L1236.61 118.81C1236.71 118.632 1236.87 118.489 1237.06 118.403 1237.24 118.316 1237.45 118.289 1237.65 118.326L1239.13 118.593C1239.37 118.635 1239.61 118.593 1239.81 118.475L1241.32 117.605C1241.52 117.486 1241.68 117.299 1241.76 117.077L1242.27 115.662C1242.34 115.47 1242.46 115.303 1242.63 115.185 1242.8 115.066 1243 115.002 1243.2 115H1244.8z"
    stroke="#fff"
    stroke-width="1.8"
    stroke-linecap="round"
    stroke-linejoin="round"
  />
  <path
    d="M1244 126.75C1245.52 126.75 1246.75 125.519 1246.75 124 1246.75 122.481 1245.52 121.25 1244 121.25 1242.48 121.25 1241.25 122.481 1241.25 124 1241.25 125.519 1242.48 126.75 1244 126.75zM1299.83 127L1304.83 132C1305.65 132.82 1307 132.82 1307.83 132 1308.65 131.17 1308.65 129.82 1307.83 129L1302.83 124M1294.84 119L1298.34 122.5M1308.91 117.84C1308.93 117.86 1308.95 117.89 1308.96 117.92 1309.43 119.48 1309.06 121.25 1307.82 122.48 1306.56 123.73 1304.78 124.089 1303.2 123.59L1294.85 131.93C1294.03 132.74 1292.71 132.8 1291.87 132.02 1290.98 131.19 1290.96 129.81 1291.81 128.96L1300.19 120.57C1299.69 118.99 1300.05 117.2 1301.3 115.95 1302.53 114.712 1304.3 114.34 1305.86 114.81 1305.89 114.82 1305.92 114.83 1305.94 114.86L1306.1 115.02C1306.17 115.09 1306.17 115.22 1306.1 115.3L1303.46 117.93 1305.78 120.25 1308.41 117.61C1308.48 117.53 1308.61 117.53 1308.69 117.61L1308.85 117.77 1308.91 117.84zM1290.93 116.29L1291.6 118.31C1291.73 118.71 1292.11 118.99 1292.54 118.99H1294.82V116.711C1294.82 116.281 1294.54 115.891 1294.13 115.761L1292.1 115.081C1291.92 115.021 1291.72 115.061 1291.58 115.202L1291.01 115.762C1290.87 115.892 1290.82 116.092 1290.89 116.272L1290.93 116.29zM1356 129.235L1350.18 131.995 1351.38 125.875 1346.99 121.38 1353.17 120.6 1355.99 114.97 1358.81 120.59 1364.99 121.36 1360.6 125.84 1361.8 131.96 1356 129.235zM1418 117H1421M1403 117H1411M1413 124H1421M1403 124H1406M1418 131H1421M1403 131H1411M1417.41 115.58C1418.19 116.36 1418.19 117.62 1417.41 118.4 1416.62 119.18 1415.36 119.18 1414.58 118.4 1413.79 117.61 1413.79 116.35 1414.58 115.57 1415.36 114.78 1416.62 114.78 1417.4 115.57M1409.41 122.586C1410.19 123.366 1410.19 124.626 1409.41 125.406 1408.62 126.186 1407.36 126.186 1406.58 125.406 1405.79 124.616 1405.79 123.356 1406.58 122.576 1407.36 121.786 1408.62 121.786 1409.4 122.576M1417.41 129.586C1418.19 130.366 1418.19 131.626 1417.41 132.406 1416.62 133.186 1415.36 133.186 1414.58 132.406 1413.79 131.616 1413.79 130.356 1414.58 129.576 1415.36 128.786 1416.62 128.786 1417.4 129.576M1467.99 129.5C1467.71 129.5 1467.49 129.72 1467.49 130 1467.49 130.27 1467.71 130.5 1467.99 130.5 1468.26 130.5 1468.49 130.27 1468.49 130 1468.49 129.72 1468.26 129.5 1467.98 129.5M1467.99 123.5C1467.71 123.5 1467.49 123.72 1467.49 124 1467.49 124.27 1467.71 124.5 1467.99 124.5 1468.26 124.5 1468.49 124.27 1468.49 124 1468.49 123.72 1468.26 123.5 1467.98 123.5M1467.99 117.5C1467.71 117.5 1467.49 117.72 1467.49 118 1467.49 118.27 1467.71 118.5 1467.99 118.5 1468.26 118.5 1468.49 118.27 1468.49 118 1468.49 117.72 1468.26 117.5 1467.98 117.5M1524 133H1519C1517.9 133 1517 132.105 1517 131V117C1517 115.895 1517.9 115 1519 115H1527C1528.1 115 1529 115.895 1529 117M1529 116.875V117.125M1527 131.8V121.7C1527 121.037 1527.54 120.5 1528.2 120.5H1529.8C1530.46 120.5 1531 121.037 1531 121.7V131.8M1527 131.8C1527 132.463 1527.54 133 1528.2 133H1529.8C1530.46 133 1531 132.463 1531 131.8M1527 131.8V129C1527 127.895 1527.9 127 1529 127 1530.1 127 1531 127.895 1531 129V131.8M1585.5 127V132M1588 129.5H1583M1576 122H1573C1571.89 122 1571 121.1 1571 120V117C1571 115.895 1571.89 115 1573 115H1576C1577.1 115 1578 115.895 1578 117V120C1578 121.1 1577.1 122 1576 122zM1587 122H1584C1582.89 122 1582 121.1 1582 120V117C1582 115.895 1582.89 115 1584 115H1587C1588.1 115 1589 115.895 1589 117V120C1589 121.1 1588.1 122 1587 122zM1576 133H1573C1571.89 133 1571 132.1 1571 131V128C1571 126.89 1571.89 126 1573 126H1576C1577.1 126 1578 126.89 1578 128V131C1578 132.1 1577.1 133 1576 133zM1636 119.5V120.5M1636 128.5V127.5M1633.85 126.25H1633.85C1634.24 127.06 1635.09 127.55 1635.99 127.5 1637.08 127.62 1638.08 126.84 1638.24 125.75 1638.24 124.99 1637.7 124.34 1636.96 124.19L1635 123.79C1634.25 123.64 1633.72 122.99 1633.72 122.23 1633.87 121.13 1634.87 120.35 1635.97 120.48 1636.87 120.42 1637.71 120.91 1638.11 121.73M1636 114.49C1633.48 114.49 1631.06 115.491 1629.28 117.272 1627.5 119.054 1626.5 121.47 1626.5 123.99 1626.5 126.51 1627.5 128.926 1629.28 130.708 1631.06 132.489 1633.48 133.49 1636 133.49 1637.25 133.49 1638.48 133.244 1639.64 132.767 1640.79 132.289 1641.84 131.59 1642.72 130.708 1643.6 129.825 1644.3 128.778 1644.78 127.625 1645.25 126.473 1645.5 125.238 1645.5 123.99 1645.5 122.742 1645.25 121.507 1644.78 120.354 1644.3 119.202 1643.6 118.155 1642.72 117.272 1641.84 116.39 1640.79 115.691 1639.64 115.213 1638.48 114.736 1637.25 114.49 1636 114.49zM1684 120.6V133H1700V120.6M1682 122L1692 115 1702 122M1695 133V127C1695 125.89 1694.1 125 1693 125H1691C1689.89 125 1689 125.89 1689 127V133M1750.12 121.88C1751.29 123.05 1751.29 124.95 1750.12 126.12 1748.94 127.29 1747.04 127.29 1745.87 126.12 1744.69 124.94 1744.69 123.04 1745.87 121.87 1747.04 120.697 1748.94 120.697 1750.11 121.87M1739 124C1739 123.34 1739.15 122.689 1739.44 122.08 1740.95 118.98 1744.3 116.99 1747.99 116.99 1751.68 116.99 1755.02 118.98 1756.54 122.07 1756.83 122.67 1756.98 123.32 1756.98 123.98 1756.98 124.63 1756.82 125.291 1756.53 125.89 1755.01 128.98 1751.66 130.97 1747.97 130.97 1744.27 130.97 1740.93 128.97 1739.42 125.88 1739.12 125.27 1738.97 124.62 1738.97 123.96L1739 124zM1806.55 125.55H1806.55C1805.7 126.97 1803.86 127.44 1802.43 126.6 1801 125.75 1800.53 123.91 1801.37 122.48 1801.62 122.04 1801.98 121.68 1802.42 121.42M1809.99 128.99C1808.26 130.29 1806.15 131 1803.99 130.99 1800.4 131.05 1797.09 129.08 1795.43 125.9H1795.43C1794.83 124.69 1794.83 123.28 1795.43 122.07 1796.25 120.42 1797.57 119.07 1799.2 118.2M1812.42 126.13C1812.46 126.05 1812.51 125.98 1812.55 125.9 1813.14 124.69 1813.14 123.28 1812.55 122.07 1810.89 118.88 1807.58 116.91 1803.99 116.98 1803.76 116.98 1803.54 117.01 1803.32 117.02M1813 132L1796 115M1851 124L1850 120H1851.8C1851.9 120 1852.1 120.1 1852.2 120.2L1853.8 122H1858.6L1855.4 114.7C1855.2 114.4 1855.4 114 1855.8 114H1857.5C1857.8 114 1858.1 114.2 1858.3 114.4L1863.3 122H1868C1869.1 122 1870 122.9 1870 124 1870 125.1 1869.1 126 1868 126H1863.3L1858.3 133.6C1858.1 133.9 1857.8 134 1857.5 134H1855.8C1855.4 134 1855.2 133.6 1855.3 133.3L1858.5 126H1853.7L1852.1 127.8C1852 127.9 1851.9 128 1851.7 128H1850L1851 124zM1907 121C1907 122.1 1909.23 123 1912 123M1912 127C1909.24 127 1907 126.1 1907 125M1916.99 117V120M1915 128C1915 129.1 1917.23 130 1920 130 1922.76 130 1925 129.1 1925 128M1915 124C1915 125.1 1917.23 126 1920 126 1922.76 126 1925 125.1 1925 124V132C1925 133.1 1922.76 134 1920 134 1917.23 134 1915 133.1 1915 132V124zM1915 124C1915 122.89 1917.24 122 1920 122 1922.76 122 1925 122.89 1924.99 124M1912 131C1909.24 131 1907 130.1 1907 129V117M1907 117C1907 116.47 1907.53 115.961 1908.46 115.586 1909.4 115.211 1910.67 115 1912 115 1913.33 115 1914.6 115.211 1915.54 115.586 1916.47 115.961 1917 116.47 1917 117 1917 117.53 1916.47 118.039 1915.54 118.414 1914.6 118.789 1913.33 119 1912 119 1910.67 119 1909.4 118.789 1908.46 118.414 1907.53 118.039 1907 117.53 1907 117zM1965.21 120H1966.21M1977.21 120H1976.21M1975.45 115.76L1974.74 116.46M1966.96 115.76L1967.67 116.46M1971.21 114V115M1972.71 125V120.5C1972.71 119.67 1972.03 119 1971.21 119 1970.38 119 1969.71 119.67 1969.71 120.5V128L1967.67 127.32C1967.07 127.12 1966.42 127.27 1965.98 127.71 1965.29 128.39 1965.34 129.524 1966.09 130.146L1970.14 133.516C1970.5 133.806 1970.95 133.976 1971.42 133.976H1975.93C1976.93 133.976 1977.78 133.216 1977.91 132.216L1978.45 127.873C1978.58 126.803 1977.85 125.823 1976.79 125.652L1972.68 124.962 1972.71 125zM2024 129.5L2021 115.5H2019M2024.25 129.5H2034.25M2024.25 129.5C2023.79 129.5 2023.34 129.684 2023.01 130.013 2022.68 130.341 2022.5 130.786 2022.5 131.25 2022.5 131.714 2022.68 132.159 2023.01 132.487 2023.34 132.816 2023.79 133 2024.25 133 2024.71 133 2025.16 132.816 2025.49 132.487 2025.82 132.159 2026 131.714 2026 131.25 2026 130.786 2025.82 130.341 2025.49 130.013 2025.16 129.684 2024.71 129.5 2024.25 129.5zM2034.25 129.5C2033.79 129.5 2033.34 129.684 2033.01 130.013 2032.68 130.341 2032.5 130.786 2032.5 131.25 2032.5 131.714 2032.68 132.159 2033.01 132.487 2033.34 132.816 2033.79 133 2034.25 133 2034.71 133 2035.16 132.816 2035.49 132.487 2035.82 132.159 2036 131.714 2036 131.25 2036 130.786 2035.82 130.341 2035.49 130.013 2035.16 129.684 2034.71 129.5 2034.25 129.5zM2021.64 118.5H2035.99C2036.54 118.49 2036.99 118.94 2036.99 119.49 2036.99 119.57 2036.97 119.66 2036.95 119.74L2035.35 125.74C2035.23 126.17 2034.83 126.48 2034.38 126.48H2023.33M2084 129C2083.34 129 2082.7 129.263 2082.23 129.732 2081.76 130.201 2081.5 130.837 2081.5 131.5 2081.5 132.163 2081.76 132.799 2082.23 133.268 2082.7 133.737 2083.34 134 2084 134 2084.66 134 2085.3 133.737 2085.77 133.268 2086.24 132.799 2086.5 132.163 2086.5 131.5 2086.5 130.837 2086.24 130.201 2085.77 129.732 2085.3 129.263 2084.66 129 2084 129zM2084 129V114M2084 114L2086.25 116.25M2084 114L2081.75 116.25M2084 127.22L2080.06 126.34C2079.14 126.13 2078.49 125.32 2078.49 124.38V122.98M2084 125.65L2088.07 124.42C2088.91 124.16 2089.49 123.38 2089.49 122.5V121.48M2088.75 118H2090.25C2090.8 118 2091.25 118.448 2091.25 119V120.5C2091.25 121.052 2090.8 121.5 2090.25 121.5H2088.75C2088.2 121.5 2087.75 121.052 2087.75 120.5V119C2087.75 118.448 2088.2 118 2088.75 118zM2078.5 119.5C2078.04 119.5 2077.59 119.684 2077.26 120.013 2076.93 120.341 2076.75 120.786 2076.75 121.25 2076.75 121.714 2076.93 122.159 2077.26 122.487 2077.59 122.816 2078.04 123 2078.5 123 2078.96 123 2079.41 122.816 2079.74 122.487 2080.07 122.159 2080.25 121.714 2080.25 121.25 2080.25 120.786 2080.07 120.341 2079.74 120.013 2079.41 119.684 2078.96 119.5 2078.5 119.5zM2141.5 129V131C2141.5 131.55 2141.05 132 2140.5 132H2139.5C2138.94 132 2138.5 131.55 2138.5 131V129M2140 134V132M2139.75 119.5L2138.49 122H2141.49L2140.23 124.5M2133 115H2147C2148.1 115 2149 115.895 2149 117V127C2149 128.105 2148.1 129 2147 129H2133C2131.9 129 2131 128.105 2131 127V117C2131 115.895 2131.9 115 2133 115zM2190.5 126.5V121.5L2193 126.5V121.5M2195.5 126.5V121.5H2197.5M2200.5 126.5V121.5M2200.5 121.5H2199.5M2200.5 121.5H2201.5M2196 124H2196.5M2204.25 127.705V120.295C2204.25 119.64 2203.9 119.035 2203.33 118.707L2196.92 115.002C2196.35 114.675 2195.65 114.675 2195.08 115.002L2188.67 118.708C2188.1 119.035 2187.75 119.64 2187.75 120.295V127.704C2187.75 128.359 2188.1 128.964 2188.67 129.292L2195.08 132.997C2195.65 133.324 2196.35 133.324 2196.92 132.997L2203.33 129.292C2203.9 128.965 2204.25 128.36 2204.25 127.705zM2248.6 122H2246.45C2245.26 122 2244.3 122.895 2244.3 124V131C2244.3 132.105 2245.26 133 2246.45 133H2259.34C2260.53 133 2261.49 132.105 2261.49 131V124C2261.49 122.895 2260.53 122 2259.34 122H2257.19M2252.89 115V126M2252.89 115L2249.67 118M2252.89 115L2256.12 118M2313.36 128.42V126.99C2313.36 125.88 2314.25 124.99 2315.36 124.99 2316.46 124.99 2317.36 125.88 2317.36 126.99V128.41M2308.79 127H2304.79C2302.58 127 2300.79 128.79 2300.79 131V132M2313.36 128.428H2317.36C2318.15 128.428 2318.79 129.067 2318.79 129.856V131.571C2318.79 132.36 2318.15 132.999 2317.36 132.999H2313.36C2312.57 132.999 2311.93 132.36 2311.93 131.571V129.856C2311.93 129.067 2312.57 128.428 2313.36 128.428zM2308.79 115C2307.73 115 2306.71 115.421 2305.96 116.172 2305.21 116.922 2304.79 117.939 2304.79 119 2304.79 120.061 2305.21 121.078 2305.96 121.828 2306.71 122.579 2307.73 123 2308.79 123 2309.85 123 2310.86 122.579 2311.61 121.828 2312.36 121.078 2312.79 120.061 2312.79 119 2312.79 117.939 2312.36 116.922 2311.61 116.172 2310.86 115.421 2309.85 115 2308.79 115zM2367.76 116.02C2369.12 117.38 2369.12 119.6 2367.76 120.96 2366.39 122.32 2364.17 122.32 2362.81 120.96 2361.44 119.59 2361.44 117.37 2362.81 116.01 2364.17 114.64 2366.39 114.64 2367.75 116.009M2370.82 123.96C2370.83 123.97 2370.83 124 2370.82 124.02 2370.8 124.03 2370.77 124.03 2370.75 124.02 2370.73 124 2370.73 123.97 2370.75 123.95 2370.76 123.93 2370.79 123.93 2370.81 123.95M2368.77 118.859C2369.09 118.769 2369.4 118.649 2369.69 118.469 2370.15 118.169 2370.69 117.999 2371.28 117.999H2372.28V120.549C2372.99 121.189 2373.56 121.999 2373.9 122.929H2374.77C2375.32 122.929 2375.77 123.369 2375.77 123.929V126.989C2375.77 127.539 2375.32 127.989 2374.77 127.989H2373.45C2372.92 128.889 2372.16 129.649 2371.26 130.179V131.979C2371.26 132.529 2370.81 132.979 2370.26 132.979H2368.26C2367.7 132.979 2367.26 132.529 2367.26 131.979V130.979H2363.76V131.839C2363.76 132.389 2363.31 132.839 2362.76 132.839H2360.76C2360.2 132.839 2359.76 132.389 2359.76 131.839V129.429C2358.53 128.329 2357.76 126.739 2357.76 124.959 2357.76 122.309 2359.48 120.068 2361.85 119.269M2356.07 122C2355.6 122.27 2355.28 122.77 2355.28 123.35 2355.28 124.22 2355.98 124.927 2356.85 124.927H2357.77M2362.29 122H2368.29M2431.2 121V127.75M2415.78 124.2V128.12C2415.78 129.06 2416.25 129.95 2417.04 130.47L2418.64 131.53C2420.54 132.79 2423.01 132.79 2424.91 131.53L2426.51 130.46C2427.3 129.93 2427.77 129.04 2427.77 128.1V124.17M2419.49 116.09L2413.31 119.52C2412.01 120.24 2412.01 122.1 2413.31 122.82L2419.48 126.25C2420.9 127.04 2422.64 127.04 2424.07 126.25L2430.24 122.82C2431.53 122.09 2431.53 120.23 2430.24 119.512L2424.06 116.082C2422.63 115.282 2420.89 115.282 2419.46 116.082L2419.49 116.09zM2472.76 131.96H2474.27C2474.59 131.96 2474.92 132 2475.24 132.08L2477.89 132.75C2478.47 132.9 2479.06 132.91 2479.65 132.8L2482.58 132.22C2483.36 132.06 2484.07 131.68 2484.63 131.13L2486.71 129.06C2487.3 128.47 2487.3 127.51 2486.71 126.92 2486.17 126.38 2485.33 126.32 2484.73 126.78L2482.32 128.6C2481.97 128.86 2481.55 129 2481.12 129H2478.79L2480.27 129C2481.1 129 2481.78 128.32 2481.78 127.48V127.17C2481.78 126.47 2481.3 125.86 2480.63 125.7L2478.33 125.12C2477.95 125.02 2477.57 124.98 2477.19 124.98 2476.26 124.98 2475.35 125.25 2474.58 125.76L2472.76 126.97M2482.95 117.15C2484.05 118.25 2484.05 120.05 2482.95 121.16 2481.84 122.26 2480.04 122.26 2478.93 121.16 2477.82 120.05 2477.82 118.25 2478.93 117.14 2480.03 116.03 2481.83 116.03 2482.94 117.14M2480.42 116.375C2480.32 115.805 2480.06 115.265 2479.63 114.825 2478.52 113.717 2476.72 113.717 2475.61 114.825 2474.5 115.933 2474.5 117.725 2475.61 118.835 2476.3 119.525 2477.25 119.775 2478.14 119.615M2471.79 133H2469.79C2469.23 133 2468.79 132.55 2468.79 132V126C2468.79 125.44 2469.23 125 2469.79 125H2471.79C2472.34 125 2472.79 125.44 2472.79 126V132C2472.79 132.55 2472.34 133 2471.79 133zM19 173H20C21.1 173 22 173.89 22 175V187C22 188.1 21.1 189 20 189H4C2.895 189 2 188.1 2 187V175C2 173.89 2.895 173 4 173H5M12 174C12 172.343 10.657 171 9 171H6C5.44 171 5 171.44 5 172V185C5 185.55 5.44 186 6 186H9C10.657 186 12 187.343 12 189M12 174C12 172.343 13.343 171 15 171H18C18.55 171 19 171.448 19 172V185C19 185.55 18.55 186 18 186H15C13.343 186 12 187.343 12 189M12 174V189M59 175V185C59 186.1 59.9 187 61 187H75C76.1 187 77 186.1 77 185V175M59 174.8C59 175.4 59.3 175.9 59.8 176.3L65.8 180.4C67.2 181.3 68.9 181.3 70.3 180.4L76.3 176.4C76.7 175.9 77 175.4 77 174.8 77 173.8 76.2 173 75.2 173H60.8C59.8 173 59 173.8 59 174.8zM125.75 175.16L128.84 178.25M117.29 183.61L127.61 173.28C128 172.89 128.63 172.89 129.02 173.28L130.69 174.95C131.08 175.34 131.08 175.97 130.69 176.36L120.36 186.689C120.17 186.869 119.91 186.979 119.65 186.979H116.97V184.299C116.97 184.029 117.07 183.779 117.26 183.589L117.29 183.61zM175.5 171V174M184.5 171V174M189 178H171M174 172.499H186C187.657 172.499 189 173.842 189 175.499V185.999C189 187.656 187.657 188.999 186 188.999H174C172.343 188.999 171 187.656 171 185.999V175.499C171 173.842 172.343 172.499 174 172.499zM237.45 177.38L231.92 182.909C231.27 183.549 231.27 184.589 231.92 185.229H231.91C232.55 185.869 233.59 185.869 234.23 185.229L242.85 176.603C244.13 175.313 244.13 173.233 242.85 171.953 242.84 171.943 242.84 171.943 242.84 171.943 241.55 170.653 239.47 170.653 238.19 171.933 238.18 171.933 238.18 171.933 238.18 171.933L229.55 180.553V180.552C227.62 182.472 227.62 185.592 229.54 187.512 231.46 189.432 234.58 189.432 236.5 187.512 236.5 187.502 236.5 187.502 236.5 187.502L242.8 181.202M291 180H301M301 180L297.5 183.5M301 180L297.5 176.5M292 171H286C284.34 171 283 172.34 283 174V186C283 187.65 284.34 189 286 189H292M354.364 173.63C357.874 177.14 357.874 182.84 354.364 186.35 350.844 189.86 345.144 189.86 341.634 186.35 338.114 182.83 338.114 177.13 341.633 173.62 345.143 170.1 350.843 170.1 354.353 173.619M350.32 182.3L345.68 177.7M345.679 177.703L352 175.99 350.32 182.28 343.999 183.98 345.679 177.703zM402.558 179.59L397.468 174.5M395.788 177.31C394.088 181.03 395.128 185.43 398.328 187.99M400.288 172.81C401.448 172.27 402.708 172 403.978 171.99L403.979 171.989C408.949 171.979 412.979 176.009 412.989 180.979 412.999 183.699 411.759 186.269 409.649 187.979M403.968 178.99C404.498 178.99 405.007 179.201 405.382 179.576 405.757 179.951 405.968 180.46 405.968 180.99 405.968 181.52 405.757 182.029 405.382 182.404 405.007 182.779 404.498 182.99 403.968 182.99 403.437 182.99 402.929 182.779 402.554 182.404 402.179 182.029 401.968 181.52 401.968 180.99 401.968 180.46 402.179 179.951 402.554 179.576 402.929 179.201 403.437 178.99 403.968 178.99zM451.788 177.31C450.088 181.03 451.128 185.43 454.328 187.99M465.649 187.979C467.759 186.269 468.999 183.699 468.989 180.979 468.981 177.069 466.485 173.74 463.001 172.504M454.32 187.979C452.21 186.269 450.97 183.699 450.98 180.979 450.987 177.069 453.483 173.74 456.968 172.504M460.001 179V172M459.968 178.99C460.498 178.99 461.007 179.201 461.382 179.576 461.757 179.951 461.968 180.46 461.968 180.99 461.968 181.52 461.757 182.029 461.382 182.404 461.007 182.779 460.498 182.99 459.968 182.99 459.437 182.99 458.929 182.779 458.554 182.404 458.179 182.029 457.968 181.52 457.968 180.99 457.968 180.46 458.179 179.951 458.554 179.576 458.929 179.201 459.437 178.99 459.968 178.99zM517.41 179.59L522.5 174.5M524.18 177.31C525.88 181.03 524.84 185.43 521.64 187.99M519.68 172.81C518.52 172.27 517.26 172 515.99 171.99L515.989 171.989C511.019 171.979 506.989 176.009 506.979 180.979 506.969 183.699 508.209 186.269 510.319 187.979M516 178.99C515.47 178.99 514.961 179.201 514.586 179.576 514.211 179.951 514 180.46 514 180.99 514 181.52 514.211 182.029 514.586 182.404 514.961 182.779 515.47 182.99 516 182.99 516.53 182.99 517.039 182.779 517.414 182.404 517.789 182.029 518 181.52 518 180.99 518 180.46 517.789 179.951 517.414 179.576 517.039 179.201 516.53 178.99 516 178.99z"
    stroke="#fff"
    stroke-width="1.8"
    stroke-linecap="round"
    stroke-linejoin="round"
  />
  <path
    d="M576.5 184.5C574.01 184.5 572 182.48 572 180 572 177.51 574.01 175.5 576.5 175.5M576.5 184.5C578.98 184.5 581 182.48 581 180 581 177.51 578.98 175.5 576.5 175.5M576.5 184.5H567.5C565.01 184.5 563 182.48 563 180 563 177.51 565.01 175.5 567.5 175.5H576.5M633.41 178.58C634.19 179.36 634.19 180.62 633.41 181.4 632.62 182.18 631.36 182.18 630.58 181.4 629.79 180.61 629.79 179.35 630.58 178.57 631.36 177.78 632.62 177.78 633.4 178.57M624 175H632C634.76 175 637 177.23 637 180 637 182.76 634.76 185 632 185H624C621.239 185 619 182.76 619 180 619 177.23 621.239 175 624 175z"
    stroke="#fff"
    stroke-width="2"
    stroke-linecap="round"
    stroke-linejoin="round"
  />
  <path
    d="M691 179V174C691 172.89 690.1 172 689 172H676C674.89 172 674 172.89 674 174V182C674 183.1 674.89 184 676 184H688M684.5 188V184M680.5 184V188M679.25 188H685.75M692.5 188H689.5C688.67 188 688 187.32 688 186.5V180.5C688 179.67 688.67 179 689.5 179H692.5C693.32 179 694 179.67 694 180.5V186.5C694 187.32 693.32 188 692.5 188zM738 187V190M736 177V172C736 171.44 736.44 171 737 171H743C743.55 171 744 171.44 744 172V177M742 187V190M735.5 177H744.5C745.32 177 746 177.67 746 178.5V184C746 185.65 744.65 187 743 187H737C735.34 187 734 185.65 734 184V178.5C734 177.67 734.67 177 735.5 177zM805 175H801.94M796.94 175H787M801.21 173.23C802.18 174.2 802.18 175.78 801.21 176.76 800.23 177.73 798.65 177.73 797.67 176.76 796.69 175.78 796.69 174.2 797.67 173.22 798.64 172.24 800.22 172.24 801.2 173.22M795.06 185H805M787 185H790.06M794.32 183.245C795.29 184.215 795.29 185.795 794.32 186.775 793.34 187.745 791.76 187.745 790.78 186.775 789.8 185.795 789.8 184.215 790.78 183.235 791.75 182.255 793.33 182.255 794.31 183.235"
    stroke="#fff"
    stroke-width="1.8"
    stroke-linecap="round"
    stroke-linejoin="round"
  />
  <g clip-path="url(#clip0_10356_11734)">
    <mask id="a"   maskUnits="userSpaceOnUse" x="840" y="168" width="24" height="24">
      <path
        fill-rule="evenodd"
        clip-rule="evenodd"
        d="M864 177.745C862.866 178.536 861.487 179 860 179C856.134 179 853 175.866 853 172C853 170.513 853.464 169.134 854.255 168H840V192H864V177.745Z"
        fill="#D9D9D9"
      />
    </mask>
    <g mask="url(#a)">
      <path
        d="M855.25 178.125L851.5 181.875L849.25 179.625M860 179.182C860 183.723 856.58 187.969 852 189C847.413 187.96 844 183.72 844 179.182V175.615C844 174.795 844.49 174.065 845.24 173.755L850.24 171.705C851.36 171.235 852.628 171.235 853.75 171.705L858.75 173.745C859.5 174.045 859.99 174.775 859.99 175.595V179.162L860 179.182Z"
        stroke="#fff"
        stroke-width="1.8"
        stroke-linecap="round"
        stroke-linejoin="round"
      />
    </g>
    <circle cx="860" cy="172" r="4" fill="#BBB0FF" />
  </g>
  <g clip-path="url(#clip1_10356_11734)">
    <g clip-path="url(#clip2_10356_11734)">
      <mask id="b"   maskUnits="userSpaceOnUse" x="896" y="168" width="24" height="24">
        <path
          fill-rule="evenodd"
          clip-rule="evenodd"
          d="M920 175.608C918.775 177.64 916.546 179 914 179C910.134 179 907 175.866 907 172C907 170.513 907.464 169.134 908.255 168H896V192H920V175.608ZM919.745 168C919.834 168.128 919.919 168.259 920 168.392V168H919.745Z"
          fill="#D9D9D9"
        />
      </mask>
      <g mask="url(#b)">
        <path
          d="M905 186V186.25C905 187.9 906.34 189.25 908 189.25C909.65 189.25 911 187.9 911 186.25V186M914 181.75L915.7 183.45C915.88 183.63 915.99 183.89 915.99 184.15V184.98C915.99 185.53 915.54 185.98 914.99 185.98H900.99C900.43 185.98 899.99 185.53 899.99 184.98V184.14C899.99 183.87 900.09 183.62 900.28 183.43L901.98 181.72V177.47C901.98 174.15 904.66 171.47 907.98 171.47C911.29 171.469 913.98 174.15 913.98 177.47L914 181.75Z"
          stroke="#fff"
          stroke-width="1.8"
          stroke-linecap="round"
          stroke-linejoin="round"
        />
      </g>
    </g>
    <circle cx="914" cy="172" r="4" fill="#E86164" />
  </g>
  <path
    fill-rule="evenodd"
    clip-rule="evenodd"
    d="M966.659 171.758C965.475 169.676 962.476 169.671 961.298 171.76L961.296 171.762 953.65 185.162C952.473 187.22 953.959 189.781 956.33 189.781H971.649C974.013 189.781 975.507 187.213 974.33 185.161L974.329 185.16 966.66 171.759 966.659 171.758zM964.75 177.38C964.75 176.966 964.414 176.63 964 176.63 963.586 176.63 963.25 176.966 963.25 177.38V181.12C963.25 181.534 963.586 181.87 964 181.87 964.414 181.87 964.75 181.534 964.75 181.12V177.38zM963.99 183.375L963.985 183.375 963.98 183.375C963.959 183.375 963.939 183.376 963.918 183.378 963.398 183.414 962.99 183.845 962.99 184.375 962.99 184.9 963.417 185.375 963.99 185.375 964.285 185.375 964.531 185.242 964.694 185.079 964.857 184.916 964.99 184.67 964.99 184.375 964.99 183.815 964.548 183.42 964.064 183.379 964.04 183.376 964.015 183.375 963.99 183.375zM1010.25 180C1010.25 174.605 1014.62 170.25 1020 170.25 1025.39 170.25 1029.75 174.615 1029.75 180 1029.75 185.385 1025.39 189.75 1020 189.75 1014.61 189.75 1010.25 185.385 1010.25 180zM1017.7 176.64C1017.41 176.347 1016.93 176.347 1016.64 176.64 1016.35 176.933 1016.35 177.407 1016.64 177.7L1018.94 180 1016.64 182.3C1016.35 182.593 1016.35 183.067 1016.64 183.36 1016.93 183.653 1017.41 183.653 1017.7 183.36L1020 181.061 1022.3 183.36C1022.59 183.653 1023.07 183.653 1023.36 183.36 1023.65 183.067 1023.65 182.593 1023.36 182.3L1021.06 180 1023.36 177.7C1023.65 177.407 1023.65 176.933 1023.36 176.64 1023.07 176.347 1022.59 176.347 1022.3 176.64L1020 178.939 1017.7 176.64zM1066.1 180C1066.1 174.532 1070.53 170.1 1076 170.1 1081.47 170.1 1085.9 174.532 1085.9 180 1085.9 185.468 1081.47 189.9 1076 189.9 1070.53 189.9 1066.1 185.468 1066.1 180zM1080.12 178.239C1080.47 177.888 1080.47 177.318 1080.12 176.967 1079.77 176.615 1079.2 176.615 1078.85 176.967L1074.6 181.219 1073.08 179.703C1072.73 179.351 1072.16 179.351 1071.81 179.703 1071.46 180.054 1071.46 180.624 1071.81 180.975L1073.96 183.128 1073.97 183.142C1074.33 183.494 1074.9 183.494 1075.25 183.142 1075.29 183.097 1075.33 183.047 1075.37 182.995L1080.12 178.239zM1128.22 170.364C1129.42 169.866 1130.71 169.61 1132.01 169.61 1134.64 169.61 1137.15 170.653 1139.01 172.51 1140.87 174.366 1141.91 176.884 1141.91 179.51 1141.91 182.136 1140.87 184.654 1139.01 186.51 1137.15 188.367 1134.64 189.41 1132.01 189.41 1130.71 189.41 1129.42 189.154 1128.22 188.656 1127.02 188.159 1125.93 187.43 1125.01 186.51 1124.09 185.591 1123.36 184.5 1122.86 183.299 1122.37 182.097 1122.11 180.81 1122.11 179.51 1122.11 178.21 1122.37 176.923 1122.86 175.721 1123.36 174.52 1124.09 173.429 1125.01 172.51 1125.93 171.59 1127.02 170.861 1128.22 170.364zM1132.31 174.52C1132.31 174.023 1131.91 173.62 1131.41 173.62 1130.91 173.62 1130.51 174.023 1130.51 174.52V180.12C1130.51 180.617 1130.91 181.02 1131.41 181.02H1136.06C1136.56 181.02 1136.96 180.617 1136.96 180.12 1136.96 179.623 1136.56 179.22 1136.06 179.22H1132.31V174.52zM1178.1 180C1178.1 174.522 1182.53 170.1 1188 170.1 1193.47 170.1 1197.9 174.532 1197.9 180 1197.9 185.468 1193.47 189.9 1188 189.9 1182.52 189.9 1178.1 185.467 1178.1 180zM1187.99 175.1L1187.99 175.1 1187.98 175.1C1187.96 175.1 1187.93 175.101 1187.91 175.103 1187.31 175.145 1186.84 175.641 1186.84 176.25 1186.84 176.854 1187.33 177.4 1187.99 177.4 1188.33 177.4 1188.61 177.247 1188.8 177.06 1188.99 176.874 1189.14 176.591 1189.14 176.25 1189.14 175.607 1188.63 175.154 1188.08 175.105 1188.05 175.102 1188.02 175.1 1187.99 175.1zM1188.9 180C1188.9 179.503 1188.5 179.1 1188 179.1 1187.5 179.1 1187.1 179.503 1187.1 180V185C1187.1 185.497 1187.5 185.9 1188 185.9 1188.5 185.9 1188.9 185.497 1188.9 185V180zM1234.1 180C1234.1 174.522 1238.53 170.1 1244 170.1 1249.47 170.1 1253.9 174.532 1253.9 180 1253.9 185.468 1249.47 189.9 1244 189.9 1238.52 189.9 1234.1 185.467 1234.1 180zM1244.9 176C1244.9 175.503 1244.5 175.1 1244 175.1 1243.5 175.1 1243.1 175.503 1243.1 176V179.1H1240C1239.5 179.1 1239.1 179.503 1239.1 180 1239.1 180.497 1239.5 180.9 1240 180.9H1243.1V184C1243.1 184.497 1243.5 184.9 1244 184.9 1244.5 184.9 1244.9 184.497 1244.9 184V180.9H1248C1248.5 180.9 1248.9 180.497 1248.9 180 1248.9 179.503 1248.5 179.1 1248 179.1H1244.9V176zM1290.1 180C1290.1 174.522 1294.53 170.1 1300 170.1 1305.47 170.1 1309.9 174.532 1309.9 180 1309.9 185.468 1305.47 189.9 1300 189.9 1294.52 189.9 1290.1 185.467 1290.1 180zM1296 179.1C1295.5 179.1 1295.1 179.503 1295.1 180 1295.1 180.497 1295.5 180.9 1296 180.9H1300 1304C1304.5 180.9 1304.9 180.497 1304.9 180 1304.9 179.503 1304.5 179.1 1304 179.1H1300 1296z"
    fill="#fff"
  />
  <path
    d="M1353.71 180C1353.13 180 1352.67 180.468 1352.67 181.041 1352.67 181.614 1353.13 182.082 1353.71 182.082 1354.28 182.082 1354.75 181.614 1354.75 181.041 1354.75 180.468 1354.28 180 1353.71 180zM1356.01 184.55C1356.41 184.55 1357.77 184.503 1358.48 183.79 1358.59 183.684 1358.59 183.52 1358.5 183.404 1358.4 183.298 1358.22 183.298 1358.12 183.404 1357.66 183.848 1356.71 184.012 1356.02 184.012 1355.33 184.012 1354.37 183.848 1353.93 183.404 1353.82 183.298 1353.65 183.298 1353.54 183.404 1353.44 183.509 1353.44 183.684 1353.54 183.79 1354.25 184.491 1355.61 184.55 1356.01 184.55zM1357.25 181.041C1357.25 181.614 1357.72 182.082 1358.29 182.082 1358.87 182.082 1359.33 181.614 1359.33 181.041 1359.33 180.468 1358.87 180 1358.29 180 1357.72 180 1357.25 180.468 1357.25 181.041z"
    fill="#fff"
  />
  <path
    fill-rule="evenodd"
    clip-rule="evenodd"
    d="M1366 180C1366 185.523 1361.52 190 1356 190C1350.48 190 1346 185.523 1346 180C1346 174.477 1350.48 170 1356 170C1361.52 170 1366 174.477 1366 180ZM1361.2 178.538C1362.01 178.538 1362.67 179.193 1362.67 180C1362.67 180.597 1362.3 181.111 1361.82 181.345C1361.85 181.485 1361.86 181.626 1361.86 181.778C1361.86 184.023 1359.25 185.836 1356.02 185.836C1352.8 185.836 1350.19 184.023 1350.19 181.778C1350.19 181.626 1350.2 181.474 1350.22 181.333C1349.71 181.099 1349.36 180.597 1349.36 180C1349.36 179.193 1350.01 178.538 1350.82 178.538C1351.2 178.538 1351.57 178.702 1351.82 178.947C1352.83 178.211 1354.22 177.754 1355.78 177.708L1356.51 174.222C1356.54 174.152 1356.57 174.094 1356.63 174.059C1356.69 174.023 1356.76 174.012 1356.83 174.023L1359.25 174.538C1359.42 174.187 1359.77 173.953 1360.18 173.953C1360.75 173.953 1361.22 174.421 1361.22 174.994C1361.22 175.567 1360.75 176.035 1360.18 176.035C1359.61 176.035 1359.16 175.591 1359.13 175.041L1356.97 174.585L1356.3 177.708C1357.82 177.766 1359.2 178.234 1360.2 178.947C1360.46 178.69 1360.81 178.538 1361.2 178.538Z"
    fill="#fff"
  />
  <path
    d="M1407.86 170.07C1406.79 170.12 1406.07 170.29 1405.43 170.54 1404.78 170.796 1404.22 171.14 1403.66 171.696 1403.11 172.252 1402.77 172.81 1402.51 173.468 1402.27 174.105 1402.1 174.832 1402.05 175.897 1402.01 176.961 1402 177.304 1402 180.019 1402.01 182.735 1402.02 183.075 1402.07 184.142 1402.12 185.206 1402.29 185.932 1402.54 186.568 1402.8 187.225 1403.14 187.782 1403.7 188.337 1404.25 188.891 1404.81 189.232 1405.47 189.487 1406.11 189.732 1406.83 189.9 1407.9 189.947 1408.96 189.993 1409.3 190.004 1412.02 189.999 1414.73 189.994 1415.08 189.982 1416.14 189.931 1417.21 189.88 1417.93 189.71 1418.57 189.462 1419.23 189.204 1419.78 188.862 1420.34 188.305 1420.89 187.748 1421.23 187.19 1421.49 186.531 1421.73 185.895 1421.9 185.168 1421.95 184.104 1421.99 183.037 1422 182.696 1422 179.981 1421.99 177.266 1421.98 176.925 1421.93 175.859 1421.88 174.792 1421.71 174.068 1421.46 173.432 1421.2 172.775 1420.86 172.218 1420.31 171.663 1419.75 171.108 1419.19 170.767 1418.53 170.514 1417.9 170.268 1417.17 170.1 1416.1 170.054 1415.04 170.008 1414.7 169.996 1411.98 170.001 1409.27 170.006 1408.93 170.018 1407.86 170.07zM1407.98 188.148C1407 188.105 1406.47 187.943 1406.12 187.808 1405.65 187.628 1405.32 187.41 1404.97 187.062 1404.61 186.714 1404.4 186.38 1404.22 185.913 1404.08 185.561 1403.91 185.032 1403.87 184.057 1403.82 183.003 1403.81 182.687 1403.8 180.017 1403.8 177.347 1403.81 177.031 1403.85 175.977 1403.9 175.003 1404.06 174.473 1404.19 174.12 1404.37 173.652 1404.59 173.32 1404.94 172.969 1405.29 172.617 1405.62 172.401 1406.09 172.218 1406.44 172.081 1406.97 171.917 1407.94 171.871 1409 171.821 1409.31 171.811 1411.98 171.805 1414.65 171.799 1414.97 171.809 1416.03 171.856 1417 171.898 1417.53 172.059 1417.88 172.196 1418.35 172.376 1418.68 172.592 1419.03 172.941 1419.38 173.291 1419.6 173.623 1419.78 174.09 1419.92 174.442 1420.08 174.97 1420.13 175.946 1420.18 177 1420.19 177.316 1420.2 179.986 1420.2 182.655 1420.19 182.972 1420.15 184.026 1420.1 185.001 1419.94 185.53 1419.81 185.883 1419.63 186.35 1419.41 186.683 1419.06 187.035 1418.71 187.386 1418.38 187.602 1417.91 187.785 1417.56 187.922 1417.03 188.086 1416.06 188.132 1415 188.182 1414.69 188.192 1412.02 188.198 1409.35 188.204 1409.03 188.193 1407.98 188.148M1416.13 174.655C1416.13 174.893 1416.2 175.125 1416.33 175.322 1416.46 175.519 1416.65 175.672 1416.87 175.763 1417.09 175.853 1417.33 175.877 1417.56 175.83 1417.8 175.783 1418.01 175.668 1418.18 175.5 1418.35 175.332 1418.46 175.118 1418.5 174.885 1418.55 174.652 1418.53 174.411 1418.44 174.192 1418.34 173.973 1418.19 173.786 1417.99 173.654 1417.79 173.523 1417.56 173.453 1417.33 173.453 1417.01 173.454 1416.7 173.581 1416.48 173.806 1416.25 174.032 1416.13 174.337 1416.13 174.655zM1406.87 180.01C1406.87 182.846 1409.17 185.14 1412.01 185.134 1414.85 185.129 1417.14 182.826 1417.14 179.99 1417.13 177.154 1414.83 174.86 1411.99 174.865 1409.15 174.871 1406.86 177.174 1406.87 180.01zM1408.67 180.006C1408.67 179.347 1408.86 178.702 1409.22 178.153 1409.59 177.604 1410.11 177.176 1410.72 176.923 1411.33 176.669 1412 176.602 1412.64 176.729 1413.29 176.856 1413.89 177.173 1414.35 177.638 1414.82 178.103 1415.14 178.697 1415.27 179.343 1415.4 179.989 1415.33 180.66 1415.08 181.269 1414.83 181.879 1414.41 182.4 1413.86 182.768 1413.31 183.135 1412.67 183.332 1412.01 183.333 1411.57 183.334 1411.14 183.249 1410.73 183.082 1410.33 182.915 1409.96 182.671 1409.65 182.362 1409.34 182.053 1409.09 181.686 1408.92 181.282 1408.75 180.877 1408.67 180.444 1408.67 180.006zM1469.62 178.622L1475.95 171H1474.45L1468.95 177.618 1464.56 171H1459.5L1466.14 181.007 1459.5 189H1461L1466.8 182.011 1471.44 189H1476.5L1469.62 178.622H1469.62zM1467.56 181.096L1466.89 180.099 1461.54 172.17H1463.84L1468.16 178.569 1468.83 179.565 1474.45 187.883H1472.14L1467.56 181.096V181.096zM1534 180.062C1534 174.508 1529.52 170 1524 170 1518.48 170 1514 174.508 1514 180.062 1514 185.088 1517.66 189.254 1522.44 190V182.964H1519.89V180.062H1522.44V177.845C1522.44 175.326 1523.93 173.927 1526.21 173.927 1527.31 173.927 1528.44 174.135 1528.44 174.135V176.591H1527.18C1525.94 176.591 1525.54 177.378 1525.54 178.166V180.052H1528.33L1527.88 182.953H1525.54V189.99C1530.34 189.254 1534 185.088 1534 180.062z"
    fill="#fff"
  />
  <path
    fill-rule="evenodd"
    clip-rule="evenodd"
    d="M1587.82 173.418C1588.68 173.649 1589.35 174.325 1589.58 175.186H1589.58C1590 176.745 1590 180 1590 180C1590 180 1590 183.255 1589.58 184.814C1589.35 185.675 1588.67 186.351 1587.81 186.582C1586.25 187 1580 187 1580 187C1580 187 1573.75 187 1572.19 186.582C1571.33 186.351 1570.65 185.675 1570.42 184.814C1570 183.255 1570 180 1570 180C1570 180 1570 176.745 1570.42 175.186C1570.65 174.325 1571.33 173.649 1572.19 173.418C1573.75 173 1580 173 1580 173C1580 173 1586.25 173 1587.82 173.418ZM1583.2 180L1578 177V183L1583.2 180Z"
    fill="#fff"
  />
  <path
    d="M1642.31 174.009C1641.2 173.306 1640.4 172.183 1640.15 170.873C1640.09 170.589 1640.06 170.298 1640.06 170H1636.51L1636.51 183.78C1636.45 185.323 1635.14 186.562 1633.53 186.562C1633.03 186.562 1632.56 186.441 1632.15 186.23C1631.2 185.745 1630.55 184.781 1630.55 183.671C1630.55 182.077 1631.89 180.781 1633.53 180.781C1633.84 180.781 1634.13 180.83 1634.41 180.914V177.404C1634.12 177.366 1633.83 177.342 1633.53 177.342C1629.93 177.343 1627 180.182 1627 183.671C1627 185.812 1628.1 187.707 1629.79 188.853C1630.85 189.575 1632.14 190 1633.53 190C1637.13 190 1640.06 187.161 1640.06 183.671V176.684C1641.45 177.652 1643.16 178.222 1645 178.222V174.784C1644.01 174.784 1643.09 174.498 1642.31 174.009Z"
    fill="#fff"
  />
  <path
    fill-rule="evenodd"
    clip-rule="evenodd"
    d="M1699.78 190H1684.22C1682.99 190 1682 189.005 1682 187.778V172.222C1682 170.995 1682.99 170 1684.22 170H1699.78C1701.01 170 1702 170.995 1702 172.222V187.778C1702 189.005 1701.01 190 1699.78 190ZM1696.25 187.222H1699.22V181.125C1699.22 178.546 1697.76 177.298 1695.72 177.298C1693.67 177.298 1692.81 178.89 1692.81 178.89V177.593H1689.95V187.222H1692.81V182.167C1692.81 180.813 1693.44 180.007 1694.63 180.007C1695.73 180.007 1696.25 180.781 1696.25 182.167V187.222ZM1684.78 174.555C1684.78 175.536 1685.57 176.332 1686.54 176.332C1687.52 176.332 1688.3 175.536 1688.3 174.555C1688.3 173.573 1687.52 172.778 1686.54 172.778C1685.57 172.778 1684.78 173.573 1684.78 174.555ZM1688.05 187.222H1685.06V177.593H1688.05V187.222Z"
    fill="#fff"
  />
  <path
    d="M1754.94 174.172C1753.63 173.617 1752.24 173.223 1750.82 173C1750.62 173.322 1750.44 173.653 1750.29 173.992C1748.77 173.781 1747.23 173.781 1745.71 173.992C1745.55 173.653 1745.37 173.322 1745.18 173C1743.75 173.225 1742.37 173.62 1741.05 174.175C1738.44 177.744 1737.73 181.223 1738.08 184.654C1739.61 185.697 1741.33 186.491 1743.15 187C1743.56 186.491 1743.92 185.951 1744.23 185.386C1743.64 185.182 1743.07 184.93 1742.52 184.633C1742.67 184.537 1742.81 184.439 1742.94 184.343C1744.52 185.03 1746.25 185.387 1748 185.387C1749.75 185.387 1751.48 185.03 1753.06 184.343C1753.2 184.446 1753.34 184.545 1753.48 184.633C1752.93 184.93 1752.36 185.183 1751.77 185.387C1752.08 185.952 1752.44 186.492 1752.85 187C1754.67 186.493 1756.39 185.7 1757.91 184.655C1758.33 180.677 1757.21 177.229 1754.94 174.172ZM1744.68 182.544C1743.69 182.544 1742.88 181.717 1742.88 180.7C1742.88 179.683 1743.66 178.849 1744.67 178.849C1745.69 178.849 1746.49 179.683 1746.48 180.7C1746.46 181.717 1745.68 182.544 1744.68 182.544ZM1751.32 182.544C1750.33 182.544 1749.52 181.717 1749.52 180.7C1749.52 179.683 1750.31 178.849 1751.32 178.849C1752.34 178.849 1753.14 179.683 1753.12 180.7C1753.1 181.717 1752.33 182.544 1751.32 182.544Z"
    fill="#fff"
  />
  <path
    fill-rule="evenodd"
    clip-rule="evenodd"
    d="M1804.01 170C1798.47 170 1794 174.583 1794 180.253C1794 184.786 1796.87 188.623 1800.84 189.981C1801.34 190.083 1801.52 189.76 1801.52 189.488C1801.52 189.251 1801.51 188.436 1801.51 187.587C1798.72 188.198 1798.14 186.365 1798.14 186.365C1797.7 185.176 1797.03 184.871 1797.03 184.871C1796.12 184.243 1797.1 184.243 1797.1 184.243C1798.11 184.311 1798.64 185.295 1798.64 185.295C1799.53 186.857 1800.98 186.416 1801.56 186.144C1801.64 185.482 1801.9 185.024 1802.19 184.769C1799.97 184.531 1797.63 183.649 1797.63 179.71C1797.63 178.59 1798.03 177.673 1798.66 176.96C1798.56 176.706 1798.21 175.653 1798.76 174.244C1798.76 174.244 1799.6 173.972 1801.51 175.296C1802.32 175.072 1803.16 174.958 1804.01 174.957C1804.85 174.957 1805.71 175.076 1806.51 175.296C1808.42 173.972 1809.26 174.244 1809.26 174.244C1809.81 175.653 1809.46 176.706 1809.36 176.96C1810.01 177.673 1810.39 178.59 1810.39 179.71C1810.39 183.649 1808.05 184.514 1805.81 184.769C1806.18 185.092 1806.49 185.703 1806.49 186.67C1806.49 188.045 1806.48 189.149 1806.48 189.488C1806.48 189.76 1806.66 190.083 1807.16 189.981C1811.13 188.622 1814 184.786 1814 180.253C1814.02 174.583 1809.53 170 1804.01 170Z"
    fill="#fff"
  />
  <defs>
    <clipPath id="clip0_10356_11734"><path fill="#fff" transform="translate(840 168)" d="M0 0H24V24H0z" /></clipPath>
    <clipPath id="clip1_10356_11734"><path fill="#fff" transform="translate(896 168)" d="M0 0H24V24H0z" /></clipPath>
    <clipPath id="clip2_10356_11734"><path fill="#fff" transform="translate(896 168)" d="M0 0H24V24H0z" /></clipPath>
  </defs>
</svg>
