<svg width="56" height="56" viewBox="0 0 56 56" fill="none" xmlns="http://www.w3.org/2000/svg">
  <rect width="56" height="56" rx="28" fill="#0033AD" />
  <path
    d="M27.6666 15.8243C28.2596 15.5185 28.9838 16.2254 28.6694 16.8085C28.4849 17.2839 27.7904 17.4102 27.4363 17.0474C27.0612 16.7008 27.1838 16.0124 27.6666 15.823V15.8243ZM21.2846 16.5002C21.6449 16.3541 22.1017 16.6785 22.0646 17.066C22.1017 17.4844 21.5817 17.7939 21.214 17.5946C20.7275 17.4089 20.7832 16.6314 21.2846 16.5002ZM34.3556 17.6058C33.7923 17.5389 33.7031 16.6673 34.2442 16.4915C34.6651 16.291 35.0513 16.6686 35.1132 17.061C35.0241 17.3953 34.7394 17.7023 34.3556 17.6058ZM22.7368 19.1718C23.3397 18.7967 24.1989 19.3551 24.106 20.0447C24.0751 20.7392 23.1367 21.1428 22.6068 20.6723C22.0943 20.3034 22.1723 19.4566 22.7368 19.1718ZM31.9353 19.5705C32.2039 18.8896 33.2934 18.8673 33.5992 19.5309C33.9025 20.0471 33.5298 20.6872 32.9913 20.863C32.277 20.9942 31.5998 20.2341 31.9353 19.5705ZM26.8978 20.8246C26.8916 20.2378 27.4338 19.802 27.9996 19.7611C28.376 19.8354 28.7845 19.9927 28.9454 20.3653C29.2463 20.8803 28.9789 21.5872 28.4379 21.8237C28.1903 21.9599 27.8956 21.9091 27.6257 21.893C27.2135 21.6949 26.8656 21.3025 26.8978 20.8246ZM17.4071 21.6788C17.9581 21.3446 18.7009 21.9512 18.4916 22.5405C18.3777 23.0493 17.682 23.2561 17.2846 22.9317C16.8599 22.6272 16.9268 21.8955 17.4084 21.6776L17.4071 21.6788ZM37.7874 21.6764C38.2541 21.3198 39.0254 21.7296 38.9684 22.309C39.0006 22.8376 38.3333 23.2375 37.8703 22.9651C37.3602 22.7386 37.307 21.9661 37.7874 21.6776V21.6764ZM29.5669 22.7299C30.337 22.4575 31.2531 22.7831 31.6914 23.4603C32.2708 24.2861 31.9637 25.5439 31.0637 26.0181C30.1327 26.5789 28.7721 26.1047 28.4267 25.0797C28.0367 24.1635 28.6062 23.0171 29.5657 22.7299H29.5669ZM25.0445 22.8203C25.8987 22.4241 27.0488 22.7559 27.4611 23.6151C27.9464 24.452 27.5713 25.617 26.7034 26.049C25.8343 26.5356 24.6074 26.1666 24.1878 25.2691C23.7161 24.4 24.1345 23.2202 25.0445 22.8203ZM20.517 24.3418C20.5826 23.8008 21.1014 23.448 21.6251 23.4108C21.8982 23.4397 22.1534 23.5603 22.3491 23.753C22.5447 23.9458 22.6692 24.1992 22.7021 24.4718C22.665 25.0289 22.228 25.5712 21.6288 25.5687C20.9689 25.6244 20.3908 24.9781 20.517 24.3418ZM33.8901 23.5297C34.5673 23.1422 35.5069 23.7055 35.4772 24.4706C35.523 25.2815 34.4831 25.8522 33.8096 25.3768C33.1089 24.9806 33.1634 23.8664 33.8901 23.5297ZM23.206 26.3858C23.9959 26.1716 24.9021 26.538 25.2896 27.2536C25.7142 27.9741 25.5409 28.9745 24.881 29.5043C24.033 30.2793 22.4719 29.9674 22.0212 28.9101C21.5025 27.9407 22.1326 26.6408 23.2048 26.3845L23.206 26.3858ZM31.7817 26.3821C32.5506 26.1654 33.4543 26.4563 33.8678 27.1459C34.415 27.9345 34.1538 29.1119 33.3404 29.6195C32.4862 30.21 31.1665 29.9005 30.696 28.9769C30.1265 28.0224 30.6997 26.673 31.7817 26.3821ZM18.114 27.2809C18.7974 27.0271 19.5551 27.7686 19.2778 28.4359C19.1094 29.0426 18.2391 29.2679 17.7897 28.8197C17.2635 28.3988 17.4579 27.4641 18.114 27.2809ZM36.6459 28.249C36.6331 27.9765 36.7284 27.7099 36.9111 27.5073C37.0938 27.3046 37.3491 27.1823 37.6215 27.167C38.0894 27.2412 38.545 27.6126 38.5079 28.114C38.5512 28.7764 37.7403 29.2258 37.1659 28.915C36.8972 28.7801 36.7598 28.509 36.6459 28.249ZM14.7528 27.6102C15.1639 27.4331 15.6727 27.7835 15.5786 28.2329C15.5563 28.7417 14.7924 28.9386 14.5127 28.5127C14.2651 28.2168 14.4136 27.7624 14.7528 27.6089V27.6102ZM40.688 27.599C40.9777 27.3972 41.4432 27.5421 41.5571 27.8751C41.7515 28.2391 41.3949 28.7368 40.979 28.6761C40.3946 28.7281 40.2064 27.8528 40.688 27.599ZM25.4394 30.0416C26.5214 29.7656 27.6852 30.6532 27.6926 31.7501C27.7619 32.8581 26.6155 33.8399 25.5087 33.5848C24.652 33.4487 23.9798 32.6365 24.0082 31.786C24.0058 30.9714 24.6297 30.2137 25.4394 30.0416ZM29.7254 30.0404C30.8235 29.7383 32.0219 30.6421 32.0046 31.7637C32.0628 32.8507 30.9523 33.8003 29.8678 33.5836C28.8464 33.4548 28.0937 32.3518 28.3784 31.3762C28.522 30.7275 29.0742 30.2001 29.7254 30.0392V30.0404ZM21.4604 30.7151C22.2205 30.5876 22.9336 31.4208 22.6254 32.1314C22.4001 32.8891 21.2809 33.0933 20.7857 32.4756C20.2063 31.8813 20.6396 30.7968 21.4604 30.7151ZM34.0312 30.7485C34.7097 30.4687 35.5416 31.0457 35.4896 31.7699C35.5168 32.5659 34.4893 33.1156 33.827 32.6501C33.0755 32.2329 33.2129 31.0036 34.0312 30.7485ZM37.5447 34.215C37.2798 33.7284 37.7614 33.0834 38.3123 33.1738C38.5846 33.1689 38.7765 33.3806 38.9511 33.5588C38.987 33.8473 39.0477 34.1915 38.8038 34.4131C38.4732 34.8253 37.7242 34.7077 37.5447 34.215ZM17.4047 33.3088C17.9184 32.9733 18.6575 33.4747 18.5412 34.0639C18.4793 34.5876 17.8107 34.886 17.3712 34.5889C16.8983 34.3202 16.9156 33.5539 17.4047 33.3088ZM27.5477 34.4019C28.22 34.111 29.0767 34.6867 29.0123 35.4146C29.0618 36.2193 28.0033 36.7764 27.3459 36.2936C26.6155 35.8789 26.7381 34.6582 27.5477 34.4019ZM22.8507 35.4802C23.4227 35.1844 24.1902 35.6957 24.1382 36.327C24.1556 36.8445 23.643 37.2853 23.1231 37.2085C22.6935 37.1998 22.4137 36.8198 22.275 36.4595C22.2824 36.0671 22.4471 35.63 22.8507 35.4815V35.4802ZM32.3661 35.4901C32.9554 35.1311 33.7923 35.6461 33.7366 36.3196C33.7514 37.0253 32.8056 37.4759 32.2571 37.0129C31.7273 36.6502 31.7917 35.7786 32.3661 35.4901ZM34.0213 39.5137C33.7589 39.125 34.0671 38.6558 34.4918 38.5666C34.8347 38.6347 35.1974 38.8885 35.1244 39.2772C35.0749 39.8059 34.29 39.9668 34.0213 39.5149V39.5137ZM20.8847 39.1757C20.9887 38.8662 21.2413 38.5604 21.6114 38.6409C22.15 38.678 22.3097 39.4778 21.838 39.7242C21.4146 40.0052 20.9219 39.6202 20.8847 39.1757ZM27.2234 39.531C27.3261 39.073 27.9266 38.8514 28.3227 39.094C28.5852 39.2054 28.6619 39.4927 28.7288 39.7378C28.6935 39.8651 28.6604 39.993 28.6298 40.1216C28.4676 40.3097 28.2584 40.4992 27.9885 40.493C27.4871 40.5512 27.034 39.9928 27.2221 39.531H27.2234Z"
    fill="#fff"
  />
</svg>
