<svg width="56" height="56" viewBox="0 0 56 56" fill="none" xmlns="http://www.w3.org/2000/svg">
  <rect width="56" height="56" rx="28" fill="#85BB65" />
  <path
    d="M35.0377 20.5626C33.9784 17.8708 31.3221 17.6279 28.229 18.2285L27.1274 14.3887L24.7905 15.0589L25.8634 18.799C25.2491 18.9738 24.624 19.1676 24.0029 19.3587L22.9245 15.594L20.589 16.2628L21.6878 20.1026C21.1855 20.2582 20.6914 20.4111 20.2068 20.5504L20.2027 20.5367L16.9785 21.4608L17.6951 23.9588C17.6951 23.9588 19.4123 23.4292 19.3919 23.4701C20.3392 23.1985 20.8047 23.6599 21.0299 24.109L22.2857 28.4825C22.3499 28.4647 22.4358 28.4429 22.5369 28.4279L22.2898 28.4988L24.0466 34.6278C24.0902 34.9376 24.052 35.4632 23.3914 35.6543C23.4282 35.672 21.6906 36.1402 21.6906 36.1402L22.0277 39.0654L25.069 38.1918C25.6354 38.0321 26.1951 37.882 26.7425 37.7277L27.8577 41.6112L30.1919 40.9423L29.0903 37.0998C29.7164 36.9337 30.3407 36.7608 30.9631 36.5811L32.0578 40.4073L34.3961 39.737L33.285 35.8604C37.1494 34.5077 39.6159 32.729 38.8993 28.9397C38.3233 25.8903 36.546 24.9648 34.1613 25.0686C35.3189 23.9902 35.8171 22.5324 35.0377 20.564V20.5626ZM34.1504 29.8038C34.9831 32.7072 29.9189 33.8019 28.3355 34.2579L26.8599 29.1117C28.4433 28.6572 33.2809 26.7776 34.1491 29.8052L34.1504 29.8038ZM30.9809 22.8559C31.7371 25.4972 27.5042 26.3776 26.1842 26.7557L24.8465 22.0887C26.1651 21.7106 30.1905 20.1026 30.9809 22.8572V22.8559Z"
    fill="#fff"
  />
</svg>
