<svg width="56" height="56" viewBox="0 0 56 56" fill="none" xmlns="http://www.w3.org/2000/svg">
  <rect width="56" height="56" rx="28" fill="#F7931A" />
  <path
    d="M37.6231 25.3327C38.0516 22.4725 35.8724 20.9346 32.8948 19.9084L33.8609 16.033L31.5029 15.4462L30.5614 19.2193C29.9418 19.0638 29.3059 18.9191 28.6714 18.7745L29.6198 14.9768L27.2618 14.3887L26.2957 18.2627C25.7826 18.1454 25.2777 18.0308 24.7892 17.908L24.7919 17.8957L21.5387 17.0837L20.911 19.6028C20.911 19.6028 22.6618 20.004 22.6249 20.0285C23.5801 20.2673 23.7521 20.8991 23.7234 21.4013L22.6235 25.8158C22.689 25.8321 22.7736 25.8567 22.8692 25.8935L22.6195 25.8321L21.0775 32.0165C20.9601 32.3058 20.664 32.7411 19.9953 32.5759C20.0199 32.6101 18.2814 32.1488 18.2814 32.1488L17.1106 34.848L20.1809 35.6135C20.7513 35.7568 21.3108 35.9069 21.8607 36.0475L20.8851 39.9666L23.2417 40.5533L24.2078 36.6779C24.8519 36.8512 25.4769 37.0122 26.0882 37.1651L25.1248 41.0241L27.4829 41.6109L28.4585 37.7C32.4813 38.4614 35.5053 38.1544 36.7784 34.5164C37.8046 31.588 36.728 29.8973 34.6115 28.796C36.1535 28.4412 37.3134 27.4273 37.6231 25.3327ZM32.233 32.8898C31.5057 35.8196 26.5727 34.2353 24.9734 33.8382L26.2697 28.6459C27.869 29.0457 32.9958 29.8358 32.233 32.8898ZM32.9631 25.2904C32.2985 27.9554 28.1938 26.6004 26.8633 26.2688L28.0369 21.561C29.3674 21.8926 33.6563 22.5107 32.9631 25.2904Z"
    fill="#fff"
  />
</svg>
