<svg width="56" height="56" viewBox="0 0 56 56" fill="none" xmlns="http://www.w3.org/2000/svg">
  <rect width="56" height="56" rx="28" fill="#C3A634" />
  <path
    fill-rule="evenodd"
    clip-rule="evenodd"
    d="M22.6883 25.6349H29.7344V29.5242H22.6883V37.7215H27.1325C28.8916 37.7215 30.3305 37.4748 31.451 36.978C32.5714 36.4829 33.4501 35.7972 34.0888 34.9193C34.7419 34.0064 35.1866 32.9503 35.3889 31.8313C35.6249 30.5691 35.7398 29.2856 35.7319 27.9998C35.7398 26.7139 35.6249 25.4304 35.3889 24.1683C35.1868 23.0492 34.7421 21.9931 34.0888 21.0802C33.4501 20.2023 32.5698 19.5167 31.451 19.0216C30.3305 18.5247 28.8916 18.278 27.1325 18.278H22.6883V25.6366V25.6349ZM18.1706 29.5242H15.75V25.6366H18.1706V14.3887H28.8671C30.8434 14.3887 32.5535 14.746 33.9989 15.4554C35.4444 16.1683 36.6237 17.1398 37.5399 18.3733C38.4546 19.6051 39.1357 21.0479 39.5816 22.7C40.0275 24.352 40.2496 26.1197 40.2496 27.9998C40.2608 29.79 40.0355 31.5734 39.5799 33.2996C39.1357 34.95 38.4546 36.3944 37.5383 37.6262C36.6237 38.8598 35.4444 39.8312 33.9989 40.5441C32.5535 41.2553 30.8418 41.6109 28.8671 41.6109H18.1706V29.5242Z"
    fill="#fff"
  />
</svg>
