<svg width="56" height="56" viewBox="0 0 56 56" fill="none" xmlns="http://www.w3.org/2000/svg">
  <rect width="56" height="56" rx="28" fill="#E6007A" />
  <path
    d="M28.0003 20.099C30.7114 20.099 32.9092 18.8207 32.9092 17.2439 32.9092 15.6672 30.7114 14.3889 28.0003 14.3889 25.2891 14.3889 23.0913 15.6672 23.0913 17.2439 23.0913 18.8207 25.2891 20.099 28.0003 20.099zM28.0003 41.6112C30.7114 41.6112 32.9092 40.3329 32.9092 38.7562 32.9092 37.1794 30.7114 35.9011 28.0003 35.9011 25.2891 35.9011 23.0913 37.1794 23.0913 38.7562 23.0913 40.3329 25.2891 41.6112 28.0003 41.6112zM21.1596 24.0511C22.5151 21.7033 22.5063 19.1604 21.1399 18.3715 19.7735 17.5825 17.5669 18.8463 16.2113 21.1942 14.8557 23.542 14.8645 26.0849 16.231 26.8738 17.5974 27.6627 19.804 26.399 21.1596 24.0511zM39.7873 34.8058C41.1429 32.4579 41.1349 29.9155 39.7694 29.1271 38.4039 28.3387 36.198 29.6029 34.8424 31.9507 33.4868 34.2986 33.4949 36.841 34.8604 37.6294 36.2259 38.4178 38.4318 37.1536 39.7873 34.8058zM21.1411 37.6288C22.5076 36.8398 22.5164 34.297 21.1608 31.9491 19.8052 29.6013 17.5986 28.3375 16.2322 29.1264 14.8658 29.9154 14.857 32.4582 16.2125 34.8061 17.5681 37.1539 19.7747 38.4177 21.1411 37.6288zM39.7706 26.8746C41.1361 26.0862 41.1441 23.5438 39.7886 21.1959 38.433 18.8481 36.2271 17.5839 34.8616 18.3723 33.4961 19.1607 33.4881 21.7031 34.8436 24.051 36.1992 26.3988 38.4051 27.663 39.7706 26.8746z"
    fill="#fff"
  />
</svg>
