<svg width="56" height="56" viewBox="0 0 56 56" fill="none" xmlns="http://www.w3.org/2000/svg">
  <rect width="56" height="56" rx="28" fill="#EF4F1F" />
  <path
    d="M28.0413 24.1047L21.302 16.0011C21.302 16.0011 24.2878 14.9441 25.6527 14.4156C27.103 13.8871 32.5626 21.3742 32.5626 21.3742L28.0413 24.1047Z"
    fill="#fff"
  />
  <path
    fill-rule="evenodd"
    clip-rule="evenodd"
    d="M34.269 17.0582C33.7572 19.5245 32.7335 21.3742 32.7335 21.3742L37.4253 24.4571L37.8518 30.0064L33.9279 33.2655L35.7194 36.8769C35.7194 36.8769 36.1459 38.2862 37.4255 36.7007C37.7272 36.3002 37.9853 35.984 38.2013 35.7195C38.8403 34.9368 39.1101 34.6062 39.0464 33.8821C38.9611 32.9131 38.7049 30.623 37.8518 30.0064L39.8139 29.7422C39.8139 29.7422 40.3257 29.566 40.2404 28.5971C40.1551 27.5401 39.9845 25.338 39.9845 25.338C39.9845 25.338 40.0698 24.8095 38.8755 24.6334C37.5221 24.3868 37.4317 24.447 37.4257 24.4562C39.3868 19.1719 34.269 17.0582 34.269 17.0582Z"
    fill="#fff"
  />
  <path
    d="M33.8426 33.2653L28.4683 30.799 23.7764 40.5762C23.7764 40.5762 23.4352 41.2809 24.6295 41.3689 24.7434 41.3858 24.8643 41.405 24.9908 41.4251 26.1896 41.6155 27.8835 41.8846 28.8095 40.9285 29.8332 39.9596 33.8426 33.2653 33.8426 33.2653zM27.9563 24.1929L28.4682 30.711C28.2975 31.0633 18.9991 31.0633 17.4635 30.9752 15.928 30.8872 16.0133 30.0944 16.0133 30.0944 16.0133 30.0944 15.8427 28.1566 15.7574 26.3949 15.6721 25.0737 16.3545 24.9856 16.3545 24.9856L27.9563 24.1929z"
    fill="#fff"
  />
</svg>
