<svg width="56" height="56" viewBox="0 0 56 56" fill="none" xmlns="http://www.w3.org/2000/svg">
  <rect width="56" height="56" rx="28" fill="#F00500" />
  <rect x=".5" y=".5" width="55" height="55" rx="27.5" stroke="#fff" stroke-opacity=".1" />
  <g clip-path="url(#clip0_20_1260)">
    <path
      d="M35.5853 14.5405C34.7352 15.3811 33.9563 16.2921 33.264 17.2635L33.0451 17.1931C31.7826 16.7854 30.4743 16.5337 29.1558 16.4481 28.7587 16.4179 27.2774 16.4179 26.7938 16.4481 25.3327 16.5438 24.2128 16.7602 22.9401 17.1981 22.8892 17.2182 22.8434 17.2333 22.7976 17.2484 22.0798 16.282 21.2806 15.376 20.3999 14.5455 24.6251 12.4063 29.5682 12.1496 33.9919 13.8358 34.4654 14.012 34.9286 14.2183 35.3817 14.4398L35.5853 14.5405zM43.4655 33.6321C42.824 35.4391 41.8619 37.1152 40.6147 38.5749 39.9377 39.3601 39.1893 40.0799 38.385 40.7342 36.5015 42.2342 34.3023 43.3063 31.9555 43.87 29.3593 44.4891 26.6511 44.4891 24.0548 43.87 21.703 43.3063 19.5089 42.2342 17.6254 40.7342 16.821 40.0799 16.0727 39.3601 15.3957 38.5749 11.8067 34.3821 10.7173 28.6239 12.5449 23.4345 12.8911 22.4731 13.3238 21.547 13.843 20.6661 14.0823 20.2635 14.3775 19.8104 14.5201 19.6242 15.0088 21.703 15.6095 23.5301 15.8334 24.1895 15.8182 24.2247 15.7978 24.265 15.7774 24.3002 14.5913 26.676 13.9499 28.9662 13.7972 31.4023 13.7972 31.4325 13.7921 31.4678 13.7921 31.498 13.7514 32.2278 13.7717 32.5751 13.8939 33.0331 14.2757 34.4677 15.4517 36.0481 17.2945 37.5984 20.3132 40.1353 24.4061 41.9674 27.5063 42.1788 30.7389 42.3952 35.5088 40.5279 38.6854 37.7998 39.1842 37.3619 39.6526 36.8988 40.0904 36.4055 40.406 36.0431 40.8743 35.419 40.8387 35.419 40.8285 35.419 40.8387 35.4089 40.8591 35.3988 40.8743 35.3888 40.8896 35.3737 40.8794 35.3636 40.8743 35.3586 40.8845 35.3435 40.8998 35.3384 40.9151 35.3334 40.9252 35.3233 40.9201 35.3133 40.9151 35.3032 40.9201 35.2931 40.9405 35.2881 40.9558 35.2831 40.9609 35.268 40.9558 35.2579 40.9507 35.2478 40.9558 35.2378 40.966 35.2378 40.9761 35.2378 40.9863 35.2227 40.9863 35.2126 40.9863 35.2025 40.9965 35.1874 41.0067 35.1874 41.0169 35.1874 41.0271 35.1774 41.0271 35.1673 41.0423 35.127 41.0678 35.0868 41.0932 35.0515 41.1696 34.9358 41.475 34.3972 41.5158 34.3066 41.8059 33.6573 41.9892 33.0785 42.0757 32.4996 42.1164 32.2228 42.1419 31.7144 42.1215 31.5936 42.1164 31.5735 42.1164 31.5382 42.1114 31.4829 42.1012 31.3822 42.0961 31.2312 42.0859 31.0802 42.0757 30.8537 42.0554 30.5366 42.0401 30.3806 41.8212 28.0954 41.2307 26.228 40.1107 24.2499 40.0649 24.1744 40.0242 24.0989 39.9987 24.0385 39.9886 24.0234 39.9835 24.0083 39.9784 23.9982 40.1362 23.5301 40.7827 21.5721 41.2969 19.3323L41.307 19.3423 41.3834 19.443C41.5158 19.6192 41.867 20.1427 42.0248 20.3943 42.7426 21.552 43.3026 22.7952 43.6996 24.0939 44.621 27.2196 44.5447 30.5517 43.4655 33.6321z"
      fill="#F00500"
    />
    <path
      d="M36.8578 27.6173C36.8425 27.6978 36.6032 27.9394 36.364 28.1156 35.6615 28.624 34.4041 29.0971 33.1263 29.3236 32.3984 29.4545 31.6704 29.4746 31.4515 29.3689 31.309 29.2984 31.2886 29.2431 31.3395 29.0619 31.4464 28.6844 31.7926 28.2716 32.3322 27.8841 32.6071 27.6878 33.7219 27.0183 34.2412 26.7364 35.0964 26.2734 35.7887 25.9965 36.2571 25.9311 36.4047 25.911 36.5829 25.9059 36.6389 25.9311 36.7305 25.9663 36.8323 26.2331 36.873 26.5552 36.8934 26.7264 36.8832 27.4814 36.8578 27.6173zM24.8643 29.2833C24.8338 29.3437 24.6811 29.4091 24.508 29.4343 24.3349 29.4595 23.8055 29.4444 23.5051 29.4091 22.4259 29.2682 21.2805 28.941 20.4456 28.5384 19.9773 28.3119 19.6413 28.0854 19.3919 27.8387L19.2493 27.6928 19.2341 27.5015C19.2086 27.1693 19.2137 26.6458 19.2544 26.4596 19.2799 26.3035 19.3359 26.1525 19.4122 26.0166 19.453 25.9663 19.453 25.9663 19.6362 25.9663 19.8602 25.9663 20.0486 26.0015 20.354 26.0972 20.9802 26.2884 21.9117 26.7515 23.047 27.426 23.9836 27.9797 24.3349 28.2515 24.6047 28.6239 24.788 28.8555 24.9101 29.1826 24.8643 29.2833zM32.0727 36.2898C32.0727 36.3049 32.0116 36.5465 31.9353 36.8334 31.8589 37.1203 31.7978 37.3519 31.7978 37.3619 31.7418 37.367 31.6909 37.372 31.6349 37.367H31.472L31.248 37.8904C31.1259 38.1773 31.0139 38.4441 30.9986 38.4844L30.9681 38.5549 30.8612 38.3837 30.7543 38.2126V36.8183L30.7135 36.8284C30.627 36.8485 30.011 36.9291 29.7412 36.9542 28.6264 37.065 27.5064 37.0398 26.3967 36.8838 26.2185 36.8586 26.0658 36.8385 26.0607 36.8435 26.0556 36.8485 26.0607 37.1707 26.0709 37.5683L26.0861 38.283 25.9996 38.4139C25.9538 38.4844 25.908 38.5448 25.908 38.5498 25.8927 38.5649 25.8418 38.4844 25.7247 38.2528 25.5974 38.0112 25.5058 37.7545 25.4396 37.4878L25.404 37.3418 25.2462 37.3519 25.0884 37.367 25.0476 37.1807C25.0273 37.0801 25.0018 36.924 24.9916 36.8385L24.9764 36.6774 24.844 36.5616C24.7676 36.4962 24.6913 36.4308 24.676 36.4207 24.6506 36.4006 24.6404 36.3653 24.6404 36.3351V36.2747L25.2767 36.2798 25.913 36.2848 25.9334 36.3502 25.9538 36.4157 26.1727 36.4257C26.2948 36.4308 26.6817 36.4408 27.0279 36.4509L27.6642 36.466 27.8271 36.2143 27.9951 35.9627H28.2089L28.2038 35.4392 28.1987 34.9157 27.9188 34.7949C27.0177 34.4023 26.4883 33.9543 26.2898 33.4107 26.249 33.3 26.249 33.2597 26.2388 32.7564 26.2338 32.2581 26.2338 32.2128 26.2694 32.102 26.3407 31.8504 26.5392 31.6541 26.7937 31.5886 26.8803 31.5635 27.1093 31.5635 28.3107 31.5635L29.7259 31.5685 29.8837 31.644C30.0721 31.7346 30.1586 31.8 30.2655 31.941 30.3877 32.102 30.4234 32.2279 30.4234 32.5349 30.4234 32.9728 30.3928 33.3503 30.347 33.5013 30.2808 33.7077 30.179 33.904 30.0517 34.0802 29.7972 34.4023 29.334 34.7244 28.9114 34.8704L28.7893 34.9157 28.7944 35.4442 28.7994 35.9727 28.9114 35.9828 29.0234 35.9929 29.1762 36.2194 29.3238 36.4459H30.0059C30.3826 36.4459 30.7135 36.4509 30.7441 36.4559 30.795 36.466 30.8052 36.461 30.8561 36.3754L30.9171 36.2848H31.5026C31.9404 36.2647 32.0727 36.2747 32.0727 36.2898z"
      fill="#000"
    />
    <path
      d="M29.3848 37.7344C29.288 37.7897 29.2219 37.8149 29.2066 37.8048C29.1913 37.7998 29.12 37.7394 29.0437 37.684L28.9062 37.5733L28.7637 37.7243C28.4532 38.0565 28.443 38.0716 28.3514 38.0766C28.2088 38.0917 28.1783 38.0666 28.0052 37.8099C27.9136 37.679 27.8423 37.5683 27.8423 37.5683C27.8423 37.5683 27.7761 37.5582 27.6998 37.5532L27.5572 37.5381L27.491 37.674L27.4249 37.8099L27.3078 37.7746C27.2161 37.7444 27.1245 37.7092 27.038 37.6689L26.8853 37.5934V37.3065L28.2394 37.3116L29.5935 37.3166L29.5986 37.4525C29.6037 37.6136 29.6087 37.6085 29.3848 37.7344Z"
      fill="#000"
    />
    <path
      d="M42.1115 31.5936C42.1064 31.5735 42.1064 31.5382 42.1013 31.4829C40.8796 31.352 37.3925 31.2715 34.1548 33.914C34.1548 33.914 33.1113 29.1826 28.2242 29.1826C23.3372 29.1826 21.5249 33.914 21.5249 33.914C18.7862 30.9997 15.1209 31.2111 13.7973 31.4023C13.7973 31.4325 13.7923 31.4678 13.7923 31.498C13.7515 32.2278 13.7719 32.5751 13.8941 33.0332C14.2759 34.4677 15.4518 36.0482 17.2946 37.5984C20.3134 40.1353 24.4062 41.9674 27.5065 42.1788C30.739 42.3953 35.5089 40.5279 38.6855 37.7998C39.1844 37.3619 39.6527 36.8988 40.0905 36.4055C40.4061 36.0431 40.8745 35.419 40.8389 35.419C40.8287 35.419 40.8389 35.4089 40.8592 35.3988C40.8745 35.3888 40.8898 35.3737 40.8796 35.3636C40.8745 35.3586 40.8847 35.3435 40.8999 35.3384C40.9152 35.3334 40.9254 35.3233 40.9203 35.3133C40.9152 35.3032 40.9203 35.2931 40.9407 35.2881C40.9559 35.2831 40.961 35.268 40.9559 35.2579C40.9508 35.2478 40.9559 35.2378 40.9661 35.2378C40.9763 35.2378 40.9865 35.2227 40.9865 35.2126C40.9865 35.2025 40.9967 35.1874 41.0068 35.1874C41.017 35.1874 41.0272 35.1774 41.0272 35.1673C41.0425 35.127 41.0679 35.0868 41.0934 35.0515C41.1697 34.9358 41.4752 34.3972 41.5159 34.3066C41.8061 33.6573 41.9893 33.0785 42.0759 32.4996C42.1064 32.2228 42.1319 31.7144 42.1115 31.5936ZM29.3849 37.7343C29.2882 37.7897 29.222 37.8149 29.2067 37.8048C29.1915 37.7998 29.1202 37.7394 29.0438 37.684L28.9064 37.5733L28.7638 37.7243C28.4533 38.0565 28.4431 38.0716 28.3515 38.0766C28.209 38.0917 28.1784 38.0665 28.0053 37.8098C27.9137 37.679 27.8424 37.5682 27.8424 37.5682C27.8424 37.5682 27.7763 37.5582 27.6999 37.5531L27.5574 37.538L27.4912 37.6739L27.425 37.8098L27.3079 37.7746C27.2163 37.7444 27.1247 37.7092 27.0381 37.6689L26.8854 37.5934V37.3065L28.2395 37.3115L29.5936 37.3166L29.5987 37.4525C29.6038 37.6135 29.6089 37.6085 29.3849 37.7343ZM31.9302 36.8283C31.8539 37.1152 31.7928 37.3468 31.7928 37.3568C31.7368 37.3619 31.6859 37.3669 31.6299 37.3619H31.467L31.2481 37.8904C31.1259 38.1773 31.0139 38.444 30.9986 38.4843L30.9681 38.5548L30.8612 38.3836L30.7543 38.2125V36.8183L30.7136 36.8283C30.627 36.8485 30.0111 36.929 29.7412 36.9542C28.6264 37.0649 27.5065 37.0397 26.3967 36.8837C26.2185 36.8585 26.0658 36.8384 26.0607 36.8434C26.0556 36.8485 26.0607 37.1706 26.0709 37.5682L26.0862 38.283L25.9996 38.4138C25.9538 38.4843 25.908 38.5447 25.908 38.5497C25.8927 38.5648 25.8418 38.4843 25.7247 38.2528C25.5975 38.0112 25.5058 37.7545 25.4397 37.4877L25.404 37.3417L25.2462 37.3518L25.0884 37.3669L25.0477 37.1807C25.0273 37.08 25.0019 36.924 24.9917 36.8384L24.9764 36.6773L24.844 36.5616C24.7677 36.4961 24.6913 36.4307 24.6761 36.4206C24.6506 36.4005 24.6404 36.3653 24.6404 36.3351V36.2747L25.2767 36.2797L25.9131 36.2847L25.9334 36.3502L25.9538 36.4156L26.1727 36.4257C26.2949 36.4307 26.6818 36.4408 27.0279 36.4508L27.6643 36.4659L27.8272 36.2143L27.9952 35.9626H28.209L28.2039 35.4391L28.1988 34.9156L27.9188 34.7948C27.0178 34.4022 26.4883 33.9543 26.2898 33.4107C26.2491 33.2999 26.2491 33.2597 26.2389 32.7563C26.2338 32.258 26.2338 32.2127 26.2694 32.102C26.3407 31.8503 26.5392 31.654 26.7938 31.5886C26.8803 31.5634 27.1094 31.5634 28.3108 31.5634L29.726 31.5684L29.8838 31.6439C30.0721 31.7345 30.1587 31.8 30.2656 31.9409C30.3878 32.102 30.4234 32.2278 30.4234 32.5349C30.4234 32.9728 30.3929 33.3503 30.347 33.5013C30.2809 33.7076 30.179 33.9039 30.0518 34.0801C29.7972 34.4022 29.334 34.7244 28.9115 34.8703L28.7893 34.9156L28.7944 35.4441L28.7995 35.9727L28.9115 35.9827L29.0235 35.9928L29.1762 36.2193L29.3238 36.4458H30.006C30.3827 36.4458 30.7136 36.4508 30.7441 36.4559C30.795 36.4659 30.8052 36.4609 30.8561 36.3753L30.9172 36.2847H31.5026C31.9557 36.2847 32.088 36.2898 32.088 36.3049C32.0728 36.2998 32.0066 36.5465 31.9302 36.8283Z"
      fill="#fff"
    />
    <path
      d="M42.0707 31.0802C42.0606 30.8537 42.0402 30.5366 42.0249 30.3806C41.806 28.0954 41.2155 26.228 40.0956 24.2499C40.0497 24.1744 40.009 24.0989 39.9836 24.0385C39.9734 24.0234 39.9683 24.0083 39.9632 23.9982C40.121 23.5301 40.7675 21.5721 41.2817 19.3323C41.9791 16.2921 42.422 12.7385 41.0679 11.6715C41.0679 11.6715 38.7262 11.5003 35.5903 14.5405C34.7402 15.3811 33.9613 16.2921 33.269 17.2636L33.0501 17.1931C31.7876 16.7854 30.4793 16.5337 29.1609 16.4482C28.7638 16.418 27.2824 16.418 26.7988 16.4482C25.3378 16.5438 24.2178 16.7602 22.9452 17.1981C22.8943 17.2183 22.8485 17.2334 22.8026 17.2485C22.0849 16.282 21.2856 15.376 20.4049 14.5455C17.1418 11.4903 14.7136 11.6664 14.7136 11.6664C13.278 12.7687 13.7667 16.4834 14.51 19.6242C14.9987 21.703 15.5994 23.5301 15.8234 24.1895C15.8081 24.2247 15.7877 24.265 15.7674 24.3002C14.5813 26.676 13.9398 28.9662 13.7871 31.4023C15.1158 31.2111 18.7759 30.9946 21.5198 33.914C21.5198 33.914 23.3321 29.1826 28.2191 29.1826C33.1061 29.1826 34.1497 33.914 34.1497 33.914C37.3873 31.2715 40.8744 31.357 42.0962 31.4829C42.0911 31.3822 42.0809 31.2312 42.0707 31.0802ZM16.7855 22.2919C16.7855 22.2919 14.8816 17.5857 15.3703 14.8979C15.4517 14.4449 15.6045 14.0472 15.8437 13.7452C15.8437 13.7452 18.0022 13.9566 21.4842 17.782C21.4842 17.782 20.8224 18.0991 19.9366 18.7736C19.9366 18.7736 19.9315 18.7786 19.9264 18.7786C18.9643 19.5084 17.7324 20.6661 16.7855 22.2919ZM24.8644 29.2833C24.8338 29.3437 24.6811 29.4091 24.508 29.4343C24.3349 29.4595 23.8055 29.4444 23.5052 29.4091C22.4259 29.2682 21.2805 28.941 20.4457 28.5383C19.9773 28.3118 19.6413 28.0853 19.3919 27.8387L19.2494 27.6927L19.2341 27.5015C19.2086 27.1693 19.2137 26.6458 19.2545 26.4596C19.2799 26.3035 19.3359 26.1525 19.4123 26.0166C19.453 25.9663 19.453 25.9663 19.6363 25.9663C19.8602 25.9663 20.0486 26.0015 20.354 26.0972C20.9802 26.2884 21.9118 26.7515 23.047 27.426C23.9837 27.9796 24.3349 28.2514 24.6047 28.6239C24.788 28.8554 24.9102 29.1826 24.8644 29.2833ZM36.8579 27.6172C36.8426 27.6978 36.6034 27.9394 36.3641 28.1155C35.6616 28.6239 34.4042 29.097 33.1265 29.3236C32.3985 29.4544 31.6705 29.4746 31.4516 29.3689C31.3091 29.2984 31.2887 29.243 31.3397 29.0618C31.4466 28.6843 31.7927 28.2716 32.3323 27.884C32.6072 27.6877 33.7221 27.0183 34.2413 26.7364C35.0966 26.2733 35.7889 25.9965 36.2572 25.9311C36.4048 25.9109 36.583 25.9059 36.639 25.9311C36.7306 25.9663 36.8325 26.2331 36.8732 26.5552C36.8935 26.7263 36.8834 27.4813 36.8579 27.6172ZM36.0129 18.7736L36.0027 18.7685C35.1475 18.0941 34.506 17.777 34.506 17.777C37.871 13.9516 39.953 13.7402 39.953 13.7402C40.1821 14.0472 40.3297 14.4398 40.4112 14.8928C40.8846 17.5807 39.0469 22.2919 39.0469 22.2919C38.2782 20.9379 37.2448 19.74 36.0129 18.7736Z"
      fill="#FFA409"
    />
    <path
      d="M40.4163 14.8929C40.0193 14.8425 38.1408 14.8325 36.0129 18.7736L36.0028 18.7686C35.1475 18.0941 34.5061 17.777 34.5061 17.777C37.871 13.9516 39.9531 13.7402 39.9531 13.7402C40.1873 14.0473 40.3349 14.4399 40.4163 14.8929Z"
      fill="#FF9300"
    />
    <path
      d="M39.0518 22.292C38.278 20.933 37.2497 19.7401 36.0127 18.7737 38.1406 14.8325 40.0139 14.8426 40.4161 14.8929 40.8895 17.5858 39.0518 22.292 39.0518 22.292zM40.4926 14.9079C40.4672 14.9029 40.4417 14.8979 40.4163 14.8928L40.4926 14.9079z"
      fill="#FF8300"
    />
    <path
      d="M21.4842 17.777C21.4842 17.777 20.8224 18.0941 19.9366 18.7686C19.9366 18.7686 19.9315 18.7736 19.9265 18.7736C17.7222 14.8274 15.7827 14.8425 15.3652 14.8929C15.4467 14.4399 15.5994 14.0422 15.8387 13.7402C15.8438 13.7402 18.0022 13.9516 21.4842 17.777Z"
      fill="#FF9300"
    />
    <path
      d="M19.9315 18.7737C18.9643 19.5085 17.7323 20.6612 16.7855 22.292 16.7855 22.292 14.8816 17.5858 15.3703 14.8929 15.7826 14.8426 17.7272 14.8325 19.9315 18.7737zM15.3703 14.8928C15.3448 14.8979 15.3143 14.9029 15.2888 14.9079L15.3703 14.8928z"
      fill="#FF8300"
    />
    <path
      d="M33.9003 24.9042C33.9003 24.9042 32.2713 25.0049 32.4749 23.7466 32.6785 22.4882 33.9512 22.3372 34.3075 22.3876 34.6639 22.4379 36.0892 22.9412 35.8347 23.9982 35.5802 25.0552 35.2238 24.8539 35.0202 24.9042 34.8166 24.9546 33.9003 24.9042 33.9003 24.9042zM21.8864 24.9042C21.8864 24.9042 20.2573 25.0049 20.461 23.7466 20.6646 22.4882 21.9373 22.3372 22.2936 22.3876 22.65 22.4379 24.0753 22.9412 23.8208 23.9982 23.5663 25.0552 23.2099 24.8539 23.0063 24.9042 22.8027 24.9546 21.8864 24.9042 21.8864 24.9042z"
      fill="#fff"
    />
  </g>
  <defs>
    <clipPath id="clip0_20_1260">
      <path fill="#fff" transform="translate(11.667 11.667)" d="M0 0H32.667V32.667H0z" />
    </clipPath>
  </defs>
</svg>
