<svg width="56" height="56" viewBox="0 0 56 56" fill="none" xmlns="http://www.w3.org/2000/svg">
  <rect width="56" height="56" rx="28" fill="#9945FF" />
  <path
    fill-rule="evenodd"
    clip-rule="evenodd"
    d="M19.0645 34.431C19.1515 34.3368 19.2566 34.2611 19.3735 34.2084C19.4904 34.1558 19.6168 34.1274 19.745 34.1247H41.1277C41.2183 34.126 41.3063 34.1534 41.3816 34.2036C41.4569 34.2538 41.5161 34.3247 41.5521 34.4077C41.588 34.4907 41.5993 34.5824 41.5842 34.6716C41.5694 34.7609 41.5291 34.8439 41.4681 34.9108L36.9356 39.9434C36.8486 40.0376 36.7435 40.1133 36.6265 40.1659C36.5096 40.2186 36.3833 40.247 36.255 40.2496H14.8587C14.7682 40.2484 14.68 40.221 14.6048 40.1708C14.5295 40.1206 14.4703 40.0497 14.4344 39.9667C14.3984 39.8836 14.3872 39.792 14.4021 39.7027C14.4171 39.6135 14.4574 39.5305 14.5184 39.4636L19.0645 34.431ZM41.4885 30.2592C41.5495 30.3261 41.5898 30.4091 41.6046 30.4984C41.6197 30.5876 41.6085 30.6792 41.5725 30.7623C41.5365 30.8453 41.4773 30.9162 41.402 30.9664C41.3267 31.0166 41.2387 31.044 41.1481 31.0453L19.7586 31.0623C19.6304 31.0597 19.504 31.0312 19.3871 30.9786C19.2702 30.9259 19.1651 30.8503 19.0781 30.756L14.5116 25.7404C14.4506 25.6736 14.4102 25.5905 14.3953 25.5013C14.3804 25.412 14.3916 25.3204 14.4276 25.2374C14.4635 25.1543 14.5227 25.0834 14.598 25.0332C14.6732 24.983 14.7614 24.9557 14.8519 24.9544L36.2414 24.9374C36.3696 24.94 36.496 24.9685 36.6129 25.0211C36.7299 25.0737 36.835 25.1494 36.922 25.2436L41.4885 30.2592ZM19.0645 16.0562C19.1515 15.962 19.2566 15.8863 19.3735 15.8337C19.4904 15.7811 19.6168 15.7526 19.745 15.75L41.1414 15.767C41.2318 15.7683 41.3201 15.7957 41.3954 15.8459C41.4707 15.8961 41.5299 15.967 41.5656 16.05C41.6016 16.133 41.6128 16.2247 41.598 16.3139C41.5829 16.4032 41.5426 16.4862 41.4816 16.553L36.9356 21.5687C36.8486 21.6629 36.7435 21.7386 36.6265 21.7912C36.5096 21.8438 36.3833 21.8723 36.255 21.8749H14.8587C14.7682 21.8736 14.68 21.8463 14.6048 21.7961C14.5295 21.7459 14.4703 21.675 14.4344 21.5919C14.3984 21.5089 14.3872 21.4173 14.4021 21.328C14.4171 21.2388 14.4574 21.1557 14.5184 21.0889L19.0645 16.0562Z"
    fill="#fff"
  />
</svg>
