<svg width="56" height="56" viewBox="0 0 56 56" fill="none" xmlns="http://www.w3.org/2000/svg">
  <rect width="56" height="56" rx="28" fill="#2775CA" />
  <path
    d="M28 41.6111C20.4821 41.6111 14.3889 35.518 14.3889 28C14.3889 20.4821 20.4821 14.3889 28 14.3889C35.518 14.3889 41.6111 20.4821 41.6111 28C41.6111 31.6099 40.1771 35.072 37.6245 37.6245C35.072 40.1771 31.6099 41.6111 28 41.6111ZM27.1892 22.9494C26.4444 22.9864 25.7404 23.3003 25.2153 23.8297C24.6902 24.3591 24.382 25.0657 24.3511 25.8107C24.3511 27.2123 25.2083 28.1275 27.027 28.5097L28.3012 28.8109C29.5407 29.1005 30.0504 29.5175 30.0504 30.2241C30.0504 30.9308 29.1584 31.6258 28 31.6258C27.5886 31.6635 27.1748 31.5847 26.8061 31.3982C26.4373 31.2118 26.1285 30.9254 25.9149 30.5717C25.8516 30.4374 25.7518 30.3238 25.6267 30.2439C25.5017 30.164 25.3567 30.121 25.2083 30.1199H24.5249C24.4723 30.1296 24.4222 30.1497 24.3774 30.1788C24.3326 30.208 24.294 30.2458 24.2639 30.2899C24.2337 30.334 24.2126 30.3837 24.2017 30.436C24.1909 30.4884 24.1904 30.5423 24.2005 30.5948C24.367 31.2743 24.7541 31.8794 25.3011 32.3154C25.8482 32.7514 26.5244 32.9936 27.2239 33.0043V33.9773C27.2239 34.1939 27.3099 34.4016 27.4631 34.5548C27.6163 34.708 27.824 34.794 28.0406 34.794C28.2572 34.794 28.4649 34.708 28.618 34.5548C28.7712 34.4016 28.8572 34.1939 28.8572 33.9773V32.9927C29.6482 32.9837 30.4044 32.6663 30.9647 32.1081C31.5251 31.5499 31.8454 30.7949 31.8575 30.004C31.8575 28.5329 31.0119 27.6873 29.0078 27.2587L27.8494 27.0038C26.691 26.7142 26.1466 26.3319 26.1466 25.6832C26.1466 25.0345 26.8416 24.3163 28 24.3163C28.3648 24.2782 28.7329 24.3466 29.0597 24.5131C29.3866 24.6796 29.6582 24.9371 29.8419 25.2546C29.9163 25.4132 30.0342 25.5474 30.1818 25.6417C30.3294 25.736 30.5007 25.7866 30.6759 25.7875H31.2204C31.3441 25.7572 31.4511 25.6796 31.5183 25.5713C31.5854 25.463 31.6074 25.3326 31.5795 25.2083C31.4225 24.581 31.0715 24.0192 30.5764 23.6032C30.0813 23.1871 29.4675 22.9381 28.8225 22.8915V22.0922C28.8225 21.8756 28.7364 21.6679 28.5833 21.5148C28.4301 21.3616 28.2224 21.2756 28.0058 21.2756C27.7892 21.2756 27.5815 21.3616 27.4283 21.5148C27.2752 21.6679 27.1892 21.8756 27.1892 22.0922V22.9494ZM17.7946 28C17.7959 30.1339 18.4676 32.2134 19.7147 33.9448C20.9619 35.6763 22.7214 36.9721 24.7449 37.6494H24.9071C25.0454 37.6494 25.178 37.5945 25.2757 37.4968C25.3735 37.399 25.4284 37.2664 25.4284 37.1282V36.8849C25.4288 36.6693 25.3651 36.4584 25.2455 36.279C25.1259 36.0995 24.9557 35.9597 24.7565 35.8771C23.1807 35.241 21.8308 34.1485 20.8803 32.7398C19.9298 31.3311 19.4219 29.6705 19.4219 27.9711C19.4219 26.2717 19.9298 24.611 20.8803 23.2023C21.8308 21.7936 23.1807 20.7011 24.7565 20.065C24.9548 19.9845 25.1246 19.8467 25.2443 19.6693C25.3639 19.4919 25.428 19.2828 25.4284 19.0688V18.8024C25.4291 18.7242 25.411 18.6469 25.3756 18.5772C25.3401 18.5074 25.2883 18.4473 25.2247 18.4018C25.161 18.3564 25.0873 18.3269 25.0099 18.316C24.9324 18.305 24.8535 18.313 24.7797 18.339C22.7478 19.011 20.9794 20.3061 19.7254 22.0404C18.4715 23.7747 17.7959 25.8599 17.7946 28ZM38.2055 28C38.2017 25.8682 37.5289 23.7913 36.282 22.0621C35.035 20.333 33.2767 19.0389 31.2551 18.3622H31.0814C30.937 18.3622 30.7985 18.4196 30.6964 18.5217C30.5943 18.6238 30.5369 18.7623 30.5369 18.9066V19.0804C30.5416 19.3038 30.6108 19.5211 30.7362 19.7061C30.8615 19.8911 31.0377 20.0359 31.2435 20.123C32.8158 20.7609 34.162 21.8535 35.1098 23.2609C36.0575 24.6682 36.5638 26.3264 36.5638 28.0232C36.5638 29.72 36.0575 31.3781 35.1098 32.7855C34.162 34.1929 32.8158 35.2855 31.2435 35.9234C31.0417 36.0114 30.8691 36.1552 30.746 36.3378C30.6229 36.5204 30.5544 36.7343 30.5485 36.9544V37.1513C30.5495 37.2372 30.5708 37.3216 30.6106 37.3977C30.6505 37.4738 30.7078 37.5394 30.7778 37.5891C30.8478 37.6388 30.9286 37.6712 31.0136 37.6837C31.0986 37.6962 31.1853 37.6884 31.2667 37.661C33.2899 36.9811 35.0483 35.6826 36.2934 33.949C37.5385 32.2155 38.2074 30.1344 38.2055 28Z"
    fill="#fff"
  />
</svg>
