<svg width="2526" height="448" viewBox="0 0 2526 448" fill="none" xmlns="http://www.w3.org/2000/svg">
  <path
    d="M9.024 9.278V16.35H16.094M9.946 16.35C12.66 11.376 17.936 8 24 8 32.836 8 40 15.164 40 24 40 32.836 32.836 40 24 40 15.164 40 8 32.836 8 24M106 38H100C94.478 38 90 33.522 90 28V10M90 10L95 15M90 10L85 15M102 10H108C113.522 10 118 14.478 118 20V38M118 38L112 32M118 38L124 32M199.984 24.064C199.968 28.138 198.422 32.206 195.314 35.314 189.066 41.562 178.934 41.562 172.686 35.314 171.574 34.202 170.67 32.964 169.954 31.652M168.008 23.74C168.072 19.732 169.628 15.744 172.686 12.686 178.934 6.438 189.066 6.438 195.314 12.686 196.426 13.798 197.33 15.036 198.046 16.348M191.906 16.35H198.976V9.278M176.094 31.65H169.024V38.722"
    stroke="#fff"
    stroke-width="2.5"
    stroke-linecap="round"
    stroke-linejoin="round"
  />
  <path
    d="M282 42L271.999 31.9998M275.6 20.8C275.6 28.9738 268.974 35.6 260.8 35.6C252.626 35.6 246 28.9738 246 20.8C246 12.6262 252.626 6 260.8 6C268.974 6 275.6 12.6262 275.6 20.8Z"
    stroke="#fff"
    stroke-width="2.5"
    stroke-linecap="round"
  />
  <path
    d="M326 14V9C326 7.34315 327.343 6 329 6H338M348 30.0002H343C341.343 30.0002 340 28.6571 340 27.0002V18.0002M362 14V9C362 7.34315 360.657 6 359 6H350M326 34V39C326 40.6569 327.343 42 329 42H338M362 34V39C362 40.6569 360.657 42 359 42H350M432.12 24.24H422.82V13.04M424.02 5.02002C421.656 5.02002 419.316 5.4856 417.132 6.39019 414.948 7.29477 412.964 8.62064 411.292 10.2921 409.621 11.9636 408.295 13.9479 407.39 16.1317 406.486 18.3156 406.02 20.6562 406.02 23.02 406.02 25.3838 406.486 27.7245 407.39 29.9083 408.295 32.0922 409.621 34.0765 411.292 35.7479 412.964 37.4194 414.948 38.7453 417.132 39.6498 419.316 40.5544 421.656 41.02 424.02 41.02 428.794 41.02 433.372 39.1236 436.748 35.7479 440.124 32.3723 442.02 27.7939 442.02 23.02 442.02 18.2461 440.124 13.6678 436.748 10.2921 433.372 6.91644 428.794 5.02002 424.02 5.02002zM513.9 33.9001L494.1 14.1001M513.9 19.7401V33.8861L499.74 33.8661M593.9 14.1L574.1 33.9M580 14L593.9 14.08 594 27.982M664 38V10M674.002 27.98L663.982 37.98 653.962 27.96M758 24H730M758 24L748 34M758 24L748 14M810 24H838M810 24L820 14M810 24L820 34M904 9.99998V38M893.998 20L904 9.97998 914 19.98M976 20L984 28 992 20M1068 16L1060 24 1068 32M1140 32L1148 24 1140 16M1232 28L1224 20 1216 28M1296 28L1290 34M1290 34L1296 40M1290 34H1318M1312 20L1318 14M1318 14L1312 8M1318 14H1290M1380 16L1374 10M1374 10L1368 16M1374 10V38M1388 32L1394 38M1394 38L1400 32M1394 38V10M1464 24L1481 7M1481 7V20M1481 7H1468M1458 7H1451C1448.79 7 1447 8.79 1447 11V37C1447 39.2 1448.79 41 1451 41H1477C1479.2 41 1481 39.2 1481 37V30M1538 42H1530C1527.78 42 1526 40.2 1526 38V10C1526 7.78 1527.78 6 1530 6H1554C1556.2 6 1558 7.78 1558 10V18M1534 16H1546M1534 24H1538M1546 42H1562M1548 42V32.84M1554 42V32.84M1560 42V32.84M1546 32.84H1562V29.26L1554 25.98 1546 29.24V32.84zM1622.69 32C1618.39 32 1614.29 33.7 1611.27 36.72M1642 24C1642 14.04 1633.94 6 1624 6 1614.04 6 1606 14.04 1606 24 1606 33.94 1614.04 42 1624 42M1630 32.9V34.58H1630C1629.98 37.7 1631.92 40.5 1634.86 41.6L1635.72 41.92C1635.88 41.98 1636.06 41.98 1636.24 41.92L1637.1 41.58C1640.02 40.48 1641.96 37.68 1641.96 34.54V32.84C1641.96 32.18 1641.52 31.6 1640.9 31.4L1636.4 29.98C1636.1 29.88 1635.78 29.88 1635.5 29.98L1631 31.38C1630.36 31.56 1629.94 32.14 1629.94 32.8L1630 32.9zM1630 19.5V20.5C1630 23.8 1627.3 26.5 1624 26.5 1620.68 26.5 1618 23.8 1618 20.5V19.5C1618 16.18 1620.68 13.5 1624 13.5 1627.3 13.5 1630 16.18 1630 19.5zM1717 20V19C1717 11.82 1711.18 6 1704 6 1696.82 6 1691 11.82 1691 19V20M1707.75 40C1707.75 38.62 1706.63 37.5 1705.25 37.5H1702.75C1701.37 37.5 1700.25 38.62 1700.25 40 1700.25 41.38 1701.37 42.5 1702.75 42.5H1705.25C1706.63 42.5 1707.75 41.38 1707.75 40zM1707.75 40H1711.99C1714.19 40 1715.99 38.2 1715.99 36V34M1718 34H1716C1714.88 34 1714 33.1 1714 32V22C1714 20.88 1714.88 20 1716 20H1718C1720.2 20 1722 21.78 1722 24V30C1722 32.2 1720.2 34 1718 34zM1692 34H1690C1687.79 34 1686 32.2 1686 30V24C1686 21.78 1687.79 20 1690 20H1692C1693.1 20 1694 20.88 1694 22V32C1694 33.1 1693.1 34 1692 34zM1777 44V40M1791 44V40M1784 44V40M1793.52 44H1774.46C1772.24 44 1770.44 42.2 1770.44 40 1770.42 39.84 1770.44 39.7 1770.46 39.54L1771.16 33.098C1771.6 29.038 1775.02 25.978 1779.1 25.982H1788.78C1792.84 25.962 1796.28 29.042 1796.74 33.098L1797.44 39.54C1797.68 41.72 1796.1 43.7 1793.9 43.94 1793.74 43.94 1793.58 43.96 1793.44 43.96L1793.52 44zM1784 4C1785.64 4 1787 5.34 1787 7V19C1787 19.54 1786.54 20 1786 20H1782C1781.44 20 1781 19.54 1781 19V7C1781 5.34 1782.34 4 1784 4zM1788.5 26H1779.5C1778.38 26 1777.48 25.1 1777.48 24 1777.46 23.72 1777.52 23.46 1777.62 23.22L1778.44 21.22C1778.74 20.46 1779.46 19.98 1780.28 19.98H1787.6C1788.4 19.96 1789.12 20.46 1789.44 21.2L1790.26 23.2C1790.68 24.2 1790.2 25.38 1789.18 25.8 1788.92 25.9 1788.66 25.94 1788.4 25.94L1788.5 26zM1872 6H1878.56C1880.44 6 1881.98 7.52 1881.98 9.42V15.98M1856 42H1849.42C1847.52 42 1845.98 40.46 1845.98 38.56V31.98M1873.9 32.84V29.16M1873.9 36.88C1873.8 36.88 1873.7 36.96 1873.72 37.06 1873.72 37.16 1873.8 37.24 1873.9 37.24 1874 37.24 1874.08 37.14 1874.08 37.04 1874.08 36.94 1873.98 36.84 1873.88 36.84M1877.39 25.2L1883.47 36.028C1884.95 38.688 1883.03 41.988 1879.97 41.988H1867.77C1864.71 41.988 1862.77 38.688 1864.27 36.008L1870.35 25.168C1871.87 22.45 1875.79 22.45 1877.31 25.168L1877.39 25.2zM1850.32 10.07C1847.88 10.39 1846 12.47 1846 15 1846 17.76 1848.24 20 1851 20H1862C1864.2 20 1866 18.2 1866 16 1866 13.78 1864.2 12 1862 12 1862 8.686 1859.31 6 1856 6 1853.36 6 1851.12 7.7 1850.32 10.07H1850.32zM1962 18V14C1962 11.78 1960.2 9.99996 1958 9.99996H1941.5M1944.38 15.78L1941.58 10.2C1940.9 8.83996 1939.5 7.97996 1938 7.97996H1929.96V7.95996C1927.74 7.95996 1925.96 9.73996 1925.96 11.96V35.96C1925.96 38.16 1927.74 39.96 1929.96 39.96H1957.96C1960.16 39.96 1961.96 38.16 1961.96 35.96V17.96H1947.92C1946.4 17.96 1945 17.1 1944.34 15.74L1944.38 15.78zM2022.52 19.2041L2007.28 34.4241C2005.54 36.1441 2005.54 38.9441 2007.26 40.6841H2007.26C2008.98 42.4041 2011.78 42.4041 2013.52 40.6841L2028.74 25.4441V25.4421C2033.92 27.2021 2039.58 24.4421 2041.36 19.2421 2041.38 19.1621 2041.4 19.0821 2041.42 19.0021V19.0001C2041.84 17.7001 2041.98 16.3401 2041.86 15.0001 2041.7 13.9001 2040.7 13.1401 2039.6 13.2801 2039.16 13.3201 2038.74 13.5401 2038.44 13.8401L2034.82 17.4401C2034.42 17.8201 2033.78 17.8201 2033.4 17.4401 2033.38 17.4201 2033.38 17.4201 2033.38 17.4201L2030.32 14.3601C2029.92 13.9601 2029.92 13.3201 2030.68 12.5601L2033.9 9.32009C2034.68 8.54009 2034.68 7.28009 2033.92 6.48009 2033.6 6.16009 2033.2 5.96009 2032.76 5.90009 2031.4 5.76009 2030.04 5.90009 2028.76 6.34009V6.32009C2023.5 7.96009 2020.6 13.5401 2022.24 18.7801 2022.26 18.8401 2022.28 18.9201 2022.3 19.0001L2022.52 19.2041zM2086 18H2122M2102 11.99H2101.98V11.97L2101.96 11.95M2097 11.99H2096.98V11.97L2096.96 11.95M2092 11.99H2091.98V11.97L2091.96 11.95M2122 21V12C2122 8.68 2119.3 6 2116 6H2092C2088.68 6 2086 8.68 2086 12V36.0006C2086 39.3143 2088.69 42 2092 42H2102M2122 37.7319C2121.7 38.6319 2121.18 39.4519 2120.52 40.1319 2118.02 42.6119 2113.96 42.6119 2111.46 40.1119 2111.02 39.6719 2110.64 39.1719 2110.36 38.6319M2121.62 32.52C2119.92 29.4 2116.04 28.26 2112.92 29.94 2112.38 30.22 2111.88 30.6 2111.44 31.02 2110.76 31.68 2110.26 32.5 2109.96 33.42M2119.17 32.5382H2121.99V29.6982M2112.84 38.6602H2110V41.4802M2178 28L2174 24 2178 20M2190 20L2194 24 2190 28M2185.56 18L2182.22 30M2184 6C2181.64 6 2179.3 6.46558 2177.11 7.37017 2174.93 8.27475 2172.94 9.60062 2171.27 11.2721 2169.6 12.9435 2168.27 14.9278 2167.37 17.1117 2166.47 19.2956 2166 21.6362 2166 24 2166 26.3638 2166.47 28.7044 2167.37 30.8883 2168.27 33.0722 2169.6 35.0565 2171.27 36.7279 2172.94 38.3994 2174.93 39.7252 2177.11 40.6298 2179.3 41.5344 2181.64 42 2184 42 2186.36 42 2188.7 41.5344 2190.89 40.6298 2193.07 39.7252 2195.06 38.3994 2196.73 36.7279 2198.4 35.0565 2199.73 33.0722 2200.63 30.8883 2201.53 28.7044 2202 26.3638 2202 24 2202 21.6362 2201.53 19.2956 2200.63 17.1117 2199.73 14.9278 2198.4 12.9435 2196.73 11.2721 2195.06 9.60062 2193.07 8.27475 2190.89 7.37017 2188.7 6.46558 2186.36 6 2184 6zM2250.76 36.24L2247 40M2246 22V13C2246 10.22 2248.22 8 2251 8H2275C2277.76 8 2280 10.22 2280 13V19M2280 19H2277C2274.22 19 2272 21.22 2272 24 2272 26.76 2274.22 29 2277 29H2280M2280 19C2281.1 19 2282 19.88 2282 21V27C2282 28.1 2281.1 29 2280 29M2280 29V35C2280 37.76 2277.76 40 2275 40H2266M2255 26C2253.41 26 2251.88 26.6321 2250.76 27.7574 2249.63 28.8826 2249 30.4087 2249 32 2249 33.5913 2249.63 35.1174 2250.76 36.2426 2251.88 37.3679 2253.41 38 2255 38 2256.59 38 2258.12 37.3679 2259.24 36.2426 2260.37 35.1174 2261 33.5913 2261 32 2261 30.4087 2260.37 28.8826 2259.24 27.7574 2258.12 26.6321 2256.59 26 2255 26zM2349.6 36H2355.6M2349.6 30H2355.6M2326 24H2362M2350 15H2356M2332 15H2338M2335 18V12M2332.88 30.88L2337.12 35.12M2332.88 35.12L2337.12 30.88M2344 5.99996V42M2362 37.304C2362 39.884 2359.88 41.984 2357.3 41.984H2330.68C2328.08 41.984 2325.98 39.864 2325.98 37.284V10.66C2325.98 8.05996 2328.08 5.95996 2330.68 5.95996H2357.28C2359.86 5.95996 2361.96 8.05996 2361.96 10.656V37.256L2362 37.304zM2423.58 18.4L2430.4 11.56M2423.14 11.3C2423.14 11.2 2423.2 11.118 2423.3 11.118 2423.38 11.118 2423.46 11.178 2423.46 11.278 2423.44 11.358 2423.38 11.438 2423.28 11.438 2423.18 11.418 2423.1 11.358 2423.1 11.258V11.238M2416 14V10.6C2416 6.94 2418.94 4 2422.6 4H2431.4C2435.04 4 2438 6.94 2438 10.6V19.4C2438 23.04 2435.04 26 2431.4 26H2430M2430.85 18.68C2430.83 18.76 2430.77 18.84 2430.67 18.84 2430.57 18.82 2430.49 18.76 2430.49 18.66 2430.49 18.56 2430.55 18.48 2430.65 18.48 2430.73 18.48 2430.81 18.54 2430.81 18.64M2406 25.2V38.8C2406 40.56 2409.58 42 2414 42 2418.4 42 2421.98 40.56 2422 38.8V25.2M2406 32C2406 33.76 2409.56 35.2 2413.98 35.2 2418.38 35.2 2421.98 33.76 2421.98 32M2421.98 25.2C2421.98 26.96 2418.38 28.4 2413.98 28.4 2409.56 28.4 2405.98 26.96 2405.98 25.2 2405.98 23.42 2409.56 22 2413.98 22 2418.4 22 2421.96 23.42 2421.98 25.2zM5.99998 96C5.99998 98.2 10.46 100 16 100M5.99998 96V112C5.99998 114.2 10.478 116 16 116M5.99998 96C5.99998 94.9391 7.05355 93.9217 8.92891 93.1716 10.8043 92.4214 13.3478 92 16 92 18.6521 92 21.1957 92.4214 23.071 93.1716 24.9464 93.9217 26 94.9391 26 96M5.99998 96C5.99998 97.0609 7.05355 98.0783 8.92891 98.8284 10.8043 99.5786 13.3478 100 16 100M16 100C18.6521 100 21.1957 99.5786 23.071 98.8284 24.9464 98.0783 26 97.0609 26 96M42 110C42 112.2 37.52 114 32 114 26.46 114 22 112.2 22 110V118C22 120.2 26.46 122 32 122M41.998 110V118C41.998 120.2 37.518 122 31.998 122M26 96V101M35 93L41 87M41 93L35 87M5.99998 104C5.99998 106.2 10.46 107.98 15.998 107.98M15.98 108C10.44 108 5.97998 106.2 5.97998 104M41.994 110C41.994 107.78 37.514 106 31.994 106 26.474 106 21.994 107.78 21.994 110 21.994 112.2 26.454 114 31.994 114 37.514 114 41.994 112.2 41.994 110z"
    stroke="#fff"
    stroke-width="2.5"
    stroke-linecap="round"
    stroke-linejoin="round"
  />
  <path
    clip-rule="evenodd"
    d="M95.5 99.5H90C87.79 99.5 86 97.7 86 95.5V90C86 87.79 87.79 86 90 86H95.5C97.7 86 99.5 87.79 99.5 90V95.5C99.5 97.7 97.7 99.5 95.5 99.5zM118 99.5H112.5C110.28 99.5 108.5 97.7 108.5 95.5V90C108.5 87.79 110.28 86 112.5 86H118C120.2 86 122 87.79 122 90V95.5C122 97.7 120.2 99.5 118 99.5zM95.5 122H90C87.79 122 86 120.2 86 118V112.5C86 110.28 87.79 108.5 90 108.5H95.5C97.7 108.5 99.5 110.28 99.5 112.5V118C99.5 120.2 97.7 122 95.5 122zM118 122H112.5C110.28 122 108.5 120.2 108.5 118V112.5C108.5 110.28 110.28 108.5 112.5 108.5H118C120.2 108.5 122 110.28 122 112.5V118C122 120.2 120.2 122 118 122z"
    stroke="#fff"
    stroke-width="2.5"
    stroke-linecap="round"
    stroke-linejoin="round"
  />
  <path
    d="M188 114L189 122M180 114L179 122M176.28 122H191.72M180.12 99.96V94.54H185.582C187.062 94.54 188.282 95.74 188.282 97.248 188.282 98.728 187.062 99.948 185.562 99.948M183.544 93V94.54M183.544 107V105.25M196.858 114H171.14C168.3 114 165.98 111.68 165.98 108.84V91.12C165.98 88.28 168.28 85.96 171.12 85.96H196.834C199.674 85.96 201.974 88.26 201.974 91.1V108.8C201.974 111.64 199.654 113.94 196.814 113.94L196.858 114zM186.25 105.22H180.11V99.96H186.23C187.67 99.96 188.85 101.12 188.85 102.58 188.85 104.02 187.67 105.2 186.21 105.2L186.25 105.22zM246 120H262M246 112H258M246 104H262M246 96H258M246 88H262M276 120V88M276 120L281 115M276 120L271 115M276 88L271 93M276 88L281 93M325.993 93.9959H358.006C360.216 93.9959 362.008 95.7875 362.008 97.9976V117.005C362.008 119.768 359.768 122.008 357.006 122.008H346.001M354.004 93.9959V91.9951C354.004 89.785 352.213 87.9934 350.003 87.9934H330.995C328.232 87.9934 325.993 90.2329 325.993 92.9955V110.003M339.999 118.006H325.993M339.999 118.006L335.997 122.008M339.999 118.006L335.997 114.004M354.003 108.002H352.003M415 106.52V112M427 103.02V112M421 96V112M433 99.5V112M416 86H432C437.523 86 442 90.4772 442 96V112C442 117.523 437.523 122 432 122H416C410.477 122 406 117.523 406 112V96C406 90.4772 410.477 86 416 86zM490 111.76L500.14 101.618C500.922 100.818 502.18 100.818 502.96 101.618L507.242 105.898C508.024 106.678 509.282 106.678 510.062 105.898L521.982 93.9779M516.66 93.9999H521.98V99.3199M522 121.858H483.84V86.4419M581 92C572.7 92 566 98.7 566 107 566 115.28 572.7 122 581 122 589.28 122 596 115.28 596 107H581V92z"
    stroke="#fff"
    stroke-width="2.5"
    stroke-linecap="round"
    stroke-linejoin="round"
  />
  <path
    d="M602 100C602 92.26 595.72 86 588 86V100H602zM654 115V105M660.66 115V93M667.32 115V102.8M674 115V95M650 86H678C680.2 86 682 87.79 682 90V118C682 120.2 680.2 122 678 122H650C647.79 122 646 120.2 646 118V90C646 87.78 647.78 86 650 86zM756 98V100M744 102V108M738 102V112M732 108V110M750 96V108M752 122H736C730.477 122 726 117.523 726 112V96C726 90.4772 730.477 86 736 86H752C757.523 86 762 90.4772 762 96V112C762 117.523 757.523 122 752 122zM823.5 93.9999V96.4999M823.5 114V111.5M828.46 99.9999C828.32 98.0399 826.72 96.4999 824.736 96.4999H821.996C820.056 96.4999 818.476 98.0599 818.476 99.9999 818.476 101.6 819.572 103 821.116 103.4L825.802 104.56C827.362 104.94 828.442 106.34 828.442 107.96 828.442 109.9 826.862 111.46 824.922 111.46H822.182C820.182 111.46 818.582 109.9 818.442 107.94M811.74 91.7399C814.878 88.6019 819.214 86.6599 824 86.6599 833.56 86.6599 841.344 94.4199 841.344 103.996 841.344 105.316 841.164 106.616 840.884 107.876M838.2 105.204L841.32 108.324 844.44 105.184M836.26 116.256C833.12 119.376 828.78 121.316 823.98 121.316 814.4 121.316 806.636 113.536 806.636 103.98 806.636 102.64 806.796 101.34 807.076 100.08M809.786 102.796L806.646 99.6559 803.506 102.776M895 88V94M921 120L913 102 905 120M906.78 116H919.22M887 110C895.19 109.34 902.352 102.18 903.002 94H887.002M903 110C897.88 109.58 893.404 105.1 893 100M984 106C980.686 106 978 103.314 978 100 978 96.686 980.686 94 984 94 987.314 94 990 96.686 990 100 990 103.314 987.314 106 984 106z"
    stroke="#fff"
    stroke-width="2.5"
    stroke-linecap="round"
    stroke-linejoin="round"
  />
  <path
    d="M984 122C984 122 970 110.5 970 100 970 92.26 976.26 86 984 86 991.72 86 998 92.26 998 100 998 110.5 984 122 984 122zM1064 86C1061.64 86 1059.3 86.4656 1057.11 87.3702 1054.93 88.2748 1052.94 89.6006 1051.27 91.2721 1049.6 92.9435 1048.27 94.9278 1047.37 97.1117 1046.47 99.2956 1046 101.636 1046 104 1046 106.364 1046.47 108.704 1047.37 110.888 1048.27 113.072 1049.6 115.056 1051.27 116.728 1052.94 118.399 1054.93 119.725 1057.11 120.63 1059.3 121.534 1061.64 122 1064 122 1066.36 122 1068.7 121.534 1070.89 120.63 1073.07 119.725 1075.06 118.399 1076.73 116.728 1078.4 115.056 1079.73 113.072 1080.63 110.888 1081.53 108.704 1082 106.364 1082 104 1082 101.636 1081.53 99.2956 1080.63 97.1117 1079.73 94.9278 1078.4 92.9435 1076.73 91.2721 1075.06 89.6006 1073.07 88.2748 1070.89 87.3702 1068.7 86.4656 1066.36 86 1064 86z"
    stroke="#fff"
    stroke-width="2.5"
    stroke-linecap="round"
    stroke-linejoin="round"
  />
  <path
    d="M1064 115V93C1070.06 93 1075 97.92 1075 104 1075 110.06 1070.06 115 1064 115zM1144.78 93.9999V104.78H1135.98M1161.88 102C1160.76 92.1199 1151.86 84.9999 1141.98 86.0999 1132.1 87.1999 1124.98 96.0999 1126.08 105.98 1127 114.32 1133.6 120.92 1141.96 121.86M1154.5 116H1161.5M1154.5 116C1153.12 116 1152 117.119 1152 118.5V121.5C1152 122.881 1153.12 124 1154.5 124H1161.5C1162.88 124 1164 122.881 1164 121.5V118.5C1164 117.119 1162.88 116 1161.5 116M1154.5 116V113.5C1154.5 111.56 1156.06 110 1158 110 1159.92 110 1161.5 111.56 1161.5 113.5V116M1219 86V90C1219 90.54 1219.46 91 1220 91H1228C1228.56 91 1229 90.54 1229 90V86M1212 114V118C1212 120.2 1213.8 122 1216 122H1232C1234.22 122 1236 120.2 1236 118V90C1236 87.78 1234.22 86 1232 86H1216C1213.8 86 1212 87.78 1212 90V94M1204 104H1214M1214 104L1210 100M1214 104L1210 108M1306 122H1314C1317.3 122 1320 119.3 1320 116V97M1320 97C1319.98 95.4 1319.36 93.88 1318.24 92.74L1313.22 87.72C1312.08 86.58 1310.56 85.96 1308.96 85.96H1293.96C1290.64 85.96 1287.96 88.64 1287.96 91.96V105.96M1320 97H1313C1310.78 97 1309 95.2 1309 93V86M1294 112V122M1294 122L1298 118M1294 122L1290 118M1380 90L1376 88V120L1380 118M1368 90L1364 88V120L1368 118M1404 114L1388 120V88L1404 94V114zM1459.36 89.884C1464.52 84.704 1472.94 84.704 1478.12 89.884 1483.3 95.044 1483.3 103.46 1478.12 108.64M1455.4 108.7V103.1H1461.04C1462.58 103.1 1463.82 104.34 1463.82 105.88 1463.82 107.42 1462.56 108.66 1461.02 108.66M1458.94 101.502V103.102M1458.94 115.96V114.14M1472.53 108.736C1472.53 116.056 1466.59 122 1459.26 122 1451.92 122 1446 116.06 1446 108.736 1446 101.396 1451.92 95.472 1459.26 95.472 1466.58 95.47 1472.53 101.392 1472.53 108.736zM1461.74 114.134H1455.4V108.694H1461.73C1463.21 108.694 1464.43 109.894 1464.43 111.394 1464.43 112.874 1463.21 114.094 1461.71 114.094L1461.74 114.134zM1560.42 106.42C1561.4 104.48 1561.98 102.3 1561.98 99.98 1561.98 92.24 1555.7 85.98 1547.98 85.98 1545.66 85.98 1543.46 86.54 1541.54 87.552M1540 107.48V102.38M1540 113.1C1539.86 113.1 1539.74 113.2 1539.74 113.34 1539.74 113.46 1539.84 113.58 1539.98 113.58 1540.1 113.58 1540.22 113.46 1540.22 113.32 1540.22 113.18 1540.1 113.06 1539.96 113.06M1540 122C1532.27 122 1526 115.72 1526 108 1526 100.26 1532.27 94 1540 94 1547.73 94 1554 100.27 1554 108 1554 115.72 1547.72 122 1540 122zM1624 123C1618.96 123 1614.13 120.998 1610.56 117.435 1607 113.872 1605 109.039 1605 104 1605 98.9609 1607 94.1282 1610.56 90.565 1614.13 87.0018 1618.96 85 1624 85 1629.04 85 1633.87 87.0018 1637.44 90.565 1641 94.1282 1643 98.9609 1643 104M1620.87 100.797C1621.28 97.7269 1624.11 95.6001 1627.18 96.0159 1630.24 96.4316 1632.36 99.2621 1631.95 102.332 1631.6 104.795 1629.65 106.746 1627.17 107.098M1637.76 116.802C1637.86 116.902 1637.86 117.082 1637.76 117.202 1637.64 117.302 1637.46 117.302 1637.34 117.202 1637.22 117.082 1637.22 116.902 1637.34 116.782 1637.44 116.662 1637.62 116.662 1637.74 116.782M1621.6 100.797C1620.12 100.797 1618.69 101.387 1617.64 102.437 1616.59 103.486 1616 104.91 1616 106.394 1616 107.879 1616.59 109.302 1617.64 110.352 1618.69 111.401 1620.12 111.991 1621.6 111.991 1623.09 111.991 1624.51 111.401 1625.56 110.352 1626.61 109.302 1627.2 107.879 1627.2 106.394 1627.2 104.91 1626.61 103.486 1625.56 102.437 1624.51 101.387 1623.09 100.797 1621.6 100.797zM1630.52 118.38C1629.96 117.54 1629.96 116.44 1630.52 115.62 1632.2 113.04 1634.88 110.98 1637.55 110.98 1640.21 110.98 1642.87 113.02 1644.57 115.6 1645.11 116.42 1645.11 117.52 1644.57 118.36 1642.87 120.924 1640.19 122.98 1637.53 122.98 1634.85 122.98 1632.19 120.92 1630.5 118.36L1630.52 118.38zM1696 88L1698.6 84.75C1698.98 84.27 1699.54 84 1700.16 84H1707.82C1708.42 84 1709 84.26 1709.38 84.75L1711.96 88V90C1711.96 91.1 1711.06 92 1709.96 92H1697.96C1696.84 92 1695.96 91.1 1695.96 90V88H1696zM1696 88H1692C1689.78 88 1688 89.78 1688 92V118C1688 120.2 1689.78 122 1692 122H1704M1720 104V92C1720 89.78 1718.2 88 1716 88H1712M1716.76 115.802C1716.86 115.902 1716.86 116.082 1716.76 116.202 1716.64 116.302 1716.46 116.302 1716.34 116.202 1716.22 116.082 1716.22 115.902 1716.34 115.782 1716.44 115.662 1716.62 115.662 1716.74 115.782M1696 107H1706M1696 100H1712M1696 114H1700M1709.52 117.38C1708.96 116.54 1708.96 115.44 1709.52 114.62 1711.2 112.04 1713.88 109.98 1716.55 109.98 1719.21 109.98 1721.87 112.02 1723.57 114.6 1724.11 115.42 1724.11 116.52 1723.57 117.36 1721.87 119.924 1719.19 121.98 1716.53 121.98 1713.85 121.98 1711.19 119.92 1709.5 117.36L1709.52 117.38zM1765.99 106.001L1768.58 103.409C1769.49 102.505 1770.72 101.996 1771.99 101.996 1773.27 101.996 1774.5 102.505 1775.41 103.409L1784 112.003M1774 122.007L1786.6 109.412C1788.48 107.528 1791.54 107.528 1793.42 109.412L1801.3 117.293M1802.01 114.004C1802.01 118.424 1798.42 122.007 1794 122.007H1774C1769.58 122.007 1765.99 118.424 1765.99 114.004V93.9958C1765.99 89.5756 1769.58 85.9924 1774 85.9924H1794C1798.42 85.9924 1802.01 89.5756 1802.01 93.9958V114.004zM1882 106V114C1882 118.4 1878.4 122 1874 122H1854M1854 122C1849.58 122 1846 118.4 1846 114V94C1846 89.58 1849.58 86 1854 86H1862M1854 122L1866.58 109.4C1868.46 107.5 1871.5 107.5 1873.38 109.4L1881.24 117.26M1846 106L1848.58 103.4C1850.46 101.5 1853.5 101.5 1855.38 103.38L1863.96 111.96M1876.76 91.802C1876.86 91.902 1876.86 92.082 1876.76 92.202 1876.64 92.302 1876.46 92.302 1876.34 92.202 1876.22 92.082 1876.22 91.902 1876.34 91.782 1876.44 91.662 1876.62 91.662 1876.74 91.782M1869.52 93.38C1868.96 92.54 1868.96 91.44 1869.52 90.62 1871.2 88.04 1873.88 85.98 1876.55 85.98 1879.21 85.98 1881.87 88.02 1883.57 90.6 1884.11 91.42 1884.11 92.52 1883.57 93.36 1881.87 95.924 1879.19 97.98 1876.53 97.98 1873.85 97.98 1871.19 95.92 1869.5 93.36L1869.52 93.38zM1944 96V112M1952 104H1936M1944 122C1934.04 122 1926 113.942 1926 104 1926 94.04 1934.06 86 1944 86 1953.94 86 1962 94.058 1962 104 1962 113.942 1953.94 122 1944 122zM2010 104H2038M2024 118V90M2112 104H2096M2104 122C2094.04 122 2086 113.942 2086 104 2086 94.04 2094.06 86 2104 86 2113.94 86 2122 94.058 2122 104 2122 113.942 2113.94 122 2104 122zM2170 104H2198M2254.8 114H2253.98C2248.44 114 2243.98 109.52 2243.98 104H2243.98C2243.98 99 2247.68 94.78 2252.62 94.12V94.1C2254.26 89.22 2258.82 85.96 2263.96 85.96 2270.58 85.96 2275.96 91.32 2275.96 97.96 2280.36 97.96 2283.96 101.54 2283.96 105.96 2283.96 110.36 2280.36 113.96 2275.96 113.96H2273.14M2268 116L2264 112M2264 112L2260 116M2264 112V122M2344 112V122M2344 122L2340 118M2344 122L2348 118M2334.8 114H2333.98C2328.44 114 2323.98 109.52 2323.98 104H2323.98C2323.98 99 2327.68 94.78 2332.62 94.12V94.1C2334.26 89.22 2338.82 85.96 2343.96 85.96 2350.58 85.96 2355.96 91.32 2355.96 97.96 2360.36 97.96 2363.96 101.54 2363.96 105.96 2363.96 110.36 2360.36 113.96 2355.96 113.96H2353.14M2414 98L2417 95 2414 92M2412 114V110M2439 122H2410C2407.78 122 2406 120.2 2406 118V116C2406 114.88 2406.88 114 2408 114H2434C2435.1 114 2436 114.88 2436 116V119C2436 120.64 2437.34 122 2439 122zM2439 122C2440.64 122 2442 120.64 2442 119V90C2442 87.78 2440.2 86 2438 86H2430M2411 86H2419C2421.76 86 2424 88.2386 2424 91V99C2424 101.761 2421.76 104 2419 104H2411C2408.24 104 2406 101.761 2406 99V91C2406 88.2386 2408.24 86 2411 86zM24 166V202M28.336 168.842L23.996 173.162 19.656 168.822M40 174.76L8 193.24M39.28 180.176L33.34 178.576 34.92 172.636M8.706 187.82L14.626 189.4 13.026 195.32M8 174.76L40 193.24M8.706 180.176L14.626 178.576 13.026 172.636M39.28 187.82L33.34 189.4 34.92 195.32M19.664 199.14L23.984 194.8 28.304 199.12M122 176V170C122 167.79 120.2 166 118 166H112M96 166H90C87.79 166 86 167.79 86 170V176M86 192V198C86 200.2 87.79 202 90 202H96M112 202H118C120.2 202 122 200.2 122 198V192M86 184H122M185 185H195M185 190H190M185 195H192M190 172V170C190 167.8 188.2 166 186 166H170C167.78 166 166 167.8 166 170V186C166 188.22 167.78 190 170 190H172M178 182V198C178 200.209 179.791 202 182 202H198C200.209 202 202 200.209 202 198V182C202 179.791 200.209 178 198 178H182C179.791 178 178 179.791 178 182zM270 172V170C270 167.8 268.2 166 266 166H250C247.78 166 246 167.8 246 170V186C246 188.22 247.78 190 250 190H252M258 182V198C258 200.209 259.791 202 262 202H278C280.209 202 282 200.209 282 198V182C282 179.791 280.209 178 278 178H262C259.791 178 258 179.791 258 182zM334 184H354M334 176H354M334 192H344M334 202H354C358.418 202 362 198.418 362 194V174C362 169.582 358.418 166 354 166H334C329.582 166 326 169.582 326 174V194C326 198.418 329.582 202 334 202zM430 172V170C430 167.8 428.2 166 426 166H410C407.78 166 406 167.8 406 170V186C406 188.22 407.78 190 410 190H412M430 185V195M425 190H435M418 182V198C418 200.209 419.791 202 422 202H438C440.209 202 442 200.209 442 198V182C442 179.791 440.209 178 438 178H422C419.791 178 418 179.791 418 182zM510.5 180.25L503 187.75 498.5 183.25M520 182.364C520 191.446 513.16 199.938 504 202 494.826 199.92 488 191.44 488 182.364V175.23C488 173.59 488.98 172.13 490.48 171.51L500.48 167.41C502.72 166.47 505.256 166.47 507.5 167.41L517.5 171.49C519 172.09 519.98 173.55 519.98 175.19V182.324L520 182.364zM587.054 182.25V179.55C587.054 177.864 585.674 176.49 583.994 176.49 582.308 176.49 580.934 177.85 580.934 179.53V182.21M587.5 182.24H580.5C579.38 182.24 578.5 183.12 578.5 184.24V188.48C578.5 189.58 579.38 190.48 580.5 190.48H587.5C588.6 190.48 589.5 189.58 589.5 188.48V184.22C589.5 183.1 588.6 182.22 587.5 182.22V182.24zM600 182.48C600 191.216 593.686 199.4 585.04 201.84 584.36 202.02 583.636 202.02 582.96 201.84 574.3 199.38 568 191.2 568 182.46V174.4C568 172.76 568.98 171.3 570.48 170.698L580.2 166.718C582.62 165.718 585.348 165.718 587.76 166.718L597.48 170.698C598.98 171.298 599.96 172.758 599.96 174.4V182.456L600 182.48zM664.354 182.646C664.534 182.826 664.534 183.146 664.354 183.346 664.154 183.526 663.834 183.526 663.634 183.346 663.434 183.146 663.434 182.826 663.634 182.626 663.814 182.426 664.134 182.426 664.334 182.626M672.34 182.646C672.52 182.826 672.52 183.146 672.34 183.346 672.14 183.526 671.82 183.526 671.62 183.346 671.42 183.146 671.42 182.826 671.62 182.626 671.8 182.426 672.12 182.426 672.32 182.626M656.354 182.646C656.534 182.826 656.534 183.146 656.354 183.346 656.154 183.526 655.834 183.526 655.634 183.346 655.434 183.146 655.434 182.826 655.634 182.626 655.814 182.426 656.134 182.426 656.334 182.626M680 182.364C680 191.446 673.16 199.938 664 202 654.826 199.92 648 191.44 648 182.364V174.464C648 172.824 648.98 171.364 650.3 170.824L660.3 166.732C662.72 165.732 665.24 165.732 667.5 166.652L677.5 170.732C679 171.332 679.98 172.792 679.98 174.434V182.314L680 182.364zM754.98 184C754.98 184.56 755.42 185 755.98 185 756.52 185 756.98 184.56 756.98 184 756.98 183.46 756.52 183 755.98 183 755.42 183 754.98 183.46 754.98 184.02M742.98 184C742.98 184.56 743.42 185 743.98 185 744.52 185 744.98 184.56 744.98 184 744.98 183.46 744.52 183 743.98 183 743.42 183 742.98 183.46 742.98 184.02M730.98 184C730.98 184.56 731.42 185 731.98 185 732.52 185 732.98 184.56 732.98 184 732.98 183.46 732.52 183 731.98 183 731.42 183 730.98 183.46 730.98 184.02M834 202H824C820.44 202 816.96 200.944 814 198.966 811.04 196.989 808.733 194.177 807.37 190.888 806.008 187.599 805.651 183.98 806.346 180.488 807.04 176.997 808.755 173.789 811.272 171.272 813.789 168.755 816.997 167.04 820.488 166.346 823.98 165.651 827.599 166.008 830.888 167.37 834.177 168.733 836.989 171.04 838.966 174 840.944 176.96 842 180.44 842 184V187C842 188.326 841.473 189.598 840.536 190.536 839.598 191.473 838.326 192 837 192 835.674 192 834.402 191.473 833.464 190.536 832.527 189.598 832 188.326 832 187V184M832 184C832 181.878 831.157 179.843 829.657 178.343 828.157 176.843 826.122 176 824 176 822.418 176 820.871 176.469 819.555 177.348 818.24 178.227 817.214 179.477 816.609 180.939 816.003 182.4 815.845 184.009 816.154 185.561 816.462 187.113 817.224 188.538 818.343 189.657 819.462 190.776 820.887 191.538 822.439 191.846 823.991 192.155 825.6 191.997 827.061 191.391 828.523 190.786 829.773 189.76 830.652 188.445 831.531 187.129 832 185.582 832 184zM908.252 194.524L905.338 197.438C904.34 198.436 903.156 199.229 901.852 199.769 900.547 200.309 899.15 200.588 897.738 200.588 896.327 200.588 894.929 200.309 893.625 199.769 892.321 199.229 891.136 198.436 890.138 197.438 889.14 196.44 888.348 195.255 887.808 193.951 887.267 192.647 886.989 191.249 886.989 189.838 886.989 188.426 887.267 187.029 887.808 185.725 888.348 184.421 889.14 183.236 890.138 182.238L893.06 179.332M897.79 189.794L910.21 177.374M899.748 172.644L902.662 169.73C903.66 168.731 904.844 167.938 906.148 167.398 907.452 166.857 908.85 166.579 910.262 166.579 911.674 166.579 913.072 166.857 914.376 167.398 915.68 167.938 916.865 168.731 917.862 169.73 918.861 170.728 919.653 171.913 920.193 173.217 920.734 174.521 921.012 175.918 921.012 177.33 921.012 178.742 920.734 180.139 920.193 181.443 919.653 182.747 918.861 183.932 917.862 184.93L914.94 187.836M997 173V198C997 199.061 996.579 200.078 995.828 200.828 995.078 201.579 994.061 202 993 202H975C973.939 202 972.922 201.579 972.172 200.828 971.421 200.078 971 199.061 971 198V173M1000 173H968M988 194V182M980 194V182M977 173V169C977 168.204 977.316 167.441 977.879 166.879 978.441 166.316 979.204 166 980 166H988C988.796 166 989.559 166.316 990.121 166.879 990.684 167.441 991 168.204 991 169V172M1056.89 184.678L1061.22 189.012 1061.19 188.984 1070.97 179.206M1082 184C1082 193.941 1073.94 202 1064 202 1054.06 202 1046 193.941 1046 184 1046 174.059 1054.06 166 1064 166 1073.94 166 1082 174.059 1082 184zM1151.11 182.222L1144 189.334M1144 189.334L1136.89 182.222M1144 189.334V168M1160 192.888C1160 194.774 1159.25 196.583 1157.92 197.917 1156.58 199.251 1154.77 200 1152.89 200H1135.11C1133.23 200 1131.42 199.251 1130.08 197.917 1128.75 196.583 1128 194.774 1128 192.888M1212 194L1234 175 1222 166V202L1234 193 1212 174M1290 170L1318 198M1318 170L1290 198M1400 173L1378 195 1368 185M1473.19 186.25C1472.77 186.25 1472.43 186.57 1472.43 186.99 1472.43 187.39 1472.75 187.74 1473.18 187.73 1473.58 187.73 1473.93 187.39 1473.93 186.98 1473.93 186.56 1473.59 186.23 1473.17 186.23M1446 170V197C1446 199.2 1447.79 201 1450 201H1478C1480.2 201 1482 199.2 1482 197V177C1482 174.78 1480.2 173 1478 173H1449C1447.34 173 1446 171.64 1446 170zM1446 170C1446 168.34 1447.34 167 1449 167H1474M1544 202V176M1551.39 173.22C1549.23 175.46 1545.83 175.996 1544.19 175.996M1544.18 176C1544.18 176 1543.18 169.76 1545.62 167.24M1551.38 173.22C1552.96 171.56 1552.96 168.88 1551.38 167.22 1549.78 165.56 1547.2 165.56 1545.63 167.22M1543.78 175.996C1542.14 175.996 1538.74 175.46 1536.6 173.22 1535 171.56 1535 168.88 1536.6 167.22 1538.18 165.56 1540.76 165.56 1542.35 167.22M1543.8 176C1543.8 176 1544.78 169.76 1542.34 167.24M1558 184V200C1558 201.1 1557.1 202 1556 202H1532C1530.88 202 1530 201.1 1530 200V184M1560 176H1528C1526.9 176 1526 176.88 1526 178V182C1526 183.1 1526.88 184 1528 184H1560C1561.1 184 1562 183.1 1562 182V178C1562 176.88 1561.1 176 1560 176zM1616 180V174C1616 169.58 1619.58 166 1624 166 1628.4 166 1632 169.58 1632 174V180M1634 202H1614C1611.78 202 1610 200.2 1610 198V184C1610 181.78 1611.78 180 1614 180H1634C1636.2 180 1638 181.78 1638 184V198C1638 200.2 1636.2 202 1634 202zM1712 202H1716C1719.3 202 1722 199.3 1722 196V192M1712 166H1716C1719.3 166 1722 168.68 1722 172V176M1686 192V196C1686 199.3 1688.68 202 1692 202H1696M1686 176V172C1686 168.68 1688.68 166 1692 166H1696M1707.1 187H1707.08L1707.06 186.98V186.96M1713.91 187H1713.89L1713.87 186.98V186.96M1707.1 194H1707.08L1707.06 193.98V193.96M1713.9 194H1713.88L1713.86 193.98V193.96M1710.51 190.5H1710.49L1710.47 190.48V190.46M1708 174H1713C1713.55 174 1714 174.448 1714 175V180C1714 180.552 1713.55 181 1713 181H1708C1707.45 181 1707 180.552 1707 180V175C1707 174.448 1707.45 174 1708 174zM1695 174H1700C1700.55 174 1701 174.448 1701 175V180C1701 180.552 1700.55 181 1700 181H1695C1694.45 181 1694 180.552 1694 180V175C1694 174.448 1694.45 174 1695 174zM1695 187H1700C1700.55 187 1701 187.448 1701 188V193C1701 193.552 1700.55 194 1700 194H1695C1694.45 194 1694 193.552 1694 193V188C1694 187.448 1694.45 187 1695 187zM1767.02 178H1800.98M1767.02 190H1800.98M1784 166.2C1792.67 166.2 1792.67 201.8 1784 201.8 1775.33 201.8 1775.33 166.2 1784 166.2zM1784 166C1793.96 166 1802 174.036 1802 184 1802 193.96 1793.96 202 1784 202 1774.04 202 1766 193.96 1766 184 1766 174.036 1774.04 166 1784 166zM1864 186.24V178.76M1863.98 192.25C1863.7 192.25 1863.48 192.47 1863.48 192.75 1863.48 193.01 1863.7 193.25 1863.98 193.25 1864.24 193.25 1864.48 193.01 1864.48 192.75 1864.48 192.47 1864.24 192.25 1863.96 192.25M1868.06 168.26L1883.36 195.068C1885.14 198.168 1882.88 202.062 1879.3 202.062H1848.66C1845.07 202.062 1842.82 198.184 1844.6 195.068L1859.9 168.26C1861.68 165.1 1866.22 165.1 1868.02 168.26H1868.06zM1945.92 166L1929.48 188H1943.98L1942.04 202 1958.46 180H1943.96L1945.92 166zM2029.66 178.34L2018.34 189.66M2029.66 189.66L2018.34 178.34M2024 202C2014.04 202 2006 193.942 2006 184 2006 174.04 2014.06 166 2024 166 2033.94 166 2042 174.058 2042 184 2042 193.942 2033.94 202 2024 202zM2114 195.833C2114 196.3 2114.37 196.667 2114.83 196.667 2115.28 196.667 2115.67 196.3 2115.67 195.833 2115.67 195.383 2115.28 195 2114.83 195 2114.37 195 2114 195.383 2114 195.85M2096.51 184L2087.71 175.192C2087.32 174.802 2087.32 174.169 2087.71 173.778L2094.78 166.707C2095.17 166.317 2095.8 166.317 2096.19 166.707L2113.49 184M2086.88 202H2116C2119.31 202 2122 199.314 2122 196 2122 192.686 2119.31 190 2116 190H2086.88C2086.39 190 2086 190.393 2086 190.878V201.122C2086 201.607 2086.39 202 2086.88 202z"
    stroke="#fff"
    stroke-width="2.5"
    stroke-linecap="round"
    stroke-linejoin="round"
  />
  <path
    d="M2196 174H2197.4C2197.62 174 2197.8 174.179 2197.8 174.4V179.6C2197.8 179.821 2197.62 180 2197.4 180H2196M2173 202H2192C2194.21 202 2196 200.209 2196 198V170C2196 167.791 2194.21 166 2192 166H2173C2172.45 166 2172 166.448 2172 167V201C2172 201.552 2172.45 202 2173 202Z"
    stroke="#fff"
    stroke-width="2.5"
  />
  <path
    d="M2268 194L2269 202M2260 194L2259 202M2254.4 202H2273.6M2282 187H2246M2278 194H2250C2247.79 194 2246 192.2 2246 190V170C2246 167.79 2247.79 166 2250 166H2278C2280.2 166 2282 167.79 2282 170V190C2282 192.2 2280.2 194 2278 194zM2339 166V169.6C2338.94 170.2 2339.38 170.72 2340 170.8H2348 2348C2348.6 170.72 2349.04 170.2 2349 169.6V166M2340 196H2348M2352 202H2336C2333.78 202 2332 200.2 2332 198V170C2332 167.78 2333.78 166 2336 166H2352C2354.2 166 2356 167.78 2356 170V198C2356 200.2 2354.2 202 2352 202zM2424 195.75C2423.86 195.75 2423.75 195.85 2423.74 196 2423.74 196.12 2423.84 196.25 2423.99 196.25 2424.11 196.25 2424.24 196.13 2424.24 196 2424.24 195.86 2424.12 195.75 2423.98 195.75M2438 197.5V170.5C2438 168 2435.98 166 2433.5 166H2414.5C2412 166 2410 168 2410 170.5V197.5C2410 199.98 2412 202 2414.5 202H2433.5C2435.98 202 2438 199.98 2438 197.5z"
    stroke="#fff"
    stroke-width="2.5"
    stroke-linecap="round"
    stroke-linejoin="round"
  />
  <path
    d="M11 264H37M11 274H37M11 254H37"
    stroke="#fff"
    stroke-width="3"
    stroke-linecap="round"
    stroke-linejoin="round"
  />
  <path
    d="M121.58 259.04C123.16 260.62 123.16 263.18 121.58 264.76 119.98 266.34 117.42 266.34 115.84 264.76 114.24 263.16 114.24 260.6 115.84 259.02 117.42 257.42 119.98 257.42 121.56 259.018M108.4 251.82C110.82 254.24 110.82 258.18 108.4 260.62 105.96 263.04 102.02 263.04 99.58 260.62 97.14 258.18 97.14 254.24 99.58 251.8 102 249.36 105.94 249.36 108.38 251.8M92.12 259.04C93.7 260.62 93.7 263.18 92.12 264.76 90.52 266.34 87.96 266.34 86.38 264.76 84.78 263.16 84.78 260.6 86.38 259.02 87.96 257.42 90.52 257.42 92.1 259.018M126 278V275.8C126 273.02 123.76 270.8 121 270.8H119.38M82 278V275.8C82 273.02 84.22 270.8 87 270.8H88.6M114.66 278V274.78C114.66 270.9 111.52 267.78 107.66 267.78H100.3C96.42 267.78 93.3 270.9 93.3 274.78V277.98M168 280C168 275 172 271 177 271H182.2M195 281V271M190 276H200M190 250.4C193.4 253.8 193.4 259.2 190 262.4 186.6 265.6 181.2 265.8 178 262.4 174.8 259 174.6 253.6 178 250.4 181.4 247.2 186.6 247.2 190 250.4z"
    stroke="#fff"
    stroke-width="2.5"
    stroke-linecap="round"
    stroke-linejoin="round"
  />
  <path
    d="M248 280C248 275.02 252.02 271 257 271H262.166M271.46 279.54L278.54 272.46M271.46 272.46L278.54 279.54M264 248C262.884 248 261.778 248.22 260.747 248.647C259.716 249.074 258.779 249.7 257.99 250.49C257.2 251.279 256.574 252.216 256.147 253.247C255.72 254.278 255.5 255.384 255.5 256.5C255.5 257.616 255.72 258.722 256.147 259.753C256.574 260.784 257.2 261.721 257.99 262.51C258.779 263.3 259.716 263.926 260.747 264.353C261.778 264.78 262.884 265 264 265C265.116 265 266.222 264.78 267.253 264.353C268.284 263.926 269.221 263.3 270.01 262.51C270.8 261.721 271.426 260.784 271.853 259.753C272.28 258.722 272.5 257.616 272.5 256.5C272.5 255.384 272.28 254.278 271.853 253.247C271.426 252.216 270.8 251.279 270.01 250.49C269.221 249.7 268.284 249.074 267.253 248.647C266.222 248.22 265.116 248 264 248Z"
    stroke="#fff"
    stroke-width="2.5"
    stroke-miterlimit="10"
    stroke-linecap="round"
    stroke-linejoin="round"
  />
  <path
    d="M334 256V248C334 246.896 334.88 246 336 246H352C353.1 246 354 246.88 354 248V256M334 274H330C327.79 274 326 272.2 326 270V260C326 257.78 327.79 256 330 256H358C360.2 256 362 257.78 362 260V270C362 272.2 360.2 274 358 274H354M334 262H336M334 267.6H354V280C354 281.1 353.1 282 352 282H336C334.88 282 334 281.1 334 280V267.6zM406 282C406 278.14 409.128 275 412.98 275H421C424.86 275 427.98 278.128 427.98 281.98M432 275.012H435C438.86 275.012 441.98 278.14 441.98 281.992M434.757 249H443.243M439 253.243V244.757M417 257.012C416.212 257.012 415.432 257.167 414.704 257.469 413.976 257.77 413.315 258.212 412.757 258.769 412.2 259.326 411.758 259.988 411.457 260.716 411.155 261.444 411 262.224 411 263.012 411 263.8 411.155 264.58 411.457 265.308 411.758 266.036 412.2 266.697 412.757 267.255 413.315 267.812 413.976 268.254 414.704 268.555 415.432 268.857 416.212 269.012 417 269.012 417.788 269.012 418.568 268.857 419.296 268.555 420.024 268.254 420.685 267.812 421.243 267.255 421.8 266.697 422.242 266.036 422.543 265.308 422.845 264.58 423 263.8 423 263.012 423 262.224 422.845 261.444 422.543 260.716 422.242 259.988 421.8 259.326 421.243 258.769 420.685 258.212 420.024 257.77 419.296 257.469 418.568 257.167 417.788 257.012 417 257.012zM432 261.012C430.939 261.012 429.922 261.433 429.172 262.184 428.421 262.934 428 263.951 428 265.012 428 266.073 428.421 267.09 429.172 267.84 429.922 268.591 430.939 269.012 432 269.012 433.061 269.012 434.078 268.591 434.828 267.84 435.579 267.09 436 266.073 436 265.012 436 263.951 435.579 262.934 434.828 262.184 434.078 261.433 433.061 261.012 432 261.012zM500.18 256.3C501.92 258.04 501.92 260.9 500.18 262.66 498.42 264.4 495.56 264.4 493.8 262.66 492.04 260.9 492.04 258.04 493.8 256.28 495.54 254.52 498.4 254.52 500.16 256.28M510 259H518M514.8 267H510M504.18 273C503.82 272.12 503.28 271.32 502.58 270.692 501.4 269.592 499.86 268.992 498.266 268.992H495.666C494.066 268.992 492.526 269.592 491.352 270.672 490.652 271.312 490.118 272.092 489.752 272.98M484 277V251.08C484 248.82 485.82 246.98 488.08 246.98H519.998C522.198 246.98 523.998 248.76 523.998 250.98V276.98C523.998 279.18 522.198 280.98 519.998 280.98H487.998C485.788 280.98 483.998 279.18 483.998 276.98L484 277zM568 268.22C568 271.14 574.74 273.5 583.06 273.5M598 251.28C598 254.2 591.28 256.56 583 256.56 574.7 256.56 568 254.18 568 251.26M598 259.76C598 262.68 591.28 265.04 583 265.04 574.7 265.04 568 262.66 568 259.74M599.446 276V273.44C599.446 271.62 597.886 269.98 595.986 269.98 594.066 269.98 592.526 271.52 592.526 273.42V275.96M583.072 282C574.748 282 568 279.62 568 276.7V251.28C568 248.34 574.7 245.98 583 245.98 591.28 245.98 598 248.34 598 251.26V263.96M600.052 284H591.948C590.868 284 589.988 283.12 589.988 282.04V277.92C589.988 276.84 590.848 275.96 591.928 275.96H600.032C601.092 275.96 601.972 276.82 601.972 277.9V282C601.972 283.06 601.092 283.94 600.012 283.94L600.052 284zM658 276V276.5C658 279.8 660.68 282.5 664 282.5 667.3 282.5 670 279.8 670 276.5V276M676 267.5L679.4 270.9C679.76 271.26 679.98 271.78 679.98 272.3V273.96C679.98 275.06 679.08 275.96 677.98 275.96H649.98C648.86 275.96 647.98 275.06 647.98 273.96V272.28C647.98 271.74 648.18 271.24 648.56 270.86L651.96 267.44V258.94C651.96 252.3 657.32 246.94 663.96 246.94 670.58 246.938 675.96 252.3 675.96 258.94L676 267.5zM726 258H762M739.14 266H734M756 278H732C728.686 278 726 275.314 726 272V256C726 252.686 728.686 250 732 250H756C759.314 250 762 252.686 762 256V272C762 275.314 759.314 278 756 278zM823.98 256C823.7 256 823.48 256.22 823.48 256.5 823.48 256.76 823.7 257 823.98 257 824.24 257 824.48 256.76 824.48 256.5 824.48 256.22 824.24 256 823.96 256M824 264V274M824 282C814.04 282 806 273.942 806 264 806 254.04 814.058 246 824 246 833.942 246 842 254.058 842 264 842 273.942 833.942 282 824 282zM908 252V260.34C908 261.4 908.42 262.4 909.16 263.16L918.8 272.8C919.55 273.55 919.96 274.56 919.96 275.62V277.96C919.96 280.16 918.16 281.96 915.96 281.96H891.96C889.74 281.96 887.96 280.16 887.96 277.96V275.6C887.96 274.54 888.38 273.52 889.12 272.76L898.76 263.1C899.51 262.35 899.92 261.32 899.92 260.26V251.9M908 252C909.1 252 910 251.1 910 250V248C910 246.88 909.1 246 908 246H900C898.88 246 898 246.896 898 248V250C898 251.1 898.88 252 900 252H908zM888.36 274H919.64M899.64 262H908.36M991.4 248C997.74 248 1002 253.96 1002 259.52 1002 270.78 984.32 280 984 280 983.68 280 966 270.78 966 259.52 966 253.96 970.26 248 976.6 248 980.24 248 982.62 249.82 984 251.42 985.38 249.82 987.76 248 991.4 248zM1081 260.46L1067.54 247M1078.76 258.2L1057.82 279.12C1055.34 281.58 1051.32 281.58 1048.84 279.12 1048.82 279.1 1048.82 279.1 1048.82 279.1 1046.34 276.62 1046.34 272.6 1048.8 270.12 1048.8 270.1 1048.8 270.1 1048.8 270.1L1069.72 249.16M1054.02 265H1071.96M1148.94 259.06L1156.72 251.28M1131.28 276.72L1139.06 268.94M1139.06 259.06L1131.28 251.28M1156.72 276.72L1148.94 268.94M1144 246C1141.64 246 1139.3 246.466 1137.11 247.37 1134.93 248.275 1132.94 249.601 1131.27 251.272 1129.6 252.944 1128.27 254.928 1127.37 257.112 1126.47 259.296 1126 261.636 1126 264 1126 266.364 1126.47 268.704 1127.37 270.888 1128.27 273.072 1129.6 275.056 1131.27 276.728 1132.94 278.399 1134.93 279.725 1137.11 280.63 1139.3 281.534 1141.64 282 1144 282 1146.36 282 1148.7 281.534 1150.89 280.63 1153.07 279.725 1155.06 278.399 1156.73 276.728 1158.4 275.056 1159.73 273.072 1160.63 270.888 1161.53 268.704 1162 266.364 1162 264 1162 261.636 1161.53 259.296 1160.63 257.112 1159.73 254.928 1158.4 252.944 1156.73 251.272 1155.06 249.601 1153.07 248.275 1150.89 247.37 1148.7 246.466 1146.36 246 1144 246zM1144 257C1143.08 257 1142.17 257.181 1141.32 257.533 1140.47 257.885 1139.7 258.4 1139.05 259.05 1138.4 259.7 1137.88 260.472 1137.53 261.321 1137.18 262.17 1137 263.081 1137 264 1137 264.919 1137.18 265.83 1137.53 266.679 1137.88 267.528 1138.4 268.3 1139.05 268.95 1139.7 269.6 1140.47 270.115 1141.32 270.467 1142.17 270.819 1143.08 271 1144 271 1144.92 271 1145.83 270.819 1146.68 270.467 1147.53 270.115 1148.3 269.6 1148.95 268.95 1149.6 268.3 1150.12 267.528 1150.47 266.679 1150.82 265.83 1151 264.919 1151 264 1151 263.081 1150.82 262.17 1150.47 261.321 1150.12 260.472 1149.6 259.7 1148.95 259.05 1148.3 258.4 1147.53 257.885 1146.68 257.533 1145.83 257.181 1144.92 257 1144 257zM1222 257L1220 255M1226 257L1228 255M1234 259C1228.46 264.52 1219.52 264.52 1214 259M1217.7 269.34V269.338C1216.32 269.998 1215.06 270.898 1213.98 271.978M1234 272C1232.9 270.9 1231.66 270 1230.28 269.34M1216.5 265.5H1213M1235 265.5H1231.5M1224 257C1222.01 257 1220.1 257.843 1218.7 259.343 1217.29 260.843 1216.5 262.878 1216.5 265 1216.5 267.122 1217.29 269.157 1218.7 270.657 1220.1 272.157 1222.01 273 1224 273 1225.99 273 1227.9 272.157 1229.3 270.657 1230.71 269.157 1231.5 267.122 1231.5 265 1231.5 262.878 1230.71 260.843 1229.3 259.343 1227.9 257.843 1225.99 257 1224 257zM1216 246H1232C1237.52 246 1242 250.477 1242 256V272C1242 277.523 1237.52 282 1232 282H1216C1210.48 282 1206 277.523 1206 272V256C1206 250.477 1210.48 246 1216 246zM1300 282H1290C1287.78 282 1286 280.2 1286 278V250C1286 247.78 1287.78 246 1290 246H1310C1312.2 246 1314 247.78 1314 250V254M1312 276.98H1316M1318.4 282H1309.6C1307.6 282 1306 280.38 1306 278.4V263.6C1306 261.6 1307.6 260 1309.6 260H1318.4C1320.38 260 1322 261.6 1322 263.6V278.4C1322 280.38 1320.38 282 1318.4 282zM1375.46 264C1375.46 259.28 1379.28 255.46 1383.98 255.46M1405.58 251.52C1407.86 255.48 1400.06 264.3 1388.12 271.18 1376.18 278.06 1364.64 280.42 1362.36 276.44M1362.4 276.48C1361 274.06 1363.34 269.86 1368.06 265.38M1393.18 250.9C1399.4 249.04 1404.2 249.12 1405.6 251.52M1384 248C1379.76 248 1375.69 249.686 1372.69 252.686 1369.69 255.687 1368 259.757 1368 264 1368 268.243 1369.69 272.313 1372.69 275.314 1375.69 278.314 1379.76 280 1384 280 1388.24 280 1392.31 278.314 1395.31 275.314 1398.31 272.313 1400 268.243 1400 264 1400 259.757 1398.31 255.687 1395.31 252.686 1392.31 249.686 1388.24 248 1384 248zM1459.36 259.36C1459.82 257.3 1461.68 255.9 1463.78 255.98 1466.12 255.84 1468.12 257.62 1468.28 259.98 1468.28 262.98 1463.98 263.98 1463.98 265.98M1464 271.2C1463.86 271.2 1463.75 271.31 1463.75 271.45 1463.75 271.585 1463.86 271.7 1464 271.7 1464.14 271.7 1464.25 271.585 1464.25 271.45 1464.25 271.31 1464.14 271.2 1464 271.2M1464 246C1461.64 246 1459.3 246.466 1457.11 247.37 1454.93 248.275 1452.94 249.601 1451.27 251.272 1449.6 252.944 1448.27 254.928 1447.37 257.112 1446.47 259.296 1446 261.636 1446 264 1446 266.364 1446.47 268.704 1447.37 270.888 1448.27 273.072 1449.6 275.056 1451.27 276.728 1452.94 278.399 1454.93 279.725 1457.11 280.63 1459.3 281.534 1461.64 282 1464 282 1466.36 282 1468.7 281.534 1470.89 280.63 1473.07 279.725 1475.06 278.399 1476.73 276.728 1478.4 275.056 1479.73 273.072 1480.63 270.888 1481.53 268.704 1482 266.364 1482 264 1482 261.636 1481.53 259.296 1480.63 257.112 1479.73 254.928 1478.4 252.944 1476.73 251.272 1475.06 249.601 1473.07 248.275 1470.89 247.37 1468.7 246.466 1466.36 246 1464 246zM1545.6 246C1546.01 246 1546.41 246.127 1546.75 246.364 1547.09 246.601 1547.34 246.936 1547.48 247.324L1548.5 250.154C1548.66 250.599 1548.97 250.973 1549.38 251.21L1552.4 252.95C1552.81 253.186 1553.29 253.27 1553.75 253.186L1556.71 252.652C1557.12 252.578 1557.53 252.632 1557.91 252.805 1558.28 252.978 1558.59 253.263 1558.8 253.62L1560.4 256.38C1560.61 256.736 1560.7 257.147 1560.66 257.558 1560.63 257.968 1560.47 258.357 1560.2 258.672L1558.26 260.968C1557.95 261.329 1557.78 261.787 1557.78 262.26V265.74C1557.78 266.213 1557.95 266.671 1558.26 267.032L1560.2 269.328C1560.47 269.643 1560.63 270.032 1560.66 270.442 1560.7 270.853 1560.61 271.264 1560.4 271.62L1558.8 274.38C1558.59 274.737 1558.28 275.021 1557.91 275.194 1557.54 275.368 1557.12 275.421 1556.71 275.348L1553.75 274.814C1553.29 274.73 1552.81 274.814 1552.4 275.05L1549.38 276.79C1548.97 277.027 1548.66 277.401 1548.5 277.846L1547.48 280.676C1547.34 281.064 1547.09 281.399 1546.75 281.636 1546.41 281.873 1546.01 282 1545.6 282H1542.4C1541.99 282 1541.59 281.873 1541.25 281.636 1540.91 281.399 1540.66 281.064 1540.52 280.676L1539.5 277.846C1539.34 277.402 1539.03 277.028 1538.62 276.79L1535.6 275.05C1535.19 274.814 1534.72 274.73 1534.25 274.814L1531.29 275.348C1530.88 275.422 1530.47 275.368 1530.09 275.195 1529.72 275.022 1529.41 274.737 1529.2 274.38L1527.6 271.62C1527.39 271.264 1527.3 270.853 1527.34 270.442 1527.37 270.032 1527.53 269.643 1527.8 269.328L1529.74 267.032C1530.05 266.671 1530.22 266.213 1530.22 265.74V262.26C1530.22 261.787 1530.05 261.329 1529.74 260.968L1527.82 258.672C1527.55 258.357 1527.39 257.968 1527.36 257.558 1527.32 257.147 1527.41 256.736 1527.62 256.38L1529.22 253.62C1529.43 253.263 1529.74 252.979 1530.11 252.806 1530.48 252.632 1530.9 252.579 1531.31 252.652L1534.27 253.186C1534.73 253.27 1535.21 253.186 1535.62 252.95L1538.64 251.21C1539.05 250.972 1539.36 250.598 1539.52 250.154L1540.54 247.324C1540.67 246.939 1540.93 246.606 1541.26 246.369 1541.59 246.133 1541.99 246.004 1542.4 246H1545.6z"
    stroke="#fff"
    stroke-width="2.5"
    stroke-linecap="round"
    stroke-linejoin="round"
  />
  <path
    d="M1544 269.5C1547.04 269.5 1549.5 267.038 1549.5 264 1549.5 260.962 1547.04 258.5 1544 258.5 1540.96 258.5 1538.5 260.962 1538.5 264 1538.5 267.038 1540.96 269.5 1544 269.5zM1623.66 270L1633.66 280C1635.3 281.64 1638 281.64 1639.66 280 1641.3 278.34 1641.3 275.64 1639.66 274L1629.66 264M1613.68 254L1620.68 261M1641.82 251.68C1641.86 251.72 1641.9 251.78 1641.92 251.84 1642.86 254.96 1642.12 258.5 1639.64 260.96 1637.12 263.46 1633.56 264.178 1630.4 263.18L1613.71 279.86C1612.07 281.48 1609.43 281.6 1607.75 280.04 1605.97 278.38 1605.93 275.62 1607.63 273.92L1624.39 257.14C1623.39 253.98 1624.11 250.4 1626.61 247.9 1629.07 245.424 1632.61 244.68 1635.73 245.62 1635.79 245.64 1635.85 245.66 1635.89 245.72L1636.21 246.04C1636.35 246.18 1636.35 246.44 1636.21 246.6L1630.92 251.86 1635.56 256.5 1640.82 251.22C1640.96 251.06 1641.22 251.06 1641.38 251.22L1641.7 251.54 1641.82 251.68zM1605.86 248.58L1607.2 252.62C1607.46 253.42 1608.22 253.98 1609.08 253.98H1613.64V249.422C1613.64 248.562 1613.08 247.782 1612.26 247.522L1608.2 246.162C1607.84 246.042 1607.44 246.122 1607.16 246.404L1606.02 247.524C1605.74 247.784 1605.64 248.184 1605.78 248.544L1605.86 248.58zM1704 274.47L1692.36 279.99 1694.76 267.75 1685.98 258.76 1698.34 257.2 1703.98 245.94 1709.62 257.18 1721.98 258.72 1713.2 267.68 1715.6 279.92 1704 274.47zM1796 250H1802M1766 250H1782M1786 264H1802M1766 264H1772M1796 278H1802M1766 278H1782M1794.83 247.16C1796.39 248.72 1796.39 251.24 1794.83 252.8 1793.25 254.36 1790.73 254.36 1789.17 252.8 1787.59 251.22 1787.59 248.7 1789.17 247.14 1790.73 245.56 1793.25 245.56 1794.81 247.14M1778.82 261.172C1780.38 262.732 1780.38 265.252 1778.82 266.812 1777.24 268.372 1774.72 268.372 1773.16 266.812 1771.58 265.232 1771.58 262.712 1773.16 261.152 1774.72 259.572 1777.24 259.572 1778.8 261.152M1794.83 275.172C1796.39 276.732 1796.39 279.252 1794.83 280.812 1793.25 282.372 1790.73 282.372 1789.17 280.812 1787.59 279.232 1787.59 276.712 1789.17 275.152 1790.73 273.572 1793.25 273.572 1794.81 275.152M1863.98 275C1863.42 275 1862.98 275.44 1862.98 276 1862.98 276.54 1863.42 277 1863.98 277 1864.52 277 1864.98 276.54 1864.98 276 1864.98 275.44 1864.52 275 1863.96 275M1863.98 263C1863.42 263 1862.98 263.44 1862.98 264 1862.98 264.54 1863.42 265 1863.98 265 1864.52 265 1864.98 264.54 1864.98 264 1864.98 263.44 1864.52 263 1863.96 263M1863.98 251C1863.42 251 1862.98 251.44 1862.98 252 1862.98 252.54 1863.42 253 1863.98 253 1864.52 253 1864.98 252.54 1864.98 252 1864.98 251.44 1864.52 251 1863.96 251"
    stroke="#fff"
    stroke-width="2.5"
    stroke-linecap="round"
    stroke-linejoin="round"
  />
  <path
    d="M1944 283.25C1944.69 283.25 1945.25 282.69 1945.25 282C1945.25 281.31 1944.69 280.75 1944 280.75V283.25ZM1952.75 250C1952.75 250.69 1953.31 251.25 1954 251.25C1954.69 251.25 1955.25 250.69 1955.25 250H1952.75ZM1955.25 249.75C1955.25 249.06 1954.69 248.5 1954 248.5C1953.31 248.5 1952.75 249.06 1952.75 249.75H1955.25ZM1952.75 250.25C1952.75 250.94 1953.31 251.5 1954 251.5C1954.69 251.5 1955.25 250.94 1955.25 250.25H1952.75ZM1944 280.75H1934V283.25H1944V280.75ZM1934 280.75C1932.48 280.75 1931.25 279.519 1931.25 278H1928.75C1928.75 280.899 1931.1 283.25 1934 283.25V280.75ZM1931.25 278V250H1928.75V278H1931.25ZM1931.25 250C1931.25 248.481 1932.48 247.25 1934 247.25V244.75C1931.1 244.75 1928.75 247.101 1928.75 250H1931.25ZM1934 247.25H1950V244.75H1934V247.25ZM1950 247.25C1951.52 247.25 1952.75 248.481 1952.75 250H1955.25C1955.25 247.101 1952.9 244.75 1950 244.75V247.25ZM1952.75 249.75V250.25H1955.25V249.75H1952.75ZM1952.4 258.25H1955.6V255.75H1952.4V258.25ZM1956.75 259.4V279.6H1959.25V259.4H1956.75ZM1955.6 280.75H1952.4V283.25H1955.6V280.75ZM1951.25 279.6V259.4H1948.75V279.6H1951.25ZM1952.4 280.75C1951.76 280.75 1951.25 280.235 1951.25 279.6H1948.75C1948.75 281.616 1950.38 283.25 1952.4 283.25V280.75ZM1956.75 279.6C1956.75 280.235 1956.24 280.75 1955.6 280.75V283.25C1957.62 283.25 1959.25 281.616 1959.25 279.6H1956.75ZM1955.6 258.25C1956.24 258.25 1956.75 258.765 1956.75 259.4H1959.25C1959.25 257.384 1957.62 255.75 1955.6 255.75V258.25ZM1952.4 255.75C1950.38 255.75 1948.75 257.384 1948.75 259.4H1951.25C1951.25 258.765 1951.76 258.25 1952.4 258.25V255.75ZM1956.75 274V279.6H1959.25V274H1956.75ZM1951.25 279.6V274H1948.75V279.6H1951.25ZM1959.25 274C1959.25 271.101 1956.9 268.75 1954 268.75V271.25C1955.52 271.25 1956.75 272.481 1956.75 274H1959.25ZM1951.25 274C1951.25 272.481 1952.48 271.25 1954 271.25V268.75C1951.1 268.75 1948.75 271.101 1948.75 274H1951.25Z"
    fill="#fff"
  />
  <path
    d="M2035 270V280M2040 275H2030M2016 260H2010C2007.79 260 2006 258.2 2006 256V250C2006 247.79 2007.79 246 2010 246H2016C2018.2 246 2020 247.79 2020 250V256C2020 258.2 2018.2 260 2016 260zM2038 260H2032C2029.78 260 2028 258.2 2028 256V250C2028 247.79 2029.78 246 2032 246H2038C2040.2 246 2042 247.79 2042 250V256C2042 258.2 2040.2 260 2038 260zM2016 282H2010C2007.79 282 2006 280.2 2006 278V272C2006 269.78 2007.79 268 2010 268H2016C2018.2 268 2020 269.78 2020 272V278C2020 280.2 2018.2 282 2016 282zM2104 255V257M2104 273V271M2099.7 268.5H2099.7C2100.48 270.12 2102.18 271.1 2103.98 271 2106.16 271.24 2108.16 269.68 2108.48 267.5 2108.48 265.98 2107.4 264.68 2105.92 264.38L2102 263.58C2100.5 263.28 2099.44 261.98 2099.44 260.46 2099.74 258.26 2101.74 256.7 2103.94 256.96 2105.74 256.84 2107.42 257.82 2108.22 259.46M2104 244.98C2098.96 244.98 2094.13 246.982 2090.56 250.545 2087 254.108 2085 258.941 2085 263.98 2085 269.019 2087 273.852 2090.56 277.415 2094.13 280.978 2098.96 282.98 2104 282.98 2106.5 282.98 2108.97 282.489 2111.27 281.534 2113.58 280.579 2115.67 279.179 2117.44 277.415 2119.2 275.651 2120.6 273.556 2121.55 271.251 2122.51 268.946 2123 266.475 2123 263.98 2123 261.485 2122.51 259.014 2121.55 256.709 2120.6 254.404 2119.2 252.309 2117.44 250.545 2115.67 248.781 2113.58 247.381 2111.27 246.426 2108.97 245.471 2106.5 244.98 2104 244.98zM2168 257.2V282H2200V257.2M2164 260L2184 246 2204 260M2190 282V270C2190 267.78 2188.2 266 2186 266H2182C2179.78 266 2178 267.78 2178 270V282M2268.24 259.76C2270.58 262.1 2270.58 265.9 2268.24 268.24 2265.88 270.58 2262.08 270.58 2259.74 268.24 2257.38 265.88 2257.38 262.08 2259.74 259.74 2262.08 257.394 2265.88 257.394 2268.22 259.74M2246 264C2246 262.68 2246.3 261.378 2246.88 260.16 2249.9 253.96 2256.6 249.98 2263.99 249.98 2271.37 249.98 2278.05 253.96 2281.09 260.14 2281.67 261.34 2281.97 262.64 2281.97 263.96 2281.97 265.26 2281.65 266.582 2281.07 267.78 2278.03 273.96 2271.33 277.94 2263.95 277.94 2256.55 277.94 2249.87 273.94 2246.84 267.76 2246.24 266.54 2245.94 265.24 2245.94 263.92L2246 264zM2349.1 267.1H2349.1C2347.4 269.94 2343.72 270.88 2340.86 269.2 2338 267.5 2337.06 263.82 2338.74 260.96 2339.24 260.08 2339.96 259.36 2340.84 258.84M2355.98 273.98C2352.52 276.58 2348.3 278 2343.98 277.98 2336.8 278.1 2330.18 274.16 2326.87 267.8H2326.86C2325.66 265.38 2325.66 262.56 2326.86 260.14 2328.5 256.84 2331.14 254.14 2334.4 252.4M2360.84 268.26C2360.92 268.1 2361.02 267.96 2361.1 267.8 2362.28 265.38 2362.28 262.56 2361.1 260.14 2357.78 253.76 2351.16 249.82 2343.98 249.96 2343.52 249.96 2343.08 250.02 2342.64 250.04M2362 280L2328 246M2406 264L2404 256H2407.6C2407.8 256 2408.2 256.2 2408.4 256.4L2411.6 260H2421.2L2414.8 245.4C2414.4 244.8 2414.8 244 2415.6 244H2419C2419.6 244 2420.2 244.4 2420.6 244.8L2430.6 260H2440C2442.2 260 2444 261.8 2444 264 2444 266.2 2442.2 268 2440 268H2430.6L2420.6 283.2C2420.2 283.8 2419.6 284 2419 284H2415.6C2414.8 284 2414.4 283.2 2414.6 282.6L2421 268H2411.4L2408.2 271.6C2408 271.8 2407.8 272 2407.4 272H2404L2406 264zM6 338C6 340.2 10.46 342 16 342M16 350C10.478 350 6 348.2 6 346M25.98 330V336M22 352C22 354.2 26.46 356 32 356 37.52 356 42 354.2 42 352M22 344C22 346.2 26.46 348 32 348 37.52 348 42 346.2 42 344V360C42 362.2 37.52 364 32 364 26.46 364 22 362.2 22 360V344zM22 344C22 341.78 26.48 340 32 340 37.52 340 42 341.78 41.98 344M16 358C10.478 358 6 356.2 6 354V330M6 330C6 328.939 7.05357 327.922 8.92893 327.172 10.8043 326.421 13.3478 326 16 326 18.6522 326 21.1957 326.421 23.0711 327.172 24.9464 327.922 26 328.939 26 330 26 331.061 24.9464 332.078 23.0711 332.828 21.1957 333.579 18.6522 334 16 334 13.3478 334 10.8043 333.579 8.92893 332.828 7.05357 332.078 6 331.061 6 330zM90.4199 336H92.4199M114.42 336H112.42M110.9 327.52L109.48 328.92M93.9199 327.52L95.3399 328.92M102.42 324V326M105.412 346V337C105.412 335.34 104.052 334 102.412 334 100.752 334 99.4119 335.34 99.4119 337V352L95.3319 350.64C94.1459 350.24 92.8319 350.54 91.9519 351.42 90.5719 352.78 90.6719 355.048 92.1719 356.292L100.272 363.032C100.992 363.612 101.892 363.952 102.832 363.952H111.852C113.852 363.952 115.57 362.432 115.812 360.432L116.892 351.746C117.152 349.606 115.692 347.646 113.572 347.304L105.352 345.924 105.412 346zM176 355L170 327H166M176.5 355H196.5M176.5 355C175.572 355 174.682 355.369 174.025 356.025 173.369 356.682 173 357.572 173 358.5 173 359.428 173.369 360.318 174.025 360.975 174.682 361.631 175.572 362 176.5 362 177.428 362 178.318 361.631 178.975 360.975 179.631 360.318 180 359.428 180 358.5 180 357.572 179.631 356.682 178.975 356.025 178.318 355.369 177.428 355 176.5 355zM196.5 355C195.572 355 194.682 355.369 194.025 356.025 193.369 356.682 193 357.572 193 358.5 193 359.428 193.369 360.318 194.025 360.975 194.682 361.631 195.572 362 196.5 362 197.428 362 198.318 361.631 198.975 360.975 199.631 360.318 200 359.428 200 358.5 200 357.572 199.631 356.682 198.975 356.025 198.318 355.369 197.428 355 196.5 355zM171.28 333H199.98C201.08 332.98 201.98 333.88 201.98 334.98 201.98 335.14 201.94 335.32 201.9 335.48L198.7 347.48C198.46 348.34 197.66 348.96 196.76 348.96H174.66M264 354C262.674 354 261.402 354.527 260.464 355.464 259.527 356.402 259 357.674 259 359 259 360.326 259.527 361.598 260.464 362.536 261.402 363.473 262.674 364 264 364 265.326 364 266.598 363.473 267.536 362.536 268.473 361.598 269 360.326 269 359 269 357.674 268.473 356.402 267.536 355.464 266.598 354.527 265.326 354 264 354zM264 354V324M264 324L268.5 328.5M264 324L259.5 328.5M264 350.44L256.12 348.68C254.28 348.26 252.98 346.64 252.98 344.76V341.96M264 347.3L272.14 344.84C273.82 344.32 274.98 342.76 274.98 341V338.96M273.5 332H276.5C277.605 332 278.5 332.895 278.5 334V337C278.5 338.105 277.605 339 276.5 339H273.5C272.395 339 271.5 338.105 271.5 337V334C271.5 332.895 272.395 332 273.5 332zM253 335C252.072 335 251.182 335.369 250.525 336.025 249.869 336.682 249.5 337.572 249.5 338.5 249.5 339.428 249.869 340.318 250.525 340.975 251.182 341.631 252.072 342 253 342 253.928 342 254.818 341.631 255.475 340.975 256.131 340.318 256.5 339.428 256.5 338.5 256.5 337.572 256.131 336.682 255.475 336.025 254.818 335.369 253.928 335 253 335zM347 354V358C347 359.1 346.1 360 345 360H343C341.88 360 341 359.1 341 358V354M344 364V360M343.504 335L340.984 340H346.984L344.464 345M330 326H358C360.209 326 362 327.791 362 330V350C362 352.209 360.209 354 358 354H330C327.791 354 326 352.209 326 350V330C326 327.791 327.791 326 330 326zM413 350V338L418 350V338M422 350V338H427M433 350V338M433 338H430M433 338H436M422 343H426M440.5 351.41V336.59C440.5 335.28 439.802 334.07 438.666 333.414L425.832 326.004C424.698 325.35 423.3 325.35 422.166 326.004L409.334 333.416C408.198 334.07 407.5 335.28 407.5 336.59V351.408C407.5 352.718 408.198 353.928 409.334 354.584L422.168 361.994C423.302 362.648 424.7 362.648 425.834 361.994L438.668 354.584C439.802 353.93 440.5 352.72 440.5 351.41zM497.191 340H492.893C490.519 340 488.596 341.79 488.596 344V358C488.596 360.21 490.519 362 492.893 362H518.68C521.054 362 522.978 360.21 522.978 358V344C522.978 341.79 521.054 340 518.68 340H514.382M505.787 326V348M505.787 326L499.342 332M505.787 326L512.233 332M594.713 352.84V349.98C594.713 347.76 596.491 345.98 598.711 345.98 600.911 345.98 602.711 347.76 602.711 349.98V352.82M585.573 350H577.573C573.153 350 569.573 353.58 569.573 358V360M594.713 352.856H602.715C604.293 352.856 605.571 354.135 605.571 355.712V359.142C605.571 360.719 604.293 361.998 602.715 361.998H594.713C593.136 361.998 591.857 360.719 591.857 359.142V355.712C591.857 354.135 593.136 352.856 594.713 352.856zM585.573 326C583.452 326 581.417 326.843 579.916 328.343 578.416 329.843 577.573 331.878 577.573 334 577.573 336.122 578.416 338.157 579.916 339.657 581.417 341.157 583.452 342 585.573 342 587.695 342 589.73 341.157 591.23 339.657 592.73 338.157 593.573 336.122 593.573 334 593.573 331.878 592.73 329.843 591.23 328.343 589.73 326.843 587.695 326 585.573 326zM671.513 328.04C674.233 330.76 674.233 335.2 671.513 337.92 668.773 340.64 664.333 340.64 661.613 337.92 658.873 335.18 658.873 330.74 661.611 328.02 664.331 325.28 668.771 325.28 671.491 328.018M677.633 343.92C677.653 343.94 677.653 344 677.633 344.04 677.593 344.06 677.533 344.06 677.493 344.04 677.453 344 677.453 343.94 677.493 343.9 677.513 343.86 677.573 343.86 677.613 343.9M673.533 333.718C674.173 333.538 674.793 333.298 675.373 332.938 676.293 332.338 677.373 331.998 678.553 331.998H680.553V337.098C681.989 338.378 683.113 339.998 683.793 341.858H685.533C686.633 341.858 687.533 342.738 687.533 343.858V349.978C687.533 351.078 686.633 351.978 685.533 351.978H682.893C681.833 353.778 680.313 355.298 678.515 356.358V359.958C678.515 361.058 677.615 361.958 676.515 361.958H672.515C671.395 361.958 670.515 361.058 670.515 359.958V357.958H663.515V359.678C663.515 360.778 662.615 361.678 661.515 361.678H657.515C656.395 361.678 655.515 360.778 655.515 359.678V354.858C653.055 352.658 651.515 349.478 651.515 345.918 651.515 340.618 654.951 336.136 659.695 334.538M648.133 340C647.193 340.54 646.557 341.54 646.557 342.7 646.557 344.44 647.957 345.854 649.697 345.854H651.543M660.573 340H672.573M766.395 338V351.5M735.553 344.4V352.24C735.553 354.12 736.493 355.9 738.073 356.94L741.273 359.06C745.073 361.58 750.023 361.58 753.823 359.06L757.023 356.92C758.603 355.86 759.543 354.08 759.543 352.2V344.34M742.979 328.18L730.613 335.04C728.017 336.48 728.017 340.2 730.613 341.64L742.953 348.5C745.793 350.08 749.273 350.08 752.133 348.5L764.473 341.64C767.053 340.18 767.053 336.46 764.473 335.024L752.113 328.164C749.253 326.564 745.773 326.564 742.913 328.164L742.979 328.18zM817.513 359.92H820.533C821.173 359.92 821.833 360 822.473 360.16L827.773 361.5C828.933 361.8 830.113 361.82 831.293 361.6L837.153 360.44C838.713 360.12 840.133 359.36 841.253 358.26L845.413 354.12C846.593 352.94 846.593 351.02 845.413 349.84 844.333 348.76 842.653 348.64 841.453 349.56L836.633 353.2C835.933 353.72 835.093 354 834.233 354H829.573L832.533 354C834.193 354 835.553 352.64 835.553 350.96V350.34C835.553 348.94 834.593 347.72 833.253 347.4L828.669 346.24C827.909 346.04 827.149 345.96 826.389 345.96 824.529 345.96 822.709 346.5 821.169 347.52L817.529 349.94M837.893 330.3C840.093 332.5 840.093 336.1 837.893 338.32 835.673 340.52 832.073 340.52 829.853 338.32 827.633 336.1 827.633 332.5 829.853 330.28 832.053 328.06 835.653 328.06 837.873 330.28M832.833 328.75C832.633 327.61 832.113 326.53 831.253 325.65 829.033 323.434 825.433 323.434 823.227 325.65 821.007 327.866 821.007 331.45 823.227 333.67 824.607 335.05 826.507 335.55 828.287 335.23M815.573 362H811.573C810.469 362 809.573 361.1 809.573 360V348C809.573 346.88 810.453 346 811.573 346H815.573C816.673 346 817.573 346.88 817.573 348V360C817.573 361.1 816.673 362 815.573 362zM921.573 330H923.573C925.773 330 927.573 331.78 927.573 334V358C927.573 360.2 925.773 362 923.573 362H891.573C889.363 362 887.573 360.2 887.573 358V334C887.573 331.78 889.363 330 891.573 330H893.573M907.573 332C907.573 328.686 904.887 326 901.573 326H895.573C894.453 326 893.573 326.88 893.573 328V354C893.573 355.1 894.453 356 895.573 356H901.573C904.887 356 907.573 358.686 907.573 362M907.573 332C907.573 328.686 910.259 326 913.573 326H919.573C920.673 326 921.573 326.896 921.573 328V354C921.573 355.1 920.673 356 919.573 356H913.573C910.259 356 907.573 358.686 907.573 362M907.573 332V362M969.573 334V354C969.573 356.2 971.373 358 973.573 358H1001.57C1003.77 358 1005.57 356.2 1005.57 354V334M969.573 333.6C969.573 334.8 970.173 335.8 971.173 336.6L983.173 344.8C985.973 346.6 989.373 346.6 992.173 344.8L1004.17 336.8C1004.97 335.8 1005.57 334.8 1005.57 333.6 1005.57 331.6 1003.97 330 1001.97 330H973.173C971.173 330 969.573 331.6 969.573 333.6zM1071.07 334.32L1077.25 340.5M1054.15 351.22L1074.79 330.56C1075.57 329.78 1076.83 329.78 1077.61 330.56L1080.95 333.9C1081.73 334.68 1081.73 335.94 1080.95 336.72L1060.29 357.378C1059.91 357.738 1059.39 357.958 1058.87 357.958H1053.51V352.598C1053.51 352.058 1053.71 351.558 1054.09 351.178L1054.15 351.22zM1138.57 326V332M1156.57 326V332M1165.57 340H1129.57M1135.57 328.998H1159.57C1162.89 328.998 1165.57 331.684 1165.57 334.998V355.998C1165.57 359.312 1162.89 361.998 1159.57 361.998H1135.57C1132.26 361.998 1129.57 359.312 1129.57 355.998V334.998C1129.57 331.684 1132.26 328.998 1135.57 328.998zM1230.47 338.76L1219.41 349.818C1218.11 351.098 1218.11 353.178 1219.41 354.458H1219.39C1220.67 355.738 1222.75 355.738 1224.03 354.458L1241.27 337.206C1243.83 334.626 1243.83 330.466 1241.27 327.906 1241.25 327.886 1241.25 327.886 1241.25 327.886 1238.67 325.306 1234.51 325.306 1231.95 327.866 1231.93 327.866 1231.93 327.866 1231.93 327.866L1214.67 345.106V345.104C1210.81 348.944 1210.81 355.184 1214.65 359.024 1218.49 362.864 1224.73 362.864 1228.57 359.024 1228.57 359.004 1228.57 359.004 1228.57 359.004L1241.17 346.404M1305.57 344H1325.57M1318.57 351L1325.57 344 1318.57 337M1307.57 326H1295.57C1292.25 326 1289.57 328.68 1289.57 332V356C1289.57 359.3 1292.25 362 1295.57 362H1307.57M1400.3 331.26C1407.32 338.28 1407.32 349.68 1400.3 356.7 1393.26 363.72 1381.86 363.72 1374.84 356.7 1367.8 349.66 1367.8 338.26 1374.84 331.24 1381.86 324.2 1393.26 324.2 1400.28 331.238M1392.21 348.6L1382.93 339.4M1382.93 339.406L1395.57 335.98 1392.21 348.56 1379.57 351.96 1382.93 339.406z"
    stroke="#fff"
    stroke-width="2.5"
    stroke-linecap="round"
    stroke-linejoin="round"
  />
  <path
    d="M1464.69 343.18L1454.51 333M1451.15 338.62C1447.75 346.06 1449.83 354.86 1456.23 359.98M1460.15 329.62C1462.47 328.54 1464.99 328 1467.53 327.98L1467.53 327.978C1477.47 327.958 1485.53 336.018 1485.55 345.958 1485.57 351.398 1483.09 356.538 1478.87 359.958M1467.51 341.98C1468.57 341.98 1469.59 342.401 1470.34 343.152 1471.09 343.902 1471.51 344.919 1471.51 345.98 1471.51 347.041 1471.09 348.058 1470.34 348.808 1469.59 349.559 1468.57 349.98 1467.51 349.98 1466.45 349.98 1465.43 349.559 1464.68 348.808 1463.93 348.058 1463.51 347.041 1463.51 345.98 1463.51 344.919 1463.93 343.902 1464.68 343.152 1465.43 342.401 1466.45 341.98 1467.51 341.98zM1531.15 338.62C1527.75 346.06 1529.83 354.86 1536.23 359.98M1558.87 359.957C1563.09 356.537 1565.57 351.397 1565.55 345.957 1565.54 338.137 1560.54 331.481 1553.57 329.007M1536.21 359.957C1531.99 356.537 1529.51 351.397 1529.53 345.957 1529.55 338.137 1534.54 331.481 1541.51 329.007M1547.57 341.999V327.999M1547.51 341.98C1548.57 341.98 1549.59 342.401 1550.34 343.152 1551.09 343.902 1551.51 344.919 1551.51 345.98 1551.51 347.041 1551.09 348.058 1550.34 348.808 1549.59 349.559 1548.57 349.98 1547.51 349.98 1546.45 349.98 1545.43 349.559 1544.68 348.808 1543.93 348.058 1543.51 347.041 1543.51 345.98 1543.51 344.919 1543.93 343.902 1544.68 343.152 1545.43 342.401 1546.45 341.98 1547.51 341.98zM1630.39 343.18L1640.57 333M1643.93 338.62C1647.33 346.06 1645.25 354.86 1638.85 359.98M1634.93 329.62C1632.61 328.54 1630.09 328 1627.55 327.98L1627.55 327.978C1617.61 327.958 1609.55 336.018 1609.53 345.958 1609.51 351.398 1611.99 356.538 1616.21 359.958M1627.57 341.98C1626.51 341.98 1625.49 342.401 1624.74 343.152 1623.99 343.902 1623.57 344.919 1623.57 345.98 1623.57 347.041 1623.99 348.058 1624.74 348.808 1625.49 349.559 1626.51 349.98 1627.57 349.98 1628.63 349.98 1629.65 349.559 1630.4 348.808 1631.15 348.058 1631.57 347.041 1631.57 345.98 1631.57 344.919 1631.15 343.902 1630.4 343.152 1629.65 342.401 1628.63 341.98 1627.57 341.98zM1716.57 353C1711.59 353 1707.57 348.96 1707.57 344 1707.57 339.02 1711.59 335 1716.57 335M1716.57 353C1721.53 353 1725.57 348.96 1725.57 344 1725.57 339.02 1721.53 335 1716.57 335M1716.57 353H1698.57C1693.59 353 1689.57 348.96 1689.57 344 1689.57 339.02 1693.59 335 1698.57 335H1716.57M1798.39 341.16C1799.95 342.72 1799.95 345.24 1798.39 346.8 1796.81 348.36 1794.29 348.36 1792.73 346.8 1791.15 345.22 1791.15 342.7 1792.73 341.14 1794.29 339.56 1796.81 339.56 1798.37 341.14M1779.57 334H1795.57C1801.09 334 1805.57 338.46 1805.57 344 1805.57 349.52 1801.09 354 1795.57 354H1779.57C1774.05 354 1769.57 349.52 1769.57 344 1769.57 338.46 1774.05 334 1779.57 334zM1881.57 342V332C1881.57 329.78 1879.77 328 1877.57 328H1851.57C1849.35 328 1847.57 329.78 1847.57 332V348C1847.57 350.2 1849.35 352 1851.57 352H1875.57M1868.57 360V352M1860.57 352V360M1858.07 360H1871.07M1884.57 360H1878.57C1876.91 360 1875.57 358.64 1875.57 357V345C1875.57 343.34 1876.91 342 1878.57 342H1884.57C1886.21 342 1887.57 343.34 1887.57 345V357C1887.57 358.64 1886.21 360 1884.57 360zM1943.57 358V364M1939.57 338V328C1939.57 326.88 1940.45 326 1941.57 326H1953.57C1954.67 326 1955.57 326.88 1955.57 328V338M1951.57 358V364M1938.57 338H1956.57C1958.21 338 1959.57 339.34 1959.57 341V352C1959.57 355.3 1956.87 358 1953.57 358H1941.57C1938.25 358 1935.57 355.3 1935.57 352V341C1935.57 339.34 1936.91 338 1938.57 338zM2045.57 334H2039.45M2029.45 334H2009.57M2037.99 330.46C2039.93 332.4 2039.93 335.56 2037.99 337.52 2036.03 339.46 2032.87 339.46 2030.91 337.52 2028.95 335.56 2028.95 332.4 2030.91 330.44 2032.85 328.48 2036.01 328.48 2037.97 330.44M2025.69 354H2045.57M2009.57 354H2015.69M2024.21 350.49C2026.15 352.43 2026.15 355.59 2024.21 357.55 2022.25 359.49 2019.09 359.49 2017.13 357.55 2015.17 355.59 2015.17 352.43 2017.13 350.47 2019.07 348.51 2022.23 348.51 2024.19 350.47"
    stroke="#fff"
    stroke-width="2.2"
    stroke-linecap="round"
    stroke-linejoin="round"
  />
  <g clip-path="url(#clip0_10356_11761)">
    <mask id="a"   maskUnits="userSpaceOnUse" x="2083" y="320" width="49" height="48">
      <path
        fill-rule="evenodd"
        clip-rule="evenodd"
        d="M2131.57 334.983C2129.5 338.012 2126.02 340 2122.07 340C2115.72 340 2110.57 334.851 2110.57 328.5C2110.57 325.133 2112.02 322.103 2114.33 320H2083.57V368H2131.57V334.983ZM2129.82 320C2130.48 320.601 2131.07 321.278 2131.57 322.017V320H2129.82Z"
        fill="#D9D9D9"
      />
    </mask>
    <g mask="url(#a)">
      <path
        d="M2114.07 340.25L2106.57 347.75L2102.07 343.25M2123.57 342.364C2123.57 351.446 2116.73 359.938 2107.57 362C2098.4 359.92 2091.57 351.44 2091.57 342.364V335.23C2091.57 333.59 2092.55 332.13 2094.05 331.51L2104.05 327.41C2106.29 326.47 2108.83 326.47 2111.07 327.41L2121.07 331.49C2122.57 332.09 2123.55 333.55 2123.55 335.19V342.324L2123.57 342.364Z"
        stroke="#fff"
        stroke-width="2.5"
        stroke-linecap="round"
        stroke-linejoin="round"
      />
    </g>
    <circle cx="2122.07" cy="328.5" r="5.5" fill="#BBB0FF" />
  </g>
  <g clip-path="url(#clip1_10356_11761)">
    <g clip-path="url(#clip2_10356_11761)">
      <mask id="b"   maskUnits="userSpaceOnUse" x="2163" y="320" width="49" height="48">
        <path
          fill-rule="evenodd"
          clip-rule="evenodd"
          d="M2197.07 340C2203.42 340 2208.57 334.851 2208.57 328.5C2208.57 325.133 2207.13 322.103 2204.82 320H2211.57V368H2163.57V320H2189.33C2187.02 322.103 2185.57 325.133 2185.57 328.5C2185.57 334.851 2190.72 340 2197.07 340Z"
          fill="#D9D9D9"
        />
      </mask>
      <g mask="url(#b)">
        <path
          d="M2181.57 356V356.5C2181.57 359.8 2184.25 362.5 2187.57 362.5C2190.87 362.5 2193.57 359.8 2193.57 356.5V356M2199.57 347.5L2202.97 350.9C2203.33 351.26 2203.55 351.78 2203.55 352.3V353.96C2203.55 355.06 2202.65 355.96 2201.55 355.96H2173.55C2172.43 355.96 2171.55 355.06 2171.55 353.96V352.28C2171.55 351.74 2171.75 351.24 2172.13 350.86L2175.53 347.44V338.94C2175.53 332.3 2180.89 326.94 2187.53 326.94C2194.15 326.938 2199.53 332.3 2199.53 338.94L2199.57 347.5Z"
          stroke="#fff"
          stroke-width="2.5"
          stroke-linecap="round"
          stroke-linejoin="round"
        />
      </g>
    </g>
    <circle cx="2197.07" cy="328.5" r="5.5" fill="#E86164" />
  </g>
  <path
    fill-rule="evenodd"
    clip-rule="evenodd"
    d="M2262.17 327.52C2264.53 323.342 2270.52 323.353 2272.89 327.517L2272.89 327.519 2288.23 354.321 2288.23 354.323C2290.59 358.427 2287.6 363.562 2282.87 363.562H2252.23C2247.49 363.562 2244.52 358.441 2246.87 354.325L2262.17 327.524 2262.17 327.52zM2269.07 338.76C2269.07 337.932 2268.4 337.26 2267.57 337.26 2266.74 337.26 2266.07 337.932 2266.07 338.76V346.24C2266.07 347.069 2266.74 347.74 2267.57 347.74 2268.4 347.74 2269.07 347.069 2269.07 346.24V338.76zM2267.55 350.75L2267.54 350.75 2267.53 350.75C2267.49 350.75 2267.45 350.752 2267.41 350.755 2266.37 350.828 2265.55 351.69 2265.55 352.75 2265.55 353.8 2266.41 354.75 2267.55 354.75 2268.14 354.75 2268.63 354.485 2268.96 354.158 2269.29 353.832 2269.55 353.34 2269.55 352.75 2269.55 351.63 2268.67 350.84 2267.7 350.757 2267.65 350.753 2267.6 350.75 2267.55 350.75zM2347.57 324.5C2336.8 324.5 2328.07 333.211 2328.07 344 2328.07 354.769 2336.78 363.5 2347.57 363.5 2358.34 363.5 2367.07 354.77 2367.07 344 2367.07 333.23 2358.34 324.5 2347.57 324.5zM2342.97 337.279C2342.39 336.694 2341.44 336.694 2340.85 337.279 2340.27 337.865 2340.27 338.815 2340.85 339.401L2345.45 344 2340.85 348.599C2340.27 349.185 2340.27 350.135 2340.85 350.721 2341.44 351.306 2342.39 351.306 2342.97 350.721L2347.57 346.121 2352.17 350.721C2352.76 351.306 2353.71 351.306 2354.29 350.721 2354.88 350.135 2354.88 349.185 2354.29 348.599L2349.69 344 2354.29 339.401C2354.88 338.815 2354.88 337.865 2354.29 337.279 2353.71 336.694 2352.76 336.694 2352.17 337.279L2347.57 341.879 2342.97 337.279zM2408.32 344C2408.32 333.369 2416.94 324.75 2427.57 324.75 2438.2 324.75 2446.82 333.369 2446.82 344 2446.82 354.631 2438.2 363.25 2427.57 363.25 2416.94 363.25 2408.32 354.631 2408.32 344zM2435.43 340.09C2435.92 339.602 2435.92 338.81 2435.43 338.322 2434.94 337.834 2434.15 337.834 2433.66 338.322L2424.77 347.216 2421.35 343.794C2420.86 343.306 2420.07 343.306 2419.58 343.794 2419.09 344.282 2419.09 345.074 2419.58 345.562L2423.88 349.868 2423.91 349.896C2424.4 350.384 2425.19 350.384 2425.68 349.896 2425.76 349.819 2425.82 349.735 2425.87 349.646L2435.43 340.09zM16.6534 405.235C18.9889 404.268 21.4921 403.77 24.02 403.77 29.1254 403.77 34.0217 405.798 37.6318 409.408 41.2419 413.018 43.27 417.915 43.27 423.02 43.27 428.125 41.2419 433.022 37.6318 436.632 34.0217 440.242 29.1254 442.27 24.02 442.27 21.4921 442.27 18.9889 441.772 16.6534 440.805 14.3178 439.837 12.1957 438.419 10.4082 436.632 8.62069 434.844 7.20274 432.722 6.23534 430.387 5.26794 428.051 4.77002 425.548 4.77002 423.02 4.77002 420.492 5.26794 417.989 6.23534 415.653 7.20274 413.318 8.62069 411.196 10.4082 409.408 12.1957 407.621 14.3178 406.203 16.6534 405.235zM24.0698 413.04C24.0698 412.35 23.5102 411.79 22.8198 411.79 22.1295 411.79 21.5698 412.35 21.5698 413.04V424.24C21.5698 424.93 22.1295 425.49 22.8198 425.49H32.1198C32.8102 425.49 33.3698 424.93 33.3698 424.24 33.3698 423.55 32.8102 422.99 32.1198 422.99H24.0698V413.04zM84.75 424C84.75 413.349 93.3685 404.75 104 404.75 114.632 404.75 123.25 413.368 123.25 424 123.25 434.632 114.632 443.25 104 443.25 93.3488 443.25 84.75 434.632 84.75 424zM103.98 414.75L103.97 414.75 103.96 414.75C103.925 414.75 103.89 414.751 103.855 414.754 102.944 414.818 102.23 415.572 102.23 416.5 102.23 417.418 102.978 418.25 103.98 418.25 104.494 418.25 104.924 418.019 105.211 417.731 105.499 417.444 105.73 417.014 105.73 416.5 105.73 415.52 104.953 414.825 104.1 414.756 104.061 414.752 104.021 414.75 103.98 414.75zM105.25 424C105.25 423.31 104.69 422.75 104 422.75 103.31 422.75 102.75 423.31 102.75 424V434C102.75 434.69 103.31 435.25 104 435.25 104.69 435.25 105.25 434.69 105.25 434V424zM164.75 424C164.75 413.349 173.368 404.75 184 404.75 194.632 404.75 203.25 413.368 203.25 424 203.25 434.632 194.632 443.25 184 443.25 173.349 443.25 164.75 434.632 164.75 424zM185.25 416C185.25 415.31 184.69 414.75 184 414.75 183.31 414.75 182.75 415.31 182.75 416V422.75H176C175.31 422.75 174.75 423.31 174.75 424 174.75 424.69 175.31 425.25 176 425.25H182.75V432C182.75 432.69 183.31 433.25 184 433.25 184.69 433.25 185.25 432.69 185.25 432V425.25H192C192.69 425.25 193.25 424.69 193.25 424 193.25 423.31 192.69 422.75 192 422.75H185.25V416zM244.75 424C244.75 413.349 253.368 404.75 264 404.75 274.632 404.75 283.25 413.368 283.25 424 283.25 434.632 274.632 443.25 264 443.25 253.349 443.25 244.75 434.632 244.75 424zM256 422.75C255.31 422.75 254.75 423.31 254.75 424 254.75 424.69 255.31 425.25 256 425.25H272C272.69 425.25 273.25 424.69 273.25 424 273.25 423.31 272.69 422.75 272 422.75H256z"
    fill="#fff"
  />
  <path
    d="M339.874 424C338.842 424 338 424.842 338 425.874 338 426.905 338.842 427.747 339.874 427.747 340.906 427.747 341.748 426.905 341.748 425.874 341.748 424.842 340.906 424 339.874 424zM344.021 432.19C344.737 432.19 347.179 432.105 348.464 430.821 348.653 430.632 348.653 430.337 348.506 430.126 348.316 429.937 348 429.937 347.811 430.126 346.99 430.926 345.285 431.221 344.042 431.221 342.8 431.221 341.074 430.926 340.274 430.126 340.085 429.937 339.769 429.937 339.579 430.126 339.39 430.316 339.39 430.632 339.579 430.821 340.842 432.084 343.306 432.19 344.021 432.19zM346.253 425.874C346.253 426.905 347.095 427.747 348.127 427.747 349.158 427.747 350 426.905 350 425.874 350 424.842 349.158 424 348.127 424 347.095 424 346.253 424.842 346.253 425.874z"
    fill="#fff"
  />
  <path
    fill-rule="evenodd"
    clip-rule="evenodd"
    d="M362 424C362 433.941 353.941 442 344 442C334.059 442 326 433.941 326 424C326 414.059 334.059 406 344 406C353.941 406 362 414.059 362 424ZM353.369 421.368C354.821 421.368 356 422.547 356 424C356 425.074 355.348 426 354.485 426.421C354.527 426.674 354.548 426.926 354.548 427.2C354.548 431.242 349.853 434.505 344.042 434.505C338.232 434.505 333.537 431.242 333.537 427.2C333.537 426.926 333.558 426.653 333.6 426.4C332.674 425.979 332.042 425.074 332.042 424C332.042 422.547 333.221 421.368 334.674 421.368C335.369 421.368 336.021 421.663 336.485 422.105C338.295 420.779 340.8 419.958 343.6 419.874L344.927 413.6C344.969 413.474 345.032 413.368 345.137 413.305C345.242 413.242 345.369 413.221 345.495 413.242L349.853 414.168C350.148 413.537 350.779 413.116 351.516 413.116C352.548 413.116 353.39 413.958 353.39 414.99C353.39 416.021 352.548 416.863 351.516 416.863C350.506 416.863 349.685 416.063 349.642 415.074L345.748 414.253L344.548 419.874C347.285 419.979 349.769 420.821 351.558 422.105C352.021 421.642 352.653 421.368 353.369 421.368Z"
    fill="#fff"
  />
  <path
    d="M416.545 406.126C414.63 406.216 413.322 406.522 412.179 406.971 410.995 407.432 409.992 408.051 408.995 409.053 407.997 410.054 407.382 411.058 406.924 412.243 406.481 413.389 406.181 414.698 406.096 416.614 406.012 418.53 405.993 419.146 406.002 424.035 406.012 428.923 406.033 429.535 406.126 431.456 406.217 433.37 406.522 434.678 406.971 435.822 407.433 437.005 408.051 438.008 409.053 439.006 410.055 440.004 411.058 440.617 412.246 441.076 413.391 441.518 414.7 441.82 416.616 441.904 418.532 441.988 419.149 442.007 424.035 441.998 428.922 441.988 429.537 441.967 431.457 441.876 433.377 441.785 434.678 441.478 435.822 441.031 437.005 440.568 438.009 439.951 439.006 438.949 440.004 437.946 440.618 436.942 441.076 435.756 441.519 434.611 441.82 433.302 441.904 431.388 441.987 429.466 442.007 428.853 441.998 423.965 441.989 419.078 441.967 418.465 441.875 416.546 441.784 414.626 441.479 413.323 441.031 412.178 440.568 410.995 439.951 409.993 438.949 408.994 437.947 407.995 436.942 407.381 435.757 406.925 434.611 406.482 433.303 406.18 431.387 406.097 429.471 406.014 428.854 405.993 423.966 406.002 419.077 406.011 418.465 406.032 416.545 406.126zM416.755 438.666C415 438.589 414.048 438.298 413.413 438.054 412.572 437.73 411.972 437.338 411.34 436.711 410.707 436.084 410.318 435.483 409.99 434.644 409.743 434.009 409.446 433.057 409.364 431.302 409.275 429.405 409.256 428.836 409.245 424.03 409.235 419.225 409.253 418.656 409.337 416.758 409.411 415.005 409.705 414.051 409.949 413.416 410.273 412.574 410.663 411.976 411.291 411.343 411.919 410.711 412.519 410.321 413.359 409.993 413.993 409.745 414.945 409.451 416.699 409.367 418.597 409.277 419.166 409.259 423.971 409.249 428.776 409.238 429.346 409.256 431.245 409.34 432.999 409.416 433.953 409.707 434.587 409.952 435.429 410.276 436.027 410.665 436.66 411.294 437.292 411.924 437.682 412.521 438.01 413.363 438.259 413.995 438.553 414.947 438.636 416.702 438.726 418.6 438.747 419.169 438.755 423.974 438.764 428.779 438.747 429.349 438.664 431.246 438.587 433.001 438.296 433.954 438.052 434.59 437.728 435.431 437.337 436.03 436.709 436.662 436.08 437.294 435.481 437.684 434.641 438.012 434.008 438.26 433.055 438.555 431.302 438.638 429.404 438.728 428.835 438.746 424.028 438.757 419.221 438.767 418.654 438.748 416.756 438.666M431.43 414.38C431.43 414.807 431.558 415.224 431.796 415.579 432.034 415.934 432.372 416.21 432.767 416.373 433.162 416.536 433.596 416.578 434.015 416.494 434.434 416.41 434.818 416.203 435.12 415.901 435.421 415.598 435.626 415.213 435.709 414.793 435.791 414.374 435.748 413.94 435.584 413.546 435.419 413.151 435.142 412.814 434.786 412.578 434.43 412.341 434.013 412.215 433.585 412.216 433.013 412.217 432.464 412.446 432.059 412.851 431.655 413.257 431.429 413.807 431.43 414.38zM414.758 424.018C414.768 429.123 418.914 433.252 424.017 433.242 429.121 433.232 433.253 429.087 433.243 423.982 433.234 418.877 429.087 414.747 423.982 414.757 418.878 414.767 414.748 418.914 414.758 424.018zM418 424.011C417.998 422.825 418.347 421.664 419.005 420.676 419.662 419.688 420.598 418.917 421.693 418.461 422.789 418.004 423.995 417.883 425.159 418.112 426.323 418.342 427.394 418.911 428.235 419.748 429.075 420.586 429.649 421.654 429.883 422.817 430.117 423.981 430 425.187 429.548 426.285 429.096 427.382 428.329 428.321 427.344 428.982 426.358 429.643 425.199 429.997 424.012 430 423.224 430.001 422.444 429.848 421.715 429.548 420.986 429.248 420.324 428.807 419.766 428.251 419.207 427.695 418.764 427.034 418.461 426.307 418.158 425.579 418.001 424.799 418 424.011zM507.044 421.397L518.957 407H516.134L505.79 419.5 497.529 407H488L500.493 425.903 488 441H490.823L501.746 427.799 510.471 441H520L507.044 421.397H507.044zM503.178 426.069L501.912 424.187 491.84 409.209H496.176L504.304 421.297 505.57 423.179 516.135 438.891H511.799L503.178 426.07V426.069zM602 424.112C602 414.114 593.936 406 584 406 574.064 406 566 414.114 566 424.112 566 433.159 572.581 440.657 581.201 442V429.335H576.603V424.112H581.201V420.12C581.201 415.588 583.87 413.069 587.986 413.069 589.951 413.069 591.99 413.442 591.99 413.442V417.863H589.728C587.485 417.863 586.781 419.281 586.781 420.698V424.093H591.786L590.989 429.316H586.781V441.981C595.419 440.657 602 433.159 602 424.112z"
    fill="#fff"
  />
  <path
    fill-rule="evenodd"
    clip-rule="evenodd"
    d="M678.068 411.777C679.617 412.205 680.835 413.461 681.25 415.06H681.247C682 417.956 682 424 682 424C682 424 682 430.044 681.247 432.94C680.832 434.539 679.614 435.795 678.065 436.223C675.258 437 664 437 664 437C664 437 652.742 437 649.935 436.223C648.386 435.795 647.168 434.539 646.753 432.94C646 430.044 646 424 646 424C646 424 646 417.956 646.753 415.06C647.168 413.461 648.386 412.205 649.935 411.777C652.742 411 664 411 664 411C664 411 675.258 411 678.068 411.777ZM669.755 424L660.399 418.429V429.571L669.755 424Z"
    fill="#fff"
  />
  <path
    d="M755.22 413.216C753.244 411.951 751.817 409.929 751.372 407.571C751.276 407.061 751.223 406.537 751.223 406H744.914L744.904 430.804C744.798 433.582 742.468 435.811 739.611 435.811C738.723 435.811 737.887 435.594 737.151 435.213C735.463 434.342 734.308 432.606 734.308 430.608C734.308 427.739 736.687 425.405 739.611 425.405C740.157 425.405 740.68 425.494 741.176 425.646V419.327C740.663 419.259 740.142 419.216 739.611 419.216C733.209 419.217 728 424.327 728 430.608C728 434.462 729.963 437.873 732.957 439.935C734.843 441.234 737.138 442 739.612 442C746.014 442 751.223 436.89 751.223 430.608V418.031C753.697 419.773 756.729 420.8 760 420.8V414.61C758.238 414.61 756.597 414.097 755.22 413.216Z"
    fill="#fff"
  />
  <path
    fill-rule="evenodd"
    clip-rule="evenodd"
    d="M838 442H810C807.791 442 806 440.209 806 438V410C806 407.791 807.791 406 810 406H838C840.209 406 842 407.791 842 410V438C842 440.209 840.209 442 838 442ZM831.658 437H837V426.026C837 421.382 834.368 419.137 830.691 419.137C827.013 419.137 825.465 422.002 825.465 422.002V419.667H820.317V437H825.465V427.901C825.465 425.463 826.587 424.012 828.735 424.012C830.71 424.012 831.658 425.406 831.658 427.901V437ZM811 414.199C811 415.965 812.421 417.397 814.175 417.397C815.928 417.397 817.348 415.965 817.348 414.199C817.348 412.432 815.928 411 814.175 411C812.421 411 811 412.432 811 414.199ZM816.885 437H811.516V419.667H816.885V437Z"
    fill="#fff"
  />
  <path
    d="M917.884 412.345C915.256 411.234 912.481 410.445 909.632 410C909.242 410.644 908.889 411.306 908.574 411.985C905.539 411.562 902.452 411.562 899.416 411.985C899.102 411.306 898.749 410.644 898.359 410C895.507 410.449 892.731 411.239 890.1 412.351C884.878 419.487 883.462 426.447 884.17 433.307C887.228 435.394 890.652 436.982 894.291 438C895.11 436.982 895.836 435.902 896.459 434.772C895.275 434.363 894.133 433.86 893.045 433.267C893.331 433.075 893.611 432.877 893.882 432.685C897.047 434.06 900.502 434.773 904 434.773C907.498 434.773 910.953 434.06 914.118 432.685C914.392 432.892 914.672 433.089 914.955 433.267C913.865 433.861 912.72 434.365 911.535 434.775C912.157 435.905 912.882 436.984 913.703 438C917.345 436.986 920.771 435.399 923.83 433.31C924.661 425.354 922.411 418.459 917.884 412.345ZM897.355 429.088C895.383 429.088 893.753 427.435 893.753 425.401C893.753 423.367 895.326 421.699 897.349 421.699C899.372 421.699 900.989 423.367 900.954 425.401C900.92 427.435 899.366 429.088 897.355 429.088ZM910.645 429.088C908.669 429.088 907.045 427.435 907.045 425.401C907.045 423.367 908.618 421.699 910.645 421.699C912.671 421.699 914.275 423.367 914.241 425.401C914.206 427.435 912.655 429.088 910.645 429.088Z"
    fill="#fff"
  />
  <path
    fill-rule="evenodd"
    clip-rule="evenodd"
    d="M984.015 406C974.053 406 966 414.25 966 424.456C966 432.615 971.16 439.521 978.318 441.965C979.213 442.149 979.541 441.568 979.541 441.079C979.541 440.651 979.511 439.185 979.511 437.657C974.5 438.757 973.456 435.457 973.456 435.457C972.651 433.318 971.458 432.768 971.458 432.768C969.818 431.637 971.577 431.637 971.577 431.637C973.397 431.759 974.351 433.532 974.351 433.532C975.962 436.343 978.557 435.548 979.601 435.059C979.75 433.868 980.227 433.043 980.734 432.584C976.737 432.157 972.532 430.568 972.532 423.478C972.532 421.462 973.247 419.812 974.381 418.528C974.202 418.07 973.576 416.175 974.56 413.639C974.56 413.639 976.081 413.15 979.511 415.534C980.979 415.13 982.494 414.924 984.015 414.922C985.536 414.922 987.087 415.136 988.518 415.534C991.949 413.15 993.47 413.639 993.47 413.639C994.454 416.175 993.827 418.07 993.648 418.528C994.812 419.812 995.498 421.462 995.498 423.478C995.498 430.568 991.293 432.126 987.266 432.584C987.922 433.165 988.489 434.265 988.489 436.007C988.489 438.482 988.459 440.468 988.459 441.079C988.459 441.568 988.787 442.149 989.682 441.965C996.84 439.52 1002 432.615 1002 424.456C1002.03 414.25 993.947 406 984.015 406Z"
    fill="#fff"
  />
  <defs>
    <clipPath id="clip0_10356_11761">
      <path fill="#fff" transform="translate(2083.57 320)" d="M0 0H48V48H0z" />
    </clipPath>
    <clipPath id="clip1_10356_11761">
      <path fill="#fff" transform="translate(2163.57 320)" d="M0 0H48V48H0z" />
    </clipPath>
    <clipPath id="clip2_10356_11761">
      <path fill="#fff" transform="translate(2163.57 320)" d="M0 0H48V48H0z" />
    </clipPath>
  </defs>
</svg>
