<svg width="2526" height="58" viewBox="0 0 2526 58" fill="none" xmlns="http://www.w3.org/2000/svg">
  <rect width="2526" height="58" rx="16" fill="#fff" fill-opacity=".1" />
  <path
    d="M19.6364 21.4545L22.8395 26.7812H22.9531L26.1705 21.4545H29.1747L24.6932 28.7273L29.2457 36H26.1918L22.9531 30.7088H22.8395L19.6009 36H16.5611L21.1562 28.7273L16.6179 21.4545H19.6364ZM38.5481 25.4531C38.4131 24.2173 37.3762 23.4858 35.8066 23.4858C34.1589 23.4858 33.1788 24.2884 33.1717 25.3821C33.1575 26.5966 34.4501 27.1009 35.6433 27.3849L37.0069 27.7259C39.1944 28.2443 41.2754 29.3949 41.2825 31.9162C41.2754 34.4801 39.2512 36.2202 35.764 36.2202C32.3762 36.2202 30.2242 34.5938 30.1177 31.7031H32.71C32.8165 33.2301 34.095 33.9688 35.7427 33.9688C37.4614 33.9688 38.6404 33.1378 38.6475 31.8949C38.6404 30.7656 37.6035 30.2756 36.0339 29.8778L34.379 29.4517C31.9856 28.8338 30.5012 27.6335 30.5012 25.5455C30.4941 22.9744 32.7881 21.2557 35.8421 21.2557C38.9387 21.2557 41.0339 22.9957 41.0836 25.4531H38.5481ZM53.2163 20.7727L48.5288 38.1875H46.2774L50.9649 20.7727H53.2163ZM64.5057 21.4545V36H61.8707V24.0185H61.7855L58.3835 26.1918V23.777L61.9986 21.4545H64.5057ZM72.9256 36.1989C70.1344 36.1847 67.3645 34.473 67.3716 29.1392C67.3716 24.1676 69.5804 21.2557 73.0747 21.2557C75.8233 21.2557 77.7196 23.0241 78.0321 25.375H75.4398C75.1699 24.2599 74.3247 23.5355 73.0747 23.5355C71.0577 23.5355 69.9355 25.3963 69.9284 28.4574H70.0278C70.7239 27.2074 72.1017 26.4474 73.6642 26.4474C76.2139 26.4474 78.1741 28.4361 78.167 31.1847C78.1741 34.0611 76.0648 36.2202 72.9256 36.1989ZM72.9114 34.0682C74.4526 34.0682 75.6173 32.8324 75.6102 31.2415C75.6173 29.679 74.4881 28.4574 72.9469 28.4574C71.4057 28.4574 70.2267 29.7358 70.2125 31.2628C70.2196 32.7827 71.356 34.0682 72.9114 34.0682ZM79.996 40.0909V25.0909H82.5244V26.8949H82.6736C83.0642 26.1065 83.8668 24.9489 85.7915 24.9489C88.3128 24.9489 90.2943 26.9233 90.2943 30.5597C90.2943 34.1534 88.3696 36.1918 85.7986 36.1918C83.9236 36.1918 83.0784 35.0767 82.6736 34.2812H82.567V40.0909H79.996ZM82.5173 30.5455C82.5173 32.6619 83.4406 34.0824 85.0812 34.0824C86.7787 34.0824 87.6736 32.5909 87.6736 30.5455C87.6736 28.5142 86.7929 27.0582 85.0812 27.0582C83.4264 27.0582 82.5173 28.429 82.5173 30.5455ZM93.5881 25.0909L95.7898 29.1179L98.0271 25.0909H100.747L97.4589 30.5455L100.804 36H98.0981L95.7898 32.0724L93.5029 36H90.7756L94.0995 30.5455L90.8609 25.0909H93.5881ZM112.434 20.7727L107.747 38.1875H105.495L110.183 20.7727H112.434ZM125.854 25.4531C125.719 24.2173 124.682 23.4858 123.113 23.4858C121.465 23.4858 120.485 24.2884 120.478 25.3821C120.464 26.5966 121.756 27.1009 122.95 27.3849L124.313 27.7259C126.501 28.2443 128.582 29.3949 128.589 31.9162C128.582 34.4801 126.557 36.2202 123.07 36.2202C119.682 36.2202 117.53 34.5938 117.424 31.7031H120.016C120.123 33.2301 121.401 33.9688 123.049 33.9688C124.768 33.9688 125.947 33.1378 125.954 31.8949C125.947 30.7656 124.91 30.2756 123.34 29.8778L121.685 29.4517C119.292 28.8338 117.807 27.6335 117.807 25.5455C117.8 22.9744 120.094 21.2557 123.148 21.2557C126.245 21.2557 128.34 22.9957 128.39 25.4531H125.854ZM135.672 25.0909V27.0795H133.52V32.7188C133.52 33.7557 134.038 33.983 134.684 33.983C135.004 33.983 135.295 33.919 135.437 33.8835L135.87 35.8935C135.593 35.9858 135.089 36.1278 134.358 36.1491C132.426 36.206 130.934 35.1974 130.949 33.1449V27.0795H129.4V25.0909H130.949V22.4773H133.52V25.0909H135.672ZM137.222 36V25.0909H139.715V26.9091H139.828C140.226 25.6449 141.27 24.9347 142.52 24.9347C142.804 24.9347 143.209 24.9631 143.443 25.0057V27.3707C143.223 27.2997 142.683 27.2216 142.25 27.2216C140.837 27.2216 139.793 28.2017 139.793 29.5866V36H137.222ZM148.861 36.2131C145.665 36.2131 143.634 33.9616 143.634 30.5881C143.634 27.2074 145.665 24.9489 148.861 24.9489C152.057 24.9489 154.088 27.2074 154.088 30.5881C154.088 33.9616 152.057 36.2131 148.861 36.2131ZM148.875 34.1534C150.615 34.1534 151.482 32.5767 151.482 30.581C151.482 28.5852 150.615 26.9872 148.875 26.9872C147.107 26.9872 146.24 28.5852 146.24 30.581C146.24 32.5767 147.107 34.1534 148.875 34.1534ZM155.67 36V21.4545H158.241V29.473H158.419L162.339 25.0909H165.344L161.118 29.7997L165.592 36H162.517L159.179 31.3338L158.241 32.3352V36H155.67ZM170.837 36.2131C167.549 36.2131 165.539 34.0327 165.539 30.6094C165.539 27.2429 167.577 24.9489 170.702 24.9489C173.387 24.9489 175.688 26.6321 175.688 30.4602V31.2486H168.089C168.11 33.1165 169.211 34.2102 170.873 34.2102C171.981 34.2102 172.833 33.7273 173.181 32.804L175.582 33.0739C175.127 34.9702 173.38 36.2131 170.837 36.2131ZM168.096 29.5156H173.224C173.209 28.0312 172.215 26.9517 170.738 26.9517C169.204 26.9517 168.174 28.1236 168.096 29.5156ZM187.512 21.4545V36H184.877V24.0185H184.792L181.39 26.1918V23.777L185.005 21.4545H187.512ZM191.417 36.1562C190.55 36.1562 189.847 35.4602 189.854 34.5938C189.847 33.7415 190.55 33.0455 191.417 33.0455C192.255 33.0455 192.972 33.7415 192.979 34.5938C192.972 35.4602 192.255 36.1562 191.417 36.1562ZM199.737 36.1989C196.669 36.1989 194.474 34.5014 194.403 32.044H197.074C197.138 33.2301 198.267 33.9901 199.73 33.9901C201.285 33.9901 202.4 33.1094 202.393 31.8239C202.4 30.5099 201.307 29.5866 199.467 29.5866H198.182V27.5554H199.467C200.973 27.5554 202.024 26.7102 202.017 25.4389C202.024 24.2173 201.122 23.3935 199.765 23.3935C198.423 23.3935 197.287 24.1534 197.244 25.375H194.709C194.765 22.9389 196.953 21.2557 199.78 21.2557C202.684 21.2557 204.574 23.0668 204.567 25.2827C204.574 26.9162 203.515 28.0881 201.939 28.429V28.5426C203.977 28.8338 205.113 30.1406 205.106 31.9588C205.113 34.4162 202.848 36.1989 199.737 36.1989ZM206.973 40.0909V25.0909H209.501V26.8949H209.65C210.041 26.1065 210.843 24.9489 212.768 24.9489C215.289 24.9489 217.271 26.9233 217.271 30.5597C217.271 34.1534 215.346 36.1918 212.775 36.1918C210.9 36.1918 210.055 35.0767 209.65 34.2812H209.544V40.0909H206.973ZM209.494 30.5455C209.494 32.6619 210.417 34.0824 212.058 34.0824C213.755 34.0824 214.65 32.5909 214.65 30.5455C214.65 28.5142 213.769 27.0582 212.058 27.0582C210.403 27.0582 209.494 28.429 209.494 30.5455ZM220.565 25.0909L222.766 29.1179L225.004 25.0909H227.724L224.435 30.5455L227.781 36H225.075L222.766 32.0724L220.479 36H217.752L221.076 30.5455L217.837 25.0909H220.565Z"
    fill="#fff"
  />
</svg>
